<?xml version="1.0" encoding="UTF-8" standalone="no"?>
<!-- Created with Inkscape (http://www.inkscape.org/) -->

<svg
   xmlns:dc="http://purl.org/dc/elements/1.1/"
   xmlns:cc="http://creativecommons.org/ns#"
   xmlns:rdf="http://www.w3.org/1999/02/22-rdf-syntax-ns#"
   xmlns:svg="http://www.w3.org/2000/svg"
   xmlns="http://www.w3.org/2000/svg"
   xmlns:xlink="http://www.w3.org/1999/xlink"
   xmlns:sodipodi="http://sodipodi.sourceforge.net/DTD/sodipodi-0.dtd"
   xmlns:inkscape="http://www.inkscape.org/namespaces/inkscape"
   width="744.09448819"
   height="1052.3622047"
   id="svg2"
   version="1.1"
   inkscape:version="0.48.1 r9760"
   sodipodi:docname="network-fig-020.svg">
  <defs
     id="defs4">
    <marker
       inkscape:stockid="Arrow1Mstart"
       orient="auto"
       refY="0.0"
       refX="0.0"
       id="Arrow1Mstart"
       style="overflow:visible">
      <path
         id="path4218"
         d="M 0.0,0.0 L 5.0,-5.0 L -12.5,0.0 L 5.0,5.0 L 0.0,0.0 z "
         style="fill-rule:evenodd;stroke:#000000;stroke-width:1.0pt;marker-start:none"
         transform="scale(0.4) translate(10,0)" />
    </marker>
    <marker
       inkscape:stockid="Arrow1Mend"
       orient="auto"
       refY="0.0"
       refX="0.0"
       id="Arrow1Mend"
       style="overflow:visible;">
      <path
         id="path4221"
         d="M 0.0,0.0 L 5.0,-5.0 L -12.5,0.0 L 5.0,5.0 L 0.0,0.0 z "
         style="fill-rule:evenodd;stroke:#000000;stroke-width:1.0pt;marker-start:none;"
         transform="scale(0.4) rotate(180) translate(10,0)" />
    </marker>
    <inkscape:perspective
       sodipodi:type="inkscape:persp3d"
       inkscape:vp_x="25.575452 : 296.00207 : 1"
       inkscape:vp_y="0 : 1000 : 0"
       inkscape:vp_z="-3859.4861 : -125.99279 : 1"
       inkscape:persp3d-origin="372.04724 : 350.78739 : 1"
       id="perspective3765" />
    <clipPath
       clipPathUnits="userSpaceOnUse"
       id="clipPath3942">
      <path
         sodipodi:nodetypes="sccccccssssss"
         inkscape:connector-curvature="0"
         id="path3944"
         d="M 356.01315,306.19369 208.40966,358.0489 C 183.60102,367.23985 178.75,377.63475 178.75,399.46198 l 0,19.36215 c -0.0839,26.33425 8.0136,41.81513 27.40489,53.64615 l 191.1148,116.6031 c 52.19137,34.33753 66.88915,36.15338 106.73126,2.2979 L 630.90785,483.53329 C 656.46714,461.81452 660,447.47873 660,420.90608 l 0,-21.86049 c 0,-40.27542 -13.95078,-37.78908 -43.51485,-45.05992 L 415.73066,304.61313 c -27.67049,-6.80514 -38.71949,-5.79634 -59.71751,1.58056 z"
         style="fill:#e6e6e6;stroke:none" />
    </clipPath>
    <linearGradient
       id="linearGradient4057">
      <stop
         style="stop-color:#e6e6e6;stop-opacity:1;"
         offset="0"
         id="stop4059" />
      <stop
         id="stop4073"
         offset="0.5"
         style="stop-color:#ffffff;stop-opacity:1;" />
      <stop
         style="stop-color:#f2f2f2;stop-opacity:1;"
         offset="1"
         id="stop4061" />
    </linearGradient>
    <linearGradient
       id="linearGradient3779">
      <stop
         style="stop-color:#e6e6e6;stop-opacity:1;"
         offset="0"
         id="stop3781" />
      <stop
         style="stop-color:#cccccc;stop-opacity:1;"
         offset="1"
         id="stop3783" />
    </linearGradient>
    <linearGradient
       id="linearGradient3791">
      <stop
         style="stop-color:#f2f2f2;stop-opacity:1"
         offset="0"
         id="stop3793" />
      <stop
         id="stop3799"
         offset="0.5"
         style="stop-color:#e6e6e6;stop-opacity:1;" />
      <stop
         style="stop-color:#cccccc;stop-opacity:1"
         offset="1"
         id="stop3795" />
    </linearGradient>
    <linearGradient
       id="linearGradient3803">
      <stop
         style="stop-color:#f2f2f2;stop-opacity:1"
         offset="0"
         id="stop3805" />
      <stop
         id="stop3813"
         offset="0.49337894"
         style="stop-color:#f2f2f2;stop-opacity:1" />
      <stop
         id="stop3811"
         offset="0.77284133"
         style="stop-color:#dfdfdf;stop-opacity:1" />
      <stop
         style="stop-color:#cccccc;stop-opacity:1"
         offset="1"
         id="stop3807" />
    </linearGradient>
    <linearGradient
       id="linearGradient3828">
      <stop
         id="stop3830"
         offset="0"
         style="stop-color:#c6c6c6;stop-opacity:1" />
      <stop
         style="stop-color:#ffffff;stop-opacity:1"
         offset="0.78992409"
         id="stop3832" />
      <stop
         id="stop3834"
         offset="1"
         style="stop-color:#a4a4a4;stop-opacity:1" />
    </linearGradient>
    <linearGradient
       id="linearGradient3812">
      <stop
         id="stop3814"
         offset="0"
         style="stop-color:#c6c6c6;stop-opacity:1" />
      <stop
         style="stop-color:#ffffff;stop-opacity:1"
         offset="0.67352772"
         id="stop3816" />
      <stop
         id="stop3818"
         offset="1"
         style="stop-color:#a4a4a4;stop-opacity:1" />
    </linearGradient>
    <linearGradient
       inkscape:collect="always"
       xlink:href="#linearGradient3791-7"
       id="linearGradient3802"
       x1="191.33949"
       y1="66.831039"
       x2="341.43875"
       y2="237.1226"
       gradientUnits="userSpaceOnUse" />
    <linearGradient
       id="linearGradient3791-7">
      <stop
         style="stop-color:#c6c6c6;stop-opacity:1"
         offset="0"
         id="stop3793-0" />
      <stop
         id="stop3799-2"
         offset="0.6002928"
         style="stop-color:#ffffff;stop-opacity:1" />
      <stop
         style="stop-color:#a4a4a4;stop-opacity:1"
         offset="1"
         id="stop3795-9" />
    </linearGradient>
    <linearGradient
       inkscape:collect="always"
       xlink:href="#linearGradient3812"
       id="linearGradient4108"
       gradientUnits="userSpaceOnUse"
       gradientTransform="translate(617.12268,-0.2167162)"
       x1="461.98953"
       y1="108.88345"
       x2="619.95941"
       y2="262.00278" />
    <filter
       color-interpolation-filters="sRGB"
       inkscape:menu-tooltip="Adds a colorizable drop shadow inside"
       inkscape:menu="Shadows and Glows"
       inkscape:label="Inner Shadow"
       id="filter6096">
      <feGaussianBlur
         result="result8"
         stdDeviation="2"
         id="feGaussianBlur6098" />
      <feOffset
         result="result11"
         dy="3"
         dx="3"
         id="feOffset6100" />
      <feComposite
         operator="in"
         in="SourceGraphic"
         result="result6"
         in2="result11"
         id="feComposite6102" />
      <feFlood
         flood-color="rgb(0,0,0)"
         flood-opacity="1"
         in="result6"
         result="result10"
         id="feFlood6104" />
      <feBlend
         result="result12"
         in="result6"
         mode="normal"
         in2="result10"
         id="feBlend6106" />
      <feComposite
         operator="in"
         result="result2"
         in2="SourceGraphic"
         id="feComposite6108" />
    </filter>
    <linearGradient
       inkscape:collect="always"
       xlink:href="#linearGradient3791-7"
       id="linearGradient6663"
       gradientUnits="userSpaceOnUse"
       gradientTransform="translate(725.41804,275.42844)"
       x1="191.33949"
       y1="66.831039"
       x2="341.43875"
       y2="237.1226" />
    <linearGradient
       inkscape:collect="always"
       xlink:href="#linearGradient3791-7"
       id="linearGradient6677"
       gradientUnits="userSpaceOnUse"
       gradientTransform="translate(725.41804,275.42844)"
       x1="191.33949"
       y1="66.831039"
       x2="341.43875"
       y2="237.1226" />
    <linearGradient
       inkscape:collect="always"
       xlink:href="#linearGradient3791-7"
       id="linearGradient4167"
       gradientUnits="userSpaceOnUse"
       gradientTransform="translate(684.47177,337.03642)"
       x1="191.33949"
       y1="66.831039"
       x2="341.43875"
       y2="237.1226" />
    <linearGradient
       inkscape:collect="always"
       xlink:href="#linearGradient3812"
       id="linearGradient4331"
       gradientUnits="userSpaceOnUse"
       gradientTransform="translate(617.12268,-0.2167162)"
       x1="461.98953"
       y1="108.88345"
       x2="619.95941"
       y2="262.00278" />
    <linearGradient
       inkscape:collect="always"
       xlink:href="#linearGradient3812"
       id="linearGradient4347"
       gradientUnits="userSpaceOnUse"
       gradientTransform="translate(617.12268,-0.2167162)"
       x1="461.98953"
       y1="108.88345"
       x2="619.95941"
       y2="262.00278" />
    <linearGradient
       inkscape:collect="always"
       xlink:href="#linearGradient3812"
       id="linearGradient4361"
       gradientUnits="userSpaceOnUse"
       gradientTransform="translate(617.12268,-0.2167162)"
       x1="461.98953"
       y1="108.88345"
       x2="619.95941"
       y2="262.00278" />
    <linearGradient
       inkscape:collect="always"
       xlink:href="#linearGradient3812"
       id="linearGradient4374"
       gradientUnits="userSpaceOnUse"
       gradientTransform="translate(478.2512,285.39754)"
       x1="461.98953"
       y1="108.88345"
       x2="619.95941"
       y2="262.00278" />
    <linearGradient
       id="linearGradient3828-8">
      <stop
         id="stop3830-4"
         offset="0"
         style="stop-color:#c6c6c6;stop-opacity:1" />
      <stop
         style="stop-color:#ffffff;stop-opacity:1"
         offset="0.78992409"
         id="stop3832-2" />
      <stop
         id="stop3834-8"
         offset="1"
         style="stop-color:#a4a4a4;stop-opacity:1" />
    </linearGradient>
    <filter
       color-interpolation-filters="sRGB"
       inkscape:menu-tooltip="Adds a colorizable drop shadow inside"
       inkscape:menu="Shadows and Glows"
       inkscape:label="Inner Shadow"
       id="filter6096-2">
      <feGaussianBlur
         result="result8"
         stdDeviation="2"
         id="feGaussianBlur6098-5" />
      <feOffset
         result="result11"
         dy="3"
         dx="3"
         id="feOffset6100-2" />
      <feComposite
         operator="in"
         in="SourceGraphic"
         result="result6"
         in2="result11"
         id="feComposite6102-5" />
      <feFlood
         flood-color="rgb(0,0,0)"
         flood-opacity="1"
         in="result6"
         result="result10"
         id="feFlood6104-0" />
      <feBlend
         result="result12"
         in="result6"
         mode="normal"
         in2="result10"
         id="feBlend6106-2" />
      <feComposite
         operator="in"
         result="result2"
         in2="SourceGraphic"
         id="feComposite6108-3" />
    </filter>
    <linearGradient
       inkscape:collect="always"
       xlink:href="#linearGradient3791-7"
       id="linearGradient4575"
       gradientUnits="userSpaceOnUse"
       gradientTransform="translate(684.47177,337.03642)"
       x1="191.33949"
       y1="66.831039"
       x2="341.43875"
       y2="237.1226" />
    <linearGradient
       inkscape:collect="always"
       xlink:href="#linearGradient3791-7"
       id="linearGradient4603"
       gradientUnits="userSpaceOnUse"
       gradientTransform="translate(684.47177,337.03642)"
       x1="191.33949"
       y1="66.831039"
       x2="341.43875"
       y2="237.1226" />
    <linearGradient
       inkscape:collect="always"
       xlink:href="#linearGradient3828"
       id="linearGradient4667"
       gradientUnits="userSpaceOnUse"
       gradientTransform="translate(1459.4894,-267.50615)"
       x1="285.37332"
       y1="266.17728"
       x2="440.62744"
       y2="422.15863" />
    <linearGradient
       inkscape:collect="always"
       xlink:href="#linearGradient3828-8"
       id="linearGradient4669"
       gradientUnits="userSpaceOnUse"
       gradientTransform="translate(617.12268,-0.2167162)"
       x1="285.37332"
       y1="266.17728"
       x2="440.62744"
       y2="422.15863" />
    <linearGradient
       inkscape:collect="always"
       xlink:href="#linearGradient3828"
       id="linearGradient4687"
       gradientUnits="userSpaceOnUse"
       gradientTransform="translate(1459.4894,-267.50615)"
       x1="285.37332"
       y1="266.17728"
       x2="440.62744"
       y2="422.15863" />
    <linearGradient
       inkscape:collect="always"
       xlink:href="#linearGradient3828"
       id="linearGradient4706"
       gradientUnits="userSpaceOnUse"
       gradientTransform="translate(1459.4894,-267.50615)"
       x1="285.37332"
       y1="266.17728"
       x2="440.62744"
       y2="422.15863" />
    <filter
       inkscape:collect="always"
       id="filter5066"
       x="-0.06584705"
       width="1.1316941"
       y="-0.17709697"
       height="1.3541939">
      <feGaussianBlur
         inkscape:collect="always"
         stdDeviation="6.0009211"
         id="feGaussianBlur5068" />
    </filter>
    <linearGradient
       inkscape:collect="always"
       xlink:href="#linearGradient3791-7"
       id="linearGradient5132"
       gradientUnits="userSpaceOnUse"
       gradientTransform="translate(617.12268,-0.2167162)"
       x1="191.33949"
       y1="66.831039"
       x2="341.43875"
       y2="237.1226" />
    <linearGradient
       inkscape:collect="always"
       xlink:href="#linearGradient3791-7"
       id="linearGradient6520"
       gradientUnits="userSpaceOnUse"
       gradientTransform="translate(617.12268,-0.2167162)"
       x1="191.33949"
       y1="66.831039"
       x2="341.43875"
       y2="237.1226" />
    <linearGradient
       inkscape:collect="always"
       xlink:href="#linearGradient3791-7"
       id="linearGradient6522"
       gradientUnits="userSpaceOnUse"
       gradientTransform="translate(617.12268,-0.2167162)"
       x1="191.33949"
       y1="66.831039"
       x2="341.43875"
       y2="237.1226" />
    <linearGradient
       inkscape:collect="always"
       xlink:href="#linearGradient3791-7"
       id="linearGradient6524"
       gradientUnits="userSpaceOnUse"
       gradientTransform="translate(617.12268,-0.2167162)"
       x1="191.33949"
       y1="66.831039"
       x2="341.43875"
       y2="237.1226" />
    <linearGradient
       inkscape:collect="always"
       xlink:href="#linearGradient3791-7"
       id="linearGradient6526"
       gradientUnits="userSpaceOnUse"
       gradientTransform="translate(617.12268,-0.2167162)"
       x1="191.33949"
       y1="66.831039"
       x2="341.43875"
       y2="237.1226" />
    <linearGradient
       inkscape:collect="always"
       xlink:href="#linearGradient3791-7"
       id="linearGradient6528"
       gradientUnits="userSpaceOnUse"
       gradientTransform="translate(617.12268,-0.2167162)"
       x1="191.33949"
       y1="66.831039"
       x2="341.43875"
       y2="237.1226" />
  </defs>
  <sodipodi:namedview
     id="base"
     pagecolor="#ffffff"
     bordercolor="#666666"
     borderopacity="1.0"
     inkscape:pageopacity="0.0"
     inkscape:pageshadow="2"
     inkscape:zoom="1.0729879"
     inkscape:cx="300.85313"
     inkscape:cy="742.23544"
     inkscape:document-units="px"
     inkscape:current-layer="g8348"
     showgrid="false"
     inkscape:window-width="1280"
     inkscape:window-height="679"
     inkscape:window-x="0"
     inkscape:window-y="0"
     inkscape:window-maximized="0" />
  <metadata
     id="metadata7">
    <rdf:RDF>
      <cc:Work
         rdf:about="">
        <dc:format>image/svg+xml</dc:format>
        <dc:type
           rdf:resource="http://purl.org/dc/dcmitype/StillImage" />
        <dc:title></dc:title>
      </cc:Work>
    </rdf:RDF>
  </metadata>
  <g
     inkscape:label="Layer 1"
     inkscape:groupmode="layer"
     id="layer1">
    <g
       id="g8348">
      <text
         xml:space="preserve"
         style="font-size:48px;font-style:normal;font-variant:normal;font-weight:normal;font-stretch:normal;line-height:125%;letter-spacing:0px;word-spacing:0px;fill:#000000;fill-opacity:1;stroke:none;font-family:FreeSans;-inkscape-font-specification:FreeSans"
         x="610.57544"
         y="292.91492"
         id="text5136"
         sodipodi:linespacing="125%"><tspan
           y="292.91492"
           x="610.57544"
           sodipodi:role="line"
           id="tspan5138"></tspan></text>
      <g
         id="g7512">
        <path
           style="fill:none;stroke:#000000;stroke-width:0.73353553px;stroke-linecap:butt;stroke-linejoin:miter;stroke-opacity:1"
           d="M 411.2975,339.98502 539.26163,251.45603"
           id="path4147"
           inkscape:connector-curvature="0" />
        <path
           inkscape:connector-curvature="0"
           id="path4145"
           d="m 376.55611,262.45342 0,65.43448"
           style="fill:none;stroke:#000000;stroke-width:0.73353553px;stroke-linecap:butt;stroke-linejoin:miter;stroke-opacity:1" />
        <path
           inkscape:connector-curvature="0"
           id="path4143"
           d="m 224.85203,347.6832 130.28022,0"
           style="fill:none;stroke:#000000;stroke-width:0.73353553px;stroke-linecap:butt;stroke-linejoin:miter;stroke-opacity:1" />
        <path
           inkscape:connector-curvature="0"
           id="path4141"
           d="m 405.50727,244.8576 130.28022,0"
           style="fill:none;stroke:#000000;stroke-width:0.73353553px;stroke-linecap:butt;stroke-linejoin:miter;stroke-opacity:1" />
        <path
           style="fill:none;stroke:#000000;stroke-width:0.73353553px;stroke-linecap:butt;stroke-linejoin:miter;stroke-opacity:1"
           d="m 198.21697,263.00329 0,65.43448"
           id="path4139"
           inkscape:connector-curvature="0" />
        <path
           style="fill:none;stroke:#000000;stroke-width:0.73353553px;stroke-linecap:butt;stroke-linejoin:miter;stroke-opacity:1"
           d="m 224.27301,245.95733 130.28022,0"
           id="path4135"
           inkscape:connector-curvature="0" />
        <g
           id="layer1-9"
           inkscape:label="Layer 1"
           transform="matrix(0.24824822,0,0,0.23574899,102.67401,179.26786)">
          <g
             transform="translate(-696.91599,42.622332)"
             id="g5084">
            <path
               transform="matrix(1.3571031,0,0,1.3571031,895.90835,-503.35079)"
               style="fill:#4d4d4d;stroke:#000000;stroke-width:1px;stroke-linecap:butt;stroke-linejoin:miter;stroke-opacity:1;filter:url(#filter5066)"
               d="m 51.788783,625.96168 82.843307,-81.32387 135.87888,0 -83.1976,81.32387 z"
               id="path5070"
               inkscape:connector-curvature="0"
               sodipodi:nodetypes="ccccc" />
            <g
               id="g4916"
               transform="translate(264.75718,34.82325)">
              <path
                 style="fill:url(#linearGradient6520);fill-opacity:1;stroke:#000000;stroke-width:2.05605698;stroke-miterlimit:4;stroke-opacity:1"
                 d="m 785.70878,118.97004 -56.59473,55.71442 c -13.78044,13.56606 -14.30633,19.13157 -14.30633,37.31346 l 0,32.27182 c -2.65923,52.9485 4.62826,54.85734 49.69543,54.85734 l 107.78788,0 c 19.51576,0 24.20357,-2.22187 37.22745,-15.04115 l 48.4704,-47.70893 c 17.80069,-17.52104 18.86332,-31.45109 18.86332,-52.77827 l 0,-39.37162 c 0,-38.51353 -11.3124,-36.78877 -41.30841,-36.78877 l -118.11485,0 c -16.40928,0 -20.82318,0.8042 -31.72016,11.5317 z"
                 id="path4918"
                 inkscape:connector-curvature="0"
                 sodipodi:nodetypes="sssccssssssss" />
              <path
                 style="fill:#ececec;stroke:#000000;stroke-width:2.05605698;stroke-miterlimit:4;stroke-opacity:1"
                 d="m 754.82159,188.76221 95.5246,0 c 42.50123,0 43.88965,9.71253 43.88965,43.24424 l 0,29.69007 c 0,42.93937 -17.17642,37.43531 -49.69858,37.43531 l -81.32499,0 c -44.39315,0 -48.40776,-5.68103 -48.40776,-41.30793 l 0,-29.04463 c 0,-39.8786 7.8844,-40.01706 40.01708,-40.01706 z"
                 id="path4920"
                 inkscape:connector-curvature="0"
                 sodipodi:nodetypes="sssssssss" />
              <path
                 id="path4922"
                 style="fill:#0097e1;fill-opacity:1;stroke:none;filter:url(#filter6096)"
                 d="m 777.98542,170.16464 c 0,0 6.55796,8.05831 23.47858,9.08038 16.92061,1.02206 49.97801,-10.53827 39.94872,-34.38994 -3.83818,16.99918 -35.22296,28.18515 -40.05407,15.98289 l 11.68658,-4.66333 -38.89736,-1.54064 -7.84908,20.19398 z m 47.93085,-50.95722 c 0,0 -18.25819,-0.10479 -31.2582,6.92149 -13,7.02627 -15.00749,25.75699 32.80448,30.17195 -26.78019,-7.95342 -25.23752,-25.81417 -0.97646,-23.42436 l 0.28488,6.83454 28.489,-16.45063 -29.62863,-10.88754 z m 63.51148,35.00669 c 0,0 8.92259,-8.84184 1.69178,-16.20691 -7.23082,-7.36507 -42.10315,-11.16034 -73.38916,11.36976 28.00787,-11.79391 61.43801,-8.35519 45.27663,3.05463 l -13.21039,-0.89124 17.86008,16.29884 34.98146,-12.73383 z"
                 inkscape:connector-curvature="0" />
              <text
                 xml:space="preserve"
                 style="font-size:5.75695944000000015px;font-style:normal;font-variant:normal;font-weight:500;font-stretch:normal;line-height:125%;letter-spacing:0px;word-spacing:0px;fill:#000000;fill-opacity:1;stroke:none;font-family:Round Up;-inkscape-font-specification:Round Up Medium"
                 x="785.99768"
                 y="256.41434"
                 id="text4924"
                 sodipodi:linespacing="125%"><tspan
                   sodipodi:role="line"
                   id="tspan4926"
                   x="785.99768"
                   y="256.41434"
                   style="font-size:41.12113953000000066px;font-style:normal;font-variant:normal;font-weight:bold;font-stretch:normal;fill:#000000;font-family:FreeSans;-inkscape-font-specification:FreeSans Bold">A</tspan></text>
              <path
                 sodipodi:nodetypes="ccssc"
                 inkscape:connector-curvature="0"
                 id="path4928"
                 d="m 714.91122,266.18773 47.15583,0.14073 107.78789,0 c 19.51577,0 24.29471,-1.80962 37.22746,-14.72084 l 69.7698,-69.65373"
                 style="fill:none;stroke:#000000;stroke-width:2.05605698;stroke-miterlimit:4;stroke-opacity:1;stroke-dasharray:8.22422762, 4.11211381;stroke-dashoffset:0" />
              <path
                 style="fill:none;stroke:#000000;stroke-width:2.05605698;stroke-miterlimit:4;stroke-opacity:1;stroke-dasharray:8.22422762, 4.11211381;stroke-dashoffset:0"
                 d="m 714.91122,220.95448 47.15583,0.14072 107.78789,0 c 19.51577,0 24.29471,-1.80961 37.22746,-14.72082 l 69.7698,-69.65375"
                 id="path4930"
                 inkscape:connector-curvature="0"
                 sodipodi:nodetypes="ccssc" />
            </g>
          </g>
          <g
             transform="translate(-472.00668,829.90758)"
             id="g5116" />
        </g>
        <g
           transform="matrix(0.24824822,0,0,0.23574899,278.69706,179.26786)"
           inkscape:label="Layer 1"
           id="g4031">
          <g
             id="g4033"
             transform="translate(-696.91599,42.622332)">
            <path
               sodipodi:nodetypes="ccccc"
               inkscape:connector-curvature="0"
               id="path4035"
               d="m 51.788783,625.96168 82.843307,-81.32387 135.87888,0 -83.1976,81.32387 z"
               style="fill:#4d4d4d;stroke:#000000;stroke-width:1px;stroke-linecap:butt;stroke-linejoin:miter;stroke-opacity:1;filter:url(#filter5066)"
               transform="matrix(1.3571031,0,0,1.3571031,895.90835,-503.35079)" />
            <g
               transform="translate(264.75718,34.82325)"
               id="g4037">
              <path
                 sodipodi:nodetypes="sssccssssssss"
                 inkscape:connector-curvature="0"
                 id="path4039"
                 d="m 785.70878,118.97004 -56.59473,55.71442 c -13.78044,13.56606 -14.30633,19.13157 -14.30633,37.31346 l 0,32.27182 c -2.65923,52.9485 4.62826,54.85734 49.69543,54.85734 l 107.78788,0 c 19.51576,0 24.20357,-2.22187 37.22745,-15.04115 l 48.4704,-47.70893 c 17.80069,-17.52104 18.86332,-31.45109 18.86332,-52.77827 l 0,-39.37162 c 0,-38.51353 -11.3124,-36.78877 -41.30841,-36.78877 l -118.11485,0 c -16.40928,0 -20.82318,0.8042 -31.72016,11.5317 z"
                 style="fill:url(#linearGradient6522);fill-opacity:1;stroke:#000000;stroke-width:2.05605698;stroke-miterlimit:4;stroke-opacity:1" />
              <path
                 sodipodi:nodetypes="sssssssss"
                 inkscape:connector-curvature="0"
                 id="path4041"
                 d="m 754.82159,188.76221 95.5246,0 c 42.50123,0 43.88965,9.71253 43.88965,43.24424 l 0,29.69007 c 0,42.93937 -17.17642,37.43531 -49.69858,37.43531 l -81.32499,0 c -44.39315,0 -48.40776,-5.68103 -48.40776,-41.30793 l 0,-29.04463 c 0,-39.8786 7.8844,-40.01706 40.01708,-40.01706 z"
                 style="fill:#ececec;stroke:#000000;stroke-width:2.05605698;stroke-miterlimit:4;stroke-opacity:1" />
              <path
                 inkscape:connector-curvature="0"
                 d="m 777.98542,170.16464 c 0,0 6.55796,8.05831 23.47858,9.08038 16.92061,1.02206 49.97801,-10.53827 39.94872,-34.38994 -3.83818,16.99918 -35.22296,28.18515 -40.05407,15.98289 l 11.68658,-4.66333 -38.89736,-1.54064 -7.84908,20.19398 z m 47.93085,-50.95722 c 0,0 -18.25819,-0.10479 -31.2582,6.92149 -13,7.02627 -15.00749,25.75699 32.80448,30.17195 -26.78019,-7.95342 -25.23752,-25.81417 -0.97646,-23.42436 l 0.28488,6.83454 28.489,-16.45063 -29.62863,-10.88754 z m 63.51148,35.00669 c 0,0 8.92259,-8.84184 1.69178,-16.20691 -7.23082,-7.36507 -42.10315,-11.16034 -73.38916,11.36976 28.00787,-11.79391 61.43801,-8.35519 45.27663,3.05463 l -13.21039,-0.89124 17.86008,16.29884 34.98146,-12.73383 z"
                 style="fill:#0097e1;fill-opacity:1;stroke:none;filter:url(#filter6096)"
                 id="path4043" />
              <text
                 sodipodi:linespacing="125%"
                 id="text4045"
                 y="256.41434"
                 x="785.99768"
                 style="font-size:5.75695944px;font-style:normal;font-variant:normal;font-weight:500;font-stretch:normal;line-height:125%;letter-spacing:0px;word-spacing:0px;fill:#000000;fill-opacity:1;stroke:none;font-family:Round Up;-inkscape-font-specification:Round Up Medium"
                 xml:space="preserve"><tspan
                   style="font-size:41.12113953px;font-style:normal;font-variant:normal;font-weight:bold;font-stretch:normal;fill:#000000;font-family:FreeSans;-inkscape-font-specification:FreeSans Bold"
                   y="256.41434"
                   x="785.99768"
                   id="tspan4047"
                   sodipodi:role="line">B</tspan></text>
              <path
                 style="fill:none;stroke:#000000;stroke-width:2.05605698;stroke-miterlimit:4;stroke-opacity:1;stroke-dasharray:8.22422762, 4.11211381;stroke-dashoffset:0"
                 d="m 714.91122,266.18773 47.15583,0.14073 107.78789,0 c 19.51577,0 24.29471,-1.80962 37.22746,-14.72084 l 69.7698,-69.65373"
                 id="path4049"
                 inkscape:connector-curvature="0"
                 sodipodi:nodetypes="ccssc" />
              <path
                 sodipodi:nodetypes="ccssc"
                 inkscape:connector-curvature="0"
                 id="path4051"
                 d="m 714.91122,220.95448 47.15583,0.14072 107.78789,0 c 19.51577,0 24.29471,-1.80961 37.22746,-14.72082 l 69.7698,-69.65375"
                 style="fill:none;stroke:#000000;stroke-width:2.05605698;stroke-miterlimit:4;stroke-opacity:1;stroke-dasharray:8.22422762, 4.11211381;stroke-dashoffset:0" />
            </g>
          </g>
          <g
             id="g4053"
             transform="translate(-472.00668,829.90758)" />
        </g>
        <g
           id="g4057"
           inkscape:label="Layer 1"
           transform="matrix(0.24824822,0,0,0.23574899,454.72012,179.26786)">
          <g
             transform="translate(-696.91599,42.622332)"
             id="g4059">
            <path
               transform="matrix(1.3571031,0,0,1.3571031,895.90835,-503.35079)"
               style="fill:#4d4d4d;stroke:#000000;stroke-width:1px;stroke-linecap:butt;stroke-linejoin:miter;stroke-opacity:1;filter:url(#filter5066)"
               d="m 51.788783,625.96168 82.843307,-81.32387 135.87888,0 -83.1976,81.32387 z"
               id="path4061"
               inkscape:connector-curvature="0"
               sodipodi:nodetypes="ccccc" />
            <g
               id="g4063"
               transform="translate(264.75718,34.82325)">
              <path
                 style="fill:url(#linearGradient6524);fill-opacity:1;stroke:#000000;stroke-width:2.05605698;stroke-miterlimit:4;stroke-opacity:1"
                 d="m 785.70878,118.97004 -56.59473,55.71442 c -13.78044,13.56606 -14.30633,19.13157 -14.30633,37.31346 l 0,32.27182 c -2.65923,52.9485 4.62826,54.85734 49.69543,54.85734 l 107.78788,0 c 19.51576,0 24.20357,-2.22187 37.22745,-15.04115 l 48.4704,-47.70893 c 17.80069,-17.52104 18.86332,-31.45109 18.86332,-52.77827 l 0,-39.37162 c 0,-38.51353 -11.3124,-36.78877 -41.30841,-36.78877 l -118.11485,0 c -16.40928,0 -20.82318,0.8042 -31.72016,11.5317 z"
                 id="path4065"
                 inkscape:connector-curvature="0"
                 sodipodi:nodetypes="sssccssssssss" />
              <path
                 style="fill:#ececec;stroke:#000000;stroke-width:2.05605698;stroke-miterlimit:4;stroke-opacity:1"
                 d="m 754.82159,188.76221 95.5246,0 c 42.50123,0 43.88965,9.71253 43.88965,43.24424 l 0,29.69007 c 0,42.93937 -17.17642,37.43531 -49.69858,37.43531 l -81.32499,0 c -44.39315,0 -48.40776,-5.68103 -48.40776,-41.30793 l 0,-29.04463 c 0,-39.8786 7.8844,-40.01706 40.01708,-40.01706 z"
                 id="path4067"
                 inkscape:connector-curvature="0"
                 sodipodi:nodetypes="sssssssss" />
              <path
                 id="path4069"
                 style="fill:#0097e1;fill-opacity:1;stroke:none;filter:url(#filter6096)"
                 d="m 777.98542,170.16464 c 0,0 6.55796,8.05831 23.47858,9.08038 16.92061,1.02206 49.97801,-10.53827 39.94872,-34.38994 -3.83818,16.99918 -35.22296,28.18515 -40.05407,15.98289 l 11.68658,-4.66333 -38.89736,-1.54064 -7.84908,20.19398 z m 47.93085,-50.95722 c 0,0 -18.25819,-0.10479 -31.2582,6.92149 -13,7.02627 -15.00749,25.75699 32.80448,30.17195 -26.78019,-7.95342 -25.23752,-25.81417 -0.97646,-23.42436 l 0.28488,6.83454 28.489,-16.45063 -29.62863,-10.88754 z m 63.51148,35.00669 c 0,0 8.92259,-8.84184 1.69178,-16.20691 -7.23082,-7.36507 -42.10315,-11.16034 -73.38916,11.36976 28.00787,-11.79391 61.43801,-8.35519 45.27663,3.05463 l -13.21039,-0.89124 17.86008,16.29884 34.98146,-12.73383 z"
                 inkscape:connector-curvature="0" />
              <text
                 xml:space="preserve"
                 style="font-size:5.75695944px;font-style:normal;font-variant:normal;font-weight:500;font-stretch:normal;line-height:125%;letter-spacing:0px;word-spacing:0px;fill:#000000;fill-opacity:1;stroke:none;font-family:Round Up;-inkscape-font-specification:Round Up Medium"
                 x="785.99768"
                 y="256.41434"
                 id="text4071"
                 sodipodi:linespacing="125%"><tspan
                   sodipodi:role="line"
                   id="tspan4073"
                   x="785.99768"
                   y="256.41434"
                   style="font-size:41.12113953px;font-style:normal;font-variant:normal;font-weight:bold;font-stretch:normal;fill:#000000;font-family:FreeSans;-inkscape-font-specification:FreeSans Bold">C</tspan></text>
              <path
                 sodipodi:nodetypes="ccssc"
                 inkscape:connector-curvature="0"
                 id="path4075"
                 d="m 714.91122,266.18773 47.15583,0.14073 107.78789,0 c 19.51577,0 24.29471,-1.80962 37.22746,-14.72084 l 69.7698,-69.65373"
                 style="fill:none;stroke:#000000;stroke-width:2.05605698;stroke-miterlimit:4;stroke-opacity:1;stroke-dasharray:8.22422762, 4.11211381;stroke-dashoffset:0" />
              <path
                 style="fill:none;stroke:#000000;stroke-width:2.05605698;stroke-miterlimit:4;stroke-opacity:1;stroke-dasharray:8.22422762, 4.11211381;stroke-dashoffset:0"
                 d="m 714.91122,220.95448 47.15583,0.14072 107.78789,0 c 19.51577,0 24.29471,-1.80961 37.22746,-14.72082 l 69.7698,-69.65375"
                 id="path4077"
                 inkscape:connector-curvature="0"
                 sodipodi:nodetypes="ccssc" />
            </g>
          </g>
          <g
             transform="translate(-472.00668,829.90758)"
             id="g4079" />
        </g>
        <g
           transform="matrix(0.24824822,0,0,0.23574899,102.67401,280.44385)"
           inkscape:label="Layer 1"
           id="g4083">
          <g
             id="g4085"
             transform="translate(-696.91599,42.622332)">
            <path
               sodipodi:nodetypes="ccccc"
               inkscape:connector-curvature="0"
               id="path4087"
               d="m 51.788783,625.96168 82.843307,-81.32387 135.87888,0 -83.1976,81.32387 z"
               style="fill:#4d4d4d;stroke:#000000;stroke-width:1px;stroke-linecap:butt;stroke-linejoin:miter;stroke-opacity:1;filter:url(#filter5066)"
               transform="matrix(1.3571031,0,0,1.3571031,895.90835,-503.35079)" />
            <g
               transform="translate(264.75718,34.82325)"
               id="g4089">
              <path
                 sodipodi:nodetypes="sssccssssssss"
                 inkscape:connector-curvature="0"
                 id="path4091"
                 d="m 785.70878,118.97004 -56.59473,55.71442 c -13.78044,13.56606 -14.30633,19.13157 -14.30633,37.31346 l 0,32.27182 c -2.65923,52.9485 4.62826,54.85734 49.69543,54.85734 l 107.78788,0 c 19.51576,0 24.20357,-2.22187 37.22745,-15.04115 l 48.4704,-47.70893 c 17.80069,-17.52104 18.86332,-31.45109 18.86332,-52.77827 l 0,-39.37162 c 0,-38.51353 -11.3124,-36.78877 -41.30841,-36.78877 l -118.11485,0 c -16.40928,0 -20.82318,0.8042 -31.72016,11.5317 z"
                 style="fill:url(#linearGradient6526);fill-opacity:1;stroke:#000000;stroke-width:2.05605698;stroke-miterlimit:4;stroke-opacity:1" />
              <path
                 sodipodi:nodetypes="sssssssss"
                 inkscape:connector-curvature="0"
                 id="path4093"
                 d="m 754.82159,188.76221 95.5246,0 c 42.50123,0 43.88965,9.71253 43.88965,43.24424 l 0,29.69007 c 0,42.93937 -17.17642,37.43531 -49.69858,37.43531 l -81.32499,0 c -44.39315,0 -48.40776,-5.68103 -48.40776,-41.30793 l 0,-29.04463 c 0,-39.8786 7.8844,-40.01706 40.01708,-40.01706 z"
                 style="fill:#ececec;stroke:#000000;stroke-width:2.05605698;stroke-miterlimit:4;stroke-opacity:1" />
              <path
                 inkscape:connector-curvature="0"
                 d="m 777.98542,170.16464 c 0,0 6.55796,8.05831 23.47858,9.08038 16.92061,1.02206 49.97801,-10.53827 39.94872,-34.38994 -3.83818,16.99918 -35.22296,28.18515 -40.05407,15.98289 l 11.68658,-4.66333 -38.89736,-1.54064 -7.84908,20.19398 z m 47.93085,-50.95722 c 0,0 -18.25819,-0.10479 -31.2582,6.92149 -13,7.02627 -15.00749,25.75699 32.80448,30.17195 -26.78019,-7.95342 -25.23752,-25.81417 -0.97646,-23.42436 l 0.28488,6.83454 28.489,-16.45063 -29.62863,-10.88754 z m 63.51148,35.00669 c 0,0 8.92259,-8.84184 1.69178,-16.20691 -7.23082,-7.36507 -42.10315,-11.16034 -73.38916,11.36976 28.00787,-11.79391 61.43801,-8.35519 45.27663,3.05463 l -13.21039,-0.89124 17.86008,16.29884 34.98146,-12.73383 z"
                 style="fill:#0097e1;fill-opacity:1;stroke:none;filter:url(#filter6096)"
                 id="path4095" />
              <text
                 sodipodi:linespacing="125%"
                 id="text4097"
                 y="256.41434"
                 x="785.99768"
                 style="font-size:5.75695944px;font-style:normal;font-variant:normal;font-weight:500;font-stretch:normal;line-height:125%;letter-spacing:0px;word-spacing:0px;fill:#000000;fill-opacity:1;stroke:none;font-family:Round Up;-inkscape-font-specification:Round Up Medium"
                 xml:space="preserve"><tspan
                   style="font-size:41.12113953px;font-style:normal;font-variant:normal;font-weight:bold;font-stretch:normal;fill:#000000;font-family:FreeSans;-inkscape-font-specification:FreeSans Bold"
                   y="256.41434"
                   x="785.99768"
                   id="tspan4099"
                   sodipodi:role="line">D</tspan></text>
              <path
                 style="fill:none;stroke:#000000;stroke-width:2.05605698;stroke-miterlimit:4;stroke-opacity:1;stroke-dasharray:8.22422762, 4.11211381;stroke-dashoffset:0"
                 d="m 714.91122,266.18773 47.15583,0.14073 107.78789,0 c 19.51577,0 24.29471,-1.80962 37.22746,-14.72084 l 69.7698,-69.65373"
                 id="path4101"
                 inkscape:connector-curvature="0"
                 sodipodi:nodetypes="ccssc" />
              <path
                 sodipodi:nodetypes="ccssc"
                 inkscape:connector-curvature="0"
                 id="path4103"
                 d="m 714.91122,220.95448 47.15583,0.14072 107.78789,0 c 19.51577,0 24.29471,-1.80961 37.22746,-14.72082 l 69.7698,-69.65375"
                 style="fill:none;stroke:#000000;stroke-width:2.05605698;stroke-miterlimit:4;stroke-opacity:1;stroke-dasharray:8.22422762, 4.11211381;stroke-dashoffset:0" />
            </g>
          </g>
          <g
             id="g4105"
             transform="translate(-472.00668,829.90758)" />
        </g>
        <g
           id="g4107"
           inkscape:label="Layer 1"
           transform="matrix(0.24824822,0,0,0.23574899,278.69706,280.44385)">
          <g
             transform="translate(-696.91599,42.622332)"
             id="g4109">
            <path
               transform="matrix(1.3571031,0,0,1.3571031,895.90835,-503.35079)"
               style="fill:#4d4d4d;stroke:#000000;stroke-width:1px;stroke-linecap:butt;stroke-linejoin:miter;stroke-opacity:1;filter:url(#filter5066)"
               d="m 51.788783,625.96168 82.843307,-81.32387 135.87888,0 -83.1976,81.32387 z"
               id="path4111"
               inkscape:connector-curvature="0"
               sodipodi:nodetypes="ccccc" />
            <g
               id="g4113"
               transform="translate(264.75718,34.82325)">
              <path
                 style="fill:url(#linearGradient6528);fill-opacity:1;stroke:#000000;stroke-width:2.05605698;stroke-miterlimit:4;stroke-opacity:1"
                 d="m 785.70878,118.97004 -56.59473,55.71442 c -13.78044,13.56606 -14.30633,19.13157 -14.30633,37.31346 l 0,32.27182 c -2.65923,52.9485 4.62826,54.85734 49.69543,54.85734 l 107.78788,0 c 19.51576,0 24.20357,-2.22187 37.22745,-15.04115 l 48.4704,-47.70893 c 17.80069,-17.52104 18.86332,-31.45109 18.86332,-52.77827 l 0,-39.37162 c 0,-38.51353 -11.3124,-36.78877 -41.30841,-36.78877 l -118.11485,0 c -16.40928,0 -20.82318,0.8042 -31.72016,11.5317 z"
                 id="path4115"
                 inkscape:connector-curvature="0"
                 sodipodi:nodetypes="sssccssssssss" />
              <path
                 style="fill:#ececec;stroke:#000000;stroke-width:2.05605698;stroke-miterlimit:4;stroke-opacity:1"
                 d="m 754.82159,188.76221 95.5246,0 c 42.50123,0 43.88965,9.71253 43.88965,43.24424 l 0,29.69007 c 0,42.93937 -17.17642,37.43531 -49.69858,37.43531 l -81.32499,0 c -44.39315,0 -48.40776,-5.68103 -48.40776,-41.30793 l 0,-29.04463 c 0,-39.8786 7.8844,-40.01706 40.01708,-40.01706 z"
                 id="path4117"
                 inkscape:connector-curvature="0"
                 sodipodi:nodetypes="sssssssss" />
              <path
                 id="path4119"
                 style="fill:#0097e1;fill-opacity:1;stroke:none;filter:url(#filter6096)"
                 d="m 777.98542,170.16464 c 0,0 6.55796,8.05831 23.47858,9.08038 16.92061,1.02206 49.97801,-10.53827 39.94872,-34.38994 -3.83818,16.99918 -35.22296,28.18515 -40.05407,15.98289 l 11.68658,-4.66333 -38.89736,-1.54064 -7.84908,20.19398 z m 47.93085,-50.95722 c 0,0 -18.25819,-0.10479 -31.2582,6.92149 -13,7.02627 -15.00749,25.75699 32.80448,30.17195 -26.78019,-7.95342 -25.23752,-25.81417 -0.97646,-23.42436 l 0.28488,6.83454 28.489,-16.45063 -29.62863,-10.88754 z m 63.51148,35.00669 c 0,0 8.92259,-8.84184 1.69178,-16.20691 -7.23082,-7.36507 -42.10315,-11.16034 -73.38916,11.36976 28.00787,-11.79391 61.43801,-8.35519 45.27663,3.05463 l -13.21039,-0.89124 17.86008,16.29884 34.98146,-12.73383 z"
                 inkscape:connector-curvature="0" />
              <text
                 xml:space="preserve"
                 style="font-size:5.75695944px;font-style:normal;font-variant:normal;font-weight:500;font-stretch:normal;line-height:125%;letter-spacing:0px;word-spacing:0px;fill:#000000;fill-opacity:1;stroke:none;font-family:Round Up;-inkscape-font-specification:Round Up Medium"
                 x="785.99768"
                 y="256.41434"
                 id="text4121"
                 sodipodi:linespacing="125%"><tspan
                   sodipodi:role="line"
                   id="tspan4123"
                   x="785.99768"
                   y="256.41434"
                   style="font-size:41.12113953px;font-style:normal;font-variant:normal;font-weight:bold;font-stretch:normal;font-family:FreeSans;-inkscape-font-specification:FreeSans Bold">E</tspan></text>
              <path
                 sodipodi:nodetypes="ccssc"
                 inkscape:connector-curvature="0"
                 id="path4125"
                 d="m 714.91122,266.18773 47.15583,0.14073 107.78789,0 c 19.51577,0 24.29471,-1.80962 37.22746,-14.72084 l 69.7698,-69.65373"
                 style="fill:none;stroke:#000000;stroke-width:2.05605698;stroke-miterlimit:4;stroke-opacity:1;stroke-dasharray:8.22422762, 4.11211381;stroke-dashoffset:0" />
              <path
                 style="fill:none;stroke:#000000;stroke-width:2.05605698;stroke-miterlimit:4;stroke-opacity:1;stroke-dasharray:8.22422762, 4.11211381;stroke-dashoffset:0"
                 d="m 714.91122,220.95448 47.15583,0.14072 107.78789,0 c 19.51577,0 24.29471,-1.80961 37.22746,-14.72082 l 69.7698,-69.65375"
                 id="path4127"
                 inkscape:connector-curvature="0"
                 sodipodi:nodetypes="ccssc" />
            </g>
          </g>
          <g
             transform="translate(-472.00668,829.90758)"
             id="g4129" />
        </g>
        <path
           inkscape:connector-curvature="0"
           style="fill:#8f0000;fill-rule:evenodd;stroke:#000000;stroke-width:0px;stroke-linecap:butt;stroke-linejoin:miter;stroke-opacity:1"
           d="m 286.63691,225.90363 0.56844,-0.34106 0.22737,0.22738 q 0.22738,0.22737 1.13688,3.63799 0.90949,3.41061 2.6148,6.48017 1.70531,3.06955 2.16006,3.06955 l 0.45475,0 0.90949,-1.13687 q 0.9095,-1.13687 1.70531,-2.16006 0.79581,-1.02318 1.47794,-1.93268 0.68212,-0.9095 1.02318,-1.25056 l 0.34106,-0.34106 1.13687,-0.22737 q 1.13688,-0.22738 4.32012,0.34106 l 3.18324,0.56843 -0.34106,1.36425 q -0.34106,1.36425 -1.47794,2.72849 -1.13687,1.36425 -1.81899,2.27375 -0.68212,0.90949 -2.04637,2.50111 -1.36425,1.59163 -2.04637,2.50112 -0.68212,0.9095 -0.68212,1.59162 l 0,0.68213 1.47793,1.25056 q 1.47793,1.25056 4.4338,2.6148 2.95587,1.36425 8.41285,2.72849 l 5.45699,1.36425 -2.50112,1.36425 q -2.50112,1.36424 -3.86536,1.81899 -1.36425,0.45475 -3.86537,0.22738 -2.50112,-0.22738 -5.91173,-1.13688 -3.41062,-0.90949 -4.77487,-1.59162 -1.36424,-0.68212 -2.72849,-1.59162 -1.36424,-0.90949 -2.04637,-0.90949 l -0.68212,0 -2.72849,2.50111 q -2.7285,2.50112 -4.09274,3.41062 -1.36425,0.9095 -2.50112,1.819 -1.13687,0.90949 -3.18324,1.81899 -2.04637,0.9095 -2.7285,0.9095 l -0.68212,0 0.34106,-0.56844 q 0.34106,-0.56843 1.25056,-1.93268 0.9095,-1.36425 1.819,-2.50112 0.90949,-1.13687 2.04637,-2.95587 1.13687,-1.81899 2.27374,-3.18324 1.13687,-1.36424 2.04637,-2.72849 l 0.9095,-1.36425 -0.22738,-0.90949 q -0.22737,-0.9095 -0.90949,-1.819 -0.68213,-0.9095 -2.50112,-4.32011 -1.819,-3.41062 -2.7285,-5.68436 -0.90949,-2.27375 -0.90949,-2.95587 l 0,-0.68212 2.84218,-2.61481 q 2.84218,-2.6148 3.41061,-2.95587 z"
           id="path2" />
      </g>
    </g>
  </g>
</svg>
