<?xml version="1.0" encoding="UTF-8" standalone="no"?>
<!-- Created with Inkscape (http://www.inkscape.org/) -->
<svg
   xmlns:dc="http://purl.org/dc/elements/1.1/"
   xmlns:cc="http://web.resource.org/cc/"
   xmlns:rdf="http://www.w3.org/1999/02/22-rdf-syntax-ns#"
   xmlns:svg="http://www.w3.org/2000/svg"
   xmlns="http://www.w3.org/2000/svg"
   xmlns:xlink="http://www.w3.org/1999/xlink"
   xmlns:sodipodi="http://sodipodi.sourceforge.net/DTD/sodipodi-0.dtd"
   xmlns:inkscape="http://www.inkscape.org/namespaces/inkscape"
   width="441.53247"
   height="259.59439"
   id="svg2"
   sodipodi:version="0.32"
   inkscape:version="0.45"
   sodipodi:docbase="E:\Graphic Design"
   sodipodi:docname="stormclouds.svg"
   inkscape:output_extension="org.inkscape.output.svg.inkscape"
   version="1.0"
   sodipodi:modified="true">
  <defs
     id="defs4">
    <linearGradient
       inkscape:collect="always"
       id="linearGradient13204">
      <stop
         style="stop-color:#ffffff;stop-opacity:1;"
         offset="0"
         id="stop13206" />
      <stop
         style="stop-color:#ffffff;stop-opacity:0;"
         offset="1"
         id="stop13208" />
    </linearGradient>
    <linearGradient
       inkscape:collect="always"
       id="linearGradient12219">
      <stop
         style="stop-color:#fcf900;stop-opacity:1;"
         offset="0"
         id="stop12221" />
      <stop
         style="stop-color:#fcf900;stop-opacity:0;"
         offset="1"
         id="stop12223" />
    </linearGradient>
    <linearGradient
       inkscape:collect="always"
       id="linearGradient9263">
      <stop
         style="stop-color:#5a5a5a;stop-opacity:1;"
         offset="0"
         id="stop9265" />
      <stop
         style="stop-color:#5a5a5a;stop-opacity:0;"
         offset="1"
         id="stop9267" />
    </linearGradient>
    <linearGradient
       inkscape:collect="always"
       id="linearGradient3134">
      <stop
         style="stop-color:#5a5a5a;stop-opacity:1;"
         offset="0"
         id="stop3136" />
      <stop
         style="stop-color:#5a5a5a;stop-opacity:0;"
         offset="1"
         id="stop3138" />
    </linearGradient>
    <linearGradient
       inkscape:collect="always"
       xlink:href="#linearGradient3134"
       id="linearGradient3144"
       gradientUnits="userSpaceOnUse"
       x1="138.3909"
       y1="133.12337"
       x2="95.964485"
       y2="106.85941" />
    <linearGradient
       inkscape:collect="always"
       xlink:href="#linearGradient3134"
       id="linearGradient5311"
       gradientUnits="userSpaceOnUse"
       gradientTransform="matrix(1.4423076,0,0,-1.4423076,-60.903411,1069.451)"
       x1="138.3909"
       y1="133.12337"
       x2="95.964485"
       y2="106.85941" />
    <linearGradient
       inkscape:collect="always"
       xlink:href="#linearGradient9263"
       id="linearGradient10246"
       gradientUnits="userSpaceOnUse"
       x1="-631.69269"
       y1="742.38037"
       x2="441.36029"
       y2="116.08578"
       gradientTransform="translate(-31.314729,-41.416254)" />
    <linearGradient
       inkscape:collect="always"
       xlink:href="#linearGradient12219"
       id="linearGradient12225"
       x1="75.857002"
       y1="601.38037"
       x2="318.44675"
       y2="801.39056"
       gradientUnits="userSpaceOnUse" />
    <linearGradient
       inkscape:collect="always"
       xlink:href="#linearGradient12219"
       id="linearGradient12227"
       x1="262.52026"
       y1="629.49493"
       x2="478.61469"
       y2="795.15997"
       gradientUnits="userSpaceOnUse" />
    <linearGradient
       inkscape:collect="always"
       xlink:href="#linearGradient12219"
       id="linearGradient12229"
       x1="185.74409"
       y1="553.05841"
       x2="409.80936"
       y2="724.78436"
       gradientUnits="userSpaceOnUse" />
    <linearGradient
       inkscape:collect="always"
       xlink:href="#linearGradient12219"
       id="linearGradient12231"
       x1="165.01787"
       y1="385.20477"
       x2="462.64682"
       y2="633.70227"
       gradientUnits="userSpaceOnUse" />
    <linearGradient
       inkscape:collect="always"
       xlink:href="#linearGradient13204"
       id="linearGradient13210"
       x1="198.65273"
       y1="402.96912"
       x2="198.65273"
       y2="173.53093"
       gradientUnits="userSpaceOnUse" />
  </defs>
  <sodipodi:namedview
     id="base"
     pagecolor="#ffffff"
     bordercolor="#666666"
     borderopacity="1.0"
     gridtolerance="10000"
     guidetolerance="10"
     objecttolerance="10"
     inkscape:pageopacity="0.0"
     inkscape:pageshadow="2"
     inkscape:zoom="0.7"
     inkscape:cx="168.58202"
     inkscape:cy="126.93259"
     inkscape:document-units="px"
     inkscape:current-layer="layer1"
     inkscape:window-width="1024"
     inkscape:window-height="742"
     inkscape:window-x="-4"
     inkscape:window-y="-4" />
  <metadata
     id="metadata7">
    <rdf:RDF>
      <cc:Work
         rdf:about="">
        <dc:format>image/svg+xml</dc:format>
        <dc:type
           rdf:resource="http://purl.org/dc/dcmitype/StillImage" />
      </cc:Work>
    </rdf:RDF>
  </metadata>
  <g
     inkscape:label="Layer 1"
     inkscape:groupmode="layer"
     id="layer1"
     transform="translate(-1.760547,-1.4408886)">
    <path
       style="opacity:1;fill:url(#linearGradient5311);fill-opacity:1;stroke:none;stroke-width:3;stroke-linecap:butt;stroke-linejoin:miter;stroke-miterlimit:0;stroke-dasharray:72, 72;stroke-dashoffset:0;stroke-opacity:1"
       d="M 208.88616,1.4408886 C 196.42093,1.4408926 185.4224,7.9357206 178.85491,17.878389 C 177.50886,17.71307 176.14826,17.60543 174.76116,17.597139 L 174.54241,17.597139 C 162.41345,17.597143 151.66387,23.76099 145.04241,33.253389 C 142.56057,33.723044 140.10427,34.205773 137.66741,34.722139 C 132.04609,30.955821 125.34489,28.733789 118.16741,28.690889 L 117.97991,28.690889 C 110.73299,28.690891 103.9688,30.924343 98.292411,34.722139 C 94.704971,33.465378 90.845641,32.777241 86.854911,32.753389 L 86.667411,32.753389 C 70.401151,32.753394 56.58893,43.833456 51.917414,59.159636 C 36.165531,60.689986 23.323292,72.674976 19.854914,88.378386 C 9.0858901,94.907506 1.8379271,107.01877 1.7611641,120.90964 C 1.7163401,129.02099 4.1156311,136.56339 8.2611641,142.75339 C 7.3195781,146.08211 6.8125401,149.5802 6.7924141,153.22214 C 6.6878171,172.14991 19.985117,187.96782 37.417414,190.87839 C 37.218451,192.44555 37.113876,194.03791 37.104914,195.65964 C 36.989364,216.56945 53.218077,233.63322 73.323661,233.75339 C 82.918781,233.81074 91.656001,229.99701 98.198661,223.72214 C 100.80068,224.65193 103.45038,225.57141 106.13616,226.44089 C 112.6658,236.29523 123.5771,242.77319 135.94866,242.84714 C 142.56286,242.88667 148.77021,241.08691 154.13616,237.90964 C 154.83961,238.02408 155.55451,238.11145 156.26116,238.22214 C 162.76915,244.78475 171.61257,248.85122 181.38616,248.90964 C 188.91644,248.95465 195.92939,246.60765 201.76116,242.56589 C 203.73301,242.63918 205.71198,242.70856 207.69866,242.75339 C 214.33049,251.37433 224.51407,256.93505 235.94866,257.00339 C 248.80638,257.08024 260.12721,250.18731 266.66741,239.75339 C 271.36791,239.1602 276.00281,238.50793 280.57366,237.75339 C 285.32295,241.30963 290.92959,243.69841 297.01116,244.53464 C 303.53443,254.43602 314.44828,260.96048 326.85491,261.03464 C 343.28963,261.13287 357.27098,249.8812 361.88616,234.34714 C 363.6427,234.62909 365.43088,234.7737 367.26116,234.78464 C 367.88946,234.7884 368.51546,234.75118 369.13616,234.72214 C 369.75686,234.6931 370.36758,234.65818 370.97991,234.59714 C 383.34428,233.36457 393.94454,225.6807 399.57366,214.81589 C 401.86437,215.3007 404.24183,215.55139 406.66741,215.56589 C 426.773,215.68606 443.17687,198.81944 443.29241,177.90964 C 443.35799,166.04193 438.16354,155.40597 429.97991,148.40964 C 433.89034,142.41249 436.18689,135.19465 436.22991,127.40964 C 436.29379,115.84957 431.36163,105.46905 423.54241,98.472136 C 423.89733,96.386236 424.09281,94.255176 424.10491,92.065886 C 424.22046,71.156076 407.99174,54.061063 387.88616,53.940889 L 387.66741,53.940889 C 380.39581,53.940891 373.637,56.181759 367.94866,60.003386 C 367.07613,59.532756 366.21238,59.059586 365.32366,58.597136 C 360.23794,44.177207 346.95318,33.846808 331.32366,33.753389 L 331.10491,33.753389 C 324.60343,33.753391 318.51596,35.521442 313.22991,38.628389 C 309.80028,21.522127 295.26815,8.6078426 277.79241,8.5033886 L 277.57366,8.5033886 C 266.30546,8.5033916 256.22571,13.823613 249.54241,22.190889 C 246.35541,20.381305 242.87366,19.069811 239.19866,18.315889 C 232.70671,8.2000566 221.6709,1.5159966 209.10491,1.4408886 L 208.88616,1.4408886 z "
       id="path2162" />
    <path
       id="path6344"
       d="M 209.50491,12.32849 C 197.6051,12.328494 187.10546,18.278524 180.83587,27.387186 C 179.55087,27.235734 178.25199,27.137122 176.92781,27.129528 L 176.71898,27.129528 C 165.14019,27.129532 154.87821,32.776344 148.55711,41.472506 C 146.18784,41.902766 143.84296,42.345002 141.51664,42.818054 C 136.1503,39.367662 129.75307,37.332017 122.90115,37.292715 L 122.72216,37.292715 C 115.80396,37.292717 109.34659,39.338824 103.92769,42.818054 C 100.50297,41.666712 96.818701,41.036298 93.008991,41.014446 L 92.830001,41.014446 C 77.301571,41.014451 64.115874,51.165099 59.656258,65.205686 C 44.61888,66.607676 32.359165,77.587346 29.048112,91.973526 C 18.767572,97.954976 11.848376,109.05033 11.775095,121.77601 C 11.732304,129.20697 14.022763,136.11669 17.980255,141.78747 C 17.08138,144.83697 16.597341,148.04163 16.578128,151.37809 C 16.478275,168.71816 29.172409,183.20924 45.813977,185.87566 C 45.62404,187.31137 45.524208,188.77015 45.515653,190.25586 C 45.405344,209.41172 60.897922,225.04415 80.091521,225.15423 C 89.251411,225.20677 97.592301,221.71295 103.83819,215.96442 C 106.32218,216.81623 108.85169,217.65858 111.41565,218.45512 C 117.64909,227.48287 128.06546,233.41745 139.87584,233.48519 C 146.19003,233.5214 152.11581,231.87261 157.23836,228.96185 C 157.90991,229.0667 158.59237,229.14673 159.26698,229.24815 C 165.47976,235.26028 173.92205,238.98563 183.25231,239.03916 C 190.44101,239.0804 197.13586,236.93027 202.70309,233.22753 C 204.5855,233.29468 206.47471,233.35824 208.37127,233.3993 C 214.70227,241.29711 224.42393,246.39139 235.33985,246.45399 C 247.61434,246.52439 258.42166,240.20965 264.66519,230.65095 C 269.15248,230.10752 273.57714,229.50996 277.94065,228.81871 C 282.47452,232.07664 287.82685,234.26505 293.63256,235.03114 C 299.85992,244.10197 310.27872,250.07915 322.1226,250.14709 C 337.81183,250.23709 351.15899,239.92922 355.56482,225.69818 C 357.24169,225.95649 358.94876,226.08896 360.69601,226.09899 C 361.29582,226.10243 361.89342,226.06834 362.48596,226.04173 C 363.07851,226.01512 363.66153,225.98314 364.24608,225.92721 C 376.0496,224.79803 386.16903,217.7587 391.54281,207.80525 C 393.72962,208.24939 395.99924,208.47905 398.31479,208.49234 C 417.50839,208.60243 433.16818,193.15061 433.27848,173.99476 C 433.34109,163.12252 428.38226,153.37872 420.56984,146.96926 C 424.30289,141.47516 426.49527,134.86277 426.53634,127.73078 C 426.59733,117.14038 421.88889,107.6306 414.42434,101.2206 C 414.76316,99.309666 414.94978,97.357366 414.96133,95.351716 C 415.07164,76.195856 399.57905,60.534796 380.38546,60.424706 L 380.17664,60.424706 C 373.23487,60.424706 366.78264,62.477596 361.35232,65.978666 C 360.51937,65.547516 359.6948,65.114036 358.8464,64.690376 C 353.99137,51.480016 341.3092,42.016147 326.38864,41.930566 L 326.17981,41.930566 C 319.97324,41.930567 314.1619,43.550311 309.11562,46.396642 C 305.84156,30.725282 291.9686,18.894268 275.28557,18.798576 L 275.07674,18.798576 C 264.31966,18.798579 254.69713,23.672531 248.31699,31.337946 C 245.27455,29.680153 241.95073,28.478669 238.44243,27.787987 C 232.24495,18.520688 221.70972,12.397298 209.71373,12.32849 L 209.50491,12.32849 z "
       style="opacity:1;fill:#ffffff;fill-opacity:1;stroke:none;stroke-width:3;stroke-linecap:butt;stroke-linejoin:miter;stroke-miterlimit:0;stroke-dasharray:72, 72;stroke-dashoffset:0;stroke-opacity:1" />
    <path
       style="opacity:1;fill:url(#linearGradient10246);fill-opacity:1;stroke:none;stroke-width:3;stroke-linecap:butt;stroke-linejoin:miter;stroke-miterlimit:0;stroke-dasharray:72, 72;stroke-dashoffset:0;stroke-opacity:1"
       d="M 209.50491,12.32849 C 197.6051,12.328494 187.10546,18.278524 180.83587,27.387186 C 179.55087,27.235734 178.25199,27.137122 176.92781,27.129528 L 176.71898,27.129528 C 165.14019,27.129532 154.87821,32.776344 148.55711,41.472506 C 146.18784,41.902766 143.84296,42.345002 141.51664,42.818054 C 136.1503,39.367662 129.75307,37.332017 122.90115,37.292715 L 122.72216,37.292715 C 115.80396,37.292717 109.34659,39.338824 103.92769,42.818054 C 100.50297,41.666712 96.818701,41.036298 93.008991,41.014446 L 92.830001,41.014446 C 77.301571,41.014451 64.115874,51.165099 59.656258,65.205686 C 44.61888,66.607676 32.359165,77.587346 29.048112,91.973526 C 18.767572,97.954976 11.848376,109.05033 11.775095,121.77601 C 11.732304,129.20697 14.022763,136.11669 17.980255,141.78747 C 17.08138,144.83697 16.597341,148.04163 16.578128,151.37809 C 16.478275,168.71816 29.172409,183.20924 45.813977,185.87566 C 45.62404,187.31137 45.524208,188.77015 45.515653,190.25586 C 45.405344,209.41172 60.897922,225.04415 80.091521,225.15423 C 89.251411,225.20677 97.592301,221.71295 103.83819,215.96442 C 106.32218,216.81623 108.85169,217.65858 111.41565,218.45512 C 117.64909,227.48287 128.06546,233.41745 139.87584,233.48519 C 146.19003,233.5214 152.11581,231.87261 157.23836,228.96185 C 157.90991,229.0667 158.59237,229.14673 159.26698,229.24815 C 165.47976,235.26028 173.92205,238.98563 183.25231,239.03916 C 190.44101,239.0804 197.13586,236.93027 202.70309,233.22753 C 204.5855,233.29468 206.47471,233.35824 208.37127,233.3993 C 214.70227,241.29711 224.42393,246.39139 235.33985,246.45399 C 247.61434,246.52439 258.42166,240.20965 264.66519,230.65095 C 269.15248,230.10752 273.57714,229.50996 277.94065,228.81871 C 282.47452,232.07664 287.82685,234.26505 293.63256,235.03114 C 299.85992,244.10197 310.27872,250.07915 322.1226,250.14709 C 337.81183,250.23709 351.15899,239.92922 355.56482,225.69818 C 357.24169,225.95649 358.94876,226.08896 360.69601,226.09899 C 361.29582,226.10243 361.89342,226.06834 362.48596,226.04173 C 363.07851,226.01512 363.66153,225.98314 364.24608,225.92721 C 376.0496,224.79803 386.16903,217.7587 391.54281,207.80525 C 393.72962,208.24939 395.99924,208.47905 398.31479,208.49234 C 417.50839,208.60243 433.16818,193.15061 433.27848,173.99476 C 433.34109,163.12252 428.38226,153.37872 420.56984,146.96926 C 424.30289,141.47516 426.49527,134.86277 426.53634,127.73078 C 426.59733,117.14038 421.88889,107.6306 414.42434,101.2206 C 414.76316,99.309666 414.94978,97.357366 414.96133,95.351716 C 415.07164,76.195856 399.57905,60.534796 380.38546,60.424706 L 380.17664,60.424706 C 373.23487,60.424706 366.78264,62.477596 361.35232,65.978666 C 360.51937,65.547516 359.6948,65.114036 358.8464,64.690376 C 353.99137,51.480016 341.3092,42.016147 326.38864,41.930566 L 326.17981,41.930566 C 319.97324,41.930567 314.1619,43.550311 309.11562,46.396642 C 305.84156,30.725282 291.9686,18.894268 275.28557,18.798576 L 275.07674,18.798576 C 264.31966,18.798579 254.69713,23.672531 248.31699,31.337946 C 245.27455,29.680153 241.95073,28.478669 238.44243,27.787987 C 232.24495,18.520688 221.70972,12.397298 209.71373,12.32849 L 209.50491,12.32849 z "
       id="path8292" />
  </g>
</svg>
