<?xml version="1.0" encoding="UTF-8" standalone="no"?>
<!-- Created with Inkscape (http://www.inkscape.org/) -->

<svg
   xmlns:dc="http://purl.org/dc/elements/1.1/"
   xmlns:cc="http://creativecommons.org/ns#"
   xmlns:rdf="http://www.w3.org/1999/02/22-rdf-syntax-ns#"
   xmlns:svg="http://www.w3.org/2000/svg"
   xmlns="http://www.w3.org/2000/svg"
   xmlns:xlink="http://www.w3.org/1999/xlink"
   xmlns:sodipodi="http://sodipodi.sourceforge.net/DTD/sodipodi-0.dtd"
   xmlns:inkscape="http://www.inkscape.org/namespaces/inkscape"
   width="744.09448819"
   height="1052.3622047"
   id="svg2"
   version="1.1"
   inkscape:version="0.48.0 r9654"
   sodipodi:docname="New document 1">
  <defs
     id="defs4">
    <linearGradient
       id="linearGradient5168">
      <stop
         id="stop5170"
         offset="0"
         style="stop-color:#818181;stop-opacity:1;" />
      <stop
         id="stop5172"
         offset="1"
         style="stop-color:#e4e4e4;stop-opacity:1;" />
    </linearGradient>
    <linearGradient
       inkscape:collect="always"
       id="linearGradient4876">
      <stop
         style="stop-color:white;stop-opacity:1;"
         offset="0"
         id="stop4878" />
      <stop
         style="stop-color:white;stop-opacity:0.18431373"
         offset="1"
         id="stop4880" />
    </linearGradient>
    <linearGradient
       inkscape:collect="always"
       id="linearGradient4866">
      <stop
         style="stop-color:white;stop-opacity:1;"
         offset="0"
         id="stop4868" />
      <stop
         style="stop-color:white;stop-opacity:0.13733906"
         offset="1"
         id="stop4870" />
    </linearGradient>
    <linearGradient
       id="linearGradient3632">
      <stop
         style="stop-color:#000000;stop-opacity:0.20833331;"
         offset="0.0000000"
         id="stop3634" />
      <stop
         style="stop-color:#000000;stop-opacity:0;"
         offset="1"
         id="stop3636" />
    </linearGradient>
    <linearGradient
       inkscape:collect="always"
       id="linearGradient3614">
      <stop
         style="stop-color:none"
         offset="0"
         id="stop3616" />
      <stop
         style="stop-color:#000000;stop-opacity:0;"
         offset="1"
         id="stop3618" />
    </linearGradient>
    <linearGradient
       inkscape:collect="always"
       id="linearGradient2859">
      <stop
         style="stop-color:#000000;stop-opacity:0.50400001"
         offset="0"
         id="stop2861" />
      <stop
         style="stop-color:#000000;stop-opacity:0;"
         offset="1"
         id="stop2863" />
    </linearGradient>
    <linearGradient
       inkscape:collect="always"
       id="linearGradient2843">
      <stop
         style="stop-color:#000000;stop-opacity:0.41600001"
         offset="0"
         id="stop2845" />
      <stop
         style="stop-color:#000000;stop-opacity:0;"
         offset="1"
         id="stop2847" />
    </linearGradient>
    <linearGradient
       id="linearGradient7555">
      <stop
         id="stop7557"
         offset="0.0000000"
         style="stop-color:#2e2e2e;stop-opacity:0.46875000;" />
      <stop
         id="stop7559"
         offset="1"
         style="stop-color:#2e2e2e;stop-opacity:0;" />
    </linearGradient>
    <linearGradient
       id="linearGradient7529"
       inkscape:collect="always">
      <stop
         id="stop7531"
         offset="0"
         style="stop-color:#ffffff;stop-opacity:1;" />
      <stop
         id="stop7533"
         offset="1"
         style="stop-color:#ffffff;stop-opacity:0;" />
    </linearGradient>
    <linearGradient
       id="linearGradient5983"
       inkscape:collect="always">
      <stop
         id="stop5985"
         offset="0"
         style="stop-color:#ffffff;stop-opacity:1;" />
      <stop
         id="stop5987"
         offset="1"
         style="stop-color:#ffffff;stop-opacity:0;" />
    </linearGradient>
    <linearGradient
       id="linearGradient2341">
      <stop
         style="stop-color:#ffffff;stop-opacity:0.15686275;"
         offset="0.0000000"
         id="stop2342" />
      <stop
         style="stop-color:#ffffff;stop-opacity:1.0000000;"
         offset="1.0000000"
         id="stop2343" />
    </linearGradient>
    <linearGradient
       id="linearGradient2347">
      <stop
         style="stop-color:#ffffff;stop-opacity:0.0000000;"
         offset="0.0000000"
         id="stop2348" />
      <stop
         style="stop-color:#ffffff;stop-opacity:0.47058824;"
         offset="1.0000000"
         id="stop2349" />
    </linearGradient>
    <linearGradient
       id="linearGradient2372">
      <stop
         style="stop-color:#000000;stop-opacity:0.47058824;"
         offset="0.0000000"
         id="stop2373" />
      <stop
         style="stop-color:#000000;stop-opacity:0.0000000;"
         offset="1.0000000"
         id="stop2374" />
    </linearGradient>
    <linearGradient
       id="linearGradient2363">
      <stop
         style="stop-color:#ffffff;stop-opacity:0.0000000;"
         offset="0.0000000"
         id="stop2364" />
      <stop
         style="stop-color:#ffffff;stop-opacity:1.0000000;"
         offset="1.0000000"
         id="stop2365" />
    </linearGradient>
    <linearGradient
       id="linearGradient3057">
      <stop
         style="stop-color:#000000;stop-opacity:0.19191919;"
         offset="0.0000000"
         id="stop3058" />
      <stop
         style="stop-color:#000000;stop-opacity:0.14141414;"
         offset="0.34210527"
         id="stop3059" />
      <stop
         style="stop-color:#ffffff;stop-opacity:0.0000000;"
         offset="1.0000000"
         id="stop3060" />
    </linearGradient>
    <linearGradient
       id="TransparentWhite">
      <stop
         style="stop-color:#ffffff;stop-opacity:0;"
         offset="0"
         id="stopwhitefull" />
      <stop
         style="stop-color:#ffffff;stop-opacity:1;"
         offset="1"
         id="stopwhitetransparent" />
    </linearGradient>
    <linearGradient
       id="WhiteTransparent">
      <stop
         style="stop-color:#ffffff;stop-opacity:1;"
         offset="0"
         id="stopWhiteFull" />
      <stop
         style="stop-color:#ffffff;stop-opacity:0;"
         offset="1"
         id="stopWhiteTransparent" />
    </linearGradient>
    <linearGradient
       gradientUnits="userSpaceOnUse"
       y2="72.250000"
       x2="45.656250"
       y1="72.250000"
       x1="6.3437500"
       id="linearGradient5989"
       xlink:href="#linearGradient5983"
       inkscape:collect="always" />
    <linearGradient
       gradientUnits="userSpaceOnUse"
       y2="75.246735"
       x2="39.812500"
       y1="71.043076"
       x1="39.812500"
       id="linearGradient7535"
       xlink:href="#linearGradient7529"
       inkscape:collect="always" />
    <linearGradient
       y2="72.250000"
       x2="45.656250"
       y1="72.250000"
       x1="6.3437500"
       gradientUnits="userSpaceOnUse"
       id="linearGradient7551"
       xlink:href="#linearGradient5983"
       inkscape:collect="always" />
    <linearGradient
       y2="75.246735"
       x2="39.812500"
       y1="71.043076"
       x1="39.812500"
       gradientUnits="userSpaceOnUse"
       id="linearGradient7553"
       xlink:href="#linearGradient7529"
       inkscape:collect="always" />
    <radialGradient
       gradientUnits="userSpaceOnUse"
       gradientTransform="matrix(1.000000,0.000000,0.000000,0.217391,0.000000,95.67391)"
       r="40.250000"
       fy="99.249969"
       fx="24.250000"
       cy="99.249969"
       cx="24.250000"
       id="radialGradient7561"
       xlink:href="#linearGradient7555"
       inkscape:collect="always" />
    <linearGradient
       id="linearGradient5021"
       inkscape:collect="always">
      <stop
         id="stop5023"
         offset="0"
         style="stop-color:#a8ffbe;stop-opacity:1" />
      <stop
         id="stop5025"
         offset="1"
         style="stop-color:#00bf2d;stop-opacity:1" />
    </linearGradient>
    <radialGradient
       inkscape:collect="always"
       xlink:href="#linearGradient3632"
       id="radialGradient5771"
       gradientUnits="userSpaceOnUse"
       gradientTransform="matrix(1,0,0,0.199052,0,92.109)"
       cx="61.750000"
       cy="115.00000"
       fx="61.750000"
       fy="115.00000"
       r="52.750000" />
    <radialGradient
       inkscape:collect="always"
       xlink:href="#linearGradient3632"
       id="radialGradient5773"
       gradientUnits="userSpaceOnUse"
       gradientTransform="matrix(1,0,0,0.199052,0,92.109)"
       cx="61.750000"
       cy="115.00000"
       fx="61.750000"
       fy="115.00000"
       r="52.750000" />
    <linearGradient
       inkscape:collect="always"
       xlink:href="#linearGradient3614"
       id="linearGradient5775"
       gradientUnits="userSpaceOnUse"
       gradientTransform="matrix(1.7658527,0,0,2.5858633,376.87036,253.71411)"
       x1="103.09375"
       y1="128.50000"
       x2="112.50000"
       y2="104.75000" />
    <linearGradient
       inkscape:collect="always"
       xlink:href="#linearGradient2859"
       id="linearGradient5777"
       gradientUnits="userSpaceOnUse"
       gradientTransform="matrix(1.7383756,0,0,2.5858633,363.29929,250.54238)"
       x1="98.625023"
       y1="46.334446"
       x2="98.625023"
       y2="22.25" />
    <linearGradient
       inkscape:collect="always"
       xlink:href="#linearGradient2843"
       id="linearGradient5779"
       gradientUnits="userSpaceOnUse"
       gradientTransform="matrix(1.7324926,0,0,2.5858633,363.77043,250.71053)"
       x1="103.24915"
       y1="61.550186"
       x2="103.24915"
       y2="36.552097" />
    <radialGradient
       inkscape:collect="always"
       xlink:href="#linearGradient5021"
       id="radialGradient5781"
       gradientUnits="userSpaceOnUse"
       gradientTransform="matrix(1,0,0,1.416667,0,-27.39583)"
       cx="109"
       cy="65.75"
       fx="109"
       fy="64.321823"
       r="3" />
    <linearGradient
       inkscape:collect="always"
       xlink:href="#linearGradient4866"
       id="linearGradient5783"
       gradientUnits="userSpaceOnUse"
       gradientTransform="matrix(1.839492,0,0,2.6152027,374.8689,250.96915)"
       x1="17"
       y1="46.5"
       x2="83.661568"
       y2="96.052254" />
    <linearGradient
       inkscape:collect="always"
       xlink:href="#linearGradient4876"
       id="linearGradient5785"
       gradientUnits="userSpaceOnUse"
       gradientTransform="matrix(1.7658527,0,0,2.5858633,376.9962,252.57891)"
       x1="70"
       y1="15.494845"
       x2="70"
       y2="117.00493" />
  </defs>
  <sodipodi:namedview
     id="base"
     pagecolor="#ffffff"
     bordercolor="#666666"
     borderopacity="1.0"
     inkscape:pageopacity="0.0"
     inkscape:pageshadow="2"
     inkscape:zoom="1"
     inkscape:cx="293.80926"
     inkscape:cy="858.00713"
     inkscape:document-units="px"
     inkscape:current-layer="layer1"
     showgrid="false"
     inkscape:window-width="1280"
     inkscape:window-height="681"
     inkscape:window-x="0"
     inkscape:window-y="0"
     inkscape:window-maximized="0" />
  <metadata
     id="metadata7">
    <rdf:RDF>
      <cc:Work
         rdf:about="">
        <dc:format>image/svg+xml</dc:format>
        <dc:type
           rdf:resource="http://purl.org/dc/dcmitype/StillImage" />
        <dc:title></dc:title>
      </cc:Work>
    </rdf:RDF>
  </metadata>
  <g
     inkscape:label="Layer 1"
     inkscape:groupmode="layer"
     id="layer1">
    <text
       xml:space="preserve"
       style="font-size:40px;font-style:normal;font-weight:normal;line-height:125%;letter-spacing:0px;word-spacing:0px;fill:#000000;fill-opacity:1;stroke:none;font-family:Sans"
       x="671"
       y="713.28986"
       id="text3784"
       sodipodi:linespacing="125%"><tspan
         sodipodi:role="line"
         id="tspan3786"
         x="671"
         y="713.28986" /></text>
    <g
       transform="translate(-131,-42.07231)"
       id="g5648">
      <path
         style="fill:#fcfcfd"
         inkscape:connector-curvature="0"
         id="svg_2"
         d="m 165.05086,181.31432 -23.72163,-91.688035 90.90856,-38.962391 23.86782,1.609993 16.39102,3.542068 4.27146,28.014388 117.79311,19.083717 7.9502,8.45758 -0.0435,33.25182 -5.20001,48.38626 -10.61497,58.69003 -11.38876,8.77981 -22.73345,-7.32059 -6.48967,10.06758 -10.9175,8.73434 -10.918,2.61629 -10.40166,0.0403 -11.17543,-4.14581 -9.62892,-6.3999 -7.30752,-8.65382 -1.37722,-7.36571 9.02435,-21.97956 -34.03569,-13.60724 -44.93438,44.11462 -36.68325,-20.93035 -12.63494,-54.33536 z" />
      <path
         style="fill:#d2d2d2"
         inkscape:connector-curvature="0"
         id="svg_3"
         d="m 308.62104,275.31652 c -7.46712,-2.26197 -14.15078,-6.35644 -19.13208,-11.72089 -5.51598,-5.94072 -6.69226,-9.31213 -6.23657,-17.8819 0.30468,-5.72917 0.85977,-7.58549 3.66907,-12.26915 l 3.31013,-5.51846 -2.45466,-1.13778 c -1.34984,-0.62593 -8.22909,-3.69989 -15.28729,-6.83105 l -12.83314,-5.69327 -5.91523,6.05413 c -3.2532,3.3298 -12.97129,13.35661 -21.59592,22.28187 -11.48441,11.8848 -16.2943,16.22756 -17.97351,16.22756 -1.26118,0 -10.22972,-4.8177 -19.9301,-10.70592 l -17.63658,-10.70608 -3.12688,-11.37413 C 166.95689,202.31983 139.18192,93.640902 139.18192,91.844474 c 0,-1.033812 0.69965,-2.620153 1.55458,-3.525074 0.85493,-0.904969 21.32021,-9.83795 45.47769,-19.850956 l 43.92306,-18.205553 8.04808,0.0861 c 14.43981,0.154008 35.15173,2.463968 35.94917,4.009251 0.40087,0.777253 0.99249,5.321503 1.31384,10.098104 0.32137,4.776725 0.81678,10.864788 1.10051,13.529065 l 0.51643,4.844046 16.5662,2.397526 c 65.12235,9.424194 95.4707,14.199793 99.62017,15.675577 5.7766,2.05483 10.1034,6.85794 11.46346,12.72468 2.0656,8.91117 1.01721,25.00918 -4.43213,68.05264 -3.54065,27.96994 -9.08672,61.31791 -11.46345,68.92571 -1.04409,3.34205 -3.10056,7.51688 -4.57023,9.2774 -3.79536,4.5461 -9.52842,4.40299 -21.87529,-0.54574 -5.14144,-2.06065 -9.42042,-3.61684 -9.50855,-3.4583 -0.0881,0.15853 -1.05265,2.06585 -2.14298,4.23824 -2.52071,5.02188 -7.42732,9.67819 -13.99172,13.27792 -4.28059,2.34703 -6.67341,2.88321 -14.06853,3.1518 -5.73952,0.20853 -10.73698,-0.2295 -14.04119,-1.23038 z m 25.82222,-4.2171 c 6.13176,-3.05148 4.2634,-4.22483 -7.88146,-4.9494 -9.10445,-0.54323 -12.50914,-1.25186 -19.4733,-4.05387 -4.6422,-1.86756 -10.90353,-5.04302 -13.91488,-7.05653 -6.78468,-4.53687 -7.87498,-4.63921 -6.12047,-0.57527 2.91244,6.74533 12.65584,14.31102 22.7001,17.62656 6.44131,2.12608 19.47761,1.60266 24.69001,-0.99149 z m 41.35394,-16.46361 c 1.53416,-0.69891 2.72548,-2.69984 3.95926,-6.65071 4.18228,-13.39552 14.98583,-89.45712 18.02139,-126.8794 1.18326,-14.58083 1.26545,-14.37091 -6.73635,-17.14021 -4.9324,-1.70701 -126.36665,-19.644773 -133.01641,-19.648628 -7.37148,-0.0041 -7.28177,-0.571577 -6.61703,41.834318 0.31379,20.00616 0.99196,44.51527 1.50783,54.46457 1.04032,20.08431 2.04568,24.14841 6.78142,27.41043 3.01189,2.07442 16.68281,8.16194 65.60331,29.2119 43.2079,18.59205 45.86406,19.5072 50.49658,17.39773 z m -19.44318,-14.97923 c -9.29739,-2.99494 -84.26954,-33.53604 -88.86503,-36.20048 -2.17898,-1.2636 -4.45523,-3.32829 -5.05761,-4.5882 -1.41325,-2.95518 -1.58785,-92.46009 -0.18646,-95.85687 0.57823,-1.40247 1.94577,-2.32383 3.76312,-2.53538 2.59651,-0.30236 29.04311,4.38587 80.16947,14.21186 28.8905,5.55231 30.20542,6.48361 30.20542,21.38466 0,18.48884 -7.61436,96.59247 -9.93088,101.8665 -0.96298,2.19235 -2.4794,3.88174 -3.39503,3.78243 -0.24399,-0.0265 -3.26072,-0.95559 -6.703,-2.06452 z M 197.47988,201.25654 c -1.68675,-7.82036 -2.8523,-14.63464 -2.59005,-15.1428 1.0457,-2.02744 4.2467,3.90389 6.61967,12.26764 3.43216,12.09686 2.58526,6.99982 -5.60516,-33.72712 -3.88403,-19.31343 -8.32205,-41.81924 -9.8621,-50.01293 -1.5406,-8.19364 -2.81956,-14.958254 -2.84262,-15.032364 -0.1736,-0.554673 -39.99182,-8.727842 -40.54042,-8.321309 -0.80656,0.596872 0.1741,4.917024 6.50901,28.674213 2.49711,9.36413 4.69384,16.22236 4.88081,15.2406 0.42287,-2.21436 3.52025,-1.80653 14.89396,1.96135 11.95724,3.96109 15.27384,5.98163 17.02079,10.37036 1.23648,3.10516 1.3106,4.2557 0.42397,6.58578 -0.9871,2.59516 -1.37673,2.76779 -4.81742,2.13666 -12.68644,-2.32708 -15.24485,-2.00429 -11.73857,1.48102 0.88183,0.87691 1.33211,3.25867 1.33211,7.04697 0,5.68925 0.016,5.72229 2.75341,5.72229 9.07975,0 18.35132,14.48818 24.00754,37.5166 3.18977,12.98752 2.91569,8.81403 -0.44493,-6.76696 z m -32.2076,-73.25575 c -5.4397,-1.67039 -10.89602,-3.82684 -12.12601,-4.79183 -3.14624,-2.46933 -4.6503,-7.14951 -3.28221,-10.21185 0.98072,-2.19486 1.49334,-2.3227 6.95934,-1.73456 3.24562,0.34933 9.1684,1.85783 13.16203,3.35215 8.44189,3.15901 11.8396,6.85471 11.8396,12.87764 0,3.50846 -0.12303,3.64083 -3.33162,3.59419 -1.8324,-0.0265 -7.78203,-1.41509 -13.22113,-3.08574 z m 12.11044,-1.72425 c 0,-3.85326 -4.61003,-6.46901 -16.71562,-9.48425 -7.83199,-1.95098 -7.27095,-1.93689 -7.27095,-0.18437 0,1.74727 4.34508,4.12987 13.77033,7.5506 7.15061,2.59548 10.21624,3.23094 10.21624,2.11802 z m 1.77705,-4.71859 c 0,-0.58517 -0.42348,-1.06409 -0.94094,-1.06409 -0.51746,0 -0.6937,0.47892 -0.39172,1.06409 0.70339,1.36363 1.33266,1.36363 1.33266,0 z m 12.80684,82.68782 c -0.77168,-2.71141 -2.9974,-6.98237 -4.94641,-9.4913 -3.74216,-4.8167 -3.70079,-3.89801 0.11017,2.45289 1.26173,2.10243 3.04521,5.81825 3.96353,8.25772 2.16877,5.76139 2.66208,5.07205 0.87271,-1.21931 z m -10.14158,-55.51559 c 0,-2.17742 -2.45947,-3.53799 -12.78482,-7.07316 -10.34302,-3.5408 -11.19317,-3.67082 -9.31779,-1.42445 1.14244,1.36813 19.2616,9.82195 21.43631,10.00129 0.36647,0.0302 0.6663,-0.6464 0.6663,-1.50368 z" />
      <path
         style="fill:#aaaaaa"
         inkscape:connector-curvature="0"
         id="svg_4"
         d="m 313.75119,276.17515 c -4.59816,-0.73062 -12.19372,-3.60007 -16.58662,-6.26636 -14.66234,-8.89976 -18.23147,-23.90163 -9.09854,-38.24436 1.31495,-2.06468 2.23487,-3.88963 2.04465,-4.05555 -0.19019,-0.16609 -7.10441,-3.2543 -15.36464,-6.86293 l -15.01918,-6.56095 -7.19092,7.26842 c -3.95495,3.9975 -13.76867,14.04209 -21.8081,22.32129 -8.03944,8.27903 -15.38456,15.05287 -16.32225,15.05287 -1.62066,0 -29.02003,-15.78735 -34.92613,-20.12424 -3.32568,-2.44182 -3.52828,-3.13754 -23.4186,-80.43372 -7.37951,-28.67754 -13.99654,-54.26152 -14.70422,-56.85315 -1.79587,-6.577564 -1.67977,-12.521975 0.26814,-13.754378 0.85548,-0.540916 21.51527,-9.266662 45.91129,-19.390603 l 44.35622,-18.407036 20.3653,1.560923 c 17.35292,1.330042 20.5319,1.834339 21.49324,3.409149 0.62064,1.016448 1.39283,5.790912 1.71632,10.609623 0.32295,4.818711 0.81248,10.742954 1.08761,13.165183 l 0.50028,4.404165 8.13186,1.186603 c 74.6986,10.900356 103.2017,15.354182 107.49626,16.797121 9.57626,3.2179 13.00242,9.62787 13.01209,24.34622 0.0124,19.06092 -10.9218,102.42079 -16.03637,122.25396 -1.23109,4.77576 -2.86357,8.31577 -5.17851,11.23035 -3.00272,3.78075 -3.84373,4.2562 -7.53215,4.2562 -2.34234,0 -8.46284,-1.66926 -14.04435,-3.83075 -9.29255,-3.59805 -9.94759,-3.71482 -10.7853,-1.92158 -1.75934,3.76515 -8.127,11.27045 -11.67625,13.76193 -6.47788,4.5471 -17.20246,6.58896 -26.69113,5.0816 z m 21.76568,-5.78169 c 2.68733,-1.49663 6.22851,-4.23321 7.8696,-6.08147 2.47023,-2.78272 2.88081,-3.86313 2.38855,-6.28465 -0.86729,-4.26408 -3.75827,-7.08773 -10.06198,-9.8275 l -5.57834,-2.4242 -2.94204,4.07685 -2.94257,4.07669 -9.47738,-4.46741 c -5.21234,-2.45725 -9.78421,-4.46758 -10.16036,-4.46758 -1.63034,0 -3.74266,-4.59273 -3.74266,-8.1376 l 0,-3.85675 -4.01302,0.65881 c -8.04263,1.32031 -11.59672,5.93452 -11.40381,14.80643 0.18489,8.51793 8.80891,17.90471 20.82853,22.67091 9.15657,3.63094 21.96614,3.30547 29.23548,-0.74253 z m 43.58078,-11.59742 c 0.93988,-0.60261 2.29022,-2.44232 3.00115,-4.08826 3.40362,-7.88445 17.8263,-114.47001 18.49585,-136.69118 0.20957,-6.9503 0.0978,-7.39605 -2.57985,-10.26566 -1.8904,-2.02593 -4.83031,-3.55326 -9.05502,-4.70414 -6.07372,-1.65483 -126.90455,-19.790048 -131.88424,-19.794404 -1.49385,-0.0014 -3.40685,1.104226 -4.80237,2.775329 l -2.3187,2.777521 0.56906,43.245094 c 0.63355,48.15337 1.63092,67.70268 3.69867,72.49238 1.74638,4.04548 3.59758,5.15105 23.52549,14.05232 24.89363,11.11946 90.9177,39.91815 92.89682,40.52026 3.09085,0.94015 6.70082,0.80393 8.45314,-0.31926 z m -22.70333,-20.92213 c -0.97748,-0.2956 -21.09186,-8.18642 -44.69959,-17.53512 -33.21193,-13.15243 -43.53995,-17.65843 -45.65069,-19.91789 -2.68837,-2.877 -2.73945,-3.12227 -3.45467,-16.68305 -0.88983,-16.88033 -1.00379,-52.11447 -0.22032,-68.3979 0.52392,-10.89382 0.76358,-12.17051 2.45626,-13.09422 1.98178,-1.08162 17.19437,1.53723 69.22618,11.91718 36.77086,7.33536 38.53339,7.93495 40.56141,13.7985 2.06665,5.97595 -0.27298,40.8457 -5.80511,86.52574 -2.59487,21.42593 -3.26123,23.52752 -7.53375,23.75736 -1.70665,0.0918 -3.90284,-0.075 -4.87972,-0.3706 z m -141.69913,17.30093 c 0,-0.25333 -1.58572,-8.274 -3.52449,-17.82385 -7.90187,-38.92683 -24.05321,-119.29509 -25.40788,-126.43102 -0.79798,-4.20028 -1.26603,-8.79239 -1.04037,-10.20463 0.32779,-2.054119 0.0341,-2.571967 -1.46587,-2.589242 -1.03173,-0.01189 -10.36459,-1.840716 -20.73986,-4.063812 -10.37532,-2.223014 -19.32554,-3.700687 -19.88922,-3.283495 -0.71956,0.532862 2.86837,15.903319 12.06471,51.682349 19.77477,76.93297 22.70927,87.95982 24.09674,90.53971 0.70179,1.3047 2.52616,3.1466 4.05383,4.09296 l 2.77868,1.72093 -1.79422,-3.02883 c -2.91788,-4.92625 -7.25218,-17.18684 -10.0384,-28.39538 -3.19351,-12.84526 -4.49821,-31.88457 -2.41055,-35.17192 3.4627,-5.45253 13.95406,3.20046 19.58828,16.15593 4.6578,10.70978 13.51777,44.85078 14.12767,54.4377 0.15583,2.444 -0.25576,3.94583 -1.29717,4.73232 -1.30256,0.9841 -0.71632,1.65047 4.02049,4.56974 5.42463,3.34339 6.87763,3.98996 6.87763,3.06054 z M 174.27356,151.47146 c -4.39774,-1.62413 -9.42739,-3.69368 -11.17814,-4.59911 -3.83995,-1.98634 -7.21025,-6.81811 -6.85127,-9.82245 0.21922,-1.83719 0.83501,-2.15632 3.81519,-1.97832 5.03075,0.30067 23.8007,7.94285 24.30633,9.89681 0.35629,1.37684 0.20744,1.39244 -1.08549,0.11441 -0.82373,-0.815 -1.72274,-1.21294 -1.99731,-0.88445 -0.53254,0.63851 2.17092,2.66025 3.65132,2.73054 1.04411,0.0495 2.09625,4.36558 1.53257,6.28632 -0.57072,1.94506 -3.23924,1.5634 -12.1932,-1.74375 z m 8.43975,-1.0648 c 0,-3.61299 -5.5891,-6.88978 -18.4185,-10.79918 -4.91465,-1.49764 -6.12961,-1.11815 -5.24623,1.63869 0.6384,1.99239 4.72822,4.21259 13.89232,7.54172 7.30325,2.65304 9.77241,3.06205 9.77241,1.61877 z m -12.43767,-22.02617 c -11.52959,-3.65829 -14.24482,-4.86234 -16.8204,-7.45816 -3.06992,-3.09409 -3.79268,-8.51696 -1.28858,-9.66796 2.97803,-1.36884 22.09562,4.29881 25.67277,7.61128 1.42725,1.3212 1.46703,1.50955 0.20959,0.98495 -0.85493,-0.35662 -1.55457,-0.17695 -1.55457,0.39916 0,1.60853 2.47509,3.70291 3.48855,2.95245 1.06018,-0.78459 2.27569,4.10269 1.42879,5.74415 -0.78884,1.5285 -5.24997,1.30181 -11.13615,-0.56587 z m 7.09365,-2.30006 c -0.0314,-4.2445 -1.66154,-5.27822 -13.74722,-8.7164 -9.0174,-2.56516 -11.1142,-2.7084 -11.1142,-0.7593 0,3.3714 5.94159,6.59514 17.86824,9.6943 7.37792,1.91722 7.00876,1.92879 6.99318,-0.2186 z m 21.01389,108.80358 c 0.60665,-1.89222 -1.56586,-13.21216 -5.13338,-26.7528 -2.0366,-7.7291 -3.30582,-10.64502 -6.17798,-14.1899 -6.41178,-7.91363 -14.13092,-9.76039 -14.13092,-3.38079 0,4.278 4.98938,24.9708 7.63693,31.67485 2.36009,5.97512 4.84856,8.67194 11.17704,12.11179 4.64387,2.52436 5.95771,2.63072 6.62831,0.53685 z" />
      <path
         style="fill:#030303"
         inkscape:connector-curvature="0"
         id="svg_10"
         d="m 308.7409,274.26917 c -14.91271,-4.98329 -24.26116,-15.67294 -24.20635,-27.67886 0.0188,-4.13054 2.999,-11.97372 5.95987,-15.68435 1.27945,-1.60349 2.15531,-3.07378 1.94628,-3.26739 -1.17037,-1.08627 -31.08937,-13.64935 -31.77178,-13.341 -0.45034,0.20333 -10.06636,9.94662 -21.3686,21.65174 -11.30276,11.70513 -21.39008,21.73797 -22.41586,22.29529 -1.52393,0.82775 -5.2086,-1.02236 -20.1321,-10.10901 l -18.26641,-11.12214 -1.66418,-5.85265 C 171.14672,211.19963 141.47866,94.12004 141.47866,91.68527 c 0,-2.62905 0.57391,-3.22009 5.10812,-5.26396 7.28063,-3.28153 81.81109,-34.11333 85.33133,-35.29992 3.18328,-1.07303 41.83759,1.86202 43.04718,3.26868 0.3697,0.42948 1.14783,7.07268 1.72975,14.76252 l 1.05806,13.98136 3.15644,0.60123 c 1.7362,0.33083 26.0651,3.94856 54.06521,8.03929 27.99955,4.09099 53.69543,8.19733 57.10177,9.12524 6.19571,1.6881 10.55425,4.89643 12.46724,9.17813 1.85009,4.13993 2.4874,14.9723 1.58088,26.85106 -1.89366,24.8039 -10.58219,88.99914 -14.19431,104.87306 -5.10382,22.42765 -8.85508,24.62235 -28.69222,16.78689 l -8.7815,-3.46871 -1.43635,2.6423 c -3.33592,6.13718 -7.76586,10.83594 -13.28345,14.09007 -5.48535,3.23535 -6.57031,3.48549 -16.11754,3.71835 -6.84433,0.16709 -11.77455,-0.26423 -14.87837,-1.30169 z m 27.6433,-3.0144 c 2.72655,-1.49512 6.31664,-3.96043 7.97815,-5.47837 3.15859,-2.88522 8.24468,-10.86663 7.49617,-11.76283 -0.23808,-0.28554 -5.19144,-2.61294 -11.0067,-5.17219 l -10.57415,-4.65313 -0.98176,2.79765 c -2.04733,5.83234 -2.82757,5.87814 -13.79612,0.81013 l -10.11253,-4.67275 -0.26331,-5.27034 -0.26331,-5.2705 -4.92055,-1.85783 c -4.72448,-1.78384 -4.99208,-1.78049 -6.72452,0.0872 -3.21663,3.46787 -6.9115,12.34632 -6.92006,16.62953 -0.0113,5.3985 1.75981,9.19553 6.73628,14.44271 11.42211,12.04233 30.83039,16.2373 43.35241,9.37068 z m 47.54219,-13.71982 c 3.71314,-4.54894 6.39993,-15.00908 10.27159,-39.9871 7.14363,-46.09039 11.79769,-89.42891 10.61661,-98.86388 -0.70018,-5.58892 -3.43211,-10.72232 -7.03727,-13.22235 -1.46427,-1.01531 -5.86043,-2.597 -9.76916,-3.51501 -10.10609,-2.3732 -122.29779,-18.6964 -128.50319,-18.6964 -7.4682,0 -8.21513,1.69825 -8.63373,19.63718 -0.38743,16.62198 1.43908,81.92315 2.6035,93.07415 1.33533,12.78369 1.15267,12.61491 24.9017,23.00108 7.13238,3.11891 17.12666,7.66517 22.21006,10.1028 5.08341,2.43745 17.63824,8.02302 27.89907,12.41225 51.54121,22.04683 50.74108,21.81514 55.44082,16.05728 z m -145.75023,-23.67096 20.55824,-21.23904 -2.6739,-3.30429 c -1.47074,-1.8174 -3.04305,-4.84707 -3.49443,-6.73241 -1.1967,-4.9962 -2.76955,-49.29436 -2.97213,-83.69051 -0.23375,-39.73428 -0.71627,-38.6777 17.03102,-37.30005 l 9.54132,0.74089 -1.03817,-12.38206 c -0.57068,-6.81008 -1.46592,-12.89458 -1.98876,-13.52089 -0.52282,-0.62639 -9.34355,-1.85728 -19.60174,-2.7354 l -18.65115,-1.59642 -44.26052,18.34858 c -24.34342,10.09173 -44.96073,18.79257 -45.81566,19.33512 -0.85493,0.54255 -1.55458,1.9147 -1.55458,3.04908 0,1.89747 25.23004,101.17821 32.5832,128.2152 1.75075,6.43781 3.79643,12.54764 4.54554,13.57738 2.1849,3.00249 34.76006,22.22969 36.07765,21.2944 0.6357,-0.45112 10.40701,-10.37794 21.71407,-22.05958 z" />
      <g
         id="g4626"
         style="fill:#4d4d4d">
        <path
           d="m 310.3868,275.28096 c -11.759,-2.80117 -22.46367,-10.75776 -25.59972,-19.02739 -3.15752,-8.32752 -1.66255,-17.98658 3.83673,-24.79264 2.06345,-2.55405 2.44713,-3.5645 1.50947,-3.97603 -0.69107,-0.30332 -7.77933,-3.43113 -15.75106,-6.95067 -7.9717,-3.51954 -14.63977,-6.39905 -14.81764,-6.39905 -0.17786,0 -10.03139,10.05583 -21.89732,22.34612 -11.86596,12.29045 -22.30896,22.34628 -23.20686,22.34628 -2.58846,0 -36.28405,-20.51849 -37.57098,-22.87827 -0.63841,-1.17049 -6.62561,-23.19753 -13.30554,-48.94876 -25.92534,-99.94627 -25.32083,-97.21019 -21.9591,-99.33967 0.85548,-0.54168 21.50184,-9.25123 45.88119,-19.35454 l 44.32612,-18.36954 20.34543,1.59561 c 12.63651,0.99099 20.73932,2.06699 21.38472,2.83992 0.57118,0.68445 1.52284,7.26758 2.11501,14.62911 0.59217,7.36148 1.23109,13.57012 1.42077,13.79694 0.18915,0.22682 18.50822,3.05404 40.70861,6.2825 73.80447,10.73289 76.81582,11.30765 81.87505,15.6226 6.14576,5.24131 7.16244,15.69307 4.28059,43.98912 -2.08223,20.44736 -7.67884,62.27786 -10.67676,79.80795 -3.1688,18.52578 -5.35477,25.98293 -8.9411,30.49866 -2.85927,3.5999 -3.73729,4.08474 -7.39619,4.08474 -2.34234,0 -8.46284,-1.66927 -14.04435,-3.83075 -9.3925,-3.63697 -9.93954,-3.73176 -10.80736,-1.87393 -2.12364,4.54458 -8.86695,11.90812 -13.22381,14.43919 -8.80249,5.11431 -17.24491,6.14036 -28.48591,3.4625 z m 18.4362,-2.12307 c 2.87541,-0.89704 7.19952,-2.91609 9.6085,-4.48653 4.31824,-2.8151 11.29956,-11.13674 11.29956,-13.46868 0,-1.0695 -20.34383,-10.92552 -20.7221,-10.03922 -1.97106,4.61874 -3.44607,6.80489 -4.75561,7.04848 -0.8899,0.16558 -5.81582,-1.59461 -10.94601,-3.91144 -9.91318,-4.47647 -12.23402,-6.93473 -12.37266,-13.10647 -0.0548,-2.43309 -0.63785,-3.08922 -3.73088,-4.19915 -3.61534,-1.29733 -3.70505,-1.26394 -6.52836,2.42605 -4.36227,5.70149 -6.17907,12.30555 -4.92327,17.8933 2.11235,9.3945 13.39633,18.74169 26.34665,21.8242 8.1496,1.93987 10.55961,1.94272 16.72418,0.0195 z m 51.73304,-14.28468 c 2.14352,-1.56524 3.186,-3.45813 4.24621,-7.71064 3.92647,-15.74423 17.34432,-117.22974 17.34432,-131.18174 0,-10.43783 -3.49554,-14.76935 -14.08901,-17.45917 -6.07533,-1.54256 -126.40481,-19.27686 -130.64883,-19.25522 -7.25221,0.0372 -7.66056,1.85419 -7.40965,32.97105 0.2676,33.20434 1.86678,77.85246 3.01081,84.06396 1.11341,6.04474 3.32034,8.85731 9.08622,11.57746 22.75223,10.73427 99.98504,44.34546 108.06797,47.03054 7.30323,2.42605 7.01951,2.42689 10.39196,-0.0362 z m -36.59943,-27.69647 c -21.6351,-7.93344 -73.42886,-28.79114 -76.10382,-30.64763 -1.30202,-0.90375 -2.81361,-2.8156 -3.35846,-4.24848 -2.56967,-6.75539 -3.3037,-84.3237 -0.85013,-89.81545 1.36919,-3.06427 6.36987,-2.48962 38.6559,4.44158 31.16675,6.6908 41.60224,9.34669 59.86863,15.23708 14.22709,4.58799 13.89285,3.94499 12.46885,23.97778 -2.27299,31.97515 -7.89754,79.96515 -9.89597,84.43776 -1.32782,2.97162 -5.15434,2.34871 -20.785,-3.38264 z M 215.1552,252.70903 c -2.23755,-10.54336 -10.45698,-56.20074 -12.02069,-66.77262 -3.87384,-26.19616 -3.22201,-46.37372 2.23431,-69.1554 1.12257,-4.68836 2.50569,-11.25669 3.07372,-14.59618 1.6024,-9.42621 6.93783,-14.60108 27.98775,-27.14671 9.30056,-5.54333 16.31042,-9.8483 15.57746,-9.56684 -0.73299,0.28156 -16.07616,7.58285 -34.09594,16.22509 l -32.76319,15.71337 -7.2146,-1.3089 c -3.96783,-0.71988 -12.73107,-2.51514 -19.47383,-3.9895 -6.74276,-1.47427 -13.26735,-2.37752 -14.49953,-2.00709 -1.99786,0.60038 -2.17251,1.04383 -1.61423,4.09245 0.71253,3.89278 31.19634,121.91575 34.3909,133.15147 1.9764,6.95034 2.36169,7.54087 6.9217,10.6004 l 4.8287,3.24004 -3.01352,-4.15872 c -4.7986,-6.62319 -8.10657,-17.10615 -12.9433,-41.01987 -4.3053,-21.285 -2.39234,-28.85959 6.00657,-23.78554 7.35481,4.44309 12.60534,14.1748 17.91392,33.20236 4.68035,16.77548 8.95561,37.58554 8.20434,39.93157 -0.33207,1.03595 -1.58517,1.78569 -3.03608,1.81656 -2.02207,0.0431 -1.26063,0.80711 4.19195,4.20385 8.25491,5.143 10.21195,5.42166 9.34359,1.33021 z m -34.66283,-99.36129 c -12.1593,-3.32661 -21.20949,-8.26057 -23.07359,-12.57882 -1.39495,-3.23103 -1.02793,-6.44218 0.73673,-6.44084 3.34561,0.003 25.11664,8.36105 22.06229,8.47043 -0.65827,0.0235 -0.88448,0.58181 -0.52071,1.2866 0.43096,0.83563 0.15908,1.02286 -0.82753,0.56939 -3.2306,-1.48489 -16.27707,-5.9597 -18.28357,-6.27108 -2.81202,-0.43635 -3.30637,1.62195 -1.00702,4.18828 1.83724,2.05026 18.56409,8.84322 21.67595,8.80279 1.31004,-0.0171 1.5368,-0.5647 1.0994,-2.65236 -0.49759,-2.37472 -0.35519,-2.54399 1.4584,-1.74023 1.43258,0.63466 2.00975,1.7471 2.00975,3.87218 0,3.50763 -0.59918,3.78814 -5.3301,2.49366 z m -13.43715,-26.40903 c -5.43591,-1.66943 -10.71274,-3.56685 -11.7257,-4.21627 -4.05328,-2.59834 -6.1683,-10.08653 -3.2306,-11.43686 1.73138,-0.79571 10.61765,1.15875 18.36259,4.03856 4.93353,1.83455 5.75836,2.45809 4.78898,3.61936 -0.96944,1.16148 -2.60887,0.96117 -9.51396,-1.16223 -9.35806,-2.87751 -13.2351,-3.25229 -13.21523,-1.27775 0.038,3.71906 3.81794,6.01912 15.31952,9.32207 9.5107,2.73088 9.84388,2.71142 9.32477,-0.54326 -0.42557,-2.66407 0.50998,-3.61127 1.55887,-1.57879 0.30688,0.59485 0.90115,0.82741 1.32083,0.51667 0.95761,-0.70876 2.08926,3.32531 1.3402,4.77698 -0.8453,1.63873 -3.56323,1.24817 -14.33027,-2.05848 z m 31.86154,108.24794 c 1.0194,-3.66365 -6.53642,-33.88515 -9.74765,-38.98722 -2.91194,-4.62662 -9.66653,-9.73104 -12.87727,-9.73104 -4.09251,0 -4.36764,3.1248 -1.43259,16.24787 4.87652,21.80054 6.67349,25.47862 14.96114,30.62733 5.24673,3.2595 8.51767,3.92217 9.09637,1.84306 z"
           id="svg_5"
           inkscape:connector-curvature="0"
           style="fill:#4d4d4d" />
        <text
           xml:space="preserve"
           style="font-size:37.12659836px;font-style:normal;font-weight:normal;line-height:125%;letter-spacing:0px;word-spacing:0px;fill:#4d4d4d;fill-opacity:1;stroke:none;font-family:FreeSans;-inkscape-font-specification:FreeSans"
           x="239.88293"
           y="263.2663"
           id="text3083"
           sodipodi:linespacing="125%"><tspan
             sodipodi:role="line"
             x="239.88293"
             y="263.2663"
             style="fill:#4d4d4d;font-family:FreeSans;-inkscape-font-specification:FreeSans"
             id="tspan3776" /><tspan
             sodipodi:role="line"
             x="239.88293"
             y="295.22083"
             style="font-size:20px;fill:#4d4d4d;font-family:FreeSans;-inkscape-font-specification:FreeSans"
             id="tspan3782">PC 1</tspan></text>
      </g>
    </g>
    <g
       id="g5893"
       transform="matrix(1.0937507,0,0,1,-36.295035,5)">
      <g
         id="g5745"
         transform="matrix(0.72727272,0,0,0.7242883,121.58435,-199.97936)">
        <path
           transform="matrix(1.7647473,0.09148875,-0.06247649,2.5842447,383.47465,250.25085)"
           d="m 114.5,115 c 0,5.79899 -23.616979,10.5 -52.75,10.5 C 32.616979,125.5 9,120.79899 9,115 c 0,-5.79899 23.616979,-10.5 52.75,-10.5 29.133021,0 52.75,4.70101 52.75,10.5 z"
           sodipodi:ry="10.5"
           sodipodi:rx="52.75"
           sodipodi:cy="115"
           sodipodi:cx="61.75"
           id="path3622"
           style="color:#000000;fill:url(#radialGradient5771);fill-opacity:1;fill-rule:evenodd;stroke:none;stroke-width:1;marker:none;visibility:visible;display:inline;overflow:visible"
           sodipodi:type="arc" />
        <path
           transform="matrix(1.3044673,0.06762665,-0.04618136,1.910224,373.38166,314.29004)"
           d="m 114.5,115 c 0,5.79899 -23.616979,10.5 -52.75,10.5 C 32.616979,125.5 9,120.79899 9,115 c 0,-5.79899 23.616979,-10.5 52.75,-10.5 29.133021,0 52.75,4.70101 52.75,10.5 z"
           sodipodi:ry="10.5"
           sodipodi:rx="52.75"
           sodipodi:cy="115"
           sodipodi:cx="61.75"
           id="path3640"
           style="color:#000000;fill:url(#radialGradient5773);fill-opacity:1;fill-rule:evenodd;stroke:none;stroke-width:1;marker:none;visibility:visible;display:inline;overflow:visible"
           sodipodi:type="arc" />
        <path
           id="path2886"
           d="m 561.40197,556.26012 38.40729,-17.45458 -40.61461,-35.55562 2.20732,53.0102 z"
           style="fill:url(#linearGradient5775);fill-opacity:1;fill-rule:evenodd;stroke:none"
           inkscape:connector-curvature="0" />
        <path
           sodipodi:nodetypes="ccccccccccccc"
           id="rect1383"
           d="m 505.60961,286.03974 c -0.19795,0 0.19124,0.28392 0,0.32439 l 0,-0.2433 -109.61285,33.65589 0,207.61225 109.61285,36.25103 0,-0.32441 c 0.23259,0.0603 -0.24291,0.40548 0,0.40548 l 56.92852,-10.38061 c 2.55466,0 4.5837,-3.47232 4.5837,-7.78546 l 0,-241.34923 c 0,-4.31314 -2.02904,-7.78546 -4.5837,-7.78546 l -56.92852,-10.38057 z"
           style="color:#000000;fill:#241c1f;fill-opacity:1;fill-rule:evenodd;stroke:#9e9e9e;stroke-width:5.59676981;stroke-linecap:round;stroke-linejoin:round;stroke-miterlimit:4;stroke-opacity:1;stroke-dasharray:none;stroke-dashoffset:0;marker:none;visibility:visible;display:inline;overflow:visible"
           inkscape:connector-curvature="0" />
        <path
           sodipodi:nodetypes="ccccc"
           id="path2841"
           d="m 504.74203,289.42611 -0.0578,270.90861 60.125,-10.72543 -0.0281,-249.43801 -60.03917,-10.74517 z"
           style="fill:#cccccc;fill-opacity:1;fill-rule:evenodd;stroke:none"
           inkscape:connector-curvature="0" />
        <path
           sodipodi:nodetypes="ccccc"
           id="path2851"
           d="m 510.1921,309.37077 0,34.26269 49.10915,3.23233 -0.30732,-30.99787 -48.80183,-6.49715 z"
           style="fill:url(#linearGradient5777);fill-opacity:1;fill-rule:evenodd;stroke:#797979;stroke-width:2.13687897;stroke-linecap:butt;stroke-linejoin:miter;stroke-miterlimit:4;stroke-opacity:1;stroke-dasharray:none"
           inkscape:connector-curvature="0" />
        <path
           sodipodi:nodetypes="ccccc"
           id="path2853"
           d="m 510.1922,351.67348 48.89258,2.58586 0.21659,30.70712 -49.10915,0 0,-33.29298 z"
           style="fill:url(#linearGradient5779);fill-opacity:1;fill-rule:evenodd;stroke:#797979;stroke-width:2.13687944;stroke-linecap:butt;stroke-linejoin:miter;stroke-miterlimit:4;stroke-opacity:1;stroke-dasharray:none"
           inkscape:connector-curvature="0" />
        <path
           transform="matrix(1.7658527,0,0,2.5858633,357.68013,250.54238)"
           d="m 111.5,65.75 c 0,2.071068 -1.11929,3.75 -2.5,3.75 -1.38071,0 -2.5,-1.678932 -2.5,-3.75 0,-2.071068 1.11929,-3.75 2.5,-3.75 1.38071,0 2.5,1.678932 2.5,3.75 z"
           sodipodi:ry="3.75"
           sodipodi:rx="2.5"
           sodipodi:cy="65.75"
           sodipodi:cx="109"
           id="path2872"
           style="color:#000000;fill:url(#radialGradient5781);fill-opacity:1;fill-rule:evenodd;stroke:#399712;stroke-width:1;stroke-linecap:round;stroke-linejoin:round;stroke-miterlimit:4;stroke-opacity:1;stroke-dasharray:none;stroke-dashoffset:0;marker:none;visibility:visible;display:inline;overflow:visible"
           sodipodi:type="arc" />
        <g
           transform="matrix(4.6249999,0,0,6.7727153,378.20351,257.53663)"
           id="g5005">
          <path
             style="fill:none;stroke:#ffffff;stroke-width:1;stroke-linecap:butt;stroke-linejoin:miter;stroke-miterlimit:4;stroke-opacity:0.57599996;stroke-dasharray:none"
             d="m 29.005156,38.5 9.354247,-0.687573"
             id="path2882"
             inkscape:connector-curvature="0" />
          <path
             style="fill:none;stroke:#000000;stroke-width:1;stroke-linecap:butt;stroke-linejoin:miter;stroke-miterlimit:4;stroke-opacity:0.41999996;stroke-dasharray:none"
             d="M 28.981293,37.5 38.33554,36.812426"
             id="path2884"
             inkscape:connector-curvature="0" />
        </g>
        <path
           sodipodi:nodetypes="ccccccccc"
           id="path4854"
           d="m 504.30728,294.50206 c -0.18584,0 0.17949,0.27233 0,0.31115 l 0,-0.23336 -102.89342,32.28176 0,199.13562 102.89342,34.77097 0,-0.31114 c 0.2183,0.0583 -0.22806,0.38896 0,0.38896 l 0,-266.34393 z"
           style="color:#000000;fill:#cccccc;fill-opacity:1;fill-rule:evenodd;stroke:none;stroke-width:3;marker:none;visibility:visible;display:inline;overflow:visible"
           inkscape:connector-curvature="0" />
        <path
           sodipodi:nodetypes="ccccccccccccc"
           id="path4864"
           d="m 504.30954,292.81245 c -0.18726,0 0.18093,0.27008 0,0.30857 l 0,-0.23142 -103.68779,32.01414 0,197.48476 103.68779,34.48269 0,-0.30856 c 0.22001,0.0576 -0.22981,0.3857 0,0.3857 l 53.85128,-9.87425 c 2.41658,0 4.33594,-3.30293 4.33594,-7.40569 l 0,-229.57605 c 0,-4.10275 -1.91936,-7.40568 -4.33594,-7.40568 l -53.85128,-9.87421 z"
           style="color:#000000;fill:none;stroke:url(#linearGradient5783);stroke-width:5.59676647;stroke-linecap:round;stroke-linejoin:round;stroke-miterlimit:4;stroke-opacity:1;stroke-dasharray:none;stroke-dashoffset:0;marker:none;visibility:visible;display:inline;overflow:visible"
           inkscape:connector-curvature="0" />
        <path
           id="path4874"
           d="m 502.37175,296.53858 0,254.70755"
           style="fill:none;stroke:url(#linearGradient5785);stroke-width:5.59676743;stroke-linecap:round;stroke-linejoin:round;stroke-miterlimit:4;stroke-opacity:1;stroke-dasharray:none"
           inkscape:connector-curvature="0" />
        <path
           style="opacity:0.81171546;fill:#ffffff;fill-opacity:1;stroke:none"
           d="m 414.62888,465.7347 c -2.43688,-0.32279 -4.41464,3.16137 -4.41463,7.75759 0,4.59621 1.97775,8.56613 4.41463,8.8889 2.43688,0.32279 4.41463,-3.08057 4.41463,-7.67678 0,-4.59622 -1.97775,-8.64694 -4.41463,-8.96971 z m 16.22377,1.53535 c -2.6334,-0.34879 -4.74573,3.37019 -4.74573,8.32325 0,4.95306 2.11233,9.26736 4.74573,9.61618 2.6334,0.34879 4.80092,-3.37019 4.80091,-8.32325 0,-4.95307 -2.16751,-9.26737 -4.80091,-9.61618 z m 19.14847,1.45455 c -2.95177,-0.39099 -5.35275,3.8426 -5.35275,9.37376 0,5.53116 2.40098,10.2757 5.35275,10.66668 2.95176,0.39099 5.35273,-3.76178 5.35273,-9.29295 0,-5.53116 -2.40097,-10.35651 -5.35273,-10.74749 z m 19.31401,1.9394 c -3.14829,-0.417 -5.68384,4.05141 -5.68384,9.93941 0,5.88801 2.53555,10.97696 5.68384,11.39396 3.14829,0.417 5.73902,-4.05141 5.73902,-9.93941 0,-5.88801 -2.59073,-10.97696 -5.73902,-11.39396 z m 21.02468,2.34344 c -3.28978,-0.43576 -5.95975,4.1985 -5.95975,10.34345 0,6.14494 2.66997,11.44306 5.95975,11.87881 3.28979,0.43575 5.95976,-4.1985 5.95976,-10.34346 0,-6.14494 -2.66997,-11.44306 -5.95976,-11.8788 z"
           id="path5768"
           inkscape:connector-curvature="0" />
        <path
           id="path4886"
           d="m 413.30449,463.7953 c -2.43688,-0.32279 -4.41463,3.16138 -4.41463,7.75759 0,4.59621 1.97775,8.56613 4.41463,8.8889 2.43688,0.32279 4.41463,-3.08056 4.41463,-7.67678 0,-4.59622 -1.97775,-8.64694 -4.41463,-8.96971 z m 16.22377,1.53535 c -2.6334,-0.34879 -4.74573,3.37019 -4.74573,8.32325 0,4.95307 2.11233,9.26737 4.74573,9.61618 2.6334,0.3488 4.80091,-3.37019 4.80091,-8.32325 0,-4.95306 -2.16751,-9.26736 -4.80091,-9.61618 z m 19.14846,1.45455 c -2.95176,-0.39099 -5.35273,3.84259 -5.35273,9.37376 0,5.53116 2.40097,10.2757 5.35273,10.66668 2.95177,0.39099 5.35274,-3.76179 5.35275,-9.29295 0,-5.53116 -2.40098,-10.35651 -5.35275,-10.74749 z m 19.31402,1.9394 c -3.14829,-0.417 -5.68384,4.05141 -5.68384,9.93941 0,5.88801 2.53555,10.97696 5.68384,11.39396 3.14829,0.417 5.73902,-4.0514 5.73902,-9.93941 0,-5.88801 -2.59073,-10.97696 -5.73902,-11.39396 z m 21.02468,2.34343 c -3.28978,-0.43575 -5.95975,4.19851 -5.95975,10.34346 0,6.14494 2.66997,11.44306 5.95975,11.87881 3.28979,0.43576 5.95975,-4.19851 5.95975,-10.34345 0,-6.14495 -2.66996,-11.44307 -5.95975,-11.87882 z"
           style="opacity:0.81171546;fill:#6b6b6b;fill-opacity:1;stroke:none"
           inkscape:connector-curvature="0" />
        <path
           style="opacity:0.81171546;fill:#ffffff;fill-opacity:1;stroke:none"
           d="m 414.62888,494.9432 c -2.43688,-0.6472 -4.41464,2.57368 -4.41463,7.16989 0,4.59622 1.97775,8.82943 4.41463,9.4766 2.43688,0.6472 4.41463,-2.49287 4.41463,-7.08909 0,-4.59621 -1.97775,-8.91022 -4.41463,-9.5574 z m 16.22377,3.69514 c -2.6334,-0.69938 -4.74573,2.73841 -4.74573,7.69147 0,4.95307 2.11233,9.54857 4.74573,10.24795 2.6334,0.69937 4.80092,-2.73106 4.80091,-7.68412 0,-4.95307 -2.16751,-9.55592 -4.80091,-10.2553 z m 19.14847,4.00367 c -2.95177,-0.78392 -5.35275,3.13002 -5.35275,8.66118 0,5.53116 2.40098,10.59535 5.35275,11.37927 2.95176,0.78393 5.35273,-3.04919 5.35273,-8.58037 0,-5.53116 -2.40097,-10.67614 -5.35273,-11.46008 z m 19.31401,4.51057 c -3.14829,-0.83612 -5.68384,3.29475 -5.68384,9.18275 0,5.88801 2.53555,11.31453 5.68384,12.15064 3.14829,0.83611 5.73902,-3.28741 5.73902,-9.17542 0,-5.88801 -2.59073,-11.32185 -5.73902,-12.15797 z m 21.02468,5.14235 c -3.28978,-0.8737 -5.95975,3.40511 -5.95975,9.55005 0,6.14494 2.66997,11.79852 5.95975,12.67221 3.28979,0.87371 5.95976,-3.40512 5.95976,-9.55006 0,-6.14494 -2.66997,-11.79851 -5.95976,-12.6722 z"
           id="path5770"
           inkscape:connector-curvature="0" />
        <path
           id="path5772"
           d="m 413.30449,492.82749 c -2.43688,-0.6472 -4.41463,2.57369 -4.41463,7.16989 0,4.59622 1.97775,8.82943 4.41463,9.4766 2.43688,0.6472 4.41463,-2.49286 4.41463,-7.08908 0,-4.59622 -1.97775,-8.91022 -4.41463,-9.55741 z m 16.22377,3.69514 c -2.6334,-0.69938 -4.74573,2.73842 -4.74573,7.69147 0,4.95307 2.11233,9.54858 4.74573,10.24795 2.6334,0.69938 4.80091,-2.73107 4.80091,-7.68412 0,-4.95306 -2.16751,-9.55592 -4.80091,-10.2553 z m 19.14846,4.00368 c -2.95176,-0.78393 -5.35273,3.13001 -5.35273,8.66117 0,5.53117 2.40097,10.59533 5.35273,11.37928 2.95177,0.78393 5.35274,-3.04922 5.35275,-8.58037 0,-5.53116 -2.40098,-10.67615 -5.35275,-11.46008 z m 19.31402,4.51057 c -3.14829,-0.83613 -5.68384,3.29475 -5.68384,9.18275 0,5.88801 2.53555,11.3145 5.68384,12.15061 3.14829,0.83614 5.73902,-3.28738 5.73902,-9.17539 0,-5.88801 -2.59073,-11.32185 -5.73902,-12.15797 z m 21.02468,5.14234 c -3.28978,-0.8737 -5.95975,3.40512 -5.95975,9.55006 0,6.14494 2.66997,11.79852 5.95975,12.67221 3.28979,0.87368 5.95975,-3.40512 5.95975,-9.55007 0,-6.14494 -2.66996,-11.7985 -5.95975,-12.6722 z"
           style="opacity:0.81171546;fill:#6b6b6b;fill-opacity:1;stroke:none"
           inkscape:connector-curvature="0" />
        <g
           transform="matrix(4.6249999,0,0,6.7727153,378.20351,275.17213)"
           id="g5009">
          <path
             style="fill:none;stroke:#ffffff;stroke-width:1;stroke-linecap:butt;stroke-linejoin:miter;stroke-miterlimit:4;stroke-opacity:0.57599996;stroke-dasharray:none"
             d="m 29.005156,38.5 9.354247,-0.687573"
             id="path5011"
             inkscape:connector-curvature="0" />
          <path
             style="fill:none;stroke:#000000;stroke-width:1;stroke-linecap:butt;stroke-linejoin:miter;stroke-miterlimit:4;stroke-opacity:0.41999996;stroke-dasharray:none"
             d="M 28.981293,37.5 38.33554,36.812426"
             id="path5013"
             inkscape:connector-curvature="0" />
        </g>
        <g
           style="fill:#b3b3b3"
           transform="matrix(4.6249999,0,0,6.7727153,378.20351,239.90113)"
           id="g5015">
          <path
             style="fill:#b3b3b3;stroke:#ffffff;stroke-width:1;stroke-linecap:butt;stroke-linejoin:miter;stroke-miterlimit:4;stroke-opacity:0.57599996;stroke-dasharray:none"
             d="m 29.005156,38.5 9.354247,-0.687573"
             id="path5017"
             inkscape:connector-curvature="0" />
          <path
             style="fill:#b3b3b3;stroke:#000000;stroke-width:1;stroke-linecap:butt;stroke-linejoin:miter;stroke-miterlimit:4;stroke-opacity:0.41999996;stroke-dasharray:none"
             d="M 28.981293,37.5 38.33554,36.812426"
             id="path5019"
             inkscape:connector-curvature="0" />
        </g>
      </g>
      <text
         sodipodi:linespacing="125%"
         id="text5847"
         y="207.194"
         x="446.88293"
         style="font-size:37.12659836px;font-style:normal;font-weight:normal;line-height:125%;letter-spacing:0px;word-spacing:0px;fill:#4d4d4d;fill-opacity:1;stroke:none;font-family:FreeSans;-inkscape-font-specification:FreeSans"
         xml:space="preserve"><tspan
           id="tspan5849"
           style="fill:#4d4d4d;font-family:FreeSans;-inkscape-font-specification:FreeSans"
           y="207.194"
           x="446.88293"
           sodipodi:role="line" /><tspan
           id="tspan5851"
           style="font-size:20px;fill:#4d4d4d;font-family:FreeSans;-inkscape-font-specification:FreeSans"
           y="239.14851"
           x="446.88293"
           sodipodi:role="line">Server 1</tspan></text>
    </g>
  </g>
</svg>
