<?xml version="1.0" encoding="UTF-8" standalone="no"?>
<!-- Created with Inkscape (http://www.inkscape.org/) -->

<svg
   xmlns:dc="http://purl.org/dc/elements/1.1/"
   xmlns:cc="http://creativecommons.org/ns#"
   xmlns:rdf="http://www.w3.org/1999/02/22-rdf-syntax-ns#"
   xmlns:svg="http://www.w3.org/2000/svg"
   xmlns="http://www.w3.org/2000/svg"
   xmlns:sodipodi="http://sodipodi.sourceforge.net/DTD/sodipodi-0.dtd"
   xmlns:inkscape="http://www.inkscape.org/namespaces/inkscape"
   id="svg3599"
   version="1.1"
   inkscape:version="0.48.0 r9654"
   width="80.21875"
   height="67.082298"
   sodipodi:docname="dlink_wireless_router.svg"
   style="display:inline">
  <metadata
     id="metadata3605">
    <rdf:RDF>
      <cc:Work
         rdf:about="">
        <dc:format>image/svg+xml</dc:format>
        <dc:type
           rdf:resource="http://purl.org/dc/dcmitype/StillImage" />
        <dc:title />
      </cc:Work>
    </rdf:RDF>
  </metadata>
  <defs
     id="defs3603" />
  <sodipodi:namedview
     pagecolor="#ffffff"
     bordercolor="#666666"
     borderopacity="1"
     objecttolerance="10"
     gridtolerance="10"
     guidetolerance="10"
     inkscape:pageopacity="0"
     inkscape:pageshadow="2"
     inkscape:window-width="1280"
     inkscape:window-height="742"
     id="namedview3601"
     showgrid="false"
     inkscape:zoom="7.068493"
     inkscape:cx="-1.2830098"
     inkscape:cy="29.002449"
     inkscape:window-x="0"
     inkscape:window-y="24"
     inkscape:window-maximized="1"
     inkscape:current-layer="layer3"
     fit-margin-top="0"
     fit-margin-left="0"
     fit-margin-right="0"
     fit-margin-bottom="0" />
  <g
     inkscape:groupmode="layer"
     id="layer3"
     inkscape:label="dlink"
     style="display:inline"
     transform="translate(-32.90625,14.488548)"
     sodipodi:insensitive="true">
    <path
       inkscape:connector-curvature="0"
       d="m 34.094962,42.007751 77.810078,0 m -72.690762,-15.224214 64.223382,0 8.64356,15.214951 0.0404,9.597414 -78.212015,0 -0.0133,-9.385204 z"
       style="fill:#cccccf;fill-opacity:1;stroke:none;display:inline"
       id="path4102" />
    <path
       style="fill:#666666;fill-opacity:1;stroke:none;display:inline"
       d="m 54.619887,51.792643 0,-9.80357 1.800656,-15.805755 -17.406338,0.400146 -5.001821,15.805755 0.200073,9.203351 z"
       id="path5603"
       inkscape:connector-curvature="0" />
    <path
       style="fill:#666666;fill-opacity:1;stroke:none;display:inline"
       d="m 54.625,49.625 0,-4.09375 z m 0,-4.09375 0,4.09375 3.84375,0 c 1.081618,0.07308 1.91169,-1.030391 1.875,-2.0625 0.0013,-0.903487 -0.59,-1.900012 -1.53125,-2.03125 -1.398508,-0.0017 -4.1875,0 -4.1875,0 z"
       id="path5603-2"
       inkscape:connector-curvature="0"
       sodipodi:nodetypes="ccccccccc" />
    <path
       sodipodi:nodetypes="cccccccsc"
       inkscape:connector-curvature="0"
       id="path4129"
       d="m 54.625,48.402447 0,-1.688645 z m 0,-1.688645 0,1.688645 55.20183,0 c 0.55578,0 0.90631,-0.374695 0.90631,-0.850766 0,-0.485774 -0.38616,-0.83785 -0.9812,-0.837879 -13.721128,-6.65e-4 -55.12694,0 -55.12694,0 z"
       style="fill:#666666;fill-opacity:1;stroke:none;display:inline" />
    <path
       style="fill:#0197fd;fill-opacity:1;stroke:none;display:inline"
       d="m 49.28125,45.53125 c -0.864188,0.148684 -1.523988,1.053145 -1.53125,1.9375 -0.0846,1.044532 0.748528,2.18034 1.84375,2.15625 l 5.03125,0 0,-4.09375 c -1.649032,9.21e-4 -3.288484,6.4e-5 -4.9375,0 -0.13044,-0.01131 -0.282795,-0.02124 -0.40625,0 z"
       id="path5603-3"
       inkscape:connector-curvature="0" />
    <path
       inkscape:connector-curvature="0"
       id="path5603-0-6"
       style="fill:none;stroke:#666666;stroke-opacity:1;display:inline"
       d="m 86.520958,28.71875 5.25,0 c 0.535576,0 1.017206,-0.09267 1.375,-0.03125 0.357794,0.06142 0.603499,0.258285 0.75,0.84375 l 2.0625,8.40625 c 0.29262,1.185488 0.288197,1.222795 -0.75,1.375 l -7.5,0 m -1.166791,-10.59375 -35.666667,0 c -0.535576,0 -1.017206,-0.09267 -1.375,-0.03125 -0.357794,0.06142 -0.603499,0.258285 -0.75,0.84375 l -2.0625,8.40625 c -0.29262,1.185488 -0.288197,1.222795 0.75,1.375 l 40.463179,0" />
    <path
       style="fill:#0197fd;fill-opacity:1;stroke:none;display:inline"
       d="m 49.5,28.6875 c -0.357794,0.06142 -0.603499,0.258285 -0.75,0.84375 l -2.0625,8.40625 c -0.29262,1.185488 -0.288197,1.222795 0.75,1.375 l 7.5,0 1.1875,-10.59375 -5.25,0 c -0.535576,0 -1.017206,-0.09267 -1.375,-0.03125 z"
       id="path5603-0"
       inkscape:connector-curvature="0" />
    <path
       style="fill:#000000;stroke:none;display:inline"
       d="m 43.419311,-14.45834 -0.07482,0 c -0.574312,-0.16773 -0.842603,0.403341 -1.215869,0.72098 0,2.842582 0,5.6851631 0,8.5277453 -0.156773,2.585887 -0.482792,5.16365579 -0.705192,7.746395 -0.03686,8.0320677 -0.0053,16.0674187 -0.01579,24.1007477 0.72098,0 1.441961,0 2.162941,0 l -0.151273,-1e-6 c 0.450014,-0.05813 1.130723,0.114429 1.44196,-0.08248 -0.01054,-8.005836 0.02107,-16.013693 -0.01579,-24.0182667 -0.222399,-2.58273921 -0.548418,-5.160507 -0.705191,-7.746394 0,-2.8425825 0,-5.6851643 0,-8.5277463 -0.240327,-0.240326 -0.480653,-0.480653 -0.72098,-0.72098"
       id="path7414-5"
       inkscape:connector-curvature="0"
       sodipodi:nodetypes="ccccccccccccc" />
    <path
       style="fill:#000000;stroke:none;display:inline"
       d="m 99.702257,-14.45834 -0.07482,0 c -0.574312,-0.16773 -0.842603,0.403341 -1.215869,0.72098 0,2.842582 0,5.6851631 0,8.5277453 -0.156773,2.5858867 -0.482792,5.1636557 -0.705192,7.7463947 -0.03686,8.032068 -0.0053,16.067419 -0.01579,24.100748 0.72098,0 1.441961,0 2.162941,0 l -0.151273,-1e-6 c 0.450006,-0.05813 1.130716,0.114429 1.441956,-0.08248 -0.0105,-8.005836 0.0211,-16.013693 -0.0158,-24.018267 -0.2224,-2.582739 -0.54842,-5.160507 -0.70519,-7.7463937 0,-2.8425825 0,-5.6851643 0,-8.5277463 -0.24033,-0.240326 -0.48065,-0.480653 -0.720977,-0.72098"
       id="path7414-5-5"
       inkscape:connector-curvature="0"
       sodipodi:nodetypes="ccccccccccccc" />
    <path
       id="path3111"
       style="fill:none;stroke:#000000;stroke-width:2;stroke-linecap:butt;stroke-linejoin:miter;stroke-miterlimit:4;stroke-opacity:1;stroke-dasharray:none"
       d="m 34.094962,42.007751 77.810078,0 m -72.690762,-15.224214 64.223382,0 8.64356,15.214951 0.0404,9.597414 -78.212015,0 -0.0133,-9.385204 z"
       inkscape:connector-curvature="0" />
  </g>
</svg>
