<?xml version="1.0" encoding="UTF-8" standalone="no"?>
<!-- Created with Inkscape (http://www.inkscape.org/) -->

<svg
   xmlns:dc="http://purl.org/dc/elements/1.1/"
   xmlns:cc="http://creativecommons.org/ns#"
   xmlns:rdf="http://www.w3.org/1999/02/22-rdf-syntax-ns#"
   xmlns:svg="http://www.w3.org/2000/svg"
   xmlns="http://www.w3.org/2000/svg"
   xmlns:sodipodi="http://sodipodi.sourceforge.net/DTD/sodipodi-0.dtd"
   xmlns:inkscape="http://www.inkscape.org/namespaces/inkscape"
   width="744.09448819"
   height="1052.3622047"
   id="svg2"
   version="1.1"
   inkscape:version="0.48.0 r9654"
   sodipodi:docname="PC.svg">
  <defs
     id="defs4" />
  <sodipodi:namedview
     id="base"
     pagecolor="#ffffff"
     bordercolor="#666666"
     borderopacity="1.0"
     inkscape:pageopacity="0.0"
     inkscape:pageshadow="2"
     inkscape:zoom="0.5"
     inkscape:cx="375"
     inkscape:cy="520"
     inkscape:document-units="px"
     inkscape:current-layer="layer1"
     showgrid="false"
     inkscape:window-width="1280"
     inkscape:window-height="679"
     inkscape:window-x="0"
     inkscape:window-y="0"
     inkscape:window-maximized="0" />
  <metadata
     id="metadata7">
    <rdf:RDF>
      <cc:Work
         rdf:about="">
        <dc:format>image/svg+xml</dc:format>
        <dc:type
           rdf:resource="http://purl.org/dc/dcmitype/StillImage" />
        <dc:title></dc:title>
      </cc:Work>
    </rdf:RDF>
  </metadata>
  <g
     inkscape:label="Layer 1"
     inkscape:groupmode="layer"
     id="layer1">
    <g
       id="g3051"
       transform="matrix(0.92626784,0,0,0.9243593,204.99049,149.57524)">
      <title
         id="title3053">Layer 1</title>
      <g
         transform="matrix(0.640032,0,0,0.800931,806.379,321.239)"
         id="g1395">
        <path
           d="m -1150.4661,-156.13068 -43.1103,-133.42941 165.2119,-56.70019 43.37598,2.34295 29.78808,5.15461 7.7627,40.76806 214.07031,27.77167 14.44824,12.30792 -0.0791,48.38986 -9.4502,70.41431 -19.29101,85.408935 -20.69727,12.776855 -41.31445,-10.65332 -11.79395,14.650879 -19.84082,12.710693 -19.84173,3.807373 -18.90338,0.05859 -20.30957,-6.033203 -17.49903,-9.313477 -13.28027,-12.593506 -2.50287,-10.718994 16.40033,-31.98584 -61.85449,-19.801995 -81.6611,64.197991 -66.666,-30.458984 -22.962,-79.071777 z"
           id="svg_2"
           inkscape:connector-curvature="0"
           style="fill:#fcfcfd" />
        <path
           d="m -889.55005,-19.333557 c -13.57031,-3.291748 -25.7168,-9.250244 -34.76953,-17.056885 -10.02441,-8.645264 -12.16211,-13.551514 -11.33398,-26.022705 0.55371,-8.337402 1.5625,-11.038818 6.66797,-17.854736 l 6.01562,-8.030762 -4.46094,-1.655762 c -2.45312,-0.910889 -14.95508,-5.384277 -27.78223,-9.940918 l -23.3222,-8.285155 -10.75,8.810302 c -5.91217,4.845703 -23.57326,19.437256 -39.24716,32.425781 -20.8711,17.29541 -29.6123,23.615234 -32.664,23.615234 -2.292,0 -18.5909,-7.010986 -36.2198,-15.579834 l -32.0517,-15.580078 -5.6826,-16.552246 c -11.8516,-34.520999 -62.3282,-192.676479 -62.3282,-195.290739 0,-1.50446 1.2715,-3.81299 2.8252,-5.12988 1.5537,-1.31696 38.7461,-14.31672 82.6485,-28.88819 l 79.8232,-26.49371 14.6261,0.1253 c 26.24208,0.22412 63.8827,3.5857 65.33192,5.83448 0.72852,1.1311 1.80371,7.74414 2.3877,14.69531 0.58404,6.95135 1.48437,15.81103 2,19.68823 l 0.93853,7.04932 30.10645,3.48901 c 118.34955,13.7146 173.50287,20.66431 181.04388,22.81195 10.49805,2.9903 18.36133,9.98004 20.83301,18.51764 3.75391,12.96802 1.84863,36.39472 -8.05469,99.03391 -6.43457,40.70337 -16.51367,89.23315 -20.833,100.304439 -1.89747,4.863525 -5.63477,10.938965 -8.30567,13.500977 -6.89746,6.615723 -17.3164,6.407471 -39.75488,-0.794189 -9.34375,-2.998779 -17.12012,-5.263428 -17.28027,-5.032715 -0.16016,0.230713 -1.91303,3.006348 -3.89454,6.167725 -4.58099,7.308105 -13.49798,14.084229 -25.42773,19.322754 -7.7793,3.415527 -12.12787,4.195801 -25.56732,4.58667 -10.43067,0.303467 -19.51276,-0.333984 -25.51764,-1.790527 z m 46.9278,-6.136963 c 11.14349,-4.440674 7.74804,-6.148193 -14.32331,-7.202637 -16.54589,-0.790527 -22.73339,-1.821777 -35.38964,-5.899414 -8.43647,-2.717773 -19.81543,-7.338867 -25.28809,-10.269043 -12.33008,-6.602295 -14.31152,-6.751221 -11.12299,-0.837158 5.29291,9.816162 23,20.826172 41.25385,25.651123 11.70605,3.093994 35.39746,2.332275 44.87018,-1.442871 z m 75.15423,-23.95874 c 2.78809,-1.01709 4.95313,-3.928955 7.19532,-9.678467 7.60064,-19.493896 27.23437,-130.182863 32.75103,-184.641813 2.15039,-21.21881 2.29975,-20.91333 -12.24225,-24.94336 -8.96386,-2.48413 -229.65136,-28.58814 -241.73626,-28.59375 -13.39649,-0.006 -13.23346,-0.83179 -12.02539,60.87958 0.57025,29.11404 1.80273,64.78103 2.74023,79.25979 1.89063,29.22779 3.71771,35.14209 12.32416,39.88916 5.47363,3.0188 30.31836,11.87769 119.22363,42.510745 78.5235,27.056152 83.35065,28.387939 91.76953,25.318115 z m -35.3349,-21.798584 c -16.89654,-4.358398 -153.14654,-48.803466 -161.49811,-52.680906 -3.95996,-1.83887 -8.09668,-4.84351 -9.1914,-6.677 -2.56836,-4.30054 -2.88568,-134.55295 -0.33887,-139.49613 1.05084,-2.04095 3.53613,-3.38177 6.83887,-3.68963 4.71875,-0.44001 52.78125,6.38256 145.69531,20.68188 52.50391,8.08002 54.89356,9.4353 54.89356,31.12012 0,26.90597 -13.83789,140.566618 -18.04779,148.241667 -1.75007,3.19043 -4.50592,5.648926 -6.16993,5.504395 -0.44342,-0.03857 -5.92584,-1.390625 -12.18164,-3.004395 z m -288.72858,-55.881836 c -3.0654,-11.38061 -5.1836,-21.29712 -4.707,-22.03662 1.9004,-2.95044 7.7177,5.68115 12.0302,17.85254 6.2374,17.604 4.6983,10.18652 -10.1865,-49.08154 -7.0586,-28.10596 -15.124,-60.85764 -17.9228,-72.78153 -2.7998,-11.92383 -5.1241,-21.76807 -5.166,-21.87592 -0.3155,-0.80719 -72.6788,-12.70123 -73.6758,-12.10962 -1.4658,0.8686 0.3164,7.15552 11.8291,41.72828 4.5381,13.62719 8.5303,23.60766 8.8701,22.17895 0.7685,-3.22247 6.3975,-2.62897 27.0674,2.85425 21.7304,5.7644 27.7578,8.7048 30.9326,15.09152 2.2471,4.5188 2.3818,6.19312 0.7705,9.58398 -1.7939,3.77662 -2.502,4.02784 -8.7549,3.10938 -23.0556,-3.38648 -27.7051,-2.91675 -21.333,2.15527 1.6026,1.27613 2.4209,4.74219 2.4209,10.25513 0,8.2793 0.029,8.32739 5.0039,8.32739 16.501,0 33.3506,21.08399 43.6299,54.59619 5.7969,18.90015 5.2988,12.82666 -0.8086,-9.84765 z m -58.5322,-106.60574 c -9.8858,-2.43085 -19.8018,-5.56903 -22.0371,-6.97333 -5.7178,-3.59351 -8.4512,-10.40436 -5.9649,-14.86084 1.7823,-3.19409 2.7139,-3.38013 12.6475,-2.52423 5.8984,0.50836 16.6621,2.70361 23.9199,4.87823 15.3418,4.59717 21.5166,9.97535 21.5166,18.74024 0,5.10571 -0.2236,5.29834 -6.0547,5.23047 -3.3301,-0.0386 -14.1426,-2.05933 -24.0273,-4.49054 z m 22.0088,-2.50922 c 0,-5.60748 -8.378,-9.41406 -30.378,-13.802 -14.2334,-2.83917 -13.2138,-2.81867 -13.2138,-0.26831 0,2.54272 7.8965,6.01001 25.0254,10.98804 12.9951,3.77709 18.5664,4.70184 18.5664,3.08227 z m 3.2295,-6.86676 c 0,-0.85156 -0.7696,-1.54852 -1.71,-1.54852 -0.9404,0 -1.2607,0.69696 -0.7119,1.54852 1.2783,1.98444 2.4219,1.98444 2.4219,0 z m 23.2744,120.33182 c -1.4024,-3.9458 -5.4473,-10.16113 -8.9893,-13.81226 -6.8008,-7.00952 -6.7256,-5.6726 0.2002,3.56958 2.293,3.05957 5.5342,8.46704 7.2031,12.01709 3.9414,8.38428 4.8379,7.38111 1.586,-1.77441 z m -18.4307,-80.78931 c 0,-3.1687 -4.4697,-5.14868 -23.2344,-10.29324 -18.7968,-5.15277 -20.3418,-5.34198 -16.9336,-2.07294 2.0762,1.99097 35.0049,14.29343 38.9571,14.55442 0.666,0.0439 1.2109,-0.94068 1.2109,-2.18824 z"
           id="svg_3"
           inkscape:connector-curvature="0"
           style="fill:#d2d2d2" />
        <path
           d="m -880.22681,-18.084045 c -8.35644,-1.063232 -22.16015,-5.239014 -30.14355,-9.119141 -26.64649,-12.951416 -33.13282,-34.782959 -16.53516,-55.655273 2.38971,-3.004639 4.06152,-5.6604 3.71582,-5.901855 -0.34564,-0.241699 -12.91113,-4.73584 -27.92279,-9.987305 l -27.29498,-9.547851 -13.06836,10.577392 c -7.1875,5.817383 -25.02237,20.434814 -39.63277,32.483154 -14.6104,12.048096 -27.959,21.905762 -29.6631,21.905762 -2.9453,0 -52.7393,-22.974609 -63.4727,-29.285889 -6.0439,-3.553467 -6.4121,-4.565918 -42.5596,-117.051519 -13.4111,-41.73312 -25.4365,-78.96432 -26.7226,-82.7358 -3.2637,-9.57203 -3.0527,-18.22266 0.4873,-20.01612 1.5547,-0.78717 39.1006,-13.48535 83.4365,-28.21826 l 80.6104,-26.78692 37.01071,2.27154 c 31.53619,1.93555 37.31348,2.66943 39.06055,4.96118 1.12793,1.47919 2.53125,8.42725 3.11914,15.4397 0.58691,7.01245 1.47656,15.63373 1.97656,19.15869 l 0.90918,6.40918 14.77838,1.72681 c 135.75287,15.86279 187.55274,22.34424 195.35742,24.44409 17.40332,4.68286 23.62983,14.01099 23.6474,35.42993 0.0225,27.7385 -19.84863,149.04831 -29.14355,177.910615 -2.23731,6.949951 -5.2041,12.101563 -9.41113,16.343018 -5.45697,5.501953 -6.98536,6.193848 -13.68848,6.193848 -4.25684,0 -15.37988,-2.429199 -25.52338,-5.574707 -16.88775,-5.236084 -18.07818,-5.406006 -19.60058,-2.796387 -3.19733,5.479248 -14.76953,16.401367 -21.21973,20.0271 -11.77252,6.617188 -31.26276,9.588623 -48.5069,7.39502 z m 39.55567,-8.413818 c 4.88379,-2.177979 11.31933,-6.1604 14.30175,-8.850098 4.48926,-4.049561 5.23542,-5.621826 4.34082,-9.145752 -1.57617,-6.205322 -6.83007,-10.314453 -18.28607,-14.301514 l -10.13775,-3.527832 -5.34668,5.932861 -5.34766,5.932617 -17.22363,-6.501221 c -9.4726,-3.575928 -17.78125,-6.501465 -18.46485,-6.501465 -2.96289,0 -6.80169,-6.683594 -6.80169,-11.842285 l 0,-5.612549 -7.29303,0.95874 c -14.61621,1.921387 -21.0752,8.63623 -20.72461,21.547119 0.336,12.395752 16.00879,26.055908 37.85254,32.991943 16.64062,5.283936 39.91998,4.810303 53.13086,-1.080566 z m 79.20117,-16.877197 c 1.70807,-0.876953 4.16211,-3.554199 5.4541,-5.949463 6.18555,-11.473877 32.39649,-166.582977 33.61328,-198.920437 0.38086,-10.11445 0.1778,-10.76313 -4.68847,-14.93915 -3.43549,-2.94824 -8.77832,-5.1709 -16.45606,-6.84571 -11.03802,-2.4082 -230.62891,-28.79956 -239.67871,-28.8059 -2.71484,-0.002 -6.19141,1.60693 -8.72754,4.03881 l -4.21387,4.042 1.03418,62.93261 c 1.15137,70.07541 2.96393,98.52463 6.72174,105.49485 3.17377,5.8872 6.53803,7.49609 42.75385,20.4497 45.24023,16.181645 165.22851,58.091068 168.82525,58.967289 5.61713,1.368164 12.17768,1.169922 15.36225,-0.4646 z m -41.25971,-30.447021 c -1.77642,-0.430176 -38.33111,-11.91333 -81.23443,-25.518066 -60.35742,-19.140133 -79.12695,-25.697513 -82.96289,-28.985593 -4.88568,-4.18677 -4.97852,-4.5437 -6.27832,-24.27808 -1.61713,-24.56518 -1.82422,-75.83981 -0.40039,-99.53634 0.95214,-15.85328 1.38769,-17.71119 4.46386,-19.05542 3.60157,-1.57404 31.24805,2.23706 125.80762,17.34252 66.8252,10.67481 70.02832,11.54737 73.71393,20.08033 3.7558,8.69653 -0.4961,59.44088 -10.54987,125.91696 -4.71576,31.180174 -5.92676,34.238523 -13.6914,34.572996 -3.10157,0.133545 -7.09278,-0.109131 -8.86811,-0.539307 z m -257.51572,25.177246 c 0,-0.368652 -2.8818,-12.040771 -6.4052,-25.938232 -14.3604,-56.648433 -43.7129,-173.604703 -46.1748,-183.989293 -1.4502,-6.11248 -2.3008,-12.79516 -1.8907,-14.85034 0.5957,-2.98926 0.062,-3.74286 -2.664,-3.768 -1.875,-0.0173 -18.836,-2.67871 -37.6914,-5.91388 -18.8555,-3.23505 -35.1211,-5.38544 -36.1455,-4.77832 -1.3077,0.77545 5.2128,23.14337 21.9257,75.21097 35.9375,111.95703 41.2705,128.003903 43.792,131.758298 1.2754,1.898682 4.5909,4.579102 7.3672,5.956299 l 5.0498,2.504395 -3.2607,-4.407715 c -5.3028,-7.168945 -13.1797,-25.011227 -18.2432,-41.322507 -5.8037,-18.69312 -8.1748,-46.40015 -4.3808,-51.18409 6.2929,-7.93481 25.3593,4.65748 35.5986,23.51099 8.4648,15.58545 24.5664,65.269288 25.6748,79.220704 0.2832,3.556641 -0.4648,5.742188 -2.3574,6.886719 -2.3672,1.432129 -1.3018,2.401855 7.3066,6.650146 9.8584,4.865479 12.499,5.806396 12.499,4.453857 z m -73.4599,-150.914795 c -7.9922,-2.36352 -17.1328,-5.37524 -20.3145,-6.69287 -6.9785,-2.89063 -13.1035,-9.92209 -12.4511,-14.29416 0.3984,-2.67358 1.5175,-3.138 6.9335,-2.87897 9.1426,0.43756 43.254,11.55887 44.1729,14.40238 0.6475,2.00366 0.377,2.02636 -1.9727,0.1665 -1.497,-1.18603 -3.1308,-1.76514 -3.6298,-1.28711 -0.9678,0.9292 3.9453,3.87134 6.6357,3.97364 1.8975,0.072 3.8096,6.35302 2.7852,9.14819 -1.0372,2.83056 -5.8868,2.27514 -22.1592,-2.5376 z m 15.3379,-1.54956 c 0,-5.25781 -10.1573,-10.02637 -33.4727,-15.71555 -8.9316,-2.17944 -11.1396,-1.62719 -9.5342,2.38471 1.1602,2.89944 8.5928,6.1304 25.2471,10.97513 13.2725,3.86084 17.7598,4.45605 17.7598,2.35571 z m -22.6035,-32.05368 c -20.9532,-5.32373 -25.8877,-7.07593 -30.5684,-10.85352 -5.5791,-4.50268 -6.8926,-12.39434 -2.3418,-14.06933 5.4121,-1.99201 40.1553,6.25586 46.6562,11.07635 2.5938,1.92267 2.6661,2.19678 0.3809,1.43335 -1.5537,-0.51898 -2.8252,-0.25751 -2.8252,0.58087 0,2.34082 4.4981,5.38868 6.3399,4.29657 1.9267,-1.14178 4.1357,5.97046 2.5966,8.3592 -1.4336,2.22436 -9.541,1.89447 -20.2382,-0.82349 z m 12.8916,-3.34717 c -0.057,-6.17682 -3.0196,-7.68115 -24.9834,-12.68457 -16.3877,-3.73297 -20.1983,-3.94141 -20.1983,-1.10498 0,4.90625 10.7979,9.5976 32.4727,14.10767 13.4082,2.79004 12.7373,2.80688 12.709,-0.31812 z m 38.1894,158.336885 c 1.1025,-2.753662 -2.8457,-19.227051 -9.3291,-38.932125 -3.7012,-11.24781 -6.0078,-15.49121 -11.2275,-20.64991 -11.6524,-11.51635 -25.6807,-14.20385 -25.6807,-4.91992 0,6.22559 9.0674,36.33887 13.8789,46.094973 4.2891,8.695313 8.8115,12.619873 20.3125,17.625732 8.4395,3.673584 10.8272,3.828369 12.0459,0.78125 z"
           id="svg_4"
           inkscape:connector-curvature="0"
           style="fill:#aaaaaa" />
        <path
           d="m -886.34106,-19.385315 c -21.37012,-4.076416 -40.82416,-15.655273 -46.52344,-27.689697 -5.73828,-12.118652 -3.02142,-26.175049 6.97265,-36.07959 3.75,-3.716797 4.44727,-5.187256 2.74323,-5.786133 -1.25592,-0.441406 -14.1377,-4.993164 -28.62506,-10.11499 -14.48731,-5.121825 -26.60547,-9.312255 -26.92871,-9.312255 -0.32324,0 -18.23047,14.633788 -39.79491,32.519286 -21.5645,17.885742 -40.543,32.519531 -42.1748,32.519531 -4.7041,0 -65.9405,-29.859619 -68.2793,-33.293701 -1.1602,-1.703369 -12.041,-33.758306 -24.1807,-71.232906 -47.1152,-145.44724 -46.0166,-141.46555 -39.9072,-144.56449 1.5547,-0.78827 39.0762,-13.46289 83.3818,-28.16577 l 80.5557,-26.73236 36.9746,2.32202 c 22.96485,1.44214 37.69043,3.008 38.86334,4.13281 1.03803,0.99604 2.76752,10.57618 3.84369,21.28907 1.07617,10.71283 2.23731,19.74798 2.58203,20.07806 0.34375,0.33008 33.63575,4.4444 73.98145,9.14264 134.12793,15.61908 139.60058,16.4555 148.79492,22.73486 11.16895,7.62744 13.0166,22.8374 7.7793,64.01535 -3.78412,29.75611 -13.95508,90.63013 -19.40332,116.140872 -5.75879,26.959717 -9.73145,37.811768 -16.24903,44.383301 -5.19628,5.23877 -6.79193,5.944336 -13.4414,5.944336 -4.25684,0 -15.37988,-2.429199 -25.52338,-5.574707 -17.06939,-5.292725 -18.06354,-5.430664 -19.64068,-2.727051 -3.85938,6.613525 -16.11426,17.329346 -24.03217,21.012695 -15.99713,7.442627 -31.3399,8.935791 -51.76862,5.038818 z m 33.50488,-3.0896 c 5.22559,-1.30542 13.08398,-4.243652 17.46191,-6.529053 7.84772,-4.09668 20.53516,-16.206787 20.53516,-19.600342 0,-1.556396 -36.97168,-15.899414 -37.65912,-14.609619 -3.58209,6.721436 -6.2627,9.902832 -8.64258,10.257324 -1.61725,0.240967 -10.56933,-2.320557 -19.89264,-5.692139 -18.01562,-6.514404 -22.23339,-10.091797 -22.48535,-19.073242 -0.0995,-3.540771 -1.15918,-4.495605 -6.78027,-6.11084 -6.57032,-1.887939 -6.73334,-1.839355 -11.86426,3.530518 -7.92773,8.297119 -11.22949,17.907715 -8.94727,26.039307 3.83887,13.671387 24.34571,27.273926 47.88086,31.759766 14.81061,2.822998 19.19043,2.827148 30.39356,0.02832 z m 94.0166,-20.787842 c 3.89551,-2.277832 5.79004,-5.032471 7.7168,-11.220947 7.13574,-22.911865 31.52057,-170.599086 31.52057,-190.902806 0,-15.18969 -6.3526,-21.49316 -25.60456,-25.40753 -11.04095,-2.24481 -229.7207,-28.05273 -237.43353,-28.02124 -13.17975,0.0542 -13.92187,2.69831 -13.46588,47.98126 0.48633,48.32077 3.39258,113.29514 5.47168,122.33445 2.02344,8.79663 6.03418,12.88964 16.51276,16.84814 41.34857,15.621095 181.70697,64.533937 196.39642,68.441407 13.27246,3.530518 12.75684,3.531738 18.88574,-0.05273 z m -66.51367,-40.30542 c -39.31836,-11.545166 -133.44531,-41.898433 -138.30664,-44.600093 -2.36621,-1.31519 -5.11328,-4.09742 -6.10346,-6.18262 -4.66998,-9.83081 -6.00396,-122.71243 -1.54498,-130.70432 2.48828,-4.45929 11.57623,-3.62304 70.25098,6.46363 56.64062,9.73681 75.60547,13.6018 108.80175,22.17382 25.85547,6.6767 25.24805,5.74097 22.66016,34.89377 -4.1308,46.53198 -14.35254,116.369631 -17.98437,122.87842 -2.41309,4.324463 -9.36719,3.417969 -37.77344,-4.922607 z m -234.07615,31.334961 c -4.0664,-15.343262 -19.0039,-81.786374 -21.8457,-97.171144 -7.0401,-38.12207 -5.8555,-67.48556 4.0605,-100.6387 2.0401,-6.82275 4.5537,-16.38135 5.586,-21.24115 2.9121,-13.71753 12.6084,-21.24829 50.8633,-39.50537 16.9023,-8.06696 29.6416,-14.33179 28.30957,-13.92218 -1.33209,0.40973 -29.21587,11.03497 -61.96397,23.61163 l -59.5419,22.86694 -13.1114,-1.90478 c -7.2109,-1.04761 -23.1367,-3.66016 -35.3906,-5.80573 -12.2539,-2.14544 -24.1113,-3.4599 -26.3506,-2.92083 -3.6308,0.87371 -3.9482,1.51904 -2.9336,5.95556 1.2949,5.66498 56.6944,177.41843 62.5,193.76926 3.5918,10.114502 4.292,10.973877 12.5791,15.42627 l 8.7754,4.715088 -5.4766,-6.052002 c -8.7207,-9.638428 -14.7324,-24.893799 -23.5224,-59.694336 -7.8242,-30.9751 -4.3477,-41.99805 10.916,-34.61401 13.3662,6.46582 22.9082,20.62793 32.5557,48.31787 8.5058,24.412595 16.2754,54.69653 14.9101,58.110593 -0.6035,1.507568 -2.8808,2.598633 -5.5176,2.643555 -3.6748,0.06274 -2.291,1.174561 7.6182,6.117676 15.002,7.484375 18.5586,7.889893 16.9805,1.935791 z m -62.9942,-144.595944 c -22.0976,-4.84107 -38.5449,-12.02124 -41.9326,-18.30539 -2.5351,-4.70197 -1.8681,-9.375 1.3389,-9.37305 6.0801,0.004 45.6455,12.16745 40.0947,12.32663 -1.1963,0.0342 -1.6074,0.84668 -0.9463,1.87232 0.7832,1.21606 0.2891,1.48852 -1.5039,0.82861 -5.8711,-2.16089 -29.581,-8.67288 -33.2275,-9.12601 -5.1104,-0.63501 -6.0088,2.36035 -1.8301,6.095 3.3389,2.98365 33.7373,12.86914 39.3926,12.81031 2.3808,-0.0249 2.7929,-0.82178 1.998,-3.85987 -0.9043,-3.45581 -0.6455,-3.70215 2.6504,-2.53247 2.6035,0.92359 3.6524,2.54248 3.6524,5.63501 0,5.10449 -1.0889,5.5127 -9.6866,3.62891 z m -24.4199,-38.43186 c -9.8789,-2.42944 -19.4687,-5.19067 -21.3096,-6.13574 -7.3662,-3.78125 -11.2099,-14.67847 -5.8711,-16.64355 3.1465,-1.15796 19.2959,1.68628 33.3711,5.87713 8.9659,2.66974 10.4649,3.57715 8.7032,5.26709 -1.7618,1.69025 -4.7412,1.39875 -17.2901,-1.69134 -17.0068,-4.1875 -24.0527,-4.73291 -24.0166,-1.85944 0.069,5.41217 6.9385,8.75934 27.8408,13.56598 17.2842,3.97412 17.8897,3.9458 16.9463,-0.79059 -0.7734,-3.87689 0.9268,-5.25531 2.833,-2.29754 0.5577,0.86566 1.6377,1.2041 2.4004,0.75189 1.7403,-1.03143 3.7969,4.83917 2.4356,6.95172 -1.5362,2.38477 -6.4756,1.81641 -26.043,-2.99561 z m 57.9033,157.528293 c 1.8526,-5.331543 -11.8789,-49.311523 -17.7148,-56.736323 -5.292,-6.73291 -17.5674,-14.16114 -23.4024,-14.16114 -7.4375,0 -7.9375,4.54737 -2.6035,23.64478 8.8623,31.725339 12.128,37.077878 27.1895,44.570554 9.5351,4.743408 15.4795,5.707764 16.5312,2.682129 z"
           id="svg_5"
           inkscape:connector-curvature="0"
           style="fill:#919191" />
        <path
           d="m -882.40454,-18.793518 c -19.61133,-2.692383 -40.29199,-13.271973 -48.11914,-24.616211 -8.06146,-11.683594 -6.50488,-27.832764 3.72949,-38.698486 l 5.73047,-6.08374 -4.60645,-1.710938 c -12.99804,-4.827393 -51.9414,-18.465087 -52.72851,-18.465087 -0.49799,0 -18.16016,14.30371 -39.24802,31.786376 -21.0879,17.482422 -39.9405,32.171143 -41.8946,32.641602 -2.4824,0.597412 -13.4599,-3.964111 -36.4345,-15.139648 l -32.8819,-15.994629 -3.5312,-10.065674 c -12.7481,-36.333987 -63.4756,-197.024137 -63.4756,-201.072967 0,-5.98859 -6.6807,-3.22461 66.1953,-27.38654 31.5234,-10.45135 67.1231,-22.29413 79.1113,-26.31707 l 21.7959,-7.3147 36.97666,2.44336 c 20.33783,1.34393 37.67969,3.11712 38.53803,3.94037 0.85839,0.82354 2.52057,10.33844 3.69336,21.14434 1.17285,10.80616 2.44531,19.94745 2.82818,20.31421 0.38178,0.3667 39.11322,5.16205 86.0683,10.65619 125.90234,14.73145 126.2666,14.78858 136.42187,21.30396 8.7461,5.61157 11.39264,14.99054 10.3653,36.72583 -1.43463,30.36184 -18.46777,134.647 -26.76465,163.871854 -8.70123,30.644287 -16.96881,34.658447 -49.8233,24.190674 -17.59668,-5.606689 -18.37695,-5.719238 -20.02637,-2.891357 -0.94434,1.618408 -4.86523,6.169922 -8.71185,10.114746 -8.48249,8.698242 -21.63678,14.681152 -36.94245,16.802979 -12.57611,1.743652 -12.24218,1.74585 -26.26562,-0.179443 z m 27.52734,-3.022705 c 16.21582,-3.250732 31.26368,-12.529785 38.57813,-23.789307 l 2.9873,-4.599121 -18.80859,-6.627686 c -20.77728,-7.321777 -21.44336,-7.467041 -21.52051,-4.692383 -0.0762,2.734619 -5.7168,8.904297 -8.14154,8.904297 -1.11426,0 -9.83209,-2.869629 -19.37213,-6.376709 l -17.34564,-6.376709 -2.99616,-8.57373 c -2.625,-7.510254 -3.73242,-8.818359 -8.92969,-10.544189 -5.89154,-1.956055 -5.97949,-1.922363 -12.38665,4.744629 -16.08399,16.736084 -10.5586,35.992432 13.89837,48.437988 18.35846,9.342041 37.77442,12.75293 54.03711,9.49292 z m 100.09186,-24.537109 c 2.39447,-2.519287 5.87396,-9.302979 7.73236,-15.074951 7.21973,-22.419434 26.92676,-138.344237 28.56934,-168.052947 1.55371,-28.11603 -2.64453,-35.47607 -23.14453,-40.57105 -10.68067,-2.65435 -229.02832,-28.78662 -240.52637,-28.78662 -15.32715,0 -16.1582,5.17157 -13.57123,84.39575 2.79584,85.6279 3.79193,92.98459 13.40326,99.00022 7.6211,4.76977 196.54205,71.580321 209.66309,74.145995 7.08496,1.385254 13.46881,-0.420898 17.87408,-5.056396 z m -45.52252,-34.269287 c -12.43549,-1.936279 -151.33106,-44.488281 -161.62402,-49.515141 -7.03516,-3.43554 -8.97461,-7.79223 -10.29975,-23.13793 -1.74713,-20.24341 -1.32525,-99.51639 0.55463,-104.09641 0.95215,-2.31836 3.39068,-4.61017 5.41992,-5.09283 4.32422,-1.02851 104.9375,16.76544 140.59277,24.8645 31.16016,7.07818 50.94147,12.51593 53.79688,14.78888 1.41894,1.12982 2.23541,4.95965 2.23437,10.49362 -9.7e-4,17.87744 -14.04101,124.208983 -17.00781,128.814208 -1.92383,2.984619 -6.63086,3.977051 -13.66699,2.881104 z M -993.71405,-102.8006 c 8.48926,-7.08423 8.98236,-7.84619 6.26459,-9.67236 -8.83008,-5.93164 -10.89844,-25.33862 -12.52344,-117.48679 -0.9541,-54.08252 -0.8095,-59.33984 1.78229,-64.57837 3.9931,-8.07128 9.4931,-9.48339 29.34857,-7.53491 8.70703,0.85425 16.03515,1.35785 16.28418,1.11914 0.88867,-0.85278 -3.21869,-34.83008 -4.43945,-36.72534 -0.95801,-1.48584 -3.88959,-1.02856 -12.69141,1.98047 -6.29492,2.15186 -11.44525,3.68286 -11.44525,3.40186 0,-0.28101 1.99798,-1.61304 4.44037,-2.95972 4.24316,-2.34064 3.86816,-2.40778 -8.47657,-1.52075 -7.10351,0.51049 -31.54103,3.32025 -54.30563,6.24438 l -41.3897,5.31616 -46.6015,15.37958 c -60.2901,19.89697 -65.168,21.69074 -65.168,23.95954 0,2.59619 62.1348,195.419886 65.3037,202.658656 2.0313,4.63916 4.541,6.76123 12.6113,10.661133 l 10.0762,4.869141 -6.6084,-6.164551 c -6.1504,-5.738037 -16.9316,-26.167729 -16.7266,-31.697019 0.041,-1.12378 1.4668,1.37549 3.168,5.554441 3.9522,9.705322 10.0108,15.851807 20.167,20.456543 8.5059,3.857178 14.5088,4.680908 16.1016,2.208984 1.0224,-1.585938 -3.336,-19.296631 -9.7627,-39.678708 -2.6973,-8.55323 -5.7842,-14.57276 -9.7559,-19.0232 -9.6631,-10.82763 -24.292,-16.02539 -27.8652,-9.90087 -2.3535,4.03344 -3.4063,1.89819 -4.4678,-9.05787 -0.8252,-8.52734 -0.498,-10.4353 2.3623,-13.77026 l 3.3193,-3.87134 8.6788,4.29737 c 8.9921,4.45263 17.2656,13.34204 23.5293,25.28271 7.6298,14.5437 22.4492,62.723145 23.291,75.720947 l 0.4013,6.194092 -6.458,-0.210449 c -6.1621,-0.200928 -5.7568,0.127441 8.8291,7.154297 l 15.2881,7.364746 29.1113,-24.140869 c 16.0118,-13.277344 33.25889,-27.601318 38.32725,-31.830814 z m -143.90045,-35.63501 c -0.07,-1.63232 0.3115,-2.54712 0.8486,-2.03247 0.5362,0.51465 0.5938,1.8501 0.127,2.96802 -0.5156,1.23535 -0.8975,0.86841 -0.9756,-0.93555 z m 2.8193,-62.04907 c -13.5966,-3.99976 -27.164,-9.40112 -27.164,-10.81421 0,-0.4956 1.998,0.0774 4.4394,1.27344 6.0176,2.94727 31.5332,10.29346 35.753,10.29346 2.0156,0 3.3994,-0.9917 3.3994,-2.43653 0,-3.7893 5.5732,-1.92309 6.167,2.06519 0.4472,3.01074 -0.1914,3.45483 -4.8438,3.36621 -2.9482,-0.0562 -10.9355,-1.74268 -17.751,-3.74756 z m -11.0195,-15.55496 c -15.6162,-4.63544 -18.3887,-4.75165 -17.291,-0.72437 0.4648,1.70459 0.1865,2.7088 -0.6192,2.23151 -0.8046,-0.47736 -1.4638,-2.93048 -1.4638,-5.45148 0,-5.23315 -0.167,-5.23779 20.1816,0.5625 6.2158,1.77179 11.8203,3.10236 12.4541,2.95703 0.6348,-0.14551 0.7383,0.77253 0.2315,2.0398 -0.5069,1.26736 -1.0264,2.23123 -1.1534,2.14187 -0.1269,-0.0893 -5.6796,-1.77975 -12.3398,-3.75686 z m 15.3379,-15.6286 c -10.582,-2.16431 -29.8301,-7.33032 -29.2793,-7.85865 0.3584,-0.3435 6.4873,0.80439 13.6201,2.55103 16.1397,3.95239 18.0811,3.9646 18.0811,0.11206 0,-2.71875 0.4619,-2.86212 4.0996,-1.27252 7.7939,3.406 2.7871,8.37182 -6.5215,6.46808 z m -36.3262,-9.87451 c -1.332,-0.82569 -1.6953,-1.50104 -0.8076,-1.50104 0.8887,0 2.7051,0.67535 4.0361,1.50104 1.3321,0.82562 1.6954,1.50122 0.8077,1.50122 -0.8877,0 -2.7041,-0.6756 -4.0362,-1.50122 z m -8.7607,-8.97858 c -0.708,-2.11273 -0.4258,-4.44507 0.6953,-5.74121 2.0469,-2.36542 4.4014,-2.17139 23.8476,1.96588 9.3663,1.99267 11.3292,2.88452 9.6875,4.40185 -1.6308,1.50733 -4.7949,1.32593 -15.2089,-0.87164 -13.3907,-2.82562 -15.6211,-2.63177 -17.0313,1.48102 -0.581,1.69482 -1.1191,1.36084 -1.9902,-1.2359 z"
           id="svg_6"
           inkscape:connector-curvature="0"
           style="fill:#707071" />
        <path
           d="m -891.89185,-20.857727 c -27.1015,-7.251953 -44.09082,-22.808105 -43.99121,-40.279785 0.0342,-6.010986 5.4502,-17.424805 10.83112,-22.824707 2.32519,-2.333496 3.91693,-4.473145 3.53705,-4.754883 -2.12696,-1.580811 -56.5,-19.863278 -57.74018,-19.414548 -0.81842,0.29589 -18.294,14.474851 -38.83403,31.508786 -20.541,17.033936 -38.8731,31.634277 -40.7373,32.445313 -2.7695,1.20459 -9.4658,-1.487793 -36.5869,-14.711182 l -33.1963,-16.185547 -3.0244,-8.51709 c -10.3135,-29.04858 -64.2305,-199.42917 -64.2305,-202.97238 0,-3.82593 1.043,-4.68604 9.2832,-7.6604 13.2314,-4.77545 148.6787,-49.64356 155.0762,-51.37036 5.7851,-1.56153 76.03318,2.70971 78.23142,4.75677 0.67187,0.625 2.086,10.29254 3.14355,21.48322 l 1.92285,20.34643 5.73633,0.87494 c 3.15528,0.48145 47.3692,5.74616 98.25495,11.69922 50.88476,5.95343 97.58294,11.9292 103.77343,13.27954 11.25971,2.45661 19.18067,7.12555 22.65723,13.35651 3.36225,6.02466 4.52045,21.78851 2.87299,39.07513 -3.44141,36.09598 -19.23145,129.51639 -25.7959,152.616976 -9.27539,32.637939 -16.09271,35.831787 -52.14356,24.429199 l -15.95898,-5.047852 -2.61035,3.845215 c -6.0625,8.931152 -14.11322,15.769043 -24.14057,20.504639 -9.96875,4.708252 -11.94049,5.072266 -29.29107,5.411133 -12.43848,0.243164 -21.39838,-0.384521 -27.03907,-1.894287 z m 50.23731,-4.386719 c 4.95508,-2.175781 11.47949,-5.763428 14.49902,-7.972412 5.74024,-4.19873 14.9834,-15.813721 13.62311,-17.11792 -0.43268,-0.415527 -9.43463,-3.80249 -20.00293,-7.526855 l -19.21686,-6.771484 -1.78418,4.071289 c -3.7207,8.487549 -5.13867,8.554199 -25.07226,1.178955 l -18.37793,-6.800049 -0.47852,-7.669678 -0.47852,-7.669922 -8.94232,-2.703613 c -8.586,-2.595947 -9.07232,-2.591064 -12.22076,0.126953 -5.84571,5.046631 -12.56055,17.967041 -12.57611,24.200195 -0.0205,7.856201 3.19818,13.381836 12.24212,21.017822 20.75788,17.524658 56.02936,23.629395 78.78614,13.636719 z m 86.40039,-19.96582 c 6.74805,-6.619873 11.63086,-21.842041 18.66699,-58.191404 12.98242,-67.07324 21.44043,-130.14182 19.29401,-143.8721 -1.27246,-8.1333 -6.23731,-15.6037 -12.78913,-19.24188 -2.66107,-1.47754 -10.65039,-3.7793 -17.7539,-5.11524 -18.36621,-3.45361 -222.25684,-27.20801 -233.53418,-27.20801 -13.57227,0 -14.92969,2.47138 -15.69043,28.57709 -0.7041,24.18921 2.61529,119.21903 4.73144,135.44656 2.42676,18.60352 2.09479,18.35791 45.25489,33.47242 12.96197,4.538814 31.125,11.154781 40.36328,14.702144 9.23828,3.547119 32.05469,11.675537 50.70214,18.062988 93.66797,32.08374 92.21387,31.746582 100.75489,23.367432 z m -45.05371,-35.410156 c -8.68652,-1.349609 -69.75195,-19.656008 -123.51074,-37.026128 -26.88764,-8.6875 -39.956,-13.67138 -42.69532,-16.28149 -3.04876,-2.90552 -4.22363,-6.15185 -5.16406,-14.26465 -1.79785,-15.50756 -1.65527,-104.8511 0.17383,-109.46579 0.85644,-2.16095 3.21783,-4.32379 5.24707,-4.80646 7.55957,-1.79827 140.02832,23.52985 178.64844,34.15754 19.04394,5.24066 18.59961,4.65039 17.28418,22.95651 -2.05469,28.62329 -12.18946,104.90869 -15.60547,117.474853 -1.94135,7.139404 -5.0459,8.706055 -14.37793,7.255615 z m -219.82424,0.962891 37.36135,-30.908199 -4.85938,-4.8086 c -2.67285,-2.64477 -5.53027,-7.05371 -6.35058,-9.79736 -2.17481,-7.27075 -5.03321,-71.73584 -5.40137,-121.79099 -0.42481,-57.82348 -1.30172,-56.28588 30.95117,-54.28106 l 17.33985,1.07818 -1.88672,-18.01904 c -1.03711,-9.9104 -2.66407,-18.76489 -3.61426,-19.67633 -0.95014,-0.91156 -16.98041,-2.70282 -35.62305,-3.98071 l -33.89551,-2.32318 -80.4365,26.70184 c -44.2403,14.68603 -81.709,27.34796 -83.2627,28.13751 -1.5537,0.78955 -2.8252,2.78638 -2.8252,4.4372 0,2.76129 45.8516,147.24002 59.2148,186.585719 3.1817,9.368652 6.8994,18.26001 8.2608,19.758545 3.9707,4.369385 63.1709,32.349854 65.5654,30.98877 1.1553,-0.656494 18.9131,-15.102539 39.4619,-32.102295 z"
           id="svg_7"
           inkscape:connector-curvature="0"
           style="fill:#2b2bb0" />
        <path
           d="m -891.89185,-20.857727 c -27.1015,-7.251953 -44.09082,-22.808105 -43.99121,-40.279785 0.0342,-6.010986 5.4502,-17.424805 10.83112,-22.824707 2.32519,-2.333496 3.91693,-4.473145 3.53705,-4.754883 -2.12696,-1.580811 -56.5,-19.863278 -57.74018,-19.414548 -0.81842,0.29589 -18.294,14.474851 -38.83403,31.508786 -20.541,17.033936 -38.8731,31.634277 -40.7373,32.445313 -2.7695,1.20459 -9.4658,-1.487793 -36.5869,-14.711182 l -33.1963,-16.185547 -3.0244,-8.51709 c -10.3135,-29.04858 -64.2305,-199.42917 -64.2305,-202.97238 0,-3.82593 1.043,-4.68604 9.2832,-7.6604 13.2314,-4.77545 148.6787,-49.64356 155.0762,-51.37036 5.7851,-1.56153 76.03318,2.70971 78.23142,4.75677 0.67187,0.625 2.086,10.29254 3.14355,21.48322 l 1.92285,20.34643 5.73633,0.87494 c 3.15528,0.48145 47.3692,5.74616 98.25495,11.69922 50.88476,5.95343 97.58294,11.9292 103.77343,13.27954 11.25971,2.45661 19.18067,7.12555 22.65723,13.35651 3.36225,6.02466 4.52045,21.78851 2.87299,39.07513 -3.44141,36.09598 -19.23145,129.51639 -25.7959,152.616976 -9.27539,32.637939 -16.09271,35.831787 -52.14356,24.429199 l -15.95898,-5.047852 -2.61035,3.845215 c -6.0625,8.931152 -14.11322,15.769043 -24.14057,20.504639 -9.96875,4.708252 -11.94049,5.072266 -29.29107,5.411133 -12.43848,0.243164 -21.39838,-0.384521 -27.03907,-1.894287 z m 50.23731,-4.386719 c 4.95508,-2.175781 11.47949,-5.763428 14.49902,-7.972412 5.74024,-4.19873 14.9834,-15.813721 13.62311,-17.11792 -0.43268,-0.415527 -9.43463,-3.80249 -20.00293,-7.526855 l -19.21686,-6.771484 -1.78418,4.071289 c -3.7207,8.487549 -5.13867,8.554199 -25.07226,1.178955 l -18.37793,-6.800049 -0.47852,-7.669678 -0.47852,-7.669922 -8.94232,-2.703613 c -8.586,-2.595947 -9.07232,-2.591064 -12.22076,0.126953 -5.84571,5.046631 -12.56055,17.967041 -12.57611,24.200195 -0.0205,7.856201 3.19818,13.381836 12.24212,21.017822 20.75788,17.524658 56.02936,23.629395 78.78614,13.636719 z m 86.40039,-19.96582 c 6.74805,-6.619873 11.63086,-21.842041 18.66699,-58.191404 12.98242,-67.07324 21.44043,-130.14182 19.29401,-143.8721 -1.27246,-8.1333 -6.23731,-15.6037 -12.78913,-19.24188 -2.66107,-1.47754 -10.65039,-3.7793 -17.7539,-5.11524 -18.36621,-3.45361 -222.25684,-27.20801 -233.53418,-27.20801 -13.57227,0 -14.92969,2.47138 -15.69043,28.57709 -0.7041,24.18921 2.61529,119.21903 4.73144,135.44656 2.42676,18.60352 2.09479,18.35791 45.25489,33.47242 12.96197,4.538814 31.125,11.154781 40.36328,14.702144 9.23828,3.547119 32.05469,11.675537 50.70214,18.062988 93.66797,32.08374 92.21387,31.746582 100.75489,23.367432 z m -60.3916,-50.708496 c -45.51465,-11.425778 -137.09668,-38.830568 -146.85157,-43.943118 -3.79199,-1.98755 -6.84375,-4.92163 -7.50781,-7.21972 -2.08984,-7.22437 -1.63965,-96.74851 0.4961,-98.79709 1.06549,-1.02198 4.17578,-1.85816 6.91113,-1.85816 4.25098,0 77.77545,15.73096 94.48053,20.2146 7.74896,2.08008 33.43255,23.89109 49.22748,41.80564 20.13476,22.83642 30.63574,32.66113 33.70221,31.53222 3.28607,-1.20922 6.51263,-11.99853 9.90325,-33.11743 2.58112,-16.07202 4.03711,-21.06763 4.03711,-13.84765 0,13.04199 -12.36621,102.767818 -14.76172,107.105465 -2.09863,3.800781 -8.68847,3.384033 -29.63671,-1.874756 z m -204.48635,16.26123 37.36135,-30.908208 -4.85938,-4.80859 c -2.67285,-2.64477 -5.53027,-7.05371 -6.35058,-9.79736 -2.17481,-7.27075 -5.03321,-71.73584 -5.40137,-121.79099 -0.42481,-57.82348 -1.30172,-56.28589 30.95117,-54.28106 l 17.33985,1.07818 -1.88672,-18.01904 c -1.03711,-9.9104 -2.66407,-18.76489 -3.61426,-19.67633 -0.95014,-0.91156 -16.98041,-2.70282 -35.62305,-3.98071 l -33.89551,-2.32319 -80.4365,26.70185 c -44.2403,14.68603 -81.709,27.34796 -83.2627,28.13751 -1.5537,0.78955 -2.8252,2.78638 -2.8252,4.43719 0,2.7613 45.8516,147.24003 59.2148,186.585728 3.1817,9.368652 6.8994,18.26001 8.2608,19.758545 3.9707,4.369385 63.1709,32.349854 65.5654,30.98877 1.1553,-0.656494 18.9131,-15.102539 39.4619,-32.102295 z"
           id="svg_8"
           inkscape:connector-curvature="0"
           style="fill:#1919a4" />
        <path
           d="m -891.89185,-20.857727 c -27.1015,-7.251953 -44.09082,-22.808105 -43.99121,-40.279785 0.0342,-6.010986 5.4502,-17.424805 10.83112,-22.824707 2.32519,-2.333496 3.91693,-4.473145 3.53705,-4.754883 -2.12696,-1.580811 -56.5,-19.863278 -57.74018,-19.414548 -0.81842,0.29589 -18.294,14.474851 -38.83403,31.508786 -20.541,17.033936 -38.8731,31.634277 -40.7373,32.445313 -2.7695,1.20459 -9.4658,-1.487793 -36.5869,-14.711182 l -33.1963,-16.185547 -3.0244,-8.51709 c -10.3135,-29.04858 -64.2305,-199.42917 -64.2305,-202.97238 0,-3.82593 1.043,-4.68604 9.2832,-7.6604 13.2314,-4.77545 148.6787,-49.64356 155.0762,-51.37036 5.7851,-1.56153 76.03318,2.70971 78.23142,4.75677 0.67187,0.625 2.086,10.29254 3.14355,21.48322 l 1.92285,20.34643 5.73633,0.87494 c 3.15528,0.48145 47.3692,5.74616 98.25495,11.69922 50.88476,5.95343 97.58294,11.9292 103.77343,13.27954 11.25971,2.45661 19.18067,7.12555 22.65723,13.35651 3.36225,6.02466 4.52045,21.78851 2.87299,39.07513 -3.44141,36.09598 -19.23145,129.51639 -25.7959,152.616976 -9.27539,32.637939 -16.09271,35.831787 -52.14356,24.429199 l -15.95898,-5.047852 -2.61035,3.845215 c -6.0625,8.931152 -14.11322,15.769043 -24.14057,20.504639 -9.96875,4.708252 -11.94049,5.072266 -29.29107,5.411133 -12.43848,0.243164 -21.39838,-0.384521 -27.03907,-1.894287 z m 50.23731,-4.386719 c 4.95508,-2.175781 11.47949,-5.763428 14.49902,-7.972412 5.74024,-4.19873 14.9834,-15.813721 13.62311,-17.11792 -0.43268,-0.415527 -9.43463,-3.80249 -20.00293,-7.526855 l -19.21686,-6.771484 -1.78418,4.071289 c -3.7207,8.487549 -5.13867,8.554199 -25.07226,1.178955 l -18.37793,-6.800049 -0.47852,-7.669678 -0.47852,-7.669922 -8.94232,-2.703613 c -8.586,-2.595947 -9.07232,-2.591064 -12.22076,0.126953 -5.84571,5.046631 -12.56055,17.967041 -12.57611,24.200195 -0.0205,7.856201 3.19818,13.381836 12.24212,21.017822 20.75788,17.524658 56.02936,23.629395 78.78614,13.636719 z m 86.40039,-19.96582 c 6.74805,-6.619873 11.63086,-21.842041 18.66699,-58.191404 12.98242,-67.07324 21.44043,-130.14182 19.29401,-143.8721 -1.27246,-8.1333 -6.23731,-15.6037 -12.78913,-19.24188 -2.66107,-1.47754 -10.65039,-3.7793 -17.7539,-5.11524 -18.36621,-3.45361 -222.25684,-27.20801 -233.53418,-27.20801 -13.57227,0 -14.92969,2.47138 -15.69043,28.57709 -0.7041,24.18921 2.61529,119.21903 4.73144,135.44656 2.42676,18.60352 2.09479,18.35791 45.25489,33.47242 12.96197,4.538814 31.125,11.154781 40.36328,14.702144 9.23828,3.547119 32.05469,11.675537 50.70214,18.062988 93.66797,32.08374 92.21387,31.746582 100.75489,23.367432 z m -44.24707,-51.843994 c -48.00488,-10.63428 -150.16894,-39.35889 -163.49506,-45.96851 -7.86822,-3.90234 -8.81543,-9.42773 -8.19049,-47.78076 0.71289,-43.75119 -0.31738,-42.44217 23.77051,-30.20755 9.6211,4.88629 28.10553,13.32913 41.07819,18.76151 42.11328,17.63672 57.08197,28.81909 87.62597,65.46142 10.19428,12.23047 20.32612,23.36231 22.51362,24.73755 7.60351,4.77783 9.74414,0.44654 16.16699,-32.70825 3.1748,-16.38965 3.74316,-18.11645 3.05859,-9.29126 -0.98047,12.63477 -6.80664,52.21191 -8.19824,55.690918 -0.93451,2.336182 -7.12793,2.900391 -14.33008,1.304932 z m 23.78522,-73.25561 c 0,-2.98072 0.33197,-4.2002 0.73822,-2.70997 0.40625,1.49073 0.40625,3.92969 0,5.41993 -0.40625,1.49047 -0.73822,0.27124 -0.73822,-2.70996 z m 1.55462,-13.1626 c -0.0331,-2.55494 0.30176,-3.7876 0.74414,-2.73926 0.44239,1.04834 0.46973,3.13891 0.0606,4.64551 -0.41015,1.50683 -0.77148,0.64892 -0.80469,-1.90625 z m -245.97072,103.814938 37.36135,-30.908208 -4.85938,-4.80859 c -2.67285,-2.64477 -5.53027,-7.05371 -6.35058,-9.79736 -2.17481,-7.27075 -5.03321,-71.73584 -5.40137,-121.79099 -0.42481,-57.82348 -1.30172,-56.28589 30.95117,-54.28106 l 17.33985,1.07818 -1.88672,-18.01904 c -1.03711,-9.9104 -2.66407,-18.76489 -3.61426,-19.67633 -0.95014,-0.91156 -16.98041,-2.70282 -35.62305,-3.98071 l -33.89551,-2.32319 -80.4365,26.70185 c -44.2403,14.68603 -81.709,27.34796 -83.2627,28.13751 -1.5537,0.78955 -2.8252,2.78638 -2.8252,4.43719 0,2.7613 45.8516,147.24003 59.2148,186.585728 3.1817,9.368652 6.8994,18.26001 8.2608,19.758545 3.9707,4.369385 63.1709,32.349854 65.5654,30.98877 1.1553,-0.656494 18.9131,-15.102539 39.4619,-32.102295 z"
           id="svg_9"
           inkscape:connector-curvature="0"
           style="fill:#0c0c95" />
        <path
           d="m -891.89185,-20.857727 c -27.1015,-7.251953 -44.09082,-22.808105 -43.99121,-40.279785 0.0342,-6.010986 5.4502,-17.424805 10.83112,-22.824707 2.32519,-2.333496 3.91693,-4.473145 3.53705,-4.754883 -2.12696,-1.580811 -56.5,-19.863278 -57.74018,-19.414548 -0.81842,0.29589 -18.294,14.474851 -38.83403,31.508786 -20.541,17.033936 -38.8731,31.634277 -40.7373,32.445313 -2.7695,1.20459 -9.4658,-1.487793 -36.5869,-14.711182 l -33.1963,-16.185547 -3.0244,-8.51709 c -10.3135,-29.04858 -64.2305,-199.42917 -64.2305,-202.97238 0,-3.82593 1.043,-4.68604 9.2832,-7.6604 13.2314,-4.77545 148.6787,-49.64356 155.0762,-51.37036 5.7851,-1.56153 76.03318,2.70971 78.23142,4.75677 0.67187,0.625 2.086,10.29254 3.14355,21.48322 l 1.92285,20.34643 5.73633,0.87494 c 3.15528,0.48145 47.3692,5.74616 98.25495,11.69922 50.88476,5.95343 97.58294,11.9292 103.77343,13.27954 11.25971,2.45661 19.18067,7.12555 22.65723,13.35651 3.36225,6.02466 4.52045,21.78851 2.87299,39.07513 -3.44141,36.09598 -19.23145,129.51639 -25.7959,152.616976 -9.27539,32.637939 -16.09271,35.831787 -52.14356,24.429199 l -15.95898,-5.047852 -2.61035,3.845215 c -6.0625,8.931152 -14.11322,15.769043 -24.14057,20.504639 -9.96875,4.708252 -11.94049,5.072266 -29.29107,5.411133 -12.43848,0.243164 -21.39838,-0.384521 -27.03907,-1.894287 z m 50.23731,-4.386719 c 4.95508,-2.175781 11.47949,-5.763428 14.49902,-7.972412 5.74024,-4.19873 14.9834,-15.813721 13.62311,-17.11792 -0.43268,-0.415527 -9.43463,-3.80249 -20.00293,-7.526855 l -19.21686,-6.771484 -1.78418,4.071289 c -3.7207,8.487549 -5.13867,8.554199 -25.07226,1.178955 l -18.37793,-6.800049 -0.47852,-7.669678 -0.47852,-7.669922 -8.94232,-2.703613 c -8.586,-2.595947 -9.07232,-2.591064 -12.22076,0.126953 -5.84571,5.046631 -12.56055,17.967041 -12.57611,24.200195 -0.0205,7.856201 3.19818,13.381836 12.24212,21.017822 20.75788,17.524658 56.02936,23.629395 78.78614,13.636719 z m 86.40039,-19.96582 c 6.74805,-6.619873 11.63086,-21.842041 18.66699,-58.191404 12.98242,-67.07324 21.44043,-130.14182 19.29401,-143.8721 -1.27246,-8.1333 -6.23731,-15.6037 -12.78913,-19.24188 -2.66107,-1.47754 -10.65039,-3.7793 -17.7539,-5.11524 -18.36621,-3.45361 -222.25684,-27.20801 -233.53418,-27.20801 -13.57227,0 -14.92969,2.47138 -15.69043,28.57709 -0.7041,24.18921 2.61529,119.21903 4.73144,135.44656 2.42676,18.60352 2.09479,18.35791 45.25489,33.47242 12.96197,4.538814 31.125,11.154781 40.36328,14.702144 9.23828,3.547119 32.05469,11.675537 50.70214,18.062988 93.66797,32.08374 92.21387,31.746582 100.75489,23.367432 z m -264.87795,-34.447266 37.36135,-30.908208 -4.85938,-4.80859 c -2.67285,-2.64477 -5.53027,-7.05371 -6.35058,-9.79736 -2.17481,-7.27075 -5.03321,-71.73584 -5.40137,-121.79099 -0.42481,-57.82348 -1.30172,-56.28589 30.95117,-54.28106 l 17.33985,1.07818 -1.88672,-18.01904 c -1.03711,-9.9104 -2.66407,-18.76489 -3.61426,-19.67633 -0.95014,-0.91156 -16.98041,-2.70282 -35.62305,-3.98071 l -33.89551,-2.32319 -80.4365,26.70185 c -44.2403,14.68603 -81.709,27.34796 -83.2627,28.13751 -1.5537,0.78955 -2.8252,2.78638 -2.8252,4.43719 0,2.7613 45.8516,147.24003 59.2148,186.585728 3.1817,9.368652 6.8994,18.26001 8.2608,19.758545 3.9707,4.369385 63.1709,32.349854 65.5654,30.98877 1.1553,-0.656494 18.9131,-15.102539 39.4619,-32.102295 z"
           id="svg_10"
           inkscape:connector-curvature="0"
           style="fill:#030303" />
      </g>
    </g>
    <text
       xml:space="preserve"
       style="font-size:40px;font-style:normal;font-weight:normal;line-height:125%;letter-spacing:0px;word-spacing:0px;fill:#000000;fill-opacity:1;stroke:none;font-family:FreeSans;-inkscape-font-specification:FreeSans"
       x="324.85715"
       y="421.21933"
       id="text3083"
       sodipodi:linespacing="125%"><tspan
         sodipodi:role="line"
         x="324.85715"
         y="421.21933"
         style="font-family:FreeSans;-inkscape-font-specification:FreeSans"
         id="tspan3776" /><tspan
         sodipodi:role="line"
         x="324.85715"
         y="471.21933"
         style="font-family:FreeSans;-inkscape-font-specification:FreeSans"
         id="tspan3782">Hello</tspan></text>
    <text
       xml:space="preserve"
       style="font-size:40px;font-style:normal;font-weight:normal;line-height:125%;letter-spacing:0px;word-spacing:0px;fill:#000000;fill-opacity:1;stroke:none;font-family:Sans"
       x="774"
       y="728.36218"
       id="text3784"
       sodipodi:linespacing="125%"><tspan
         sodipodi:role="line"
         id="tspan3786"
         x="774"
         y="728.36218" /></text>
  </g>
</svg>
