<?xml version="1.0" encoding="UTF-8" standalone="no"?>
<!-- Created with Inkscape (http://www.inkscape.org/) -->

<svg
   xmlns:dc="http://purl.org/dc/elements/1.1/"
   xmlns:cc="http://creativecommons.org/ns#"
   xmlns:rdf="http://www.w3.org/1999/02/22-rdf-syntax-ns#"
   xmlns:svg="http://www.w3.org/2000/svg"
   xmlns="http://www.w3.org/2000/svg"
   xmlns:xlink="http://www.w3.org/1999/xlink"
   xmlns:sodipodi="http://sodipodi.sourceforge.net/DTD/sodipodi-0.dtd"
   xmlns:inkscape="http://www.inkscape.org/namespaces/inkscape"
   id="svg2"
   viewBox="0 0 606.42926 248.82888"
   version="1.1"
   inkscape:version="0.48.1 r9760"
   width="100%"
   height="100%"
   sodipodi:docname="dv-2.svg">
  <sodipodi:namedview
     pagecolor="#ffffff"
     bordercolor="#666666"
     borderopacity="1"
     objecttolerance="10"
     gridtolerance="10"
     guidetolerance="10"
     inkscape:pageopacity="0"
     inkscape:pageshadow="2"
     inkscape:window-width="640"
     inkscape:window-height="480"
     id="namedview125"
     showgrid="false"
     fit-margin-top="0"
     fit-margin-left="0"
     fit-margin-right="0"
     fit-margin-bottom="0"
     inkscape:zoom="0.24895477"
     inkscape:cx="334.16999"
     inkscape:cy="-229.71487"
     inkscape:window-x="0"
     inkscape:window-y="0"
     inkscape:window-maximized="0"
     inkscape:current-layer="svg2" />
  <defs
     id="defs4">
    <marker
       id="Arrow1Mend"
       refY="0"
       refX="0"
       orient="auto"
       overflow="visible"
       style="overflow:visible">
      <path
         id="path4221"
         d="M 0,0 5,-5 -12.5,0 5,5 0,0 z"
         transform="matrix(-0.4,0,0,-0.4,-4,0)"
         inkscape:connector-curvature="0"
         style="fill-rule:evenodd;stroke:#000000;stroke-width:1pt" />
    </marker>
    <linearGradient
       id="linearGradient3791-7">
      <stop
         id="stop3793-0"
         stop-color="#c6c6c6"
         offset="0" />
      <stop
         id="stop3799-2"
         stop-color="#fff"
         offset=".60029" />
      <stop
         id="stop3795-9"
         stop-color="#a4a4a4"
         offset="1" />
    </linearGradient>
    <filter
       id="filter6096"
       color-interpolation-filters="sRGB">
      <feGaussianBlur
         id="feGaussianBlur6098"
         stdDeviation="2"
         result="result8" />
      <feOffset
         id="feOffset6100"
         result="result11"
         dx="3"
         dy="3" />
      <feComposite
         id="feComposite6102"
         operator="in"
         result="result6"
         in2="result11"
         in="SourceGraphic" />
      <feFlood
         id="feFlood6104"
         result="result10"
         in="result6"
         flood-color="rgb(0,0,0)" />
      <feBlend
         id="feBlend6106"
         mode="normal"
         result="result12"
         in2="result10"
         in="result6" />
      <feComposite
         id="feComposite6108"
         operator="in"
         result="result2"
         in2="SourceGraphic" />
    </filter>
    <filter
       id="filter5066"
       height="1.3542"
       width="1.1317"
       y="-0.1771"
       x="-0.065847002"
       color-interpolation-filters="sRGB">
      <feGaussianBlur
         id="feGaussianBlur5068"
         stdDeviation="6.0009211" />
    </filter>
    <linearGradient
       id="linearGradient3188"
       y2="237.12"
       xlink:href="#linearGradient3791-7"
       gradientUnits="userSpaceOnUse"
       x2="341.44"
       gradientTransform="translate(617.12,-0.21672)"
       y1="66.831001"
       x1="191.34" />
    <linearGradient
       inkscape:collect="always"
       xlink:href="#linearGradient3791-7"
       id="linearGradient3102"
       gradientUnits="userSpaceOnUse"
       gradientTransform="translate(617.12,-0.21672)"
       x1="191.34"
       y1="66.831001"
       x2="341.44"
       y2="237.12" />
    <linearGradient
       inkscape:collect="always"
       xlink:href="#linearGradient3791-7"
       id="linearGradient3104"
       gradientUnits="userSpaceOnUse"
       gradientTransform="translate(617.12,-0.21672)"
       x1="191.34"
       y1="66.831001"
       x2="341.44"
       y2="237.12" />
    <linearGradient
       inkscape:collect="always"
       xlink:href="#linearGradient3791-7"
       id="linearGradient3106"
       gradientUnits="userSpaceOnUse"
       gradientTransform="translate(617.12,-0.21672)"
       x1="191.34"
       y1="66.831001"
       x2="341.44"
       y2="237.12" />
    <linearGradient
       inkscape:collect="always"
       xlink:href="#linearGradient3791-7"
       id="linearGradient3108"
       gradientUnits="userSpaceOnUse"
       gradientTransform="translate(617.12,-0.21672)"
       x1="191.34"
       y1="66.831001"
       x2="341.44"
       y2="237.12" />
  </defs>
  <metadata
     id="metadata7">
    <rdf:RDF>
      <cc:Work
         rdf:about="">
        <dc:format>image/svg+xml</dc:format>
        <dc:type
           rdf:resource="http://purl.org/dc/dcmitype/StillImage" />
        <dc:title />
      </cc:Work>
    </rdf:RDF>
  </metadata>
  <g
     id="layer1"
     transform="translate(-37.875005,-47.65625)">
    <g
       id="g7633">
      <path
         id="path4839"
         d="M 365.21,149.89 V 108.707"
         inkscape:connector-curvature="0"
         style="fill:none;stroke:#000000;stroke-width:1px;marker-end:url(#Arrow1Mend)" />
      <path
         id="path4843"
         d="m 165.51,150.22 -30.3,-38.85"
         inkscape:connector-curvature="0"
         style="fill:none;stroke:#000000;stroke-width:1px;marker-end:url(#Arrow1Mend)" />
      <path
         id="path4841"
         d="m 164.73,257.45 -30.3,-39.63"
         inkscape:connector-curvature="0"
         style="fill:none;stroke:#000000;stroke-width:1px;marker-end:url(#Arrow1Mend)" />
      <path
         id="path4655"
         d="m 543.93,148.66 22.534,-39.629"
         inkscape:connector-curvature="0"
         style="fill:none;stroke:#000000;stroke-width:1px;marker-end:url(#Arrow1Mend)" />
      <path
         id="path4207"
         d="m 381.53,272.99 h 80.812"
         stroke-miterlimit="3"
         inkscape:connector-curvature="0"
         style="fill:none;stroke:#000000;stroke-miterlimit:3;marker-end:url(#Arrow1Mend)" />
      <g
         id="g3120"
         transform="matrix(0.75273,0,0,0.71483,118.4,56.111)">
        <path
           id="path4147"
           d="m 359.23,284.67 170,-123.85"
           inkscape:connector-curvature="0"
           style="fill:none;stroke:#000000;stroke-width:1px" />
        <path
           id="path4145"
           d="m 313.08,176.21 v 91.538"
           inkscape:connector-curvature="0"
           style="fill:none;stroke:#000000;stroke-width:1px" />
        <path
           id="path4143"
           d="M 111.54,295.44 H 284.62"
           inkscape:connector-curvature="0"
           style="fill:none;stroke:#000000;stroke-width:1px" />
        <path
           id="path4141"
           d="M 351.54,151.59 H 524.62"
           inkscape:connector-curvature="0"
           style="fill:none;stroke:#000000;stroke-width:1px" />
        <path
           id="path4139"
           d="m 76.154,176.98 v 91.538"
           inkscape:connector-curvature="0"
           style="fill:none;stroke:#000000;stroke-width:1px" />
        <path
           id="path4135"
           d="M 110.77,153.13 H 283.85"
           inkscape:connector-curvature="0"
           style="fill:none;stroke:#000000;stroke-width:1px" />
        <g
           id="layer1-9"
           transform="matrix(0.3298,0,0,0.3298,-50.775,59.837)">
          <g
             id="g5084"
             transform="translate(-696.92,42.622)">
            <path
               id="path5070"
               d="m 51.789,625.96 82.843,-81.324 h 135.88 l -83.198,81.324 z"
               transform="matrix(1.3571,0,0,1.3571,895.91,-503.35)"
               inkscape:connector-curvature="0"
               style="fill:#4d4d4d;stroke:#000000;stroke-width:1px;filter:url(#filter5066)" />
            <g
               id="g4916"
               transform="translate(264.76,34.823)">
              <path
                 id="path4918"
                 d="m 785.71,118.97 -56.595,55.714 c -13.78,13.566 -14.306,19.132 -14.306,37.313 v 32.272 c -2.6592,52.948 4.6283,54.857 49.695,54.857 h 107.79 c 19.516,0 24.204,-2.2219 37.227,-15.041 l 48.47,-47.709 c 17.801,-17.521 18.863,-31.451 18.863,-52.778 v -39.372 c 0,-38.514 -11.312,-36.789 -41.308,-36.789 h -118.11 c -16.409,0 -20.823,0.8042 -31.72,11.532 z"
                 inkscape:connector-curvature="0"
                 style="fill:url(#linearGradient3102);stroke:#000000;stroke-width:2.05609989" />
              <path
                 id="path4920"
                 d="m 754.82,188.76 h 95.525 c 42.501,0 43.89,9.7125 43.89,43.244 v 29.69 c 0,42.939 -17.176,37.435 -49.699,37.435 h -81.325 c -44.393,0 -48.408,-5.681 -48.408,-41.308 v -29.045 c 0,-39.879 7.8844,-40.017 40.017,-40.017 z"
                 inkscape:connector-curvature="0"
                 style="fill:#ececec;stroke:#000000;stroke-width:2.05609989" />
              <path
                 id="path4922"
                 d="m 777.99,170.16 c 0,0 6.558,8.0583 23.479,9.0804 16.921,1.0221 49.978,-10.538 39.949,-34.39 -3.8382,16.999 -35.223,28.185 -40.054,15.983 l 11.687,-4.6633 -38.897,-1.5406 -7.8491,20.194 z m 47.931,-50.957 c 0,0 -18.258,-0.10479 -31.258,6.9215 -13,7.02629 -15.007,25.757 32.804,30.172 -26.78,-7.9534 -25.238,-25.814 -0.97646,-23.424 l 0.28488,6.8345 28.489,-16.451 -29.629,-10.888 z m 63.511,35.007 c 0,0 8.9226,-8.8418 1.6918,-16.207 -7.2308,-7.3651 -42.103,-11.16 -73.389,11.37 28.008,-11.794 61.438,-8.3552 45.277,3.0546 l -13.21,-0.89124 17.86,16.299 34.981,-12.734 z"
                 inkscape:connector-curvature="0"
                 style="fill:#0097e1;filter:url(#filter6096)" />
              <text
                 id="text4924"
                 style="font-size:5.75699997px;font-weight:500;line-height:125%;letter-spacing:0px;word-spacing:0px;fill:#000000;font-family:Round Up"
                 font-weight="500"
                 xml:space="preserve"
                 font-size="5.757px"
                 line-height="125%"
                 y="256.41434"
                 x="785.99768"
                 sodipodi:linespacing="125%"><tspan
                   id="tspan4926"
                   font-weight="bold"
                   font-size="41.121px"
                   y="256.41434"
                   x="785.99768"
                   style="font-size:41.12099838px;font-weight:bold;fill:#000000;font-family:FreeSans">A</tspan></text>
              <path
                 id="path4928"
                 d="m 714.91,266.19 47.156,0.14073 h 107.79 c 19.516,0 24.295,-1.8096 37.227,-14.721 l 69.77,-69.654"
                 inkscape:connector-curvature="0"
                 style="fill:none;stroke:#000000;stroke-width:2.05609989;stroke-dasharray:8.22422762, 4.11211381" />
              <path
                 id="path4930"
                 d="m 714.91,220.95 47.156,0.14072 h 107.79 c 19.516,0 24.295,-1.8096 37.227,-14.721 l 69.77,-69.654"
                 inkscape:connector-curvature="0"
                 style="fill:none;stroke:#000000;stroke-width:2.05609989;stroke-dasharray:8.22422762, 4.11211381" />
            </g>
          </g>
        </g>
        <g
           id="g4031"
           transform="matrix(0.3298,0,0,0.3298,183.07,59.837)">
          <g
             id="g4033"
             transform="translate(-696.92,42.622)">
            <path
               id="path4035"
               d="m 51.789,625.96 82.843,-81.324 h 135.88 l -83.198,81.324 z"
               transform="matrix(1.3571,0,0,1.3571,895.91,-503.35)"
               inkscape:connector-curvature="0"
               style="fill:#4d4d4d;stroke:#000000;stroke-width:1px;filter:url(#filter5066)" />
            <g
               id="g4037"
               transform="translate(264.76,34.823)">
              <path
                 id="path4039"
                 d="m 785.71,118.97 -56.595,55.714 c -13.78,13.566 -14.306,19.132 -14.306,37.313 v 32.272 c -2.6592,52.948 4.6283,54.857 49.695,54.857 h 107.79 c 19.516,0 24.204,-2.2219 37.227,-15.041 l 48.47,-47.709 c 17.801,-17.521 18.863,-31.451 18.863,-52.778 v -39.372 c 0,-38.514 -11.312,-36.789 -41.308,-36.789 h -118.11 c -16.409,0 -20.823,0.8042 -31.72,11.532 z"
                 inkscape:connector-curvature="0"
                 style="fill:url(#linearGradient3104);stroke:#000000;stroke-width:2.05609989" />
              <path
                 id="path4041"
                 d="m 754.82,188.76 h 95.525 c 42.501,0 43.89,9.7125 43.89,43.244 v 29.69 c 0,42.939 -17.176,37.435 -49.699,37.435 h -81.325 c -44.393,0 -48.408,-5.681 -48.408,-41.308 v -29.045 c 0,-39.879 7.8844,-40.017 40.017,-40.017 z"
                 inkscape:connector-curvature="0"
                 style="fill:#ececec;stroke:#000000;stroke-width:2.05609989" />
              <path
                 id="path4043"
                 d="m 777.99,170.16 c 0,0 6.558,8.0583 23.479,9.0804 16.921,1.0221 49.978,-10.538 39.949,-34.39 -3.8382,16.999 -35.223,28.185 -40.054,15.983 l 11.687,-4.6633 -38.897,-1.5406 -7.8491,20.194 z m 47.931,-50.957 c 0,0 -18.258,-0.10479 -31.258,6.9215 -13,7.02629 -15.007,25.757 32.804,30.172 -26.78,-7.9534 -25.238,-25.814 -0.97646,-23.424 l 0.28488,6.8345 28.489,-16.451 -29.629,-10.888 z m 63.511,35.007 c 0,0 8.9226,-8.8418 1.6918,-16.207 -7.2308,-7.3651 -42.103,-11.16 -73.389,11.37 28.008,-11.794 61.438,-8.3552 45.277,3.0546 l -13.21,-0.89124 17.86,16.299 34.981,-12.734 z"
                 inkscape:connector-curvature="0"
                 style="fill:#0097e1;filter:url(#filter6096)" />
              <text
                 id="text4045"
                 style="font-size:5.75699997px;font-weight:500;line-height:125%;letter-spacing:0px;word-spacing:0px;fill:#000000;font-family:Round Up"
                 font-weight="500"
                 font-size="5.757px"
                 line-height="125%"
                 y="256.41434"
                 x="785.99768"
                 xml:space="preserve"
                 sodipodi:linespacing="125%"><tspan
                   id="tspan4047"
                   font-weight="bold"
                   font-size="41.121px"
                   y="256.41434"
                   x="785.99768"
                   style="font-size:41.12099838px;font-weight:bold;font-family:FreeSans">B</tspan></text>
              <path
                 id="path4049"
                 d="m 714.91,266.19 47.156,0.14073 h 107.79 c 19.516,0 24.295,-1.8096 37.227,-14.721 l 69.77,-69.654"
                 inkscape:connector-curvature="0"
                 style="fill:none;stroke:#000000;stroke-width:2.05609989;stroke-dasharray:8.22422762, 4.11211381" />
              <path
                 id="path4051"
                 d="m 714.91,220.95 47.156,0.14072 h 107.79 c 19.516,0 24.295,-1.8096 37.227,-14.721 l 69.77,-69.654"
                 inkscape:connector-curvature="0"
                 style="fill:none;stroke:#000000;stroke-width:2.05609989;stroke-dasharray:8.22422762, 4.11211381" />
            </g>
          </g>
        </g>
        <g
           id="g4057"
           transform="matrix(0.3298,0,0,0.3298,416.92,59.837)">
          <g
             id="g4059"
             transform="translate(-696.92,42.622)">
            <path
               id="path4061"
               d="m 51.789,625.96 82.843,-81.324 h 135.88 l -83.198,81.324 z"
               transform="matrix(1.3571,0,0,1.3571,895.91,-503.35)"
               inkscape:connector-curvature="0"
               style="fill:#4d4d4d;stroke:#000000;stroke-width:1px;filter:url(#filter5066)" />
            <g
               id="g4063"
               transform="translate(264.76,34.823)">
              <path
                 id="path4065"
                 d="m 785.71,118.97 -56.595,55.714 c -13.78,13.566 -14.306,19.132 -14.306,37.313 v 32.272 c -2.6592,52.948 4.6283,54.857 49.695,54.857 h 107.79 c 19.516,0 24.204,-2.2219 37.227,-15.041 l 48.47,-47.709 c 17.801,-17.521 18.863,-31.451 18.863,-52.778 v -39.372 c 0,-38.514 -11.312,-36.789 -41.308,-36.789 h -118.11 c -16.409,0 -20.823,0.8042 -31.72,11.532 z"
                 inkscape:connector-curvature="0"
                 style="fill:url(#linearGradient3106);stroke:#000000;stroke-width:2.05609989" />
              <path
                 id="path4067"
                 d="m 754.82,188.76 h 95.525 c 42.501,0 43.89,9.7125 43.89,43.244 v 29.69 c 0,42.939 -17.176,37.435 -49.699,37.435 h -81.325 c -44.393,0 -48.408,-5.681 -48.408,-41.308 v -29.045 c 0,-39.879 7.8844,-40.017 40.017,-40.017 z"
                 inkscape:connector-curvature="0"
                 style="fill:#ececec;stroke:#000000;stroke-width:2.05609989" />
              <path
                 id="path4069"
                 d="m 777.99,170.16 c 0,0 6.558,8.0583 23.479,9.0804 16.921,1.0221 49.978,-10.538 39.949,-34.39 -3.8382,16.999 -35.223,28.185 -40.054,15.983 l 11.687,-4.6633 -38.897,-1.5406 -7.8491,20.194 z m 47.931,-50.957 c 0,0 -18.258,-0.10479 -31.258,6.9215 -13,7.02629 -15.007,25.757 32.804,30.172 -26.78,-7.9534 -25.238,-25.814 -0.97646,-23.424 l 0.28488,6.8345 28.489,-16.451 -29.629,-10.888 z m 63.511,35.007 c 0,0 8.9226,-8.8418 1.6918,-16.207 -7.2308,-7.3651 -42.103,-11.16 -73.389,11.37 28.008,-11.794 61.438,-8.3552 45.277,3.0546 l -13.21,-0.89124 17.86,16.299 34.981,-12.734 z"
                 inkscape:connector-curvature="0"
                 style="fill:#0097e1;filter:url(#filter6096)" />
              <text
                 id="text4071"
                 style="font-size:5.75699997px;font-weight:500;line-height:125%;letter-spacing:0px;word-spacing:0px;fill:#000000;font-family:Round Up"
                 font-weight="500"
                 xml:space="preserve"
                 font-size="5.757px"
                 line-height="125%"
                 y="256.41434"
                 x="785.99768"
                 sodipodi:linespacing="125%"><tspan
                   id="tspan4073"
                   font-weight="bold"
                   font-size="41.121px"
                   y="256.41434"
                   x="785.99768"
                   style="font-size:41.12099838px;font-weight:bold;font-family:FreeSans">C</tspan></text>
              <path
                 id="path4075"
                 d="m 714.91,266.19 47.156,0.14073 h 107.79 c 19.516,0 24.295,-1.8096 37.227,-14.721 l 69.77,-69.654"
                 inkscape:connector-curvature="0"
                 style="fill:none;stroke:#000000;stroke-width:2.05609989;stroke-dasharray:8.22422762, 4.11211381" />
              <path
                 id="path4077"
                 d="m 714.91,220.95 47.156,0.14072 h 107.79 c 19.516,0 24.295,-1.8096 37.227,-14.721 l 69.77,-69.654"
                 inkscape:connector-curvature="0"
                 style="fill:none;stroke:#000000;stroke-width:2.05609989;stroke-dasharray:8.22422762, 4.11211381" />
            </g>
          </g>
        </g>
        <g
           id="g4083"
           transform="matrix(0.3298,0,0,0.3298,-50.775,201.38)">
          <g
             id="g4085"
             transform="translate(-696.92,42.622)">
            <path
               id="path4087"
               d="m 51.789,625.96 82.843,-81.324 h 135.88 l -83.198,81.324 z"
               transform="matrix(1.3571,0,0,1.3571,895.91,-503.35)"
               inkscape:connector-curvature="0"
               style="fill:#4d4d4d;stroke:#000000;stroke-width:1px;filter:url(#filter5066)" />
            <g
               id="g4089"
               transform="translate(264.76,34.823)">
              <path
                 id="path4091"
                 d="m 785.71,118.97 -56.595,55.714 c -13.78,13.566 -14.306,19.132 -14.306,37.313 v 32.272 c -2.6592,52.948 4.6283,54.857 49.695,54.857 h 107.79 c 19.516,0 24.204,-2.2219 37.227,-15.041 l 48.47,-47.709 c 17.801,-17.521 18.863,-31.451 18.863,-52.778 v -39.372 c 0,-38.514 -11.312,-36.789 -41.308,-36.789 h -118.11 c -16.409,0 -20.823,0.8042 -31.72,11.532 z"
                 inkscape:connector-curvature="0"
                 style="fill:url(#linearGradient3108);stroke:#000000;stroke-width:2.05609989" />
              <path
                 id="path4093"
                 d="m 754.82,188.76 h 95.525 c 42.501,0 43.89,9.7125 43.89,43.244 v 29.69 c 0,42.939 -17.176,37.435 -49.699,37.435 h -81.325 c -44.393,0 -48.408,-5.681 -48.408,-41.308 v -29.045 c 0,-39.879 7.8844,-40.017 40.017,-40.017 z"
                 inkscape:connector-curvature="0"
                 style="fill:#ececec;stroke:#000000;stroke-width:2.05609989" />
              <path
                 id="path4095"
                 d="m 777.99,170.16 c 0,0 6.558,8.0583 23.479,9.0804 16.921,1.0221 49.978,-10.538 39.949,-34.39 -3.8382,16.999 -35.223,28.185 -40.054,15.983 l 11.687,-4.6633 -38.897,-1.5406 -7.8491,20.194 z m 47.931,-50.957 c 0,0 -18.258,-0.10479 -31.258,6.9215 -13,7.02629 -15.007,25.757 32.804,30.172 -26.78,-7.9534 -25.238,-25.814 -0.97646,-23.424 l 0.28488,6.8345 28.489,-16.451 -29.629,-10.888 z m 63.511,35.007 c 0,0 8.9226,-8.8418 1.6918,-16.207 -7.2308,-7.3651 -42.103,-11.16 -73.389,11.37 28.008,-11.794 61.438,-8.3552 45.277,3.0546 l -13.21,-0.89124 17.86,16.299 34.981,-12.734 z"
                 inkscape:connector-curvature="0"
                 style="fill:#0097e1;filter:url(#filter6096)" />
              <text
                 id="text4097"
                 style="font-size:5.75699997px;font-weight:500;line-height:125%;letter-spacing:0px;word-spacing:0px;fill:#ff0000;font-family:Round Up"
                 font-weight="500"
                 font-size="5.757px"
                 line-height="125%"
                 y="256.41434"
                 x="785.99768"
                 xml:space="preserve"
                 sodipodi:linespacing="125%"><tspan
                   id="tspan4099"
                   font-weight="bold"
                   font-size="41.121px"
                   y="256.41434"
                   x="785.99768"
                   style="font-size:41.12099838px;font-weight:bold;fill:#ff0000;font-family:FreeSans">D</tspan></text>
              <path
                 id="path4101"
                 d="m 714.91,266.19 47.156,0.14073 h 107.79 c 19.516,0 24.295,-1.8096 37.227,-14.721 l 69.77,-69.654"
                 inkscape:connector-curvature="0"
                 style="fill:none;stroke:#000000;stroke-width:2.05609989;stroke-dasharray:8.22422762, 4.11211381" />
              <path
                 id="path4103"
                 d="m 714.91,220.95 47.156,0.14072 h 107.79 c 19.516,0 24.295,-1.8096 37.227,-14.721 l 69.77,-69.654"
                 inkscape:connector-curvature="0"
                 style="fill:none;stroke:#000000;stroke-width:2.05609989;stroke-dasharray:8.22422762, 4.11211381" />
            </g>
          </g>
        </g>
        <g
           id="g4107"
           transform="matrix(0.3298,0,0,0.3298,183.07,201.38)">
          <g
             id="g4109"
             transform="translate(-696.92,42.622)">
            <path
               id="path4111"
               d="m 51.789,625.96 82.843,-81.324 h 135.88 l -83.198,81.324 z"
               transform="matrix(1.3571,0,0,1.3571,895.91,-503.35)"
               inkscape:connector-curvature="0"
               style="fill:#4d4d4d;stroke:#000000;stroke-width:1px;filter:url(#filter5066)" />
            <g
               id="g4113"
               transform="translate(264.76,34.823)">
              <path
                 id="path4115"
                 d="m 785.71,118.97 -56.595,55.714 c -13.78,13.566 -14.306,19.132 -14.306,37.313 v 32.272 c -2.6592,52.948 4.6283,54.857 49.695,54.857 h 107.79 c 19.516,0 24.204,-2.2219 37.227,-15.041 l 48.47,-47.709 c 17.801,-17.521 18.863,-31.451 18.863,-52.778 v -39.372 c 0,-38.514 -11.312,-36.789 -41.308,-36.789 h -118.11 c -16.409,0 -20.823,0.8042 -31.72,11.532 z"
                 inkscape:connector-curvature="0"
                 style="fill:url(#linearGradient3188);stroke:#000000;stroke-width:2.05609989" />
              <path
                 id="path4117"
                 d="m 754.82,188.76 h 95.525 c 42.501,0 43.89,9.7125 43.89,43.244 v 29.69 c 0,42.939 -17.176,37.435 -49.699,37.435 h -81.325 c -44.393,0 -48.408,-5.681 -48.408,-41.308 v -29.045 c 0,-39.879 7.8844,-40.017 40.017,-40.017 z"
                 inkscape:connector-curvature="0"
                 style="fill:#ececec;stroke:#000000;stroke-width:2.05609989" />
              <path
                 id="path4119"
                 d="m 777.99,170.16 c 0,0 6.558,8.0583 23.479,9.0804 16.921,1.0221 49.978,-10.538 39.949,-34.39 -3.8382,16.999 -35.223,28.185 -40.054,15.983 l 11.687,-4.6633 -38.897,-1.5406 -7.8491,20.194 z m 47.931,-50.957 c 0,0 -18.258,-0.10479 -31.258,6.9215 -13,7.02629 -15.007,25.757 32.804,30.172 -26.78,-7.9534 -25.238,-25.814 -0.97646,-23.424 l 0.28488,6.8345 28.489,-16.451 -29.629,-10.888 z m 63.511,35.007 c 0,0 8.9226,-8.8418 1.6918,-16.207 -7.2308,-7.3651 -42.103,-11.16 -73.389,11.37 28.008,-11.794 61.438,-8.3552 45.277,3.0546 l -13.21,-0.89124 17.86,16.299 34.981,-12.734 z"
                 inkscape:connector-curvature="0"
                 style="fill:#0097e1;filter:url(#filter6096)" />
              <text
                 id="text4121"
                 style="font-size:5.75699997px;font-weight:500;line-height:125%;letter-spacing:0px;word-spacing:0px;fill:#000000;font-family:Round Up"
                 font-weight="500"
                 xml:space="preserve"
                 font-size="5.757px"
                 line-height="125%"
                 y="256.41434"
                 x="785.99768"
                 sodipodi:linespacing="125%"><tspan
                   id="tspan4123"
                   font-weight="bold"
                   font-size="41.121px"
                   y="256.41434"
                   x="785.99768"
                   style="font-size:41.12099838px;font-weight:bold;font-family:FreeSans">E</tspan></text>
              <path
                 id="path4125"
                 d="m 714.91,266.19 47.156,0.14073 h 107.79 c 19.516,0 24.295,-1.8096 37.227,-14.721 l 69.77,-69.654"
                 inkscape:connector-curvature="0"
                 style="fill:none;stroke:#000000;stroke-width:2.05609989;stroke-dasharray:8.22422762, 4.11211381" />
              <path
                 id="path4127"
                 d="m 714.91,220.95 47.156,0.14072 h 107.79 c 19.516,0 24.295,-1.8096 37.227,-14.721 l 69.77,-69.654"
                 inkscape:connector-curvature="0"
                 style="fill:none;stroke:#000000;stroke-width:2.05609989;stroke-dasharray:8.22422762, 4.11211381" />
            </g>
          </g>
        </g>
      </g>
      <rect
         id="rect3985"
         height="38.676998"
         width="94.779999"
         stroke-miterlimit="0"
         y="77.945"
         x="39.616001"
         style="fill:none;stroke:#000000;stroke-width:0.34026;stroke-miterlimit:0" />
      <text
         id="text3987"
         style="font-size:9.94789982px;line-height:125%;letter-spacing:0px;word-spacing:0px;fill:#000000;font-family:FreeSans"
         font-size="9.9479px"
         line-height="125%"
         y="91.163177"
         x="46.622425"
         xml:space="preserve"
         sodipodi:linespacing="125%"><tspan
           id="tspan3999"
           y="91.163177"
           x="46.622425">Routing table</tspan><tspan
           id="tspan6083"
           y="103.5981"
           x="46.622425">A : 0 [ Local ]</tspan></text>
      <text
         id="text4058"
         style="font-size:9.94789982px;font-weight:bold;line-height:125%;letter-spacing:0px;word-spacing:0px;fill:#000000;font-family:FreeSans"
         line-height="125%"
         font-weight="bold"
         font-size="9.9479px"
         y="199.1718"
         x="45.068344"
         xml:space="preserve"
         sodipodi:linespacing="125%"><tspan
           id="tspan4070"
           y="199.1718"
           x="45.068344">Routing table</tspan><tspan
           id="tspan6105"
           y="211.60672"
           x="45.068344">D : 0 [Local]</tspan><tspan
           id="tspan7255"
           y="224.04164"
           x="45.068344"
           style="fill:#0000ff">A : 1 [North]</tspan></text>
      <text
         id="text4099"
         style="font-size:9.94789982px;font-weight:bold;line-height:125%;letter-spacing:0px;word-spacing:0px;fill:#000000;font-family:FreeSans"
         line-height="125%"
         font-weight="bold"
         font-size="9.9479px"
         y="61.838699"
         x="335.68146"
         xml:space="preserve"
         sodipodi:linespacing="125%"><tspan
           id="tspan4111"
           y="61.838699"
           x="335.68146">Routing table</tspan><tspan
           id="tspan7249"
           y="74.273621"
           x="335.68146">B : 0 [Local]</tspan><tspan
           id="tspan7251"
           y="86.708549"
           x="335.68146"
           style="fill:#0000ff">A : 1 [West]</tspan></text>
      <g
         id="g6326"
         transform="translate(-10.102,41.183)">
        <rect
           id="rect4116"
           height="40.132"
           width="94.779999"
           stroke-miterlimit="0"
           y="24.33"
           x="559.46002"
           style="fill:none;stroke:#000000;stroke-width:0.3466;stroke-miterlimit:0" />
        <text
           id="text4118"
           style="font-size:9.94789982px;font-weight:bold;line-height:125%;letter-spacing:0px;word-spacing:0px;fill:#000000;font-family:FreeSans"
           font-weight="bold"
           xml:space="preserve"
           font-size="9.9479px"
           y="38.324436"
           x="566.46246"
           line-height="125%"
           sodipodi:linespacing="125%"><tspan
             id="tspan4130"
             x="566.46246"
             y="38.324436">Routing table</tspan><tspan
             id="tspan6149"
             x="566.46246"
             y="50.759361">C : 0 [Local]</tspan></text>
      </g>
      <g
         id="g6318"
         transform="translate(-0.77704,26.419)">
        <g
           id="g4132"
           transform="matrix(1,0,0,0.46197,420.05,169.17)">
          <rect
             id="rect4134"
             height="83.515999"
             width="94.779999"
             stroke-miterlimit="0"
             y="123.79"
             x="45.055"
             style="fill:none;stroke:#000000;stroke-width:0.5;stroke-miterlimit:0" />
        </g>
        <text
           id="text4136"
           style="font-size:9.94789982px;font-weight:bold;line-height:125%;letter-spacing:0px;word-spacing:0px;fill:#000000;font-family:FreeSans"
           font-weight="bold"
           xml:space="preserve"
           font-size="9.9479px"
           y="240.35497"
           x="472.88647"
           line-height="125%"
           sodipodi:linespacing="125%"><tspan
             id="tspan4148"
             x="472.88647"
             y="240.35497">Routing table</tspan><tspan
             id="tspan6173"
             x="472.88647"
             y="252.78989">E : 0 [Local]</tspan></text>
      </g>
      <rect
         id="rect6294"
         height="54.201"
         width="94.779999"
         stroke-miterlimit="0"
         y="182.07001"
         x="38.062"
         style="fill:none;stroke:#000000;stroke-width:0.40279999;stroke-miterlimit:0" />
      <rect
         id="rect6301"
         height="52.182999"
         width="94.779999"
         stroke-miterlimit="0"
         y="47.844002"
         x="328.67001"
         style="fill:none;stroke:#000000;stroke-width:0.39523;stroke-miterlimit:0" />
      <path
         id="path6332"
         d="M 185.71,236.92 V 195.737"
         inkscape:connector-curvature="0"
         style="fill:none;stroke:#000000;stroke-width:1px;marker-end:url(#Arrow1Mend)" />
      <path
         id="path7216"
         d="m 233.05,260.41 h 80.812"
         stroke-miterlimit="3"
         inkscape:connector-curvature="0"
         style="fill:none;stroke:#000000;stroke-miterlimit:3;marker-end:url(#Arrow1Mend)" />
      <rect
         id="rect7218"
         height="15.939"
         width="49.925999"
         stroke-miterlimit="0"
         y="207.23"
         x="191.82001"
         style="fill:none;stroke:#000000;stroke-width:0.15853;stroke-miterlimit:0" />
      <text
         id="text7220"
         style="font-size:9.94789982px;font-weight:bold;line-height:125%;letter-spacing:0px;word-spacing:0px;fill:#000000;font-family:FreeSans"
         line-height="125%"
         font-weight="bold"
         font-size="9.9479px"
         y="218.20926"
         x="195.98656"
         xml:space="preserve"
         sodipodi:linespacing="125%"><tspan
           id="tspan7222"
           y="218.20926"
           x="195.98656">D=0; A=1</tspan></text>
      <rect
         id="rect7224"
         height="15.939"
         width="57.067001"
         stroke-miterlimit="0"
         y="242"
         x="243.64999"
         style="fill:none;stroke:#000000;stroke-width:0.16948999;stroke-miterlimit:0" />
      <text
         id="text7226"
         style="font-size:9.94789982px;font-weight:bold;line-height:125%;letter-spacing:0px;word-spacing:0px;fill:#000000;font-family:FreeSans"
         font-weight="bold"
         xml:space="preserve"
         font-size="9.9479px"
         y="252.97473"
         x="251.85336"
         line-height="125%"
         sodipodi:linespacing="125%"><tspan
           id="tspan7228"
           x="251.85336"
           y="252.97473">D=0; A=1</tspan></text>
      <path
         id="path7261"
         d="M 45.055,227.09 H 97.206"
         inkscape:connector-curvature="0"
         style="fill:none;stroke:#0000f4;stroke-width:0.71885997" />
      <path
         id="path7263"
         d="m 335.16,89.725 h 52.151"
         inkscape:connector-curvature="0"
         style="fill:none;stroke:#0000f4;stroke-width:0.71885997" />
    </g>
  </g>
</svg>
