<?xml version="1.0" encoding="UTF-8" standalone="no"?>
<!-- Created with Inkscape (http://www.inkscape.org/) -->
<svg id="svg2" xmlns:rdf="http://www.w3.org/1999/02/22-rdf-syntax-ns#" xmlns="http://www.w3.org/2000/svg" viewBox="0 0 744.09 1052.4" version="1.1" xmlns:cc="http://creativecommons.org/ns#" xmlns:xlink="http://www.w3.org/1999/xlink" xmlns:dc="http://purl.org/dc/elements/1.1/">
 <defs id="defs4">
  <marker id="DotL" refY="0.0" refX="0.0" orient="auto" overflow="visible">
   <path id="path4755" d="m-2.5-1c0 2.76-2.24 5-5 5s-5-2.24-5-5 2.24-5 5-5 5 2.24 5 5z" fill-rule="evenodd" transform="scale(.8) translate(7.4 1)" stroke="#000" stroke-width="1pt"/>
  </marker>
  <marker id="Arrow1Mend" refY="0.0" refX="0.0" orient="auto" overflow="visible">
   <path id="path4221" d="m0 0l5-5-17.5 5 17.5 5-5-5z" fill-rule="evenodd" transform="scale(.4) rotate(180) translate(10)" stroke="#000" stroke-width="1pt"/>
  </marker>
  <linearGradient id="linearGradient3791-7">
   <stop id="stop3793-0" stop-color="#c6c6c6" offset="0"/>
   <stop id="stop3799-2" stop-color="#fff" offset=".60029"/>
   <stop id="stop3795-9" stop-color="#a4a4a4" offset="1"/>
  </linearGradient>
  <filter id="filter6096" color-interpolation-filters="sRGB">
   <feGaussianBlur id="feGaussianBlur6098" stdDeviation="2" result="result8"/>
   <feOffset id="feOffset6100" result="result11" dx="3" dy="3"/>
   <feComposite id="feComposite6102" operator="in" result="result6" in2="result11" in="SourceGraphic"/>
   <feFlood id="feFlood6104" result="result10" in="result6" flood-color="rgb(0,0,0)"/>
   <feBlend id="feBlend6106" mode="normal" result="result12" in2="result10" in="result6"/>
   <feComposite id="feComposite6108" operator="in" result="result2" in2="SourceGraphic"/>
  </filter>
  <filter id="filter5066" height="1.3542" width="1.1317" y="-.17710" x="-.065847">
   <feGaussianBlur id="feGaussianBlur5068" stdDeviation="6.0009211"/>
  </filter>
  <marker id="Arrow1Mend-5" refY="0.0" refX="0.0" orient="auto" overflow="visible">
   <path id="path4221-9" d="m0 0l5-5-17.5 5 17.5 5-5-5z" fill-rule="evenodd" transform="scale(.4) rotate(180) translate(10)" stroke="#000" stroke-width="1pt"/>
  </marker>
  <linearGradient id="linearGradient6734" y2="237.12" xlink:href="#linearGradient3791-7" gradientUnits="userSpaceOnUse" x2="341.44" gradientTransform="translate(617.12 -.21672)" y1="66.831" x1="191.34"/>
 </defs>
 <metadata id="metadata7">
  <rdf:RDF>
   <cc:Work rdf:about="">
    <dc:format>image/svg+xml</dc:format>
    <dc:type rdf:resource="http://purl.org/dc/dcmitype/StillImage"/>
    <dc:title/>
   </cc:Work>
  </rdf:RDF>
 </metadata>
 <g id="layer1">
  <text id="text5136" style="word-spacing:0px;letter-spacing:0px" font-size="48px" line-height="125%" y="292.91492" x="610.57544" font-family="FreeSans" xml:space="preserve" fill="#000000"><tspan id="tspan5138" x="610.57544" y="292.91492"/></text>
  <text id="text5136-3" style="word-spacing:0px;letter-spacing:0px" xml:space="preserve" font-size="48px" line-height="125%" y="838.08514" x="613.39978" font-family="FreeSans" fill="#000000"><tspan id="tspan5138-2" y="838.08514" x="613.39978"/></text>
  <g id="g5888" transform="translate(180.96 -65.062)">
   <g id="g6742">
    <path id="path5334" marker-end="url(#Arrow1Mend-5)" d="m18.465 288.74v-36.538" stroke="#000" stroke-width="1px" fill="none"/>
    <path id="path4839" marker-end="url(#Arrow1Mend)" d="m201.53 292.12v-41.183" stroke="#000" stroke-width="1px" fill="none"/>
    <path id="path4655" marker-end="url(#Arrow1Mend)" d="m380.25 290.89 22.534-39.629" stroke="#000" stroke-width="1px" fill="none"/>
    <path id="path4207" marker-end="url(#Arrow1Mend)" d="m173.88 418.97h-71.347" stroke="#000" stroke-miterlimit="3" stroke-width=".93962" fill="none"/>
    <path id="path4147" d="m225.12 401.83 127.97-88.53" stroke="#000" stroke-width=".73354px" fill="none"/>
    <path id="path4145" d="m190.38 324.3v65.434" stroke="#000" stroke-width=".73354px" fill="none"/>
    <path id="path4141" d="m219.33 306.7h130.28" stroke="#000" stroke-width=".73354px" fill="none"/>
    <path id="path4135" d="m38.099 307.8h130.28" stroke="#000" stroke-width=".73354px" fill="none"/>
    <g id="g5103" transform="matrix(.24825 0 0 .23575 -256.51 251.16)">
     <path id="path5070" d="m51.789 625.96 82.843-81.324h135.88l-83.198 81.324z" transform="matrix(1.3571 0 0 1.3571 895.91 -503.35)" filter="url(#filter5066)" stroke="#000" stroke-width="1px" fill="#4d4d4d"/>
     <g id="g4916" transform="translate(264.76 34.823)">
      <path id="path4918" d="m785.71 118.97-56.595 55.714c-13.78 13.566-14.306 19.132-14.306 37.313v32.272c-2.6592 52.948 4.6283 54.857 49.695 54.857h107.79c19.516 0 24.204-2.2219 37.227-15.041l48.47-47.709c17.801-17.521 18.863-31.451 18.863-52.778v-39.372c0-38.514-11.312-36.789-41.308-36.789h-118.11c-16.409 0-20.823 0.8042-31.72 11.532z" stroke="#000" stroke-width="2.0561" fill="url(#linearGradient6734)"/>
      <path id="path4920" d="m754.82 188.76h95.525c42.501 0 43.89 9.7125 43.89 43.244v29.69c0 42.939-17.176 37.435-49.699 37.435h-81.325c-44.393 0-48.408-5.681-48.408-41.308v-29.045c0-39.879 7.8844-40.017 40.017-40.017z" stroke="#000" stroke-width="2.0561" fill="#ececec"/>
      <path id="path4922" d="m777.99 170.16s6.558 8.0583 23.479 9.0804 49.978-10.538 39.949-34.39c-3.8382 16.999-35.223 28.185-40.054 15.983l11.687-4.6633-38.897-1.5406-7.8491 20.194zm47.931-50.957s-18.258-0.10479-31.258 6.9215-15.007 25.757 32.804 30.172c-26.78-7.9534-25.238-25.814-0.97646-23.424l0.28488 6.8345 28.489-16.451-29.629-10.888zm63.511 35.007s8.9226-8.8418 1.6918-16.207c-7.2308-7.3651-42.103-11.16-73.389 11.37 28.008-11.794 61.438-8.3552 45.277 3.0546l-13.21-0.89124 17.86 16.299 34.981-12.734z" filter="url(#filter6096)" fill="#0097e1"/>
      <text id="text4924" style="word-spacing:0px;letter-spacing:0px" font-weight="500" xml:space="preserve" font-size="5.757px" line-height="125%" y="256.41434" x="785.99768" font-family="Round Up" fill="#000000"><tspan id="tspan4926" font-weight="bold" font-size="41.121px" y="256.41434" x="785.99768" font-family="FreeSans" fill="#000000">A</tspan></text>
      <path id="path4928" d="m714.91 266.19 47.156 0.14073h107.79c19.516 0 24.295-1.8096 37.227-14.721l69.77-69.654" stroke="#000" stroke-dasharray="8.22422762, 4.11211381" stroke-width="2.0561" fill="none"/>
      <path id="path4930" d="m714.91 220.95 47.156 0.14072h107.79c19.516 0 24.295-1.8096 37.227-14.721l69.77-69.654" stroke="#000" stroke-dasharray="8.22422762, 4.11211381" stroke-width="2.0561" fill="none"/>
     </g>
    </g>
    <g id="g4033" transform="matrix(.24825 0 0 .23575 -80.485 251.16)">
     <path id="path4035" d="m51.789 625.96 82.843-81.324h135.88l-83.198 81.324z" transform="matrix(1.3571 0 0 1.3571 895.91 -503.35)" filter="url(#filter5066)" stroke="#000" stroke-width="1px" fill="#4d4d4d"/>
     <g id="g4037" transform="translate(264.76 34.823)">
      <path id="path4039" d="m785.71 118.97-56.595 55.714c-13.78 13.566-14.306 19.132-14.306 37.313v32.272c-2.6592 52.948 4.6283 54.857 49.695 54.857h107.79c19.516 0 24.204-2.2219 37.227-15.041l48.47-47.709c17.801-17.521 18.863-31.451 18.863-52.778v-39.372c0-38.514-11.312-36.789-41.308-36.789h-118.11c-16.409 0-20.823 0.8042-31.72 11.532z" stroke="#000" stroke-width="2.0561" fill="url(#linearGradient6734)"/>
      <path id="path4041" d="m754.82 188.76h95.525c42.501 0 43.89 9.7125 43.89 43.244v29.69c0 42.939-17.176 37.435-49.699 37.435h-81.325c-44.393 0-48.408-5.681-48.408-41.308v-29.045c0-39.879 7.8844-40.017 40.017-40.017z" stroke="#000" stroke-width="2.0561" fill="#ececec"/>
      <path id="path4043" d="m777.99 170.16s6.558 8.0583 23.479 9.0804 49.978-10.538 39.949-34.39c-3.8382 16.999-35.223 28.185-40.054 15.983l11.687-4.6633-38.897-1.5406-7.8491 20.194zm47.931-50.957s-18.258-0.10479-31.258 6.9215-15.007 25.757 32.804 30.172c-26.78-7.9534-25.238-25.814-0.97646-23.424l0.28488 6.8345 28.489-16.451-29.629-10.888zm63.511 35.007s8.9226-8.8418 1.6918-16.207c-7.2308-7.3651-42.103-11.16-73.389 11.37 28.008-11.794 61.438-8.3552 45.277 3.0546l-13.21-0.89124 17.86 16.299 34.981-12.734z" filter="url(#filter6096)" fill="#0097e1"/>
      <text id="text4045" style="word-spacing:0px;letter-spacing:0px" font-weight="500" font-size="5.757px" line-height="125%" y="256.41434" x="785.99768" font-family="Round Up" xml:space="preserve" fill="#ff0000"><tspan id="tspan4047" font-weight="bold" font-size="41.121px" y="256.41434" x="785.99768" font-family="FreeSans" fill="#ff0000">B</tspan></text>
      <path id="path4049" d="m714.91 266.19 47.156 0.14073h107.79c19.516 0 24.295-1.8096 37.227-14.721l69.77-69.654" stroke="#000" stroke-dasharray="8.22422762, 4.11211381" stroke-width="2.0561" fill="none"/>
      <path id="path4051" d="m714.91 220.95 47.156 0.14072h107.79c19.516 0 24.295-1.8096 37.227-14.721l69.77-69.654" stroke="#000" stroke-dasharray="8.22422762, 4.11211381" stroke-width="2.0561" fill="none"/>
     </g>
    </g>
    <g id="g4059" transform="matrix(.24825 0 0 .23575 95.538 251.16)">
     <path id="path4061" d="m51.789 625.96 82.843-81.324h135.88l-83.198 81.324z" transform="matrix(1.3571 0 0 1.3571 895.91 -503.35)" filter="url(#filter5066)" stroke="#000" stroke-width="1px" fill="#4d4d4d"/>
     <g id="g4063" transform="translate(264.76 34.823)">
      <path id="path4065" d="m785.71 118.97-56.595 55.714c-13.78 13.566-14.306 19.132-14.306 37.313v32.272c-2.6592 52.948 4.6283 54.857 49.695 54.857h107.79c19.516 0 24.204-2.2219 37.227-15.041l48.47-47.709c17.801-17.521 18.863-31.451 18.863-52.778v-39.372c0-38.514-11.312-36.789-41.308-36.789h-118.11c-16.409 0-20.823 0.8042-31.72 11.532z" stroke="#000" stroke-width="2.0561" fill="url(#linearGradient6734)"/>
      <path id="path4067" d="m754.82 188.76h95.525c42.501 0 43.89 9.7125 43.89 43.244v29.69c0 42.939-17.176 37.435-49.699 37.435h-81.325c-44.393 0-48.408-5.681-48.408-41.308v-29.045c0-39.879 7.8844-40.017 40.017-40.017z" stroke="#000" stroke-width="2.0561" fill="#ececec"/>
      <path id="path4069" d="m777.99 170.16s6.558 8.0583 23.479 9.0804 49.978-10.538 39.949-34.39c-3.8382 16.999-35.223 28.185-40.054 15.983l11.687-4.6633-38.897-1.5406-7.8491 20.194zm47.931-50.957s-18.258-0.10479-31.258 6.9215-15.007 25.757 32.804 30.172c-26.78-7.9534-25.238-25.814-0.97646-23.424l0.28488 6.8345 28.489-16.451-29.629-10.888zm63.511 35.007s8.9226-8.8418 1.6918-16.207c-7.2308-7.3651-42.103-11.16-73.389 11.37 28.008-11.794 61.438-8.3552 45.277 3.0546l-13.21-0.89124 17.86 16.299 34.981-12.734z" filter="url(#filter6096)" fill="#0097e1"/>
      <text id="text4071" style="word-spacing:0px;letter-spacing:0px" font-weight="500" xml:space="preserve" font-size="5.757px" line-height="125%" y="256.41434" x="785.99768" font-family="Round Up" fill="#000000"><tspan id="tspan4073" font-weight="bold" font-size="41.121px" y="256.41434" x="785.99768" font-family="FreeSans" fill="#000000">C</tspan></text>
      <path id="path4075" d="m714.91 266.19 47.156 0.14073h107.79c19.516 0 24.295-1.8096 37.227-14.721l69.77-69.654" stroke="#000" stroke-dasharray="8.22422762, 4.11211381" stroke-width="2.0561" fill="none"/>
      <path id="path4077" d="m714.91 220.95 47.156 0.14072h107.79c19.516 0 24.295-1.8096 37.227-14.721l69.77-69.654" stroke="#000" stroke-dasharray="8.22422762, 4.11211381" stroke-width="2.0561" fill="none"/>
     </g>
    </g>
    <g id="g4109" transform="matrix(.24825 0 0 .23575 -80.485 352.34)">
     <path id="path4111" d="m51.789 625.96 82.843-81.324h135.88l-83.198 81.324z" transform="matrix(1.3571 0 0 1.3571 895.91 -503.35)" filter="url(#filter5066)" stroke="#000" stroke-width="1px" fill="#4d4d4d"/>
     <g id="g4113" transform="translate(264.76 34.823)">
      <path id="path4115" d="m785.71 118.97-56.595 55.714c-13.78 13.566-14.306 19.132-14.306 37.313v32.272c-2.6592 52.948 4.6283 54.857 49.695 54.857h107.79c19.516 0 24.204-2.2219 37.227-15.041l48.47-47.709c17.801-17.521 18.863-31.451 18.863-52.778v-39.372c0-38.514-11.312-36.789-41.308-36.789h-118.11c-16.409 0-20.823 0.8042-31.72 11.532z" stroke="#000" stroke-width="2.0561" fill="url(#linearGradient6734)"/>
      <path id="path4117" d="m754.82 188.76h95.525c42.501 0 43.89 9.7125 43.89 43.244v29.69c0 42.939-17.176 37.435-49.699 37.435h-81.325c-44.393 0-48.408-5.681-48.408-41.308v-29.045c0-39.879 7.8844-40.017 40.017-40.017z" stroke="#000" stroke-width="2.0561" fill="#ececec"/>
      <path id="path4119" d="m777.99 170.16s6.558 8.0583 23.479 9.0804 49.978-10.538 39.949-34.39c-3.8382 16.999-35.223 28.185-40.054 15.983l11.687-4.6633-38.897-1.5406-7.8491 20.194zm47.931-50.957s-18.258-0.10479-31.258 6.9215-15.007 25.757 32.804 30.172c-26.78-7.9534-25.238-25.814-0.97646-23.424l0.28488 6.8345 28.489-16.451-29.629-10.888zm63.511 35.007s8.9226-8.8418 1.6918-16.207c-7.2308-7.3651-42.103-11.16-73.389 11.37 28.008-11.794 61.438-8.3552 45.277 3.0546l-13.21-0.89124 17.86 16.299 34.981-12.734z" filter="url(#filter6096)" fill="#0097e1"/>
      <text id="text4121" style="word-spacing:0px;letter-spacing:0px" font-weight="500" xml:space="preserve" font-size="5.757px" line-height="125%" y="256.41434" x="785.99768" font-family="Round Up" fill="#000000"><tspan id="tspan4123" font-weight="bold" font-size="41.121px" y="256.41434" x="785.99768" font-family="FreeSans" fill="#000000">E</tspan></text>
      <path id="path4125" d="m714.91 266.19 47.156 0.14073h107.79c19.516 0 24.295-1.8096 37.227-14.721l69.77-69.654" stroke="#000" stroke-dasharray="8.22422762, 4.11211381" stroke-width="2.0561" fill="none"/>
      <path id="path4127" d="m714.91 220.95 47.156 0.14072h107.79c19.516 0 24.295-1.8096 37.227-14.721l69.77-69.654" stroke="#000" stroke-dasharray="8.22422762, 4.11211381" stroke-width="2.0561" fill="none"/>
     </g>
    </g>
    <rect id="rect3985" height="85.468" width="94.78" stroke="#000" stroke-miterlimit="0" y="164.13" x="-23.379" stroke-width=".50581" fill="none"/>
    <text id="text3987" style="word-spacing:0px;letter-spacing:0px" font-size="9.9479px" line-height="125%" y="177.35101" x="-16.37216" font-family="FreeSans" xml:space="preserve" fill="#000000"><tspan id="tspan11448" y="177.35101" x="-16.37216">Routing table</tspan><tspan id="tspan3470" y="189.78593" x="-16.37216">A : 0 [ Local ]</tspan><tspan id="tspan3472" y="202.22086" x="-16.37216">B : ∞ ∞</tspan><tspan id="tspan3474" y="214.65579" x="-16.37216">C : ∞ ∞</tspan><tspan id="tspan3476" y="227.09071" x="-16.37216">E : ∞ ∞</tspan></text>
    <text id="text4058" style="word-spacing:0px;letter-spacing:0px" line-height="125%" font-weight="bold" font-size="9.9479px" y="418.61829" x="13.303576" font-family="FreeSans" xml:space="preserve" fill="#000000"><tspan id="tspan11478" y="418.61829" x="13.303576">Routing table</tspan><tspan id="tspan3414" y="431.05322" x="13.303576">E : 0 [Local]</tspan><tspan id="tspan3416" y="443.48813" x="13.303576">A : 2 [North]</tspan><tspan id="tspan3418" y="455.92307" x="13.303576">C : 1 [North-East]</tspan><tspan id="tspan3420" y="468.35797" x="13.303576">B : 1 [North]</tspan></text>
    <text id="text4099" style="word-spacing:0px;letter-spacing:0px" line-height="125%" font-weight="bold" font-size="9.9479px" y="176.46687" x="168.7271" font-family="FreeSans" xml:space="preserve" fill="#000000"><tspan id="tspan10789" y="176.46687" x="168.7271">Routing table</tspan><tspan id="tspan3442" y="188.90179" x="168.7271">B : 0 [Local]</tspan><tspan id="tspan3444" y="201.33672" x="168.7271">A : 1 [West]</tspan><tspan id="tspan3446" y="213.77165" x="168.7271">C : 1 [East]</tspan><tspan id="tspan3448" y="226.20657" x="168.7271">E : 1 [South]</tspan></text>
    <rect id="rect4116" height="81.216" width="94.78" stroke="#000" stroke-miterlimit="0" y="166.24" x="384.18" stroke-width=".49307" fill="none"/>
    <text id="text4118" style="word-spacing:0px;letter-spacing:0px" line-height="125%" font-weight="bold" font-size="9.9479px" y="178.2314" x="391.18515" font-family="FreeSans" xml:space="preserve" fill="#000000"><tspan id="tspan10819" y="178.2314" x="391.18515">Routing table</tspan><tspan id="tspan3498" y="190.66632" x="391.18515">C : 0 [Local]</tspan><tspan id="tspan3500" y="203.10124" x="391.18515">E : 1 [South-West]</tspan><tspan id="tspan3502" y="215.53618" x="391.18515">A : 2 [West]</tspan><tspan id="tspan3504" y="227.9711" x="391.18515">B : 1 [West]</tspan></text>
    <rect id="rect6294" height="88.052" width="94.78" stroke="#000" stroke-miterlimit="0" y="401.52" x="6.2968" stroke-width=".51340" fill="none"/>
    <rect id="rect6301" height="86.808" width="94.78" stroke="#000" stroke-miterlimit="0" y="162.47" x="161.72" stroke-width=".50976" fill="none"/>
    <path id="path2" d="m103.94 294.5 0.36324-0.21794 0.14529 0.14529q0.1453 0.1453 0.72647 2.3247t1.6709 4.1409 1.3803 1.9615h0.29059l0.58118-0.72647q0.58117-0.72646 1.0897-1.3803 0.50853-0.65382 0.94441-1.235t0.65382-0.79912l0.21794-0.21794 0.72647-0.14529q0.72646-0.14529 2.7606 0.21794l2.0341 0.36323-0.21794 0.87177q-0.21794 0.87176-0.9444 1.7435-0.72647 0.87176-1.1624 1.4529-0.43588 0.58118-1.3076 1.5982-0.87176 1.0171-1.3076 1.5982-0.43588 0.58118-0.43588 1.0171v0.43588l0.94441 0.79911q0.94441 0.79912 2.8332 1.6709 1.8888 0.87176 5.3759 1.7435l3.487 0.87176-1.5982 0.87177q-1.5982 0.87176-2.47 1.1623-0.87176 0.29059-2.47 0.1453-1.5982-0.1453-3.7776-0.72647t-3.0512-1.0171q-0.87176-0.43588-1.7435-1.017-0.87176-0.58117-1.3076-0.58117h-0.43588l-1.7435 1.5982q-1.7435 1.5982-2.6153 2.1794-0.87176 0.58117-1.5982 1.1624-0.72647 0.58117-2.0341 1.1624-1.3076 0.58117-1.7435 0.58117h-0.43588l0.21794-0.36323q0.21794-0.36324 0.79911-1.235 0.58118-0.87176 1.1624-1.5982 0.58118-0.72647 1.3076-1.8888 0.72647-1.1623 1.4529-2.0341 0.72647-0.87176 1.3076-1.7435l0.58118-0.87176-0.1453-0.58117q-0.14529-0.58118-0.58117-1.1624-0.43588-0.58118-1.5982-2.7606-1.1624-2.1794-1.7435-3.6323-0.58118-1.4529-0.58118-1.8888v-0.43588l1.8162-1.6709q1.8162-1.6709 2.1794-1.8888z" fill-rule="evenodd" stroke-width="0px" fill="#8f0000"/>
    <text id="text4487" style="word-spacing:0px;letter-spacing:0px" font-weight="bold" xml:space="preserve" font-size="9.9479px" y="359.0845" x="76.265846" font-family="FreeSans" line-height="125%" fill="#000000"><tspan id="tspan4489" x="76.265846" y="359.0845">A=∞;B=0; C=1;E=∞</tspan></text>
    <rect id="rect4491" height="15.939" width="106.29" stroke="#000" stroke-miterlimit="0" y="347.92" x="67.782" stroke-width=".23131" fill="none"/>
    <text id="text3506" style="word-spacing:0px;letter-spacing:0px" line-height="125%" font-weight="bold" font-size="9.9479px" y="279.0177" x="244.67294" font-family="FreeSans" xml:space="preserve" fill="#000000"><tspan id="tspan3508" y="279.0177" x="244.67294">A=∞;B=0; C=1;E=∞</tspan></text>
    <rect id="rect3510" height="15.939" width="106.29" stroke="#000" stroke-miterlimit="0" y="267.85" x="236.19" stroke-width=".23131" fill="none"/>
    <text id="text3512" style="word-spacing:0px;letter-spacing:0px" font-weight="bold" xml:space="preserve" font-size="9.9479px" y="376.82562" x="306.04797" font-family="FreeSans" line-height="125%" fill="#000000"><tspan id="tspan3514" x="306.04797" y="376.82562">A=2;B=0; C=1;E=∞</tspan></text>
    <rect id="rect3516" height="15.939" width="106.29" stroke="#000" stroke-miterlimit="0" y="365.66" x="297.56" stroke-width=".23131" fill="none"/>
    <path id="path3518" marker-end="url(#Arrow1Mend-5)" d="m180.36 335.61v45.043" stroke="#000" stroke-width="1px" fill="none"/>
    <path id="path4688" marker-end="url(#DotL)" d="m240.95 296.46h91.158" stroke="#000" stroke-width="1px" fill="none"/>
    <path id="path5142" marker-end="url(#Arrow1Mend-5)" d="m316.56 346.33-55.231 37.536" stroke="#000" stroke-width="1px" fill="none"/>
    <path id="path6092" d="m526.14 229.86a7.3075 8.1195 0 1 1 -14.615 0 7.3075 8.1195 0 1 1 14.615 0z" fill-opacity=".98667" transform="translate(-186.96 65.062)" fill="#800000"/>
   </g>
  </g>
 </g>
</svg>
