<?xml version="1.0" encoding="UTF-8" standalone="no"?>
<!-- Created with Inkscape (http://www.inkscape.org/) -->
<svg id="svg2" xmlns:rdf="http://www.w3.org/1999/02/22-rdf-syntax-ns#" xmlns="http://www.w3.org/2000/svg" viewBox="0 0 744.09 1052.4" version="1.1" xmlns:cc="http://creativecommons.org/ns#" xmlns:xlink="http://www.w3.org/1999/xlink" xmlns:dc="http://purl.org/dc/elements/1.1/">
 <defs id="defs4">
  <marker id="Arrow1Mend" refY="0.0" refX="0.0" orient="auto" overflow="visible">
   <path id="path4221" d="m0 0l5-5-17.5 5 17.5 5-5-5z" fill-rule="evenodd" transform="scale(.4) rotate(180) translate(10)" stroke="#000" stroke-width="1pt"/>
  </marker>
  <linearGradient id="linearGradient3791-7">
   <stop id="stop3793-0" stop-color="#c6c6c6" offset="0"/>
   <stop id="stop3799-2" stop-color="#fff" offset=".60029"/>
   <stop id="stop3795-9" stop-color="#a4a4a4" offset="1"/>
  </linearGradient>
  <filter id="filter6096" color-interpolation-filters="sRGB">
   <feGaussianBlur id="feGaussianBlur6098" stdDeviation="2" result="result8"/>
   <feOffset id="feOffset6100" result="result11" dx="3" dy="3"/>
   <feComposite id="feComposite6102" operator="in" result="result6" in2="result11" in="SourceGraphic"/>
   <feFlood id="feFlood6104" result="result10" in="result6" flood-color="rgb(0,0,0)"/>
   <feBlend id="feBlend6106" mode="normal" result="result12" in2="result10" in="result6"/>
   <feComposite id="feComposite6108" operator="in" result="result2" in2="SourceGraphic"/>
  </filter>
  <filter id="filter5066" height="1.3542" width="1.1317" y="-.17710" x="-.065847">
   <feGaussianBlur id="feGaussianBlur5068" stdDeviation="6.0009211"/>
  </filter>
  <linearGradient id="linearGradient6520" y2="237.12" xlink:href="#linearGradient3791-7" gradientUnits="userSpaceOnUse" x2="341.44" gradientTransform="translate(617.12 -.21672)" y1="66.831" x1="191.34"/>
 </defs>
 <metadata id="metadata7">
  <rdf:RDF>
   <cc:Work rdf:about="">
    <dc:format>image/svg+xml</dc:format>
    <dc:type rdf:resource="http://purl.org/dc/dcmitype/StillImage"/>
    <dc:title/>
   </cc:Work>
  </rdf:RDF>
 </metadata>
 <g id="layer1">
  <g id="g8348">
   <path id="path4839" marker-end="url(#Arrow1Mend)" d="m387.71 230.27v-41.183" stroke="#000" stroke-width="1px" fill="none"/>
   <path id="path4843" marker-end="url(#Arrow1Mend)" d="m188.01 230.6-30.31-38.85" stroke="#000" stroke-width="1px" fill="none"/>
   <path id="path4841" marker-end="url(#Arrow1Mend)" d="m187.23 337.83-30.3-39.63" stroke="#000" stroke-width="1px" fill="none"/>
   <path id="path4655" marker-end="url(#Arrow1Mend)" d="m566.43 229.05 22.534-39.629" stroke="#000" stroke-width="1px" fill="none"/>
   <path id="path4207" marker-end="url(#Arrow1Mend)" d="m404.02 353.37h80.812" stroke="#000" stroke-miterlimit="3" fill="none"/>
   <path id="path4147" d="m411.3 339.99 127.96-88.53" stroke="#000" stroke-width=".73354px" fill="none"/>
   <path id="path4145" d="m376.56 262.45v65.434" stroke="#000" stroke-width=".73354px" fill="none"/>
   <path id="path4143" d="m224.85 347.68h130.28" stroke="#000" stroke-width=".73354px" fill="none"/>
   <path id="path4141" d="m405.51 244.86h130.28" stroke="#000" stroke-width=".73354px" fill="none"/>
   <path id="path4139" d="m198.22 263v65.434" stroke="#000" stroke-width=".73354px" fill="none"/>
   <path id="path4135" d="m224.27 245.96h130.28" stroke="#000" stroke-width=".73354px" fill="none"/>
   <g id="layer1-9" transform="matrix(.24825 0 0 .23575 102.67 179.27)">
    <g id="g5084" transform="translate(-696.92 42.622)">
     <path id="path5070" d="m51.789 625.96 82.843-81.324h135.88l-83.198 81.324z" transform="matrix(1.3571 0 0 1.3571 895.91 -503.35)" filter="url(#filter5066)" stroke="#000" stroke-width="1px" fill="#4d4d4d"/>
     <g id="g4916" transform="translate(264.76 34.823)">
      <path id="path4918" d="m785.71 118.97-56.595 55.714c-13.78 13.566-14.306 19.132-14.306 37.313v32.272c-2.6592 52.948 4.6283 54.857 49.695 54.857h107.79c19.516 0 24.204-2.2219 37.227-15.041l48.47-47.709c17.801-17.521 18.863-31.451 18.863-52.778v-39.372c0-38.514-11.312-36.789-41.308-36.789h-118.11c-16.409 0-20.823 0.8042-31.72 11.532z" stroke="#000" stroke-width="2.0561" fill="url(#linearGradient6520)"/>
      <path id="path4920" d="m754.82 188.76h95.525c42.501 0 43.89 9.7125 43.89 43.244v29.69c0 42.939-17.176 37.435-49.699 37.435h-81.325c-44.393 0-48.408-5.681-48.408-41.308v-29.045c0-39.879 7.8844-40.017 40.017-40.017z" stroke="#000" stroke-width="2.0561" fill="#ececec"/>
      <path id="path4922" d="m777.99 170.16s6.558 8.0583 23.479 9.0804 49.978-10.538 39.949-34.39c-3.8382 16.999-35.223 28.185-40.054 15.983l11.687-4.6633-38.897-1.5406-7.8491 20.194zm47.931-50.957s-18.258-0.10479-31.258 6.9215-15.007 25.757 32.804 30.172c-26.78-7.9534-25.238-25.814-0.97646-23.424l0.28488 6.8345 28.489-16.451-29.629-10.888zm63.511 35.007s8.9226-8.8418 1.6918-16.207c-7.2308-7.3651-42.103-11.16-73.389 11.37 28.008-11.794 61.438-8.3552 45.277 3.0546l-13.21-0.89124 17.86 16.299 34.981-12.734z" filter="url(#filter6096)" fill="#0097e1"/>
      <text id="text4924" style="word-spacing:0px;letter-spacing:0px" font-weight="500" font-size="5.757px" line-height="125%" y="256.41434" x="785.99768" font-family="Round Up" xml:space="preserve" fill="#000000"><tspan id="tspan4926" font-weight="bold" font-size="41.121px" y="256.41434" x="785.99768" font-family="FreeSans" fill="#000000">A</tspan></text>
      <path id="path4928" d="m714.91 266.19 47.156 0.14073h107.79c19.516 0 24.295-1.8096 37.227-14.721l69.77-69.654" stroke="#000" stroke-dasharray="8.22422762, 4.11211381" stroke-width="2.0561" fill="none"/>
      <path id="path4930" d="m714.91 220.95 47.156 0.14072h107.79c19.516 0 24.295-1.8096 37.227-14.721l69.77-69.654" stroke="#000" stroke-dasharray="8.22422762, 4.11211381" stroke-width="2.0561" fill="none"/>
     </g>
    </g>
   </g>
   <g id="g4031" transform="matrix(.24825 0 0 .23575 278.7 179.27)">
    <g id="g4033" transform="translate(-696.92 42.622)">
     <path id="path4035" d="m51.789 625.96 82.843-81.324h135.88l-83.198 81.324z" transform="matrix(1.3571 0 0 1.3571 895.91 -503.35)" filter="url(#filter5066)" stroke="#000" stroke-width="1px" fill="#4d4d4d"/>
     <g id="g4037" transform="translate(264.76 34.823)">
      <path id="path4039" d="m785.71 118.97-56.595 55.714c-13.78 13.566-14.306 19.132-14.306 37.313v32.272c-2.6592 52.948 4.6283 54.857 49.695 54.857h107.79c19.516 0 24.204-2.2219 37.227-15.041l48.47-47.709c17.801-17.521 18.863-31.451 18.863-52.778v-39.372c0-38.514-11.312-36.789-41.308-36.789h-118.11c-16.409 0-20.823 0.8042-31.72 11.532z" stroke="#000" stroke-width="2.0561" fill="url(#linearGradient6520)"/>
      <path id="path4041" d="m754.82 188.76h95.525c42.501 0 43.89 9.7125 43.89 43.244v29.69c0 42.939-17.176 37.435-49.699 37.435h-81.325c-44.393 0-48.408-5.681-48.408-41.308v-29.045c0-39.879 7.8844-40.017 40.017-40.017z" stroke="#000" stroke-width="2.0561" fill="#ececec"/>
      <path id="path4043" d="m777.99 170.16s6.558 8.0583 23.479 9.0804 49.978-10.538 39.949-34.39c-3.8382 16.999-35.223 28.185-40.054 15.983l11.687-4.6633-38.897-1.5406-7.8491 20.194zm47.931-50.957s-18.258-0.10479-31.258 6.9215-15.007 25.757 32.804 30.172c-26.78-7.9534-25.238-25.814-0.97646-23.424l0.28488 6.8345 28.489-16.451-29.629-10.888zm63.511 35.007s8.9226-8.8418 1.6918-16.207c-7.2308-7.3651-42.103-11.16-73.389 11.37 28.008-11.794 61.438-8.3552 45.277 3.0546l-13.21-0.89124 17.86 16.299 34.981-12.734z" filter="url(#filter6096)" fill="#0097e1"/>
      <text id="text4045" style="word-spacing:0px;letter-spacing:0px" font-weight="500" xml:space="preserve" font-size="5.757px" line-height="125%" y="256.41434" x="785.99768" font-family="Round Up" fill="#000000"><tspan id="tspan4047" font-weight="bold" font-size="41.121px" y="256.41434" x="785.99768" font-family="FreeSans" fill="#000000">B</tspan></text>
      <path id="path4049" d="m714.91 266.19 47.156 0.14073h107.79c19.516 0 24.295-1.8096 37.227-14.721l69.77-69.654" stroke="#000" stroke-dasharray="8.22422762, 4.11211381" stroke-width="2.0561" fill="none"/>
      <path id="path4051" d="m714.91 220.95 47.156 0.14072h107.79c19.516 0 24.295-1.8096 37.227-14.721l69.77-69.654" stroke="#000" stroke-dasharray="8.22422762, 4.11211381" stroke-width="2.0561" fill="none"/>
     </g>
    </g>
   </g>
   <g id="g4057" transform="matrix(.24825 0 0 .23575 454.72 179.27)">
    <g id="g4059" transform="translate(-696.92 42.622)">
     <path id="path4061" d="m51.789 625.96 82.843-81.324h135.88l-83.198 81.324z" transform="matrix(1.3571 0 0 1.3571 895.91 -503.35)" filter="url(#filter5066)" stroke="#000" stroke-width="1px" fill="#4d4d4d"/>
     <g id="g4063" transform="translate(264.76 34.823)">
      <path id="path4065" d="m785.71 118.97-56.595 55.714c-13.78 13.566-14.306 19.132-14.306 37.313v32.272c-2.6592 52.948 4.6283 54.857 49.695 54.857h107.79c19.516 0 24.204-2.2219 37.227-15.041l48.47-47.709c17.801-17.521 18.863-31.451 18.863-52.778v-39.372c0-38.514-11.312-36.789-41.308-36.789h-118.11c-16.409 0-20.823 0.8042-31.72 11.532z" stroke="#000" stroke-width="2.0561" fill="url(#linearGradient6520)"/>
      <path id="path4067" d="m754.82 188.76h95.525c42.501 0 43.89 9.7125 43.89 43.244v29.69c0 42.939-17.176 37.435-49.699 37.435h-81.325c-44.393 0-48.408-5.681-48.408-41.308v-29.045c0-39.879 7.8844-40.017 40.017-40.017z" stroke="#000" stroke-width="2.0561" fill="#ececec"/>
      <path id="path4069" d="m777.99 170.16s6.558 8.0583 23.479 9.0804 49.978-10.538 39.949-34.39c-3.8382 16.999-35.223 28.185-40.054 15.983l11.687-4.6633-38.897-1.5406-7.8491 20.194zm47.931-50.957s-18.258-0.10479-31.258 6.9215-15.007 25.757 32.804 30.172c-26.78-7.9534-25.238-25.814-0.97646-23.424l0.28488 6.8345 28.489-16.451-29.629-10.888zm63.511 35.007s8.9226-8.8418 1.6918-16.207c-7.2308-7.3651-42.103-11.16-73.389 11.37 28.008-11.794 61.438-8.3552 45.277 3.0546l-13.21-0.89124 17.86 16.299 34.981-12.734z" filter="url(#filter6096)" fill="#0097e1"/>
      <text id="text4071" style="word-spacing:0px;letter-spacing:0px" font-weight="500" font-size="5.757px" line-height="125%" y="256.41434" x="785.99768" font-family="Round Up" xml:space="preserve" fill="#000000"><tspan id="tspan4073" font-weight="bold" font-size="41.121px" y="256.41434" x="785.99768" font-family="FreeSans" fill="#000000">C</tspan></text>
      <path id="path4075" d="m714.91 266.19 47.156 0.14073h107.79c19.516 0 24.295-1.8096 37.227-14.721l69.77-69.654" stroke="#000" stroke-dasharray="8.22422762, 4.11211381" stroke-width="2.0561" fill="none"/>
      <path id="path4077" d="m714.91 220.95 47.156 0.14072h107.79c19.516 0 24.295-1.8096 37.227-14.721l69.77-69.654" stroke="#000" stroke-dasharray="8.22422762, 4.11211381" stroke-width="2.0561" fill="none"/>
     </g>
    </g>
   </g>
   <g id="g4083" transform="matrix(.24825 0 0 .23575 102.67 280.44)">
    <g id="g4085" transform="translate(-696.92 42.622)">
     <path id="path4087" d="m51.789 625.96 82.843-81.324h135.88l-83.198 81.324z" transform="matrix(1.3571 0 0 1.3571 895.91 -503.35)" filter="url(#filter5066)" stroke="#000" stroke-width="1px" fill="#4d4d4d"/>
     <g id="g4089" transform="translate(264.76 34.823)">
      <path id="path4091" d="m785.71 118.97-56.595 55.714c-13.78 13.566-14.306 19.132-14.306 37.313v32.272c-2.6592 52.948 4.6283 54.857 49.695 54.857h107.79c19.516 0 24.204-2.2219 37.227-15.041l48.47-47.709c17.801-17.521 18.863-31.451 18.863-52.778v-39.372c0-38.514-11.312-36.789-41.308-36.789h-118.11c-16.409 0-20.823 0.8042-31.72 11.532z" stroke="#000" stroke-width="2.0561" fill="url(#linearGradient6520)"/>
      <path id="path4093" d="m754.82 188.76h95.525c42.501 0 43.89 9.7125 43.89 43.244v29.69c0 42.939-17.176 37.435-49.699 37.435h-81.325c-44.393 0-48.408-5.681-48.408-41.308v-29.045c0-39.879 7.8844-40.017 40.017-40.017z" stroke="#000" stroke-width="2.0561" fill="#ececec"/>
      <path id="path4095" d="m777.99 170.16s6.558 8.0583 23.479 9.0804 49.978-10.538 39.949-34.39c-3.8382 16.999-35.223 28.185-40.054 15.983l11.687-4.6633-38.897-1.5406-7.8491 20.194zm47.931-50.957s-18.258-0.10479-31.258 6.9215-15.007 25.757 32.804 30.172c-26.78-7.9534-25.238-25.814-0.97646-23.424l0.28488 6.8345 28.489-16.451-29.629-10.888zm63.511 35.007s8.9226-8.8418 1.6918-16.207c-7.2308-7.3651-42.103-11.16-73.389 11.37 28.008-11.794 61.438-8.3552 45.277 3.0546l-13.21-0.89124 17.86 16.299 34.981-12.734z" filter="url(#filter6096)" fill="#0097e1"/>
      <text id="text4097" style="word-spacing:0px;letter-spacing:0px" font-weight="500" xml:space="preserve" font-size="5.757px" line-height="125%" y="256.41434" x="785.99768" font-family="Round Up" fill="#000000"><tspan id="tspan4099" font-weight="bold" font-size="41.121px" y="256.41434" x="785.99768" font-family="FreeSans" fill="#000000">D</tspan></text>
      <path id="path4101" d="m714.91 266.19 47.156 0.14073h107.79c19.516 0 24.295-1.8096 37.227-14.721l69.77-69.654" stroke="#000" stroke-dasharray="8.22422762, 4.11211381" stroke-width="2.0561" fill="none"/>
      <path id="path4103" d="m714.91 220.95 47.156 0.14072h107.79c19.516 0 24.295-1.8096 37.227-14.721l69.77-69.654" stroke="#000" stroke-dasharray="8.22422762, 4.11211381" stroke-width="2.0561" fill="none"/>
     </g>
    </g>
   </g>
   <g id="g4107" transform="matrix(.24825 0 0 .23575 278.7 280.44)">
    <g id="g4109" transform="translate(-696.92 42.622)">
     <path id="path4111" d="m51.789 625.96 82.843-81.324h135.88l-83.198 81.324z" transform="matrix(1.3571 0 0 1.3571 895.91 -503.35)" filter="url(#filter5066)" stroke="#000" stroke-width="1px" fill="#4d4d4d"/>
     <g id="g4113" transform="translate(264.76 34.823)">
      <path id="path4115" d="m785.71 118.97-56.595 55.714c-13.78 13.566-14.306 19.132-14.306 37.313v32.272c-2.6592 52.948 4.6283 54.857 49.695 54.857h107.79c19.516 0 24.204-2.2219 37.227-15.041l48.47-47.709c17.801-17.521 18.863-31.451 18.863-52.778v-39.372c0-38.514-11.312-36.789-41.308-36.789h-118.11c-16.409 0-20.823 0.8042-31.72 11.532z" stroke="#000" stroke-width="2.0561" fill="url(#linearGradient6520)"/>
      <path id="path4117" d="m754.82 188.76h95.525c42.501 0 43.89 9.7125 43.89 43.244v29.69c0 42.939-17.176 37.435-49.699 37.435h-81.325c-44.393 0-48.408-5.681-48.408-41.308v-29.045c0-39.879 7.8844-40.017 40.017-40.017z" stroke="#000" stroke-width="2.0561" fill="#ececec"/>
      <path id="path4119" d="m777.99 170.16s6.558 8.0583 23.479 9.0804 49.978-10.538 39.949-34.39c-3.8382 16.999-35.223 28.185-40.054 15.983l11.687-4.6633-38.897-1.5406-7.8491 20.194zm47.931-50.957s-18.258-0.10479-31.258 6.9215-15.007 25.757 32.804 30.172c-26.78-7.9534-25.238-25.814-0.97646-23.424l0.28488 6.8345 28.489-16.451-29.629-10.888zm63.511 35.007s8.9226-8.8418 1.6918-16.207c-7.2308-7.3651-42.103-11.16-73.389 11.37 28.008-11.794 61.438-8.3552 45.277 3.0546l-13.21-0.89124 17.86 16.299 34.981-12.734z" filter="url(#filter6096)" fill="#0097e1"/>
      <text id="text4121" style="word-spacing:0px;letter-spacing:0px" font-weight="500" font-size="5.757px" line-height="125%" y="256.41434" x="785.99768" font-family="Round Up" xml:space="preserve" fill="#000000"><tspan id="tspan4123" font-weight="bold" font-size="41.121px" y="256.41434" x="785.99768" font-family="FreeSans">E</tspan></text>
      <path id="path4125" d="m714.91 266.19 47.156 0.14073h107.79c19.516 0 24.295-1.8096 37.227-14.721l69.77-69.654" stroke="#000" stroke-dasharray="8.22422762, 4.11211381" stroke-width="2.0561" fill="none"/>
      <path id="path4127" d="m714.91 220.95 47.156 0.14072h107.79c19.516 0 24.295-1.8096 37.227-14.721l69.77-69.654" stroke="#000" stroke-dasharray="8.22422762, 4.11211381" stroke-width="2.0561" fill="none"/>
     </g>
    </g>
   </g>
   <rect id="rect3985" height="85.468" width="94.78" stroke="#000" stroke-miterlimit="0" y="132.33" x="62.113" stroke-width=".50581" fill="none"/>
   <text id="text3987" style="word-spacing:0px;letter-spacing:0px" font-size="9.9479px" line-height="125%" y="145.54619" x="69.12001" font-family="FreeSans" xml:space="preserve" fill="#000000"><tspan id="tspan7761" y="145.54619" x="69.12001">Routing table</tspan><tspan id="tspan5412" y="157.98111" x="69.12001">A : 0 [ Local ]</tspan><tspan id="tspan5414" y="170.41603" x="69.12001">D : 1 [South]</tspan><tspan id="tspan5416" y="182.85097" x="69.12001">B : 1 [East]</tspan><tspan id="tspan5418" y="195.28589" x="69.12001">C : 2 [East]</tspan><tspan id="tspan5420" y="207.72081" x="69.12001">E : 2 [East]</tspan></text>
   <text id="text4058" style="word-spacing:0px;letter-spacing:0px" line-height="125%" font-weight="bold" font-size="9.9479px" y="279.55481" x="67.565933" font-family="FreeSans" xml:space="preserve"><tspan id="tspan4533" y="279.55481" x="67.565933" fill="#000000">Routing table</tspan><tspan id="tspan6687" y="291.98975" x="67.565933" fill="#000000">D : 0 [Local]</tspan><tspan id="tspan6689" y="304.42465" x="67.565933" fill="#000000">A : 1 [North]</tspan><tspan id="tspan6691" y="316.85959" x="67.565933" fill="#000000">E : 1 [East]</tspan><tspan id="tspan6693" y="329.29449" x="67.565933" fill="#000000">C : 2 [East]</tspan><tspan id="tspan6695" y="341.72943" x="67.565933" fill="#0000ff">B : 2 [North]</tspan></text>
   <text id="text4099" style="word-spacing:0px;letter-spacing:0px" line-height="125%" font-weight="bold" font-size="9.9479px" y="114.61992" x="354.90103" font-family="FreeSans" xml:space="preserve" fill="#000000"><tspan id="tspan3199" y="114.61992" x="354.90103">Routing table</tspan><tspan id="tspan4546" y="127.05484" x="354.90103">B : 0 [Local]</tspan><tspan id="tspan4548" y="139.48976" x="354.90103">A : 1 [West]</tspan><tspan id="tspan4550" y="151.9247" x="354.90103">C : 1 [East]</tspan><tspan id="tspan4552" y="164.35962" x="354.90103">E : 1 [South]</tspan><tspan id="tspan4554" y="176.79454" x="354.90103">D : 2 [South]</tspan></text>
   <rect id="rect4116" height="81.216" width="94.78" stroke="#000" stroke-miterlimit="0" y="104.39" x="570.35" stroke-width=".49307" fill="none"/>
   <text id="text4118" style="word-spacing:0px;letter-spacing:0px" line-height="125%" font-weight="bold" font-size="9.9479px" y="116.38444" x="577.35907" font-family="FreeSans" xml:space="preserve" fill="#000000"><tspan id="tspan4564" y="116.38444" x="577.35907">Routing table</tspan><tspan id="tspan6014" y="128.81935" x="577.35907">C : 0 [Local]</tspan><tspan id="tspan6016" y="141.25429" x="577.35907">E : 1 [South-West]</tspan><tspan id="tspan6018" y="153.68921" x="577.35907">D : 2 [South-West]</tspan><tspan id="tspan6020" y="166.12413" x="577.35907">A : 2 [West]</tspan><tspan id="tspan6022" y="178.55907" x="577.35907">B : 1 [West]</tspan></text>
   <rect id="rect4134" height="82.103" width="94.78" stroke="#000" stroke-miterlimit="0" y="333.16" x="486.82" stroke-width=".49575" fill="none"/>
   <text id="text4136" style="word-spacing:0px;letter-spacing:0px" line-height="125%" font-weight="bold" font-size="9.9479px" y="347.15735" x="494.60703" font-family="FreeSans" xml:space="preserve" fill="#000000"><tspan id="tspan3506" y="347.15735" x="494.60703">Routing table</tspan><tspan id="tspan5990" y="359.59229" x="494.60703">E : 0 [Local]</tspan><tspan id="tspan5992" y="372.02719" x="494.60703">D : 1 [West]</tspan><tspan id="tspan5994" y="384.46213" x="494.60703">A : 2 [West]</tspan><tspan id="tspan5996" y="396.89703" x="494.60703">C : 1 [North-East]</tspan><tspan id="tspan5998" y="409.33197" x="494.60703">B : 1 [North]</tspan></text>
   <rect id="rect6294" height="88.052" width="94.78" stroke="#000" stroke-miterlimit="0" y="262.45" x="60.559" stroke-width=".51340" fill="none"/>
   <rect id="rect6301" height="86.808" width="94.78" stroke="#000" stroke-miterlimit="0" y="100.63" x="347.89" stroke-width=".50976" fill="none"/>
   <text id="text5136" style="word-spacing:0px;letter-spacing:0px" xml:space="preserve" font-size="48px" line-height="125%" y="292.91492" x="610.57544" font-family="FreeSans" fill="#000000"><tspan id="tspan5138" y="292.91492" x="610.57544"/></text>
   <path id="path6697" d="m67.857 345.05h54.074" stroke="#0000f1" stroke-width="1px" fill="#00f"/>
  </g>
 </g>
</svg>
