<?xml version="1.0" encoding="UTF-8" standalone="no"?>
<!-- Created with Inkscape (http://www.inkscape.org/) -->

<svg
   xmlns:dc="http://purl.org/dc/elements/1.1/"
   xmlns:cc="http://creativecommons.org/ns#"
   xmlns:rdf="http://www.w3.org/1999/02/22-rdf-syntax-ns#"
   xmlns:svg="http://www.w3.org/2000/svg"
   xmlns="http://www.w3.org/2000/svg"
   xmlns:xlink="http://www.w3.org/1999/xlink"
   xmlns:sodipodi="http://sodipodi.sourceforge.net/DTD/sodipodi-0.dtd"
   xmlns:inkscape="http://www.inkscape.org/namespaces/inkscape"
   width="744.09448819"
   height="1052.3622047"
   id="svg5141"
   version="1.1"
   inkscape:version="0.48.2 r9819"
   sodipodi:docname="host.svg">
  <defs
     id="defs5143">
    <radialGradient
       inkscape:collect="always"
       xlink:href="#linearGradient3632"
       id="radialGradient5771"
       gradientUnits="userSpaceOnUse"
       gradientTransform="matrix(1,0,0,0.199052,0,92.109)"
       cx="61.75"
       cy="115"
       fx="61.75"
       fy="115"
       r="52.75" />
    <linearGradient
       id="linearGradient3632">
      <stop
         style="stop-color:#000000;stop-opacity:0.20833331;"
         offset="0.0000000"
         id="stop3634" />
      <stop
         style="stop-color:#000000;stop-opacity:0;"
         offset="1"
         id="stop3636" />
    </linearGradient>
    <radialGradient
       inkscape:collect="always"
       xlink:href="#linearGradient3632"
       id="radialGradient5773"
       gradientUnits="userSpaceOnUse"
       gradientTransform="matrix(1,0,0,0.199052,0,92.109)"
       cx="61.75"
       cy="115"
       fx="61.75"
       fy="115"
       r="52.75" />
    <linearGradient
       id="linearGradient5082">
      <stop
         style="stop-color:#000000;stop-opacity:0.20833331;"
         offset="0.0000000"
         id="stop5084" />
      <stop
         style="stop-color:#000000;stop-opacity:0;"
         offset="1"
         id="stop5086" />
    </linearGradient>
    <linearGradient
       inkscape:collect="always"
       xlink:href="#linearGradient3614"
       id="linearGradient5775"
       gradientUnits="userSpaceOnUse"
       gradientTransform="matrix(1.7658527,0,0,2.5858633,376.87036,253.71411)"
       x1="103.09375"
       y1="128.5"
       x2="112.5"
       y2="104.75" />
    <linearGradient
       inkscape:collect="always"
       id="linearGradient3614">
      <stop
         style="stop-color:none"
         offset="0"
         id="stop3616" />
      <stop
         style="stop-color:#000000;stop-opacity:0;"
         offset="1"
         id="stop3618" />
    </linearGradient>
    <linearGradient
       inkscape:collect="always"
       xlink:href="#linearGradient2859"
       id="linearGradient5777"
       gradientUnits="userSpaceOnUse"
       gradientTransform="matrix(1.7383756,0,0,2.5858633,363.29929,250.54238)"
       x1="98.625023"
       y1="46.334446"
       x2="98.625023"
       y2="22.25" />
    <linearGradient
       inkscape:collect="always"
       id="linearGradient2859">
      <stop
         style="stop-color:#000000;stop-opacity:0.50400001"
         offset="0"
         id="stop2861" />
      <stop
         style="stop-color:#000000;stop-opacity:0;"
         offset="1"
         id="stop2863" />
    </linearGradient>
    <linearGradient
       inkscape:collect="always"
       xlink:href="#linearGradient2843"
       id="linearGradient5779"
       gradientUnits="userSpaceOnUse"
       gradientTransform="matrix(1.7324926,0,0,2.5858633,363.77043,250.71053)"
       x1="103.24915"
       y1="61.550186"
       x2="103.24915"
       y2="36.552097" />
    <linearGradient
       inkscape:collect="always"
       id="linearGradient2843">
      <stop
         style="stop-color:#000000;stop-opacity:0.41600001"
         offset="0"
         id="stop2845" />
      <stop
         style="stop-color:#000000;stop-opacity:0;"
         offset="1"
         id="stop2847" />
    </linearGradient>
    <radialGradient
       inkscape:collect="always"
       xlink:href="#linearGradient5021"
       id="radialGradient5781"
       gradientUnits="userSpaceOnUse"
       gradientTransform="matrix(1,0,0,1.416667,0,-27.39583)"
       cx="109"
       cy="65.75"
       fx="109"
       fy="64.321823"
       r="3" />
    <linearGradient
       id="linearGradient5021"
       inkscape:collect="always">
      <stop
         id="stop5023"
         offset="0"
         style="stop-color:#a8ffbe;stop-opacity:1" />
      <stop
         id="stop5025"
         offset="1"
         style="stop-color:#00bf2d;stop-opacity:1" />
    </linearGradient>
    <linearGradient
       inkscape:collect="always"
       xlink:href="#linearGradient4866"
       id="linearGradient5783"
       gradientUnits="userSpaceOnUse"
       gradientTransform="matrix(1.839492,0,0,2.6152027,374.8689,250.96915)"
       x1="17"
       y1="46.5"
       x2="83.661568"
       y2="96.052254" />
    <linearGradient
       inkscape:collect="always"
       id="linearGradient4866">
      <stop
         style="stop-color:white;stop-opacity:1;"
         offset="0"
         id="stop4868" />
      <stop
         style="stop-color:white;stop-opacity:0.13733906"
         offset="1"
         id="stop4870" />
    </linearGradient>
    <linearGradient
       inkscape:collect="always"
       xlink:href="#linearGradient4876"
       id="linearGradient5785"
       gradientUnits="userSpaceOnUse"
       gradientTransform="matrix(1.7658527,0,0,2.5858633,376.9962,252.57891)"
       x1="70"
       y1="15.494845"
       x2="70"
       y2="117.00493" />
    <linearGradient
       inkscape:collect="always"
       id="linearGradient4876">
      <stop
         style="stop-color:white;stop-opacity:1;"
         offset="0"
         id="stop4878" />
      <stop
         style="stop-color:white;stop-opacity:0.18431373"
         offset="1"
         id="stop4880" />
    </linearGradient>
  </defs>
  <sodipodi:namedview
     id="base"
     pagecolor="#ffffff"
     bordercolor="#666666"
     borderopacity="1.0"
     inkscape:pageopacity="0.0"
     inkscape:pageshadow="2"
     inkscape:zoom="0.35"
     inkscape:cx="375"
     inkscape:cy="520"
     inkscape:document-units="px"
     inkscape:current-layer="g5893"
     showgrid="false"
     inkscape:window-width="489"
     inkscape:window-height="454"
     inkscape:window-x="20"
     inkscape:window-y="20"
     inkscape:window-maximized="0" />
  <metadata
     id="metadata5146">
    <rdf:RDF>
      <cc:Work
         rdf:about="">
        <dc:format>image/svg+xml</dc:format>
        <dc:type
           rdf:resource="http://purl.org/dc/dcmitype/StillImage" />
        <dc:title></dc:title>
      </cc:Work>
    </rdf:RDF>
  </metadata>
  <g
     inkscape:label="Layer 1"
     inkscape:groupmode="layer"
     id="layer1">
    <g
       style="display:inline"
       id="g5893"
       transform="matrix(1.0937507,0,0,1,-436.88993,212.87917)">
      <g
         id="g5745"
         transform="matrix(0.72727272,0,0,0.7242883,121.58435,-199.97936)"
         inkscape:export-filename="/Users/obo/Documents/Cours/cnp3/svg/icons/host.png"
         inkscape:export-xdpi="90"
         inkscape:export-ydpi="90">
        <path
           transform="matrix(1.7647473,0.09148875,-0.06247649,2.5842447,383.47465,250.25085)"
           d="m 114.5,115 c 0,5.79899 -23.616979,10.5 -52.75,10.5 C 32.616979,125.5 9,120.79899 9,115 c 0,-5.79899 23.616979,-10.5 52.75,-10.5 29.133021,0 52.75,4.70101 52.75,10.5 z"
           sodipodi:ry="10.5"
           sodipodi:rx="52.75"
           sodipodi:cy="115"
           sodipodi:cx="61.75"
           id="path3622"
           style="color:#000000;fill:url(#radialGradient5771);fill-opacity:1;fill-rule:evenodd;stroke:none;stroke-width:1;marker:none;visibility:visible;display:inline;overflow:visible"
           sodipodi:type="arc" />
        <path
           transform="matrix(1.3044673,0.06762665,-0.04618136,1.910224,373.38166,314.29004)"
           d="m 114.5,115 c 0,5.79899 -23.616979,10.5 -52.75,10.5 C 32.616979,125.5 9,120.79899 9,115 c 0,-5.79899 23.616979,-10.5 52.75,-10.5 29.133021,0 52.75,4.70101 52.75,10.5 z"
           sodipodi:ry="10.5"
           sodipodi:rx="52.75"
           sodipodi:cy="115"
           sodipodi:cx="61.75"
           id="path3640"
           style="color:#000000;fill:url(#radialGradient5773);fill-opacity:1;fill-rule:evenodd;stroke:none;stroke-width:1;marker:none;visibility:visible;display:inline;overflow:visible"
           sodipodi:type="arc" />
        <path
           id="path2886"
           d="m 561.40197,556.26012 38.40729,-17.45458 -40.61461,-35.55562 2.20732,53.0102 z"
           style="fill:url(#linearGradient5775);fill-opacity:1;fill-rule:evenodd;stroke:none"
           inkscape:connector-curvature="0" />
        <path
           sodipodi:nodetypes="ccccccccccccc"
           id="rect1383"
           d="m 505.60961,286.03974 c -0.19795,0 0.19124,0.28392 0,0.32439 l 0,-0.2433 -109.61285,33.65589 0,207.61225 109.61285,36.25103 0,-0.32441 c 0.23259,0.0603 -0.24291,0.40548 0,0.40548 l 56.92852,-10.38061 c 2.55466,0 4.5837,-3.47232 4.5837,-7.78546 l 0,-241.34923 c 0,-4.31314 -2.02904,-7.78546 -4.5837,-7.78546 l -56.92852,-10.38057 z"
           style="color:#000000;fill:#241c1f;fill-opacity:1;fill-rule:evenodd;stroke:#9e9e9e;stroke-width:5.59676981;stroke-linecap:round;stroke-linejoin:round;stroke-miterlimit:4;stroke-opacity:1;stroke-dasharray:none;stroke-dashoffset:0;marker:none;visibility:visible;display:inline;overflow:visible"
           inkscape:connector-curvature="0" />
        <path
           sodipodi:nodetypes="ccccc"
           id="path2841"
           d="m 504.74203,289.42611 -0.0578,270.90861 60.125,-10.72543 -0.0281,-249.43801 -60.03917,-10.74517 z"
           style="fill:#cccccc;fill-opacity:1;fill-rule:evenodd;stroke:none"
           inkscape:connector-curvature="0" />
        <path
           sodipodi:nodetypes="ccccc"
           id="path2851"
           d="m 510.1921,309.37077 0,34.26269 49.10915,3.23233 -0.30732,-30.99787 -48.80183,-6.49715 z"
           style="fill:url(#linearGradient5777);fill-opacity:1;fill-rule:evenodd;stroke:#797979;stroke-width:2.13687897;stroke-linecap:butt;stroke-linejoin:miter;stroke-miterlimit:4;stroke-opacity:1;stroke-dasharray:none"
           inkscape:connector-curvature="0" />
        <path
           sodipodi:nodetypes="ccccc"
           id="path2853"
           d="m 510.1922,351.67348 48.89258,2.58586 0.21659,30.70712 -49.10915,0 0,-33.29298 z"
           style="fill:url(#linearGradient5779);fill-opacity:1;fill-rule:evenodd;stroke:#797979;stroke-width:2.13687944;stroke-linecap:butt;stroke-linejoin:miter;stroke-miterlimit:4;stroke-opacity:1;stroke-dasharray:none"
           inkscape:connector-curvature="0" />
        <path
           transform="matrix(1.7658527,0,0,2.5858633,357.68013,250.54238)"
           d="m 111.5,65.75 c 0,2.071068 -1.11929,3.75 -2.5,3.75 -1.38071,0 -2.5,-1.678932 -2.5,-3.75 0,-2.071068 1.11929,-3.75 2.5,-3.75 1.38071,0 2.5,1.678932 2.5,3.75 z"
           sodipodi:ry="3.75"
           sodipodi:rx="2.5"
           sodipodi:cy="65.75"
           sodipodi:cx="109"
           id="path2872"
           style="color:#000000;fill:url(#radialGradient5781);fill-opacity:1;fill-rule:evenodd;stroke:#399712;stroke-width:1;stroke-linecap:round;stroke-linejoin:round;stroke-miterlimit:4;stroke-opacity:1;stroke-dasharray:none;stroke-dashoffset:0;marker:none;visibility:visible;display:inline;overflow:visible"
           sodipodi:type="arc" />
        <g
           transform="matrix(4.6249999,0,0,6.7727153,378.20351,257.53663)"
           id="g5005">
          <path
             style="fill:none;stroke:#ffffff;stroke-width:1;stroke-linecap:butt;stroke-linejoin:miter;stroke-miterlimit:4;stroke-opacity:0.57599996;stroke-dasharray:none"
             d="m 29.005156,38.5 9.354247,-0.687573"
             id="path2882"
             inkscape:connector-curvature="0" />
          <path
             style="fill:none;stroke:#000000;stroke-width:1;stroke-linecap:butt;stroke-linejoin:miter;stroke-miterlimit:4;stroke-opacity:0.41999996;stroke-dasharray:none"
             d="M 28.981293,37.5 38.33554,36.812426"
             id="path2884"
             inkscape:connector-curvature="0" />
        </g>
        <path
           sodipodi:nodetypes="ccccccccc"
           id="path4854"
           d="m 504.30728,294.50206 c -0.18584,0 0.17949,0.27233 0,0.31115 l 0,-0.23336 -102.89342,32.28176 0,199.13562 102.89342,34.77097 0,-0.31114 c 0.2183,0.0583 -0.22806,0.38896 0,0.38896 l 0,-266.34393 z"
           style="color:#000000;fill:#cccccc;fill-opacity:1;fill-rule:evenodd;stroke:none;stroke-width:3;marker:none;visibility:visible;display:inline;overflow:visible"
           inkscape:connector-curvature="0" />
        <path
           sodipodi:nodetypes="ccccccccccccc"
           id="path4864"
           d="m 504.30954,292.81245 c -0.18726,0 0.18093,0.27008 0,0.30857 l 0,-0.23142 -103.68779,32.01414 0,197.48476 103.68779,34.48269 0,-0.30856 c 0.22001,0.0576 -0.22981,0.3857 0,0.3857 l 53.85128,-9.87425 c 2.41658,0 4.33594,-3.30293 4.33594,-7.40569 l 0,-229.57605 c 0,-4.10275 -1.91936,-7.40568 -4.33594,-7.40568 l -53.85128,-9.87421 z"
           style="color:#000000;fill:none;stroke:url(#linearGradient5783);stroke-width:5.59676647;stroke-linecap:round;stroke-linejoin:round;stroke-miterlimit:4;stroke-opacity:1;stroke-dasharray:none;stroke-dashoffset:0;marker:none;visibility:visible;display:inline;overflow:visible"
           inkscape:connector-curvature="0" />
        <path
           id="path4874"
           d="m 502.37175,296.53858 0,254.70755"
           style="fill:none;stroke:url(#linearGradient5785);stroke-width:5.59676743;stroke-linecap:round;stroke-linejoin:round;stroke-miterlimit:4;stroke-opacity:1;stroke-dasharray:none"
           inkscape:connector-curvature="0" />
        <path
           style="opacity:0.81171546;fill:#ffffff;fill-opacity:1;stroke:none"
           d="m 414.62888,465.7347 c -2.43688,-0.32279 -4.41464,3.16137 -4.41463,7.75759 0,4.59621 1.97775,8.56613 4.41463,8.8889 2.43688,0.32279 4.41463,-3.08057 4.41463,-7.67678 0,-4.59622 -1.97775,-8.64694 -4.41463,-8.96971 z m 16.22377,1.53535 c -2.6334,-0.34879 -4.74573,3.37019 -4.74573,8.32325 0,4.95306 2.11233,9.26736 4.74573,9.61618 2.6334,0.34879 4.80092,-3.37019 4.80091,-8.32325 0,-4.95307 -2.16751,-9.26737 -4.80091,-9.61618 z m 19.14847,1.45455 c -2.95177,-0.39099 -5.35275,3.8426 -5.35275,9.37376 0,5.53116 2.40098,10.2757 5.35275,10.66668 2.95176,0.39099 5.35273,-3.76178 5.35273,-9.29295 0,-5.53116 -2.40097,-10.35651 -5.35273,-10.74749 z m 19.31401,1.9394 c -3.14829,-0.417 -5.68384,4.05141 -5.68384,9.93941 0,5.88801 2.53555,10.97696 5.68384,11.39396 3.14829,0.417 5.73902,-4.05141 5.73902,-9.93941 0,-5.88801 -2.59073,-10.97696 -5.73902,-11.39396 z m 21.02468,2.34344 c -3.28978,-0.43576 -5.95975,4.1985 -5.95975,10.34345 0,6.14494 2.66997,11.44306 5.95975,11.87881 3.28979,0.43575 5.95976,-4.1985 5.95976,-10.34346 0,-6.14494 -2.66997,-11.44306 -5.95976,-11.8788 z"
           id="path5768"
           inkscape:connector-curvature="0" />
        <path
           id="path4886"
           d="m 413.30449,463.7953 c -2.43688,-0.32279 -4.41463,3.16138 -4.41463,7.75759 0,4.59621 1.97775,8.56613 4.41463,8.8889 2.43688,0.32279 4.41463,-3.08056 4.41463,-7.67678 0,-4.59622 -1.97775,-8.64694 -4.41463,-8.96971 z m 16.22377,1.53535 c -2.6334,-0.34879 -4.74573,3.37019 -4.74573,8.32325 0,4.95307 2.11233,9.26737 4.74573,9.61618 2.6334,0.3488 4.80091,-3.37019 4.80091,-8.32325 0,-4.95306 -2.16751,-9.26736 -4.80091,-9.61618 z m 19.14846,1.45455 c -2.95176,-0.39099 -5.35273,3.84259 -5.35273,9.37376 0,5.53116 2.40097,10.2757 5.35273,10.66668 2.95177,0.39099 5.35274,-3.76179 5.35275,-9.29295 0,-5.53116 -2.40098,-10.35651 -5.35275,-10.74749 z m 19.31402,1.9394 c -3.14829,-0.417 -5.68384,4.05141 -5.68384,9.93941 0,5.88801 2.53555,10.97696 5.68384,11.39396 3.14829,0.417 5.73902,-4.0514 5.73902,-9.93941 0,-5.88801 -2.59073,-10.97696 -5.73902,-11.39396 z m 21.02468,2.34343 c -3.28978,-0.43575 -5.95975,4.19851 -5.95975,10.34346 0,6.14494 2.66997,11.44306 5.95975,11.87881 3.28979,0.43576 5.95975,-4.19851 5.95975,-10.34345 0,-6.14495 -2.66996,-11.44307 -5.95975,-11.87882 z"
           style="opacity:0.81171546;fill:#6b6b6b;fill-opacity:1;stroke:none"
           inkscape:connector-curvature="0" />
        <path
           style="opacity:0.81171546;fill:#ffffff;fill-opacity:1;stroke:none"
           d="m 414.62888,494.9432 c -2.43688,-0.6472 -4.41464,2.57368 -4.41463,7.16989 0,4.59622 1.97775,8.82943 4.41463,9.4766 2.43688,0.6472 4.41463,-2.49287 4.41463,-7.08909 0,-4.59621 -1.97775,-8.91022 -4.41463,-9.5574 z m 16.22377,3.69514 c -2.6334,-0.69938 -4.74573,2.73841 -4.74573,7.69147 0,4.95307 2.11233,9.54857 4.74573,10.24795 2.6334,0.69937 4.80092,-2.73106 4.80091,-7.68412 0,-4.95307 -2.16751,-9.55592 -4.80091,-10.2553 z m 19.14847,4.00367 c -2.95177,-0.78392 -5.35275,3.13002 -5.35275,8.66118 0,5.53116 2.40098,10.59535 5.35275,11.37927 2.95176,0.78393 5.35273,-3.04919 5.35273,-8.58037 0,-5.53116 -2.40097,-10.67614 -5.35273,-11.46008 z m 19.31401,4.51057 c -3.14829,-0.83612 -5.68384,3.29475 -5.68384,9.18275 0,5.88801 2.53555,11.31453 5.68384,12.15064 3.14829,0.83611 5.73902,-3.28741 5.73902,-9.17542 0,-5.88801 -2.59073,-11.32185 -5.73902,-12.15797 z m 21.02468,5.14235 c -3.28978,-0.8737 -5.95975,3.40511 -5.95975,9.55005 0,6.14494 2.66997,11.79852 5.95975,12.67221 3.28979,0.87371 5.95976,-3.40512 5.95976,-9.55006 0,-6.14494 -2.66997,-11.79851 -5.95976,-12.6722 z"
           id="path5770"
           inkscape:connector-curvature="0" />
        <path
           id="path5772"
           d="m 413.30449,492.82749 c -2.43688,-0.6472 -4.41463,2.57369 -4.41463,7.16989 0,4.59622 1.97775,8.82943 4.41463,9.4766 2.43688,0.6472 4.41463,-2.49286 4.41463,-7.08908 0,-4.59622 -1.97775,-8.91022 -4.41463,-9.55741 z m 16.22377,3.69514 c -2.6334,-0.69938 -4.74573,2.73842 -4.74573,7.69147 0,4.95307 2.11233,9.54858 4.74573,10.24795 2.6334,0.69938 4.80091,-2.73107 4.80091,-7.68412 0,-4.95306 -2.16751,-9.55592 -4.80091,-10.2553 z m 19.14846,4.00368 c -2.95176,-0.78393 -5.35273,3.13001 -5.35273,8.66117 0,5.53117 2.40097,10.59533 5.35273,11.37928 2.95177,0.78393 5.35274,-3.04922 5.35275,-8.58037 0,-5.53116 -2.40098,-10.67615 -5.35275,-11.46008 z m 19.31402,4.51057 c -3.14829,-0.83613 -5.68384,3.29475 -5.68384,9.18275 0,5.88801 2.53555,11.3145 5.68384,12.15061 3.14829,0.83614 5.73902,-3.28738 5.73902,-9.17539 0,-5.88801 -2.59073,-11.32185 -5.73902,-12.15797 z m 21.02468,5.14234 c -3.28978,-0.8737 -5.95975,3.40512 -5.95975,9.55006 0,6.14494 2.66997,11.79852 5.95975,12.67221 3.28979,0.87368 5.95975,-3.40512 5.95975,-9.55007 0,-6.14494 -2.66996,-11.7985 -5.95975,-12.6722 z"
           style="opacity:0.81171546;fill:#6b6b6b;fill-opacity:1;stroke:none"
           inkscape:connector-curvature="0" />
        <g
           transform="matrix(4.6249999,0,0,6.7727153,378.20351,275.17213)"
           id="g5009">
          <path
             style="fill:none;stroke:#ffffff;stroke-width:1;stroke-linecap:butt;stroke-linejoin:miter;stroke-miterlimit:4;stroke-opacity:0.57599996;stroke-dasharray:none"
             d="m 29.005156,38.5 9.354247,-0.687573"
             id="path5011"
             inkscape:connector-curvature="0" />
          <path
             style="fill:none;stroke:#000000;stroke-width:1;stroke-linecap:butt;stroke-linejoin:miter;stroke-miterlimit:4;stroke-opacity:0.41999996;stroke-dasharray:none"
             d="M 28.981293,37.5 38.33554,36.812426"
             id="path5013"
             inkscape:connector-curvature="0" />
        </g>
        <g
           style="fill:#b3b3b3"
           transform="matrix(4.6249999,0,0,6.7727153,378.20351,239.90113)"
           id="g5015">
          <path
             style="fill:#b3b3b3;stroke:#ffffff;stroke-width:1;stroke-linecap:butt;stroke-linejoin:miter;stroke-miterlimit:4;stroke-opacity:0.57599996;stroke-dasharray:none"
             d="m 29.005156,38.5 9.354247,-0.687573"
             id="path5017"
             inkscape:connector-curvature="0" />
          <path
             style="fill:#b3b3b3;stroke:#000000;stroke-width:1;stroke-linecap:butt;stroke-linejoin:miter;stroke-miterlimit:4;stroke-opacity:0.41999996;stroke-dasharray:none"
             d="M 28.981293,37.5 38.33554,36.812426"
             id="path5019"
             inkscape:connector-curvature="0" />
        </g>
      </g>
      <text
         sodipodi:linespacing="125%"
         id="text5847"
         y="207.194"
         x="446.88293"
         style="font-size:37.12659836px;font-style:normal;font-weight:normal;line-height:125%;letter-spacing:0px;word-spacing:0px;fill:#4d4d4d;fill-opacity:1;stroke:none;font-family:FreeSans;-inkscape-font-specification:FreeSans"
         xml:space="preserve"
         inkscape:export-filename="/Users/obo/Documents/Cours/cnp3/svg/icons/host.png"
         inkscape:export-xdpi="90"
         inkscape:export-ydpi="90"><tspan
           id="tspan5849"
           style="fill:#4d4d4d;font-family:FreeSans;-inkscape-font-specification:FreeSans"
           y="207.194"
           x="446.88293"
           sodipodi:role="line" /><tspan
           id="tspan5851"
           style="font-size:20px;fill:#4d4d4d;font-family:FreeSans;-inkscape-font-specification:FreeSans"
           y="253.60225"
           x="446.88293"
           sodipodi:role="line" /></text>
    </g>
  </g>
</svg>
