<?xml version="1.0" encoding="UTF-8" standalone="no"?>
<!-- Created with Inkscape (http://www.inkscape.org/) -->

<svg
   xmlns:dc="http://purl.org/dc/elements/1.1/"
   xmlns:cc="http://creativecommons.org/ns#"
   xmlns:rdf="http://www.w3.org/1999/02/22-rdf-syntax-ns#"
   xmlns:svg="http://www.w3.org/2000/svg"
   xmlns="http://www.w3.org/2000/svg"
   xmlns:xlink="http://www.w3.org/1999/xlink"
   xmlns:sodipodi="http://sodipodi.sourceforge.net/DTD/sodipodi-0.dtd"
   xmlns:inkscape="http://www.inkscape.org/namespaces/inkscape"
   width="744.09448819"
   height="1052.3622047"
   id="svg3557"
   version="1.1"
   inkscape:version="0.48.2 r9819"
   sodipodi:docname="router.svg">
  <defs
     id="defs3559">
    <linearGradient
       gradientTransform="translate(617.12268,-0.2167162)"
       y2="237.1226"
       x2="341.43875"
       y1="66.831039"
       x1="191.33949"
       gradientUnits="userSpaceOnUse"
       id="linearGradient3919"
       xlink:href="#linearGradient3791-7"
       inkscape:collect="always" />
    <linearGradient
       id="linearGradient3791-7">
      <stop
         style="stop-color:#c6c6c6;stop-opacity:1"
         offset="0"
         id="stop3793-0" />
      <stop
         id="stop3799-2"
         offset="0.6002928"
         style="stop-color:#ffffff;stop-opacity:1" />
      <stop
         style="stop-color:#a4a4a4;stop-opacity:1"
         offset="1"
         id="stop3795-9" />
    </linearGradient>
  </defs>
  <sodipodi:namedview
     id="base"
     pagecolor="#ffffff"
     bordercolor="#666666"
     borderopacity="1.0"
     inkscape:pageopacity="0.0"
     inkscape:pageshadow="2"
     inkscape:zoom="0.49450749"
     inkscape:cx="289.90971"
     inkscape:cy="682.79615"
     inkscape:document-units="px"
     inkscape:current-layer="g4077"
     showgrid="false"
     inkscape:window-width="814"
     inkscape:window-height="469"
     inkscape:window-x="357"
     inkscape:window-y="119"
     inkscape:window-maximized="0" />
  <metadata
     id="metadata3562">
    <rdf:RDF>
      <cc:Work
         rdf:about="">
        <dc:format>image/svg+xml</dc:format>
        <dc:type
           rdf:resource="http://purl.org/dc/dcmitype/StillImage" />
        <dc:title></dc:title>
      </cc:Work>
    </rdf:RDF>
  </metadata>
  <g
     inkscape:label="Layer 1"
     inkscape:groupmode="layer"
     id="layer1">
    <g
       id="g4077"
       transform="translate(-548.44687,166.11119)">
      <path
         sodipodi:nodetypes="sssccssssssss"
         inkscape:connector-curvature="0"
         id="path3954-1"
         d="m 785.70878,118.97004 -56.59473,55.71442 c -13.78044,13.56606 -14.30633,19.13157 -14.30633,37.31346 l 0,32.27182 c -2.65923,52.9485 4.62826,54.85734 49.69543,54.85734 l 107.78788,0 c 19.51576,0 24.20357,-2.22187 37.22745,-15.04115 l 48.4704,-47.70893 c 17.80069,-17.52104 18.86332,-31.45109 18.86332,-52.77827 l 0,-39.37162 c 0,-38.51353 -11.3124,-36.78877 -41.30841,-36.78877 l -118.11485,0 c -16.40928,0 -20.82318,0.8042 -31.72016,11.5317 z"
         style="fill:url(#linearGradient3919);fill-opacity:1;stroke:#000000;stroke-width:2.05605698;stroke-miterlimit:4;stroke-opacity:1"
         inkscape:export-filename="/Users/obo/Documents/Cours/cnp3/svg/icons/router.png"
         inkscape:export-xdpi="90"
         inkscape:export-ydpi="90" />
      <path
         sodipodi:nodetypes="sssssssss"
         inkscape:connector-curvature="0"
         id="rect3947-6"
         d="m 754.82159,188.76221 95.5246,0 c 42.50123,0 43.88965,9.71253 43.88965,43.24424 l 0,29.69007 c 0,42.93937 -17.17642,37.43531 -49.69858,37.43531 l -81.32499,0 c -44.39315,0 -48.40776,-5.68103 -48.40776,-41.30793 l 0,-29.04463 c 0,-39.8786 7.8844,-40.01706 40.01708,-40.01706 z"
         style="fill:#ececec;stroke:#000000;stroke-width:2.05605698;stroke-miterlimit:4;stroke-opacity:1"
         inkscape:export-filename="/Users/obo/Documents/Cours/cnp3/svg/icons/router.png"
         inkscape:export-xdpi="90"
         inkscape:export-ydpi="90" />
      <path
         id="path3836"
         style="fill:#4d4d4d;fill-opacity:1;stroke:none"
         d="m 789.41644,168.88015 c 0,0 6.55796,8.05831 23.47857,9.08038 16.92062,1.02206 49.97802,-10.53827 39.94873,-34.38994 -3.83818,16.99918 -35.22296,28.18515 -40.05408,15.98289 l 11.68659,-4.66333 -38.89736,-1.54064 -7.84908,20.19398 z m 47.93085,-50.95722 c 0,0 -18.25819,-0.10479 -31.2582,6.92149 -13,7.02627 -15.00749,25.75699 32.80448,30.17195 -26.78019,-7.95342 -25.23752,-25.81417 -0.97646,-23.42436 l 0.28488,6.83454 28.489,-16.45063 -29.62863,-10.88754 z m 63.51148,35.00669 c 0,0 8.92259,-8.84184 1.69178,-16.20691 -7.23082,-7.36507 -42.10315,-11.16034 -73.38916,11.36976 28.00787,-11.79391 61.43801,-8.35519 45.27663,3.05463 l -13.21039,-0.89124 17.86008,16.29884 34.98146,-12.73383 z"
         inkscape:connector-curvature="0"
         inkscape:export-filename="/Users/obo/Documents/Cours/cnp3/svg/icons/router.png"
         inkscape:export-xdpi="90"
         inkscape:export-ydpi="90" />
      <path
         inkscape:connector-curvature="0"
         d="m 789.98542,170.16464 c 0,0 6.55796,8.05831 23.47858,9.08038 16.92061,1.02206 49.97801,-10.53827 39.94872,-34.38994 -3.83818,16.99918 -35.22296,28.18515 -40.05407,15.98289 l 11.68658,-4.66333 -38.89736,-1.54064 -7.84908,20.19398 z m 47.93085,-50.95722 c 0,0 -18.25819,-0.10479 -31.2582,6.92149 -13,7.02627 -15.00749,25.75699 32.80448,30.17195 -26.78019,-7.95342 -25.23752,-25.81417 -0.97646,-23.42436 l 0.28488,6.83454 28.489,-16.45063 -29.62863,-10.88754 z m 63.51148,35.00669 c 0,0 8.92259,-8.84184 1.69178,-16.20691 -7.23082,-7.36507 -42.10315,-11.16034 -73.38916,11.36976 28.00787,-11.79391 61.43801,-8.35519 45.27663,3.05463 l -13.21039,-0.89124 17.86008,16.29884 34.98146,-12.73383 z"
         style="fill:#0097e1;fill-opacity:1;stroke:none"
         id="path3989-3"
         inkscape:export-filename="/Users/obo/Documents/Cours/cnp3/svg/icons/router.png"
         inkscape:export-xdpi="90"
         inkscape:export-ydpi="90" />
      <path
         style="fill:none;stroke:#000000;stroke-width:2.05605698;stroke-miterlimit:4;stroke-opacity:1;stroke-dasharray:8.22422762, 4.11211381;stroke-dashoffset:0"
         d="m 714.91122,266.18773 47.15583,0.14073 107.78789,0 c 19.51577,0 24.29471,-1.80962 37.22746,-14.72084 l 69.7698,-69.65373"
         id="path3972-8"
         inkscape:connector-curvature="0"
         sodipodi:nodetypes="ccssc"
         inkscape:export-filename="/Users/obo/Documents/Cours/cnp3/svg/icons/router.png"
         inkscape:export-xdpi="90"
         inkscape:export-ydpi="90" />
      <path
         sodipodi:nodetypes="ccssc"
         inkscape:connector-curvature="0"
         id="path3976-5"
         d="m 714.91122,220.95448 47.15583,0.14072 107.78789,0 c 19.51577,0 24.29471,-1.80961 37.22746,-14.72082 l 69.7698,-69.65375"
         style="fill:none;stroke:#000000;stroke-width:2.05605698;stroke-miterlimit:4;stroke-opacity:1;stroke-dasharray:8.22422762, 4.11211381;stroke-dashoffset:0"
         inkscape:export-filename="/Users/obo/Documents/Cours/cnp3/svg/icons/router.png"
         inkscape:export-xdpi="90"
         inkscape:export-ydpi="90" />
      <text
         xml:space="preserve"
         style="font-size:47.47602463px;font-style:normal;font-variant:normal;font-weight:normal;font-stretch:normal;line-height:125%;letter-spacing:0px;word-spacing:0px;fill:#000000;fill-opacity:1;stroke:none;font-family:Monospace;-inkscape-font-specification:Monospace"
         x="713.72571"
         y="270.32095"
         id="text3013"
         sodipodi:linespacing="125%"
         transform="scale(1.0423321,0.95938711)"><tspan
           sodipodi:role="line"
           id="tspan3015"
           x="713.72571"
           y="270.32095"> R3  </tspan></text>
    </g>
  </g>
</svg>
