<?xml version="1.0" encoding="UTF-8" standalone="no"?>
<!-- Created with Inkscape (http://www.inkscape.org/) -->

<svg
   xmlns:dc="http://purl.org/dc/elements/1.1/"
   xmlns:cc="http://creativecommons.org/ns#"
   xmlns:rdf="http://www.w3.org/1999/02/22-rdf-syntax-ns#"
   xmlns:svg="http://www.w3.org/2000/svg"
   xmlns="http://www.w3.org/2000/svg"
   xmlns:xlink="http://www.w3.org/1999/xlink"
   xmlns:sodipodi="http://sodipodi.sourceforge.net/DTD/sodipodi-0.dtd"
   xmlns:inkscape="http://www.inkscape.org/namespaces/inkscape"
   width="600"
   height="400"
   id="svg25174"
   version="1.1"
   inkscape:version="0.48.1 r9760"
   sodipodi:docname="network-fig-027-c.svg">
  <defs
     id="defs25176">
    <marker
       inkscape:stockid="TriangleOutM"
       orient="auto"
       refY="0.0"
       refX="0.0"
       id="TriangleOutM"
       style="overflow:visible">
      <path
         id="path23559"
         d="M 5.77,0.0 L -2.88,5.0 L -2.88,-5.0 L 5.77,0.0 z "
         style="fill-rule:evenodd;stroke:#000000;stroke-width:1.0pt;marker-start:none"
         transform="scale(0.4)" />
    </marker>
    <linearGradient
       gradientUnits="userSpaceOnUse"
       y2="173.53093"
       x2="198.65273"
       y1="402.96912"
       x1="198.65273"
       id="linearGradient13210"
       xlink:href="#linearGradient13204"
       inkscape:collect="always" />
    <linearGradient
       gradientUnits="userSpaceOnUse"
       y2="633.70227"
       x2="462.64682"
       y1="385.20477"
       x1="165.01787"
       id="linearGradient12231"
       xlink:href="#linearGradient12219"
       inkscape:collect="always" />
    <linearGradient
       gradientUnits="userSpaceOnUse"
       y2="724.78436"
       x2="409.80936"
       y1="553.05841"
       x1="185.74409"
       id="linearGradient12229"
       xlink:href="#linearGradient12219"
       inkscape:collect="always" />
    <linearGradient
       gradientUnits="userSpaceOnUse"
       y2="795.15997"
       x2="478.61469"
       y1="629.49493"
       x1="262.52026"
       id="linearGradient12227"
       xlink:href="#linearGradient12219"
       inkscape:collect="always" />
    <linearGradient
       gradientUnits="userSpaceOnUse"
       y2="801.39056"
       x2="318.44675"
       y1="601.38037"
       x1="75.857002"
       id="linearGradient12225"
       xlink:href="#linearGradient12219"
       inkscape:collect="always" />
    <linearGradient
       y2="106.85941"
       x2="95.964485"
       y1="133.12337"
       x1="138.3909"
       gradientUnits="userSpaceOnUse"
       id="linearGradient3144"
       xlink:href="#linearGradient3134"
       inkscape:collect="always" />
    <linearGradient
       id="linearGradient3134"
       inkscape:collect="always">
      <stop
         id="stop3136"
         offset="0"
         style="stop-color:#5a5a5a;stop-opacity:1;" />
      <stop
         id="stop3138"
         offset="1"
         style="stop-color:#5a5a5a;stop-opacity:0;" />
    </linearGradient>
    <linearGradient
       id="linearGradient9263"
       inkscape:collect="always">
      <stop
         id="stop9265"
         offset="0"
         style="stop-color:#5a5a5a;stop-opacity:1;" />
      <stop
         id="stop9267"
         offset="1"
         style="stop-color:#5a5a5a;stop-opacity:0;" />
    </linearGradient>
    <linearGradient
       id="linearGradient12219"
       inkscape:collect="always">
      <stop
         id="stop12221"
         offset="0"
         style="stop-color:#fcf900;stop-opacity:1;" />
      <stop
         id="stop12223"
         offset="1"
         style="stop-color:#fcf900;stop-opacity:0;" />
    </linearGradient>
    <linearGradient
       id="linearGradient13204"
       inkscape:collect="always">
      <stop
         id="stop13206"
         offset="0"
         style="stop-color:#ffffff;stop-opacity:1;" />
      <stop
         id="stop13208"
         offset="1"
         style="stop-color:#ffffff;stop-opacity:0;" />
    </linearGradient>
    <filter
       inkscape:collect="always"
       id="filter26272">
      <feGaussianBlur
         inkscape:collect="always"
         stdDeviation="2.1463485"
         id="feGaussianBlur26274" />
    </filter>
    <linearGradient
       inkscape:collect="always"
       xlink:href="#linearGradient9263"
       id="linearGradient26281"
       gradientUnits="userSpaceOnUse"
       gradientTransform="matrix(1.4034966,0,0,-1.3652937,15.28573,1749.3889)"
       x1="138.3909"
       y1="133.12337"
       x2="95.964485"
       y2="106.85941" />
    <linearGradient
       inkscape:collect="always"
       xlink:href="#linearGradient9263"
       id="linearGradient26283"
       gradientUnits="userSpaceOnUse"
       gradientTransform="translate(37.247595,688.61874)"
       x1="-631.69269"
       y1="742.38037"
       x2="441.36029"
       y2="116.08578" />
    <linearGradient
       y2="237.1226"
       x2="341.43875"
       y1="66.831039"
       x1="191.33949"
       gradientTransform="translate(617.12268,-0.2167162)"
       gradientUnits="userSpaceOnUse"
       id="linearGradient5132"
       xlink:href="#linearGradient3791-7"
       inkscape:collect="always" />
    <filter
       height="1.3541939"
       y="-0.17709697"
       width="1.1316941"
       x="-0.06584705"
       id="filter5066"
       inkscape:collect="always">
      <feGaussianBlur
         id="feGaussianBlur5068"
         stdDeviation="6.0009211"
         inkscape:collect="always" />
    </filter>
    <linearGradient
       y2="237.1226"
       x2="341.43875"
       y1="66.831039"
       x1="191.33949"
       gradientTransform="translate(617.12268,-0.2167162)"
       gradientUnits="userSpaceOnUse"
       id="linearGradient4873"
       xlink:href="#linearGradient3791-7"
       inkscape:collect="always" />
    <linearGradient
       y2="422.15863"
       x2="440.62744"
       y1="266.17728"
       x1="285.37332"
       gradientTransform="translate(617.12268,-0.2167162)"
       gradientUnits="userSpaceOnUse"
       id="linearGradient4763"
       xlink:href="#linearGradient3828-8"
       inkscape:collect="always" />
    <linearGradient
       y2="422.15863"
       x2="440.62744"
       y1="266.17728"
       x1="285.37332"
       gradientTransform="translate(1459.4894,-267.50615)"
       gradientUnits="userSpaceOnUse"
       id="linearGradient4761"
       xlink:href="#linearGradient3828"
       inkscape:collect="always" />
    <linearGradient
       y2="422.15863"
       x2="440.62744"
       y1="266.17728"
       x1="285.37332"
       gradientTransform="translate(1459.4894,-267.50615)"
       gradientUnits="userSpaceOnUse"
       id="linearGradient4706"
       xlink:href="#linearGradient3828"
       inkscape:collect="always" />
    <linearGradient
       y2="422.15863"
       x2="440.62744"
       y1="266.17728"
       x1="285.37332"
       gradientTransform="translate(1459.4894,-267.50615)"
       gradientUnits="userSpaceOnUse"
       id="linearGradient4687"
       xlink:href="#linearGradient3828"
       inkscape:collect="always" />
    <linearGradient
       y2="422.15863"
       x2="440.62744"
       y1="266.17728"
       x1="285.37332"
       gradientTransform="translate(617.12268,-0.2167162)"
       gradientUnits="userSpaceOnUse"
       id="linearGradient4669"
       xlink:href="#linearGradient3828-8"
       inkscape:collect="always" />
    <linearGradient
       y2="422.15863"
       x2="440.62744"
       y1="266.17728"
       x1="285.37332"
       gradientTransform="translate(1459.4894,-267.50615)"
       gradientUnits="userSpaceOnUse"
       id="linearGradient4667"
       xlink:href="#linearGradient3828"
       inkscape:collect="always" />
    <linearGradient
       y2="262.00278"
       x2="619.95941"
       y1="108.88345"
       x1="461.98953"
       gradientTransform="translate(478.2512,285.39754)"
       gradientUnits="userSpaceOnUse"
       id="linearGradient4627"
       xlink:href="#linearGradient3812"
       inkscape:collect="always" />
    <linearGradient
       y2="237.1226"
       x2="341.43875"
       y1="66.831039"
       x1="191.33949"
       gradientTransform="translate(684.47177,337.03642)"
       gradientUnits="userSpaceOnUse"
       id="linearGradient4603"
       xlink:href="#linearGradient3791-7"
       inkscape:collect="always" />
    <linearGradient
       y2="237.1226"
       x2="341.43875"
       y1="66.831039"
       x1="191.33949"
       gradientTransform="translate(684.47177,337.03642)"
       gradientUnits="userSpaceOnUse"
       id="linearGradient4575"
       xlink:href="#linearGradient3791-7"
       inkscape:collect="always" />
    <filter
       id="filter6096-2"
       inkscape:label="Inner Shadow"
       inkscape:menu="Shadows and Glows"
       inkscape:menu-tooltip="Adds a colorizable drop shadow inside"
       color-interpolation-filters="sRGB">
      <feGaussianBlur
         id="feGaussianBlur6098-5"
         stdDeviation="2"
         result="result8" />
      <feOffset
         id="feOffset6100-2"
         dx="3"
         dy="3"
         result="result11" />
      <feComposite
         id="feComposite6102-5"
         in2="result11"
         result="result6"
         in="SourceGraphic"
         operator="in" />
      <feFlood
         id="feFlood6104-0"
         result="result10"
         in="result6"
         flood-opacity="1"
         flood-color="rgb(0,0,0)" />
      <feBlend
         id="feBlend6106-2"
         in2="result10"
         mode="normal"
         in="result6"
         result="result12" />
      <feComposite
         id="feComposite6108-3"
         in2="SourceGraphic"
         result="result2"
         operator="in" />
    </filter>
    <linearGradient
       id="linearGradient3828-8">
      <stop
         style="stop-color:#c6c6c6;stop-opacity:1"
         offset="0"
         id="stop3830-4" />
      <stop
         id="stop3832-2"
         offset="0.78992409"
         style="stop-color:#ffffff;stop-opacity:1" />
      <stop
         style="stop-color:#a4a4a4;stop-opacity:1"
         offset="1"
         id="stop3834-8" />
    </linearGradient>
    <linearGradient
       y2="262.00278"
       x2="619.95941"
       y1="108.88345"
       x1="461.98953"
       gradientTransform="translate(478.2512,285.39754)"
       gradientUnits="userSpaceOnUse"
       id="linearGradient4374"
       xlink:href="#linearGradient3812"
       inkscape:collect="always" />
    <linearGradient
       y2="262.00278"
       x2="619.95941"
       y1="108.88345"
       x1="461.98953"
       gradientTransform="translate(617.12268,-0.2167162)"
       gradientUnits="userSpaceOnUse"
       id="linearGradient4361"
       xlink:href="#linearGradient3812"
       inkscape:collect="always" />
    <linearGradient
       y2="262.00278"
       x2="619.95941"
       y1="108.88345"
       x1="461.98953"
       gradientTransform="translate(617.12268,-0.2167162)"
       gradientUnits="userSpaceOnUse"
       id="linearGradient4347"
       xlink:href="#linearGradient3812"
       inkscape:collect="always" />
    <linearGradient
       y2="262.00278"
       x2="619.95941"
       y1="108.88345"
       x1="461.98953"
       gradientTransform="translate(617.12268,-0.2167162)"
       gradientUnits="userSpaceOnUse"
       id="linearGradient4331"
       xlink:href="#linearGradient3812"
       inkscape:collect="always" />
    <linearGradient
       y2="262.00278"
       x2="619.95941"
       y1="108.88345"
       x1="461.98953"
       gradientTransform="translate(617.12268,-0.2167162)"
       gradientUnits="userSpaceOnUse"
       id="linearGradient4285"
       xlink:href="#linearGradient3812"
       inkscape:collect="always" />
    <linearGradient
       y2="237.1226"
       x2="341.43875"
       y1="66.831039"
       x1="191.33949"
       gradientTransform="translate(684.47177,337.03642)"
       gradientUnits="userSpaceOnUse"
       id="linearGradient4167"
       xlink:href="#linearGradient3791-7"
       inkscape:collect="always" />
    <linearGradient
       y2="237.1226"
       x2="341.43875"
       y1="66.831039"
       x1="191.33949"
       gradientTransform="translate(725.41804,275.42844)"
       gradientUnits="userSpaceOnUse"
       id="linearGradient6677"
       xlink:href="#linearGradient3791-7"
       inkscape:collect="always" />
    <linearGradient
       y2="237.1226"
       x2="341.43875"
       y1="66.831039"
       x1="191.33949"
       gradientTransform="translate(725.41804,275.42844)"
       gradientUnits="userSpaceOnUse"
       id="linearGradient6663"
       xlink:href="#linearGradient3791-7"
       inkscape:collect="always" />
    <filter
       id="filter6096"
       inkscape:label="Inner Shadow"
       inkscape:menu="Shadows and Glows"
       inkscape:menu-tooltip="Adds a colorizable drop shadow inside"
       color-interpolation-filters="sRGB">
      <feGaussianBlur
         id="feGaussianBlur6098"
         stdDeviation="2"
         result="result8" />
      <feOffset
         id="feOffset6100"
         dx="3"
         dy="3"
         result="result11" />
      <feComposite
         id="feComposite6102"
         in2="result11"
         result="result6"
         in="SourceGraphic"
         operator="in" />
      <feFlood
         id="feFlood6104"
         result="result10"
         in="result6"
         flood-opacity="1"
         flood-color="rgb(0,0,0)" />
      <feBlend
         id="feBlend6106"
         in2="result10"
         mode="normal"
         in="result6"
         result="result12" />
      <feComposite
         id="feComposite6108"
         in2="SourceGraphic"
         result="result2"
         operator="in" />
    </filter>
    <linearGradient
       y2="262.00278"
       x2="619.95941"
       y1="108.88345"
       x1="461.98953"
       gradientTransform="translate(617.12268,-0.2167162)"
       gradientUnits="userSpaceOnUse"
       id="linearGradient4108"
       xlink:href="#linearGradient3812"
       inkscape:collect="always" />
    <linearGradient
       inkscape:collect="always"
       xlink:href="#linearGradient3791-7"
       id="linearGradient3919"
       gradientUnits="userSpaceOnUse"
       x1="191.33949"
       y1="66.831039"
       x2="341.43875"
       y2="237.1226"
       gradientTransform="translate(617.12268,-0.2167162)" />
    <linearGradient
       id="linearGradient3791-7">
      <stop
         id="stop3793-0"
         offset="0"
         style="stop-color:#c6c6c6;stop-opacity:1" />
      <stop
         style="stop-color:#ffffff;stop-opacity:1"
         offset="0.6002928"
         id="stop3799-2" />
      <stop
         id="stop3795-9"
         offset="1"
         style="stop-color:#a4a4a4;stop-opacity:1" />
    </linearGradient>
    <linearGradient
       gradientUnits="userSpaceOnUse"
       y2="237.1226"
       x2="341.43875"
       y1="66.831039"
       x1="191.33949"
       id="linearGradient3802"
       xlink:href="#linearGradient3791-7"
       inkscape:collect="always" />
    <linearGradient
       id="linearGradient3812">
      <stop
         style="stop-color:#c6c6c6;stop-opacity:1"
         offset="0"
         id="stop3814" />
      <stop
         id="stop3816"
         offset="0.67352772"
         style="stop-color:#ffffff;stop-opacity:1" />
      <stop
         style="stop-color:#a4a4a4;stop-opacity:1"
         offset="1"
         id="stop3818" />
    </linearGradient>
    <linearGradient
       id="linearGradient3828">
      <stop
         style="stop-color:#c6c6c6;stop-opacity:1"
         offset="0"
         id="stop3830" />
      <stop
         id="stop3832"
         offset="0.78992409"
         style="stop-color:#ffffff;stop-opacity:1" />
      <stop
         style="stop-color:#a4a4a4;stop-opacity:1"
         offset="1"
         id="stop3834" />
    </linearGradient>
    <linearGradient
       id="linearGradient3803">
      <stop
         id="stop3805"
         offset="0"
         style="stop-color:#f2f2f2;stop-opacity:1" />
      <stop
         style="stop-color:#f2f2f2;stop-opacity:1"
         offset="0.49337894"
         id="stop3813" />
      <stop
         style="stop-color:#dfdfdf;stop-opacity:1"
         offset="0.77284133"
         id="stop3811" />
      <stop
         id="stop3807"
         offset="1"
         style="stop-color:#cccccc;stop-opacity:1" />
    </linearGradient>
    <linearGradient
       id="linearGradient3791">
      <stop
         id="stop3793"
         offset="0"
         style="stop-color:#f2f2f2;stop-opacity:1" />
      <stop
         style="stop-color:#e6e6e6;stop-opacity:1;"
         offset="0.5"
         id="stop3799" />
      <stop
         id="stop3795"
         offset="1"
         style="stop-color:#cccccc;stop-opacity:1" />
    </linearGradient>
    <linearGradient
       id="linearGradient3779">
      <stop
         id="stop3781"
         offset="0"
         style="stop-color:#e6e6e6;stop-opacity:1;" />
      <stop
         id="stop3783"
         offset="1"
         style="stop-color:#cccccc;stop-opacity:1;" />
    </linearGradient>
    <linearGradient
       id="linearGradient4057">
      <stop
         id="stop4059"
         offset="0"
         style="stop-color:#e6e6e6;stop-opacity:1;" />
      <stop
         style="stop-color:#ffffff;stop-opacity:1;"
         offset="0.5"
         id="stop4073" />
      <stop
         id="stop4061"
         offset="1"
         style="stop-color:#f2f2f2;stop-opacity:1;" />
    </linearGradient>
    <clipPath
       id="clipPath3942"
       clipPathUnits="userSpaceOnUse">
      <path
         style="fill:#e6e6e6;stroke:none"
         d="M 356.01315,306.19369 208.40966,358.0489 C 183.60102,367.23985 178.75,377.63475 178.75,399.46198 l 0,19.36215 c -0.0839,26.33425 8.0136,41.81513 27.40489,53.64615 l 191.1148,116.6031 c 52.19137,34.33753 66.88915,36.15338 106.73126,2.2979 L 630.90785,483.53329 C 656.46714,461.81452 660,447.47873 660,420.90608 l 0,-21.86049 c 0,-40.27542 -13.95078,-37.78908 -43.51485,-45.05992 L 415.73066,304.61313 c -27.67049,-6.80514 -38.71949,-5.79634 -59.71751,1.58056 z"
         id="path3944"
         inkscape:connector-curvature="0"
         sodipodi:nodetypes="sccccccssssss" />
    </clipPath>
    <inkscape:perspective
       id="perspective3765"
       inkscape:persp3d-origin="372.04724 : 350.78739 : 1"
       inkscape:vp_z="-3859.4861 : -125.99279 : 1"
       inkscape:vp_y="0 : 1000 : 0"
       inkscape:vp_x="25.575452 : 296.00207 : 1"
       sodipodi:type="inkscape:persp3d" />
    <linearGradient
       inkscape:collect="always"
       xlink:href="#linearGradient3791-7"
       id="linearGradient26962"
       gradientUnits="userSpaceOnUse"
       gradientTransform="translate(617.12268,-0.2167162)"
       x1="191.33949"
       y1="66.831039"
       x2="341.43875"
       y2="237.1226" />
    <linearGradient
       inkscape:collect="always"
       xlink:href="#linearGradient3791-7"
       id="linearGradient26984"
       gradientUnits="userSpaceOnUse"
       gradientTransform="translate(617.12268,-0.2167162)"
       x1="191.33949"
       y1="66.831039"
       x2="341.43875"
       y2="237.1226" />
    <linearGradient
       inkscape:collect="always"
       xlink:href="#linearGradient3791-7"
       id="linearGradient27006"
       gradientUnits="userSpaceOnUse"
       gradientTransform="translate(617.12268,-0.2167162)"
       x1="191.33949"
       y1="66.831039"
       x2="341.43875"
       y2="237.1226" />
    <linearGradient
       inkscape:collect="always"
       xlink:href="#linearGradient9263"
       id="linearGradient27016"
       gradientUnits="userSpaceOnUse"
       gradientTransform="matrix(1.4034966,0,0,-1.3652937,15.28573,1749.3889)"
       x1="138.3909"
       y1="133.12337"
       x2="95.964485"
       y2="106.85941" />
    <linearGradient
       inkscape:collect="always"
       xlink:href="#linearGradient9263"
       id="linearGradient27018"
       gradientUnits="userSpaceOnUse"
       gradientTransform="translate(37.247595,688.61874)"
       x1="-631.69269"
       y1="742.38037"
       x2="441.36029"
       y2="116.08578" />
    <linearGradient
       inkscape:collect="always"
       xlink:href="#linearGradient9263"
       id="linearGradient27032"
       gradientUnits="userSpaceOnUse"
       gradientTransform="matrix(1.4034966,0,0,-1.3652937,15.28573,1749.3889)"
       x1="138.3909"
       y1="133.12337"
       x2="95.964485"
       y2="106.85941" />
    <linearGradient
       inkscape:collect="always"
       xlink:href="#linearGradient9263"
       id="linearGradient27034"
       gradientUnits="userSpaceOnUse"
       gradientTransform="translate(37.247595,688.61874)"
       x1="-631.69269"
       y1="742.38037"
       x2="441.36029"
       y2="116.08578" />
    <linearGradient
       inkscape:collect="always"
       xlink:href="#linearGradient9263"
       id="linearGradient27050"
       gradientUnits="userSpaceOnUse"
       gradientTransform="matrix(1.4034966,0,0,-1.3652937,15.28573,1749.3889)"
       x1="138.3909"
       y1="133.12337"
       x2="95.964485"
       y2="106.85941" />
    <linearGradient
       inkscape:collect="always"
       xlink:href="#linearGradient9263"
       id="linearGradient27052"
       gradientUnits="userSpaceOnUse"
       gradientTransform="translate(37.247595,688.61874)"
       x1="-631.69269"
       y1="742.38037"
       x2="441.36029"
       y2="116.08578" />
  </defs>
  <sodipodi:namedview
     id="base"
     pagecolor="#ffffff"
     bordercolor="#666666"
     borderopacity="1.0"
     inkscape:pageopacity="0.0"
     inkscape:pageshadow="2"
     inkscape:zoom="1.1476306"
     inkscape:cx="218.69126"
     inkscape:cy="204.52892"
     inkscape:document-units="px"
     inkscape:current-layer="layer1"
     showgrid="false"
     inkscape:window-width="1280"
     inkscape:window-height="675"
     inkscape:window-x="0"
     inkscape:window-y="0"
     inkscape:window-maximized="0" />
  <metadata
     id="metadata25179">
    <rdf:RDF>
      <cc:Work
         rdf:about="">
        <dc:format>image/svg+xml</dc:format>
        <dc:type
           rdf:resource="http://purl.org/dc/dcmitype/StillImage" />
        <dc:title></dc:title>
      </cc:Work>
    </rdf:RDF>
  </metadata>
  <g
     inkscape:label="Layer 1"
     inkscape:groupmode="layer"
     id="layer1"
     transform="translate(0,-652.36218)">
    <g
       id="g26276"
       transform="matrix(0.5793211,0,0,1.0109996,-4.5936531,1.3608645)">
      <path
         transform="matrix(0.97749538,0,0,0.9690637,6.5508484,26.644603)"
         id="path2162"
         d="m 277.81554,738.40657 c -12.12981,0 -22.83238,6.14803 -29.22314,15.5598 -1.30983,-0.15649 -2.63382,-0.25838 -3.9836,-0.26623 l -0.21286,0 c -11.80258,0 -22.2629,5.83472 -28.70618,14.82026 -2.41506,0.44457 -4.80526,0.90153 -7.17655,1.39033 -5.47006,-3.56522 -11.99093,-5.6686 -18.97528,-5.70921 l -0.18245,0 c -7.05191,0 -13.63409,2.1142 -19.15773,5.70921 -3.49091,-1.18966 -7.24638,-1.84105 -11.12973,-1.86363 l -0.18245,0 c -15.82855,0 -29.2691,10.48844 -33.81491,24.99625 -15.32802,1.44864 -27.824681,12.79367 -31.199729,27.65858 -10.47924,6.18049 -17.532168,17.64505 -17.606866,30.7942 -0.04361,7.67823 2.291111,14.8179 6.325092,20.67737 -0.916249,3.15098 -1.409643,6.46229 -1.429227,9.90976 -0.101783,17.9171 12.8377,32.89039 29.80091,35.64555 -0.19361,1.48348 -0.29537,2.99081 -0.30409,4.52595 -0.11244,19.7933 15.67957,35.94593 35.24413,36.05968 9.33693,0.0543 17.83904,-3.5558 24.20564,-9.49562 2.53201,0.88014 5.1104,1.75053 7.72391,2.57358 6.35394,9.32815 16.97163,15.46022 29.01028,15.53022 6.43622,0.0374 12.47653,-1.66624 17.69809,-4.67386 0.68452,0.10833 1.38019,0.19104 2.06782,0.29581 6.33287,6.2122 14.93832,10.06153 24.44891,10.11683 7.32765,0.0426 14.15189,-2.17907 19.82673,-6.00502 1.91879,0.0694 3.84451,0.13506 5.77773,0.17749 6.45337,8.16062 16.36292,13.42441 27.48982,13.4891 12.51173,0.0727 23.52793,-6.45212 29.89214,-16.32891 4.57402,-0.56151 9.08419,-1.17896 13.53205,-1.89321 4.62149,3.36635 10.07726,5.62758 15.99518,6.41916 6.34774,9.37268 16.96791,15.54876 29.04069,15.61896 15.99248,0.093 29.5976,-10.55789 34.08859,-25.26248 1.70927,0.26689 3.44934,0.40378 5.23037,0.41413 0.61139,0.004 1.22054,-0.0317 1.82454,-0.0592 0.604,-0.0274 1.19829,-0.0606 1.79414,-0.11832 12.03166,-1.16676 22.34667,-8.44034 27.82432,-18.72501 2.22907,0.45893 4.54255,0.69623 6.90286,0.70996 19.56457,0.11375 35.52703,-15.85226 35.63946,-35.64555 0.0638,-11.23402 -4.99085,-21.30206 -12.95427,-27.92481 3.8052,-5.67692 6.03995,-12.50936 6.08182,-19.87868 0.0622,-10.9428 -4.73728,-20.76904 -12.3461,-27.39234 0.34537,-1.97452 0.53559,-3.99179 0.54737,-6.06418 0.11244,-19.7933 -15.67958,-35.97551 -35.24414,-36.08926 l -0.21287,0 c -7.07592,0 -13.65286,2.12121 -19.18813,5.73878 -0.84906,-0.4455 -1.68956,-0.8934 -2.55437,-1.33116 -4.94887,-13.64996 -17.87615,-23.42875 -33.08509,-23.51719 l -0.21287,0 c -6.32653,0 -12.25019,1.67365 -17.394,4.6147 -3.33734,-16.19285 -17.47843,-28.41757 -34.48391,-28.51644 l -0.21287,0 c -10.96498,0 -20.77349,5.03614 -27.27695,12.95664 -3.10124,-1.71297 -6.4893,-2.95443 -10.06541,-3.66809 -6.31726,-9.57568 -17.05611,-15.90284 -29.28396,-15.97394 l -0.21286,0 z"
         style="fill:url(#linearGradient26281);fill-opacity:1;stroke:none;filter:url(#filter26272)"
         inkscape:connector-curvature="0" />
      <path
         style="fill:#ffffff;fill-opacity:1;stroke:none"
         d="m 278.06723,742.36348 c -11.89981,0 -22.39945,5.95003 -28.66904,15.0587 -1.285,-0.15146 -2.58388,-0.25007 -3.90806,-0.25766 l -0.20883,0 c -11.57879,0 -21.84077,5.64681 -28.16187,14.34298 -2.36927,0.43026 -4.71415,0.87249 -7.04047,1.34554 -5.36634,-3.45039 -11.76357,-5.48603 -18.61549,-5.52533 l -0.17899,0 c -6.9182,0 -13.37557,2.0461 -18.79447,5.52533 -3.42472,-1.15134 -7.10898,-1.78175 -10.9187,-1.8036 l -0.17899,0 c -15.52842,0 -28.71412,10.15065 -33.17374,24.19124 -15.03738,1.40199 -27.29709,12.38166 -30.608144,26.76784 -10.28054,5.98145 -17.199736,17.0768 -17.273017,29.80248 -0.04279,7.43096 2.247668,14.34068 6.20516,20.01146 -0.898875,3.0495 -1.382914,6.25416 -1.402127,9.59062 -0.09985,17.34007 12.594281,31.83115 29.235848,34.49757 -0.18994,1.43571 -0.28977,2.89449 -0.29832,4.3802 -0.11031,19.15586 15.38227,34.78829 34.57586,34.89837 9.15989,0.0525 17.50078,-3.44128 23.74667,-9.18981 2.48399,0.85181 5.0135,1.69416 7.57746,2.4907 6.23344,9.02775 16.64981,14.96233 28.46019,15.03007 6.31419,0.0362 12.23997,-1.61258 17.36252,-4.52334 0.67155,0.10485 1.35401,0.18488 2.02862,0.2863 6.21278,6.01213 14.65507,9.73748 23.98533,9.79101 7.1887,0.0412 13.88355,-2.10889 19.45078,-5.81163 1.88241,0.0671 3.77162,0.13071 5.66818,0.17177 6.331,7.89781 16.05266,12.99209 26.96858,13.05469 12.27449,0.0704 23.08181,-6.24434 29.32534,-15.80304 4.48729,-0.54343 8.91195,-1.14099 13.27546,-1.83224 4.53387,3.25793 9.8862,5.44634 15.69191,6.21243 6.22736,9.07083 16.64616,15.04801 28.49004,15.11595 15.68923,0.09 29.03639,-10.21787 33.44222,-24.44891 1.67687,0.25831 3.38394,0.39078 5.13119,0.40081 0.59981,0.003 1.19741,-0.0306 1.78995,-0.0573 0.59255,-0.0266 1.17557,-0.0586 1.76012,-0.11452 11.80352,-1.12918 21.92295,-8.16851 27.29673,-18.12196 2.18681,0.44414 4.45643,0.6738 6.77198,0.68709 19.1936,0.11009 34.85339,-15.34173 34.96369,-34.49758 0.0626,-10.87224 -4.89622,-20.61604 -12.70864,-27.0255 3.73305,-5.4941 5.92543,-12.10649 5.9665,-19.23848 0.061,-10.5904 -4.64745,-20.10018 -12.112,-26.51018 0.33882,-1.91093 0.52544,-3.86323 0.53699,-5.86888 0.11031,-19.15586 -15.38228,-34.81692 -34.57587,-34.92701 l -0.20882,0 c -6.94177,0 -13.394,2.05289 -18.82432,5.55396 -0.83295,-0.43115 -1.65752,-0.86463 -2.50592,-1.28829 -4.85503,-13.21036 -17.5372,-22.67423 -32.45776,-22.75981 l -0.20883,0 c -6.20657,0 -12.01791,1.61974 -17.06419,4.46607 -3.27406,-15.67136 -17.14702,-27.50237 -33.83005,-27.59806 l -0.20883,0 c -10.75708,0 -20.37961,4.87395 -26.75975,12.53937 -3.04244,-1.6578 -6.36626,-2.85928 -9.87456,-3.54996 -6.19748,-9.2673 -16.73271,-15.39069 -28.7287,-15.4595 l -0.20882,0 z"
         id="path6344"
         inkscape:connector-curvature="0" />
      <path
         id="path8292"
         d="m 278.06723,742.36348 c -11.89981,0 -22.39945,5.95003 -28.66904,15.0587 -1.285,-0.15146 -2.58388,-0.25007 -3.90806,-0.25766 l -0.20883,0 c -11.57879,0 -21.84077,5.64681 -28.16187,14.34298 -2.36927,0.43026 -4.71415,0.87249 -7.04047,1.34554 -5.36634,-3.45039 -11.76357,-5.48603 -18.61549,-5.52533 l -0.17899,0 c -6.9182,0 -13.37557,2.0461 -18.79447,5.52533 -3.42472,-1.15134 -7.10898,-1.78175 -10.9187,-1.8036 l -0.17899,0 c -15.52842,0 -28.71412,10.15065 -33.17374,24.19124 -15.03738,1.40199 -27.29709,12.38166 -30.608144,26.76784 -10.28054,5.98145 -17.199736,17.0768 -17.273017,29.80248 -0.04279,7.43096 2.247668,14.34068 6.20516,20.01146 -0.898875,3.0495 -1.382914,6.25416 -1.402127,9.59062 -0.09985,17.34007 12.594281,31.83115 29.235848,34.49757 -0.18994,1.43571 -0.28977,2.89449 -0.29832,4.3802 -0.11031,19.15586 15.38227,34.78829 34.57586,34.89837 9.15989,0.0525 17.50078,-3.44128 23.74667,-9.18981 2.48399,0.85181 5.0135,1.69416 7.57746,2.4907 6.23344,9.02775 16.64981,14.96233 28.46019,15.03007 6.31419,0.0362 12.23997,-1.61258 17.36252,-4.52334 0.67155,0.10485 1.35401,0.18488 2.02862,0.2863 6.21278,6.01213 14.65507,9.73748 23.98533,9.79101 7.1887,0.0412 13.88355,-2.10889 19.45078,-5.81163 1.88241,0.0671 3.77162,0.13071 5.66818,0.17177 6.331,7.89781 16.05266,12.99209 26.96858,13.05469 12.27449,0.0704 23.08181,-6.24434 29.32534,-15.80304 4.48729,-0.54343 8.91195,-1.14099 13.27546,-1.83224 4.53387,3.25793 9.8862,5.44634 15.69191,6.21243 6.22736,9.07083 16.64616,15.04801 28.49004,15.11595 15.68923,0.09 29.03639,-10.21787 33.44222,-24.44891 1.67687,0.25831 3.38394,0.39078 5.13119,0.40081 0.59981,0.003 1.19741,-0.0306 1.78995,-0.0573 0.59255,-0.0266 1.17557,-0.0586 1.76012,-0.11452 11.80352,-1.12918 21.92295,-8.16851 27.29673,-18.12196 2.18681,0.44414 4.45643,0.6738 6.77198,0.68709 19.1936,0.11009 34.85339,-15.34173 34.96369,-34.49758 0.0626,-10.87224 -4.89622,-20.61604 -12.70864,-27.0255 3.73305,-5.4941 5.92543,-12.10649 5.9665,-19.23848 0.061,-10.5904 -4.64745,-20.10018 -12.112,-26.51018 0.33882,-1.91093 0.52544,-3.86323 0.53699,-5.86888 0.11031,-19.15586 -15.38228,-34.81692 -34.57587,-34.92701 l -0.20882,0 c -6.94177,0 -13.394,2.05289 -18.82432,5.55396 -0.83295,-0.43115 -1.65752,-0.86463 -2.50592,-1.28829 -4.85503,-13.21036 -17.5372,-22.67423 -32.45776,-22.75981 l -0.20883,0 c -6.20657,0 -12.01791,1.61974 -17.06419,4.46607 -3.27406,-15.67136 -17.14702,-27.50237 -33.83005,-27.59806 l -0.20883,0 c -10.75708,0 -20.37961,4.87395 -26.75975,12.53937 -3.04244,-1.6578 -6.36626,-2.85928 -9.87456,-3.54996 -6.19748,-9.2673 -16.73271,-15.39069 -28.7287,-15.4595 l -0.20882,0 z"
         style="fill:url(#linearGradient26283);fill-opacity:1;stroke:none"
         inkscape:connector-curvature="0" />
    </g>
    <g
       transform="matrix(0.2381333,0,0,0.23219503,-136.29858,754.57606)"
       id="g5084">
      <path
         sodipodi:nodetypes="ccccc"
         inkscape:connector-curvature="0"
         id="path5070"
         d="m 51.788783,625.96168 82.843307,-81.32387 135.87888,0 -83.1976,81.32387 z"
         style="fill:#4d4d4d;stroke:#000000;stroke-width:1px;stroke-linecap:butt;stroke-linejoin:miter;stroke-opacity:1;filter:url(#filter5066)"
         transform="matrix(1.3571031,0,0,1.3571031,895.90835,-503.35079)" />
      <g
         transform="translate(264.75718,34.82325)"
         id="g4916">
        <path
           sodipodi:nodetypes="sssccssssssss"
           inkscape:connector-curvature="0"
           id="path4918"
           d="m 785.70878,118.97004 -56.59473,55.71442 c -13.78044,13.56606 -14.30633,19.13157 -14.30633,37.31346 l 0,32.27182 c -2.65923,52.9485 4.62826,54.85734 49.69543,54.85734 l 107.78788,0 c 19.51576,0 24.20357,-2.22187 37.22745,-15.04115 l 48.4704,-47.70893 c 17.80069,-17.52104 18.86332,-31.45109 18.86332,-52.77827 l 0,-39.37162 c 0,-38.51353 -11.3124,-36.78877 -41.30841,-36.78877 l -118.11485,0 c -16.40928,0 -20.82318,0.8042 -31.72016,11.5317 z"
           style="fill:url(#linearGradient26962);fill-opacity:1;stroke:#000000;stroke-width:2.05605698;stroke-miterlimit:4;stroke-opacity:1" />
        <path
           sodipodi:nodetypes="sssssssss"
           inkscape:connector-curvature="0"
           id="path4920"
           d="m 754.82159,188.76221 95.5246,0 c 42.50123,0 43.88965,9.71253 43.88965,43.24424 l 0,29.69007 c 0,42.93937 -17.17642,37.43531 -49.69858,37.43531 l -81.32499,0 c -44.39315,0 -48.40776,-5.68103 -48.40776,-41.30793 l 0,-29.04463 c 0,-39.8786 7.8844,-40.01706 40.01708,-40.01706 z"
           style="fill:#ececec;stroke:#000000;stroke-width:2.05605698;stroke-miterlimit:4;stroke-opacity:1" />
        <path
           inkscape:connector-curvature="0"
           d="m 777.98542,170.16464 c 0,0 6.55796,8.05831 23.47858,9.08038 16.92061,1.02206 49.97801,-10.53827 39.94872,-34.38994 -3.83818,16.99918 -35.22296,28.18515 -40.05407,15.98289 l 11.68658,-4.66333 -38.89736,-1.54064 -7.84908,20.19398 z m 47.93085,-50.95722 c 0,0 -18.25819,-0.10479 -31.2582,6.92149 -13,7.02627 -15.00749,25.75699 32.80448,30.17195 -26.78019,-7.95342 -25.23752,-25.81417 -0.97646,-23.42436 l 0.28488,6.83454 28.489,-16.45063 -29.62863,-10.88754 z m 63.51148,35.00669 c 0,0 8.92259,-8.84184 1.69178,-16.20691 -7.23082,-7.36507 -42.10315,-11.16034 -73.38916,11.36976 28.00787,-11.79391 61.43801,-8.35519 45.27663,3.05463 l -13.21039,-0.89124 17.86008,16.29884 34.98146,-12.73383 z"
           style="fill:#0097e1;fill-opacity:1;stroke:none;filter:url(#filter6096)"
           id="path4922" />
        <text
           sodipodi:linespacing="125%"
           id="text4924"
           y="257.86023"
           x="802.6955"
           style="font-size:5.75695944px;font-style:normal;font-variant:normal;font-weight:500;font-stretch:normal;text-align:center;line-height:125%;letter-spacing:0px;word-spacing:0px;text-anchor:middle;fill:#000000;fill-opacity:1;stroke:none;font-family:Round Up;-inkscape-font-specification:Round Up Medium"
           xml:space="preserve"><tspan
             style="font-size:41.12113953px;font-style:normal;font-variant:normal;font-weight:bold;font-stretch:normal;text-align:center;text-anchor:middle;font-family:FreeSans;-inkscape-font-specification:FreeSans Bold"
             y="257.86023"
             x="802.6955"
             id="tspan4926"
             sodipodi:role="line">R</tspan></text>
        <path
           style="fill:none;stroke:#000000;stroke-width:2.05605698;stroke-miterlimit:4;stroke-opacity:1;stroke-dasharray:8.22422762, 4.11211381;stroke-dashoffset:0"
           d="m 714.91122,266.18773 47.15583,0.14073 107.78789,0 c 19.51577,0 24.29471,-1.80962 37.22746,-14.72084 l 69.7698,-69.65373"
           id="path4928"
           inkscape:connector-curvature="0"
           sodipodi:nodetypes="ccssc" />
        <path
           sodipodi:nodetypes="ccssc"
           inkscape:connector-curvature="0"
           id="path4930"
           d="m 714.91122,220.95448 47.15583,0.14072 107.78789,0 c 19.51577,0 24.29471,-1.80961 37.22746,-14.72082 l 69.7698,-69.65375"
           style="fill:none;stroke:#000000;stroke-width:2.05605698;stroke-miterlimit:4;stroke-opacity:1;stroke-dasharray:8.22422762, 4.11211381;stroke-dashoffset:0" />
      </g>
    </g>
    <g
       id="g5116"
       transform="matrix(0.18538554,0,0,0.10903672,232.40627,854.61465)" />
    <g
       transform="matrix(0.40101803,0,0,0.43504374,61.250201,534.88462)"
       id="g27008">
      <path
         inkscape:connector-curvature="0"
         style="fill:url(#linearGradient27016);fill-opacity:1;stroke:none;filter:url(#filter26272)"
         d="m 277.81554,738.40657 c -12.12981,0 -22.83238,6.14803 -29.22314,15.5598 -1.30983,-0.15649 -2.63382,-0.25838 -3.9836,-0.26623 l -0.21286,0 c -11.80258,0 -22.2629,5.83472 -28.70618,14.82026 -2.41506,0.44457 -4.80526,0.90153 -7.17655,1.39033 -5.47006,-3.56522 -11.99093,-5.6686 -18.97528,-5.70921 l -0.18245,0 c -7.05191,0 -13.63409,2.1142 -19.15773,5.70921 -3.49091,-1.18966 -7.24638,-1.84105 -11.12973,-1.86363 l -0.18245,0 c -15.82855,0 -29.2691,10.48844 -33.81491,24.99625 -15.32802,1.44864 -27.824681,12.79367 -31.199729,27.65858 -10.47924,6.18049 -17.532168,17.64505 -17.606866,30.7942 -0.04361,7.67823 2.291111,14.8179 6.325092,20.67737 -0.916249,3.15098 -1.409643,6.46229 -1.429227,9.90976 -0.101783,17.9171 12.8377,32.89039 29.80091,35.64555 -0.19361,1.48348 -0.29537,2.99081 -0.30409,4.52595 -0.11244,19.7933 15.67957,35.94593 35.24413,36.05968 9.33693,0.0543 17.83904,-3.5558 24.20564,-9.49562 2.53201,0.88014 5.1104,1.75053 7.72391,2.57358 6.35394,9.32815 16.97163,15.46022 29.01028,15.53022 6.43622,0.0374 12.47653,-1.66624 17.69809,-4.67386 0.68452,0.10833 1.38019,0.19104 2.06782,0.29581 6.33287,6.2122 14.93832,10.06153 24.44891,10.11683 7.32765,0.0426 14.15189,-2.17907 19.82673,-6.00502 1.91879,0.0694 3.84451,0.13506 5.77773,0.17749 6.45337,8.16062 16.36292,13.42441 27.48982,13.4891 12.51173,0.0727 23.52793,-6.45212 29.89214,-16.32891 4.57402,-0.56151 9.08419,-1.17896 13.53205,-1.89321 4.62149,3.36635 10.07726,5.62758 15.99518,6.41916 6.34774,9.37268 16.96791,15.54876 29.04069,15.61896 15.99248,0.093 29.5976,-10.55789 34.08859,-25.26248 1.70927,0.26689 3.44934,0.40378 5.23037,0.41413 0.61139,0.004 1.22054,-0.0317 1.82454,-0.0592 0.604,-0.0274 1.19829,-0.0606 1.79414,-0.11832 12.03166,-1.16676 22.34667,-8.44034 27.82432,-18.72501 2.22907,0.45893 4.54255,0.69623 6.90286,0.70996 19.56457,0.11375 35.52703,-15.85226 35.63946,-35.64555 0.0638,-11.23402 -4.99085,-21.30206 -12.95427,-27.92481 3.8052,-5.67692 6.03995,-12.50936 6.08182,-19.87868 0.0622,-10.9428 -4.73728,-20.76904 -12.3461,-27.39234 0.34537,-1.97452 0.53559,-3.99179 0.54737,-6.06418 0.11244,-19.7933 -15.67958,-35.97551 -35.24414,-36.08926 l -0.21287,0 c -7.07592,0 -13.65286,2.12121 -19.18813,5.73878 -0.84906,-0.4455 -1.68956,-0.8934 -2.55437,-1.33116 -4.94887,-13.64996 -17.87615,-23.42875 -33.08509,-23.51719 l -0.21287,0 c -6.32653,0 -12.25019,1.67365 -17.394,4.6147 -3.33734,-16.19285 -17.47843,-28.41757 -34.48391,-28.51644 l -0.21287,0 c -10.96498,0 -20.77349,5.03614 -27.27695,12.95664 -3.10124,-1.71297 -6.4893,-2.95443 -10.06541,-3.66809 -6.31726,-9.57568 -17.05611,-15.90284 -29.28396,-15.97394 l -0.21286,0 z"
         id="path27010"
         transform="matrix(0.97749538,0,0,0.9690637,6.5508484,26.644603)" />
      <path
         inkscape:connector-curvature="0"
         id="path27012"
         d="m 278.06723,742.36348 c -11.89981,0 -22.39945,5.95003 -28.66904,15.0587 -1.285,-0.15146 -2.58388,-0.25007 -3.90806,-0.25766 l -0.20883,0 c -11.57879,0 -21.84077,5.64681 -28.16187,14.34298 -2.36927,0.43026 -4.71415,0.87249 -7.04047,1.34554 -5.36634,-3.45039 -11.76357,-5.48603 -18.61549,-5.52533 l -0.17899,0 c -6.9182,0 -13.37557,2.0461 -18.79447,5.52533 -3.42472,-1.15134 -7.10898,-1.78175 -10.9187,-1.8036 l -0.17899,0 c -15.52842,0 -28.71412,10.15065 -33.17374,24.19124 -15.03738,1.40199 -27.29709,12.38166 -30.608144,26.76784 -10.28054,5.98145 -17.199736,17.0768 -17.273017,29.80248 -0.04279,7.43096 2.247668,14.34068 6.20516,20.01146 -0.898875,3.0495 -1.382914,6.25416 -1.402127,9.59062 -0.09985,17.34007 12.594281,31.83115 29.235848,34.49757 -0.18994,1.43571 -0.28977,2.89449 -0.29832,4.3802 -0.11031,19.15586 15.38227,34.78829 34.57586,34.89837 9.15989,0.0525 17.50078,-3.44128 23.74667,-9.18981 2.48399,0.85181 5.0135,1.69416 7.57746,2.4907 6.23344,9.02775 16.64981,14.96233 28.46019,15.03007 6.31419,0.0362 12.23997,-1.61258 17.36252,-4.52334 0.67155,0.10485 1.35401,0.18488 2.02862,0.2863 6.21278,6.01213 14.65507,9.73748 23.98533,9.79101 7.1887,0.0412 13.88355,-2.10889 19.45078,-5.81163 1.88241,0.0671 3.77162,0.13071 5.66818,0.17177 6.331,7.89781 16.05266,12.99209 26.96858,13.05469 12.27449,0.0704 23.08181,-6.24434 29.32534,-15.80304 4.48729,-0.54343 8.91195,-1.14099 13.27546,-1.83224 4.53387,3.25793 9.8862,5.44634 15.69191,6.21243 6.22736,9.07083 16.64616,15.04801 28.49004,15.11595 15.68923,0.09 29.03639,-10.21787 33.44222,-24.44891 1.67687,0.25831 3.38394,0.39078 5.13119,0.40081 0.59981,0.003 1.19741,-0.0306 1.78995,-0.0573 0.59255,-0.0266 1.17557,-0.0586 1.76012,-0.11452 11.80352,-1.12918 21.92295,-8.16851 27.29673,-18.12196 2.18681,0.44414 4.45643,0.6738 6.77198,0.68709 19.1936,0.11009 34.85339,-15.34173 34.96369,-34.49758 0.0626,-10.87224 -4.89622,-20.61604 -12.70864,-27.0255 3.73305,-5.4941 5.92543,-12.10649 5.9665,-19.23848 0.061,-10.5904 -4.64745,-20.10018 -12.112,-26.51018 0.33882,-1.91093 0.52544,-3.86323 0.53699,-5.86888 0.11031,-19.15586 -15.38228,-34.81692 -34.57587,-34.92701 l -0.20882,0 c -6.94177,0 -13.394,2.05289 -18.82432,5.55396 -0.83295,-0.43115 -1.65752,-0.86463 -2.50592,-1.28829 -4.85503,-13.21036 -17.5372,-22.67423 -32.45776,-22.75981 l -0.20883,0 c -6.20657,0 -12.01791,1.61974 -17.06419,4.46607 -3.27406,-15.67136 -17.14702,-27.50237 -33.83005,-27.59806 l -0.20883,0 c -10.75708,0 -20.37961,4.87395 -26.75975,12.53937 -3.04244,-1.6578 -6.36626,-2.85928 -9.87456,-3.54996 -6.19748,-9.2673 -16.73271,-15.39069 -28.7287,-15.4595 l -0.20882,0 z"
         style="fill:#ffffff;fill-opacity:1;stroke:none" />
      <path
         inkscape:connector-curvature="0"
         style="fill:url(#linearGradient27018);fill-opacity:1;stroke:none"
         d="m 278.06723,742.36348 c -11.89981,0 -22.39945,5.95003 -28.66904,15.0587 -1.285,-0.15146 -2.58388,-0.25007 -3.90806,-0.25766 l -0.20883,0 c -11.57879,0 -21.84077,5.64681 -28.16187,14.34298 -2.36927,0.43026 -4.71415,0.87249 -7.04047,1.34554 -5.36634,-3.45039 -11.76357,-5.48603 -18.61549,-5.52533 l -0.17899,0 c -6.9182,0 -13.37557,2.0461 -18.79447,5.52533 -3.42472,-1.15134 -7.10898,-1.78175 -10.9187,-1.8036 l -0.17899,0 c -15.52842,0 -28.71412,10.15065 -33.17374,24.19124 -15.03738,1.40199 -27.29709,12.38166 -30.608144,26.76784 -10.28054,5.98145 -17.199736,17.0768 -17.273017,29.80248 -0.04279,7.43096 2.247668,14.34068 6.20516,20.01146 -0.898875,3.0495 -1.382914,6.25416 -1.402127,9.59062 -0.09985,17.34007 12.594281,31.83115 29.235848,34.49757 -0.18994,1.43571 -0.28977,2.89449 -0.29832,4.3802 -0.11031,19.15586 15.38227,34.78829 34.57586,34.89837 9.15989,0.0525 17.50078,-3.44128 23.74667,-9.18981 2.48399,0.85181 5.0135,1.69416 7.57746,2.4907 6.23344,9.02775 16.64981,14.96233 28.46019,15.03007 6.31419,0.0362 12.23997,-1.61258 17.36252,-4.52334 0.67155,0.10485 1.35401,0.18488 2.02862,0.2863 6.21278,6.01213 14.65507,9.73748 23.98533,9.79101 7.1887,0.0412 13.88355,-2.10889 19.45078,-5.81163 1.88241,0.0671 3.77162,0.13071 5.66818,0.17177 6.331,7.89781 16.05266,12.99209 26.96858,13.05469 12.27449,0.0704 23.08181,-6.24434 29.32534,-15.80304 4.48729,-0.54343 8.91195,-1.14099 13.27546,-1.83224 4.53387,3.25793 9.8862,5.44634 15.69191,6.21243 6.22736,9.07083 16.64616,15.04801 28.49004,15.11595 15.68923,0.09 29.03639,-10.21787 33.44222,-24.44891 1.67687,0.25831 3.38394,0.39078 5.13119,0.40081 0.59981,0.003 1.19741,-0.0306 1.78995,-0.0573 0.59255,-0.0266 1.17557,-0.0586 1.76012,-0.11452 11.80352,-1.12918 21.92295,-8.16851 27.29673,-18.12196 2.18681,0.44414 4.45643,0.6738 6.77198,0.68709 19.1936,0.11009 34.85339,-15.34173 34.96369,-34.49758 0.0626,-10.87224 -4.89622,-20.61604 -12.70864,-27.0255 3.73305,-5.4941 5.92543,-12.10649 5.9665,-19.23848 0.061,-10.5904 -4.64745,-20.10018 -12.112,-26.51018 0.33882,-1.91093 0.52544,-3.86323 0.53699,-5.86888 0.11031,-19.15586 -15.38228,-34.81692 -34.57587,-34.92701 l -0.20882,0 c -6.94177,0 -13.394,2.05289 -18.82432,5.55396 -0.83295,-0.43115 -1.65752,-0.86463 -2.50592,-1.28829 -4.85503,-13.21036 -17.5372,-22.67423 -32.45776,-22.75981 l -0.20883,0 c -6.20657,0 -12.01791,1.61974 -17.06419,4.46607 -3.27406,-15.67136 -17.14702,-27.50237 -33.83005,-27.59806 l -0.20883,0 c -10.75708,0 -20.37961,4.87395 -26.75975,12.53937 -3.04244,-1.6578 -6.36626,-2.85928 -9.87456,-3.54996 -6.19748,-9.2673 -16.73271,-15.39069 -28.7287,-15.4595 l -0.20882,0 z"
         id="path27014" />
    </g>
    <text
       xml:space="preserve"
       style="font-size:14px;font-style:normal;font-variant:normal;font-weight:bold;font-stretch:normal;text-align:start;line-height:125%;letter-spacing:0px;word-spacing:0px;writing-mode:lr-tb;text-anchor:start;fill:#000000;fill-opacity:1;stroke:none;font-family:FreeSans;-inkscape-font-specification:FreeSans Bold"
       x="107.17735"
       y="895.51727"
       id="text27020"
       sodipodi:linespacing="125%"><tspan
         sodipodi:role="line"
         id="tspan27022"
         x="107.17735"
         y="895.51727">193.191.244.0/23</tspan></text>
    <g
       transform="matrix(0.32807587,0,0,0.68790241,358.70416,276.05079)"
       id="g27024">
      <path
         inkscape:connector-curvature="0"
         style="fill:url(#linearGradient27032);fill-opacity:1;stroke:none;filter:url(#filter26272)"
         d="m 277.81554,738.40657 c -12.12981,0 -22.83238,6.14803 -29.22314,15.5598 -1.30983,-0.15649 -2.63382,-0.25838 -3.9836,-0.26623 l -0.21286,0 c -11.80258,0 -22.2629,5.83472 -28.70618,14.82026 -2.41506,0.44457 -4.80526,0.90153 -7.17655,1.39033 -5.47006,-3.56522 -11.99093,-5.6686 -18.97528,-5.70921 l -0.18245,0 c -7.05191,0 -13.63409,2.1142 -19.15773,5.70921 -3.49091,-1.18966 -7.24638,-1.84105 -11.12973,-1.86363 l -0.18245,0 c -15.82855,0 -29.2691,10.48844 -33.81491,24.99625 -15.32802,1.44864 -27.824681,12.79367 -31.199729,27.65858 -10.47924,6.18049 -17.532168,17.64505 -17.606866,30.7942 -0.04361,7.67823 2.291111,14.8179 6.325092,20.67737 -0.916249,3.15098 -1.409643,6.46229 -1.429227,9.90976 -0.101783,17.9171 12.8377,32.89039 29.80091,35.64555 -0.19361,1.48348 -0.29537,2.99081 -0.30409,4.52595 -0.11244,19.7933 15.67957,35.94593 35.24413,36.05968 9.33693,0.0543 17.83904,-3.5558 24.20564,-9.49562 2.53201,0.88014 5.1104,1.75053 7.72391,2.57358 6.35394,9.32815 16.97163,15.46022 29.01028,15.53022 6.43622,0.0374 12.47653,-1.66624 17.69809,-4.67386 0.68452,0.10833 1.38019,0.19104 2.06782,0.29581 6.33287,6.2122 14.93832,10.06153 24.44891,10.11683 7.32765,0.0426 14.15189,-2.17907 19.82673,-6.00502 1.91879,0.0694 3.84451,0.13506 5.77773,0.17749 6.45337,8.16062 16.36292,13.42441 27.48982,13.4891 12.51173,0.0727 23.52793,-6.45212 29.89214,-16.32891 4.57402,-0.56151 9.08419,-1.17896 13.53205,-1.89321 4.62149,3.36635 10.07726,5.62758 15.99518,6.41916 6.34774,9.37268 16.96791,15.54876 29.04069,15.61896 15.99248,0.093 29.5976,-10.55789 34.08859,-25.26248 1.70927,0.26689 3.44934,0.40378 5.23037,0.41413 0.61139,0.004 1.22054,-0.0317 1.82454,-0.0592 0.604,-0.0274 1.19829,-0.0606 1.79414,-0.11832 12.03166,-1.16676 22.34667,-8.44034 27.82432,-18.72501 2.22907,0.45893 4.54255,0.69623 6.90286,0.70996 19.56457,0.11375 35.52703,-15.85226 35.63946,-35.64555 0.0638,-11.23402 -4.99085,-21.30206 -12.95427,-27.92481 3.8052,-5.67692 6.03995,-12.50936 6.08182,-19.87868 0.0622,-10.9428 -4.73728,-20.76904 -12.3461,-27.39234 0.34537,-1.97452 0.53559,-3.99179 0.54737,-6.06418 0.11244,-19.7933 -15.67958,-35.97551 -35.24414,-36.08926 l -0.21287,0 c -7.07592,0 -13.65286,2.12121 -19.18813,5.73878 -0.84906,-0.4455 -1.68956,-0.8934 -2.55437,-1.33116 -4.94887,-13.64996 -17.87615,-23.42875 -33.08509,-23.51719 l -0.21287,0 c -6.32653,0 -12.25019,1.67365 -17.394,4.6147 -3.33734,-16.19285 -17.47843,-28.41757 -34.48391,-28.51644 l -0.21287,0 c -10.96498,0 -20.77349,5.03614 -27.27695,12.95664 -3.10124,-1.71297 -6.4893,-2.95443 -10.06541,-3.66809 -6.31726,-9.57568 -17.05611,-15.90284 -29.28396,-15.97394 l -0.21286,0 z"
         id="path27026"
         transform="matrix(0.97749538,0,0,0.9690637,6.5508484,26.644603)" />
      <path
         inkscape:connector-curvature="0"
         id="path27028"
         d="m 278.06723,742.36348 c -11.89981,0 -22.39945,5.95003 -28.66904,15.0587 -1.285,-0.15146 -2.58388,-0.25007 -3.90806,-0.25766 l -0.20883,0 c -11.57879,0 -21.84077,5.64681 -28.16187,14.34298 -2.36927,0.43026 -4.71415,0.87249 -7.04047,1.34554 -5.36634,-3.45039 -11.76357,-5.48603 -18.61549,-5.52533 l -0.17899,0 c -6.9182,0 -13.37557,2.0461 -18.79447,5.52533 -3.42472,-1.15134 -7.10898,-1.78175 -10.9187,-1.8036 l -0.17899,0 c -15.52842,0 -28.71412,10.15065 -33.17374,24.19124 -15.03738,1.40199 -27.29709,12.38166 -30.608144,26.76784 -10.28054,5.98145 -17.199736,17.0768 -17.273017,29.80248 -0.04279,7.43096 2.247668,14.34068 6.20516,20.01146 -0.898875,3.0495 -1.382914,6.25416 -1.402127,9.59062 -0.09985,17.34007 12.594281,31.83115 29.235848,34.49757 -0.18994,1.43571 -0.28977,2.89449 -0.29832,4.3802 -0.11031,19.15586 15.38227,34.78829 34.57586,34.89837 9.15989,0.0525 17.50078,-3.44128 23.74667,-9.18981 2.48399,0.85181 5.0135,1.69416 7.57746,2.4907 6.23344,9.02775 16.64981,14.96233 28.46019,15.03007 6.31419,0.0362 12.23997,-1.61258 17.36252,-4.52334 0.67155,0.10485 1.35401,0.18488 2.02862,0.2863 6.21278,6.01213 14.65507,9.73748 23.98533,9.79101 7.1887,0.0412 13.88355,-2.10889 19.45078,-5.81163 1.88241,0.0671 3.77162,0.13071 5.66818,0.17177 6.331,7.89781 16.05266,12.99209 26.96858,13.05469 12.27449,0.0704 23.08181,-6.24434 29.32534,-15.80304 4.48729,-0.54343 8.91195,-1.14099 13.27546,-1.83224 4.53387,3.25793 9.8862,5.44634 15.69191,6.21243 6.22736,9.07083 16.64616,15.04801 28.49004,15.11595 15.68923,0.09 29.03639,-10.21787 33.44222,-24.44891 1.67687,0.25831 3.38394,0.39078 5.13119,0.40081 0.59981,0.003 1.19741,-0.0306 1.78995,-0.0573 0.59255,-0.0266 1.17557,-0.0586 1.76012,-0.11452 11.80352,-1.12918 21.92295,-8.16851 27.29673,-18.12196 2.18681,0.44414 4.45643,0.6738 6.77198,0.68709 19.1936,0.11009 34.85339,-15.34173 34.96369,-34.49758 0.0626,-10.87224 -4.89622,-20.61604 -12.70864,-27.0255 3.73305,-5.4941 5.92543,-12.10649 5.9665,-19.23848 0.061,-10.5904 -4.64745,-20.10018 -12.112,-26.51018 0.33882,-1.91093 0.52544,-3.86323 0.53699,-5.86888 0.11031,-19.15586 -15.38228,-34.81692 -34.57587,-34.92701 l -0.20882,0 c -6.94177,0 -13.394,2.05289 -18.82432,5.55396 -0.83295,-0.43115 -1.65752,-0.86463 -2.50592,-1.28829 -4.85503,-13.21036 -17.5372,-22.67423 -32.45776,-22.75981 l -0.20883,0 c -6.20657,0 -12.01791,1.61974 -17.06419,4.46607 -3.27406,-15.67136 -17.14702,-27.50237 -33.83005,-27.59806 l -0.20883,0 c -10.75708,0 -20.37961,4.87395 -26.75975,12.53937 -3.04244,-1.6578 -6.36626,-2.85928 -9.87456,-3.54996 -6.19748,-9.2673 -16.73271,-15.39069 -28.7287,-15.4595 l -0.20882,0 z"
         style="fill:#ffffff;fill-opacity:1;stroke:none" />
      <path
         inkscape:connector-curvature="0"
         style="fill:url(#linearGradient27034);fill-opacity:1;stroke:none"
         d="m 278.06723,742.36348 c -11.89981,0 -22.39945,5.95003 -28.66904,15.0587 -1.285,-0.15146 -2.58388,-0.25007 -3.90806,-0.25766 l -0.20883,0 c -11.57879,0 -21.84077,5.64681 -28.16187,14.34298 -2.36927,0.43026 -4.71415,0.87249 -7.04047,1.34554 -5.36634,-3.45039 -11.76357,-5.48603 -18.61549,-5.52533 l -0.17899,0 c -6.9182,0 -13.37557,2.0461 -18.79447,5.52533 -3.42472,-1.15134 -7.10898,-1.78175 -10.9187,-1.8036 l -0.17899,0 c -15.52842,0 -28.71412,10.15065 -33.17374,24.19124 -15.03738,1.40199 -27.29709,12.38166 -30.608144,26.76784 -10.28054,5.98145 -17.199736,17.0768 -17.273017,29.80248 -0.04279,7.43096 2.247668,14.34068 6.20516,20.01146 -0.898875,3.0495 -1.382914,6.25416 -1.402127,9.59062 -0.09985,17.34007 12.594281,31.83115 29.235848,34.49757 -0.18994,1.43571 -0.28977,2.89449 -0.29832,4.3802 -0.11031,19.15586 15.38227,34.78829 34.57586,34.89837 9.15989,0.0525 17.50078,-3.44128 23.74667,-9.18981 2.48399,0.85181 5.0135,1.69416 7.57746,2.4907 6.23344,9.02775 16.64981,14.96233 28.46019,15.03007 6.31419,0.0362 12.23997,-1.61258 17.36252,-4.52334 0.67155,0.10485 1.35401,0.18488 2.02862,0.2863 6.21278,6.01213 14.65507,9.73748 23.98533,9.79101 7.1887,0.0412 13.88355,-2.10889 19.45078,-5.81163 1.88241,0.0671 3.77162,0.13071 5.66818,0.17177 6.331,7.89781 16.05266,12.99209 26.96858,13.05469 12.27449,0.0704 23.08181,-6.24434 29.32534,-15.80304 4.48729,-0.54343 8.91195,-1.14099 13.27546,-1.83224 4.53387,3.25793 9.8862,5.44634 15.69191,6.21243 6.22736,9.07083 16.64616,15.04801 28.49004,15.11595 15.68923,0.09 29.03639,-10.21787 33.44222,-24.44891 1.67687,0.25831 3.38394,0.39078 5.13119,0.40081 0.59981,0.003 1.19741,-0.0306 1.78995,-0.0573 0.59255,-0.0266 1.17557,-0.0586 1.76012,-0.11452 11.80352,-1.12918 21.92295,-8.16851 27.29673,-18.12196 2.18681,0.44414 4.45643,0.6738 6.77198,0.68709 19.1936,0.11009 34.85339,-15.34173 34.96369,-34.49758 0.0626,-10.87224 -4.89622,-20.61604 -12.70864,-27.0255 3.73305,-5.4941 5.92543,-12.10649 5.9665,-19.23848 0.061,-10.5904 -4.64745,-20.10018 -12.112,-26.51018 0.33882,-1.91093 0.52544,-3.86323 0.53699,-5.86888 0.11031,-19.15586 -15.38228,-34.81692 -34.57587,-34.92701 l -0.20882,0 c -6.94177,0 -13.394,2.05289 -18.82432,5.55396 -0.83295,-0.43115 -1.65752,-0.86463 -2.50592,-1.28829 -4.85503,-13.21036 -17.5372,-22.67423 -32.45776,-22.75981 l -0.20883,0 c -6.20657,0 -12.01791,1.61974 -17.06419,4.46607 -3.27406,-15.67136 -17.14702,-27.50237 -33.83005,-27.59806 l -0.20883,0 c -10.75708,0 -20.37961,4.87395 -26.75975,12.53937 -3.04244,-1.6578 -6.36626,-2.85928 -9.87456,-3.54996 -6.19748,-9.2673 -16.73271,-15.39069 -28.7287,-15.4595 l -0.20882,0 z"
         id="path27030" />
    </g>
    <g
       transform="matrix(0.2381333,0,0,0.23219503,181.3866,775.75392)"
       id="g26986">
      <path
         sodipodi:nodetypes="ccccc"
         inkscape:connector-curvature="0"
         id="path26988"
         d="m 51.788783,625.96168 82.843307,-81.32387 135.87888,0 -83.1976,81.32387 z"
         style="fill:#4d4d4d;stroke:#000000;stroke-width:1px;stroke-linecap:butt;stroke-linejoin:miter;stroke-opacity:1;filter:url(#filter5066)"
         transform="matrix(1.3571031,0,0,1.3571031,895.90835,-503.35079)" />
      <g
         transform="translate(264.75718,34.82325)"
         id="g26990">
        <path
           sodipodi:nodetypes="sssccssssssss"
           inkscape:connector-curvature="0"
           id="path26992"
           d="m 785.70878,118.97004 -56.59473,55.71442 c -13.78044,13.56606 -14.30633,19.13157 -14.30633,37.31346 l 0,32.27182 c -2.65923,52.9485 4.62826,54.85734 49.69543,54.85734 l 107.78788,0 c 19.51576,0 24.20357,-2.22187 37.22745,-15.04115 l 48.4704,-47.70893 c 17.80069,-17.52104 18.86332,-31.45109 18.86332,-52.77827 l 0,-39.37162 c 0,-38.51353 -11.3124,-36.78877 -41.30841,-36.78877 l -118.11485,0 c -16.40928,0 -20.82318,0.8042 -31.72016,11.5317 z"
           style="fill:url(#linearGradient27006);fill-opacity:1;stroke:#000000;stroke-width:2.05605698;stroke-miterlimit:4;stroke-opacity:1" />
        <path
           sodipodi:nodetypes="sssssssss"
           inkscape:connector-curvature="0"
           id="path26994"
           d="m 754.82159,188.76221 95.5246,0 c 42.50123,0 43.88965,9.71253 43.88965,43.24424 l 0,29.69007 c 0,42.93937 -17.17642,37.43531 -49.69858,37.43531 l -81.32499,0 c -44.39315,0 -48.40776,-5.68103 -48.40776,-41.30793 l 0,-29.04463 c 0,-39.8786 7.8844,-40.01706 40.01708,-40.01706 z"
           style="fill:#ececec;stroke:#000000;stroke-width:2.05605698;stroke-miterlimit:4;stroke-opacity:1" />
        <path
           inkscape:connector-curvature="0"
           d="m 777.98542,170.16464 c 0,0 6.55796,8.05831 23.47858,9.08038 16.92061,1.02206 49.97801,-10.53827 39.94872,-34.38994 -3.83818,16.99918 -35.22296,28.18515 -40.05407,15.98289 l 11.68658,-4.66333 -38.89736,-1.54064 -7.84908,20.19398 z m 47.93085,-50.95722 c 0,0 -18.25819,-0.10479 -31.2582,6.92149 -13,7.02627 -15.00749,25.75699 32.80448,30.17195 -26.78019,-7.95342 -25.23752,-25.81417 -0.97646,-23.42436 l 0.28488,6.83454 28.489,-16.45063 -29.62863,-10.88754 z m 63.51148,35.00669 c 0,0 8.92259,-8.84184 1.69178,-16.20691 -7.23082,-7.36507 -42.10315,-11.16034 -73.38916,11.36976 28.00787,-11.79391 61.43801,-8.35519 45.27663,3.05463 l -13.21039,-0.89124 17.86008,16.29884 34.98146,-12.73383 z"
           style="fill:#0097e1;fill-opacity:1;stroke:none;filter:url(#filter6096)"
           id="path26996" />
        <text
           sodipodi:linespacing="125%"
           id="text26998"
           y="257.86023"
           x="802.6955"
           style="font-size:5.75695944px;font-style:normal;font-variant:normal;font-weight:500;font-stretch:normal;text-align:center;line-height:125%;letter-spacing:0px;word-spacing:0px;text-anchor:middle;fill:#000000;fill-opacity:1;stroke:none;font-family:Round Up;-inkscape-font-specification:Round Up Medium"
           xml:space="preserve"><tspan
             style="font-size:41.12113953px;font-style:normal;font-variant:normal;font-weight:bold;font-stretch:normal;text-align:center;text-anchor:middle;font-family:FreeSans;-inkscape-font-specification:FreeSans Bold"
             y="257.86023"
             x="802.6955"
             id="tspan27000"
             sodipodi:role="line">R</tspan></text>
        <path
           style="fill:none;stroke:#000000;stroke-width:2.05605698;stroke-miterlimit:4;stroke-opacity:1;stroke-dasharray:8.22422762, 4.11211381;stroke-dashoffset:0"
           d="m 714.91122,266.18773 47.15583,0.14073 107.78789,0 c 19.51577,0 24.29471,-1.80962 37.22746,-14.72084 l 69.7698,-69.65373"
           id="path27002"
           inkscape:connector-curvature="0"
           sodipodi:nodetypes="ccssc" />
        <path
           sodipodi:nodetypes="ccssc"
           inkscape:connector-curvature="0"
           id="path27004"
           d="m 714.91122,220.95448 47.15583,0.14072 107.78789,0 c 19.51577,0 24.29471,-1.80961 37.22746,-14.72082 l 69.7698,-69.65375"
           style="fill:none;stroke:#000000;stroke-width:2.05605698;stroke-miterlimit:4;stroke-opacity:1;stroke-dasharray:8.22422762, 4.11211381;stroke-dashoffset:0" />
      </g>
    </g>
    <text
       sodipodi:linespacing="125%"
       id="text27036"
       y="941.6994"
       x="284.93491"
       style="font-size:14px;font-style:normal;font-variant:normal;font-weight:bold;font-stretch:normal;text-align:start;line-height:125%;letter-spacing:0px;word-spacing:0px;writing-mode:lr-tb;text-anchor:start;fill:#000000;fill-opacity:1;stroke:none;font-family:FreeSans;-inkscape-font-specification:FreeSans Bold"
       xml:space="preserve"><tspan
         y="941.6994"
         x="284.93491"
         id="tspan27038"
         sodipodi:role="line">193.191.244.0/23</tspan></text>
    <g
       id="g26964"
       transform="matrix(0.2381333,0,0,0.23219503,-55.288806,869.48523)">
      <path
         transform="matrix(1.3571031,0,0,1.3571031,895.90835,-503.35079)"
         style="fill:#4d4d4d;stroke:#000000;stroke-width:1px;stroke-linecap:butt;stroke-linejoin:miter;stroke-opacity:1;filter:url(#filter5066)"
         d="m 51.788783,625.96168 82.843307,-81.32387 135.87888,0 -83.1976,81.32387 z"
         id="path26966"
         inkscape:connector-curvature="0"
         sodipodi:nodetypes="ccccc" />
      <g
         id="g26968"
         transform="translate(264.75718,34.82325)">
        <path
           style="fill:url(#linearGradient26984);fill-opacity:1;stroke:#000000;stroke-width:2.05605698;stroke-miterlimit:4;stroke-opacity:1"
           d="m 785.70878,118.97004 -56.59473,55.71442 c -13.78044,13.56606 -14.30633,19.13157 -14.30633,37.31346 l 0,32.27182 c -2.65923,52.9485 4.62826,54.85734 49.69543,54.85734 l 107.78788,0 c 19.51576,0 24.20357,-2.22187 37.22745,-15.04115 l 48.4704,-47.70893 c 17.80069,-17.52104 18.86332,-31.45109 18.86332,-52.77827 l 0,-39.37162 c 0,-38.51353 -11.3124,-36.78877 -41.30841,-36.78877 l -118.11485,0 c -16.40928,0 -20.82318,0.8042 -31.72016,11.5317 z"
           id="path26970"
           inkscape:connector-curvature="0"
           sodipodi:nodetypes="sssccssssssss" />
        <path
           style="fill:#ececec;stroke:#000000;stroke-width:2.05605698;stroke-miterlimit:4;stroke-opacity:1"
           d="m 754.82159,188.76221 95.5246,0 c 42.50123,0 43.88965,9.71253 43.88965,43.24424 l 0,29.69007 c 0,42.93937 -17.17642,37.43531 -49.69858,37.43531 l -81.32499,0 c -44.39315,0 -48.40776,-5.68103 -48.40776,-41.30793 l 0,-29.04463 c 0,-39.8786 7.8844,-40.01706 40.01708,-40.01706 z"
           id="path26972"
           inkscape:connector-curvature="0"
           sodipodi:nodetypes="sssssssss" />
        <path
           id="path26974"
           style="fill:#0097e1;fill-opacity:1;stroke:none;filter:url(#filter6096)"
           d="m 777.98542,170.16464 c 0,0 6.55796,8.05831 23.47858,9.08038 16.92061,1.02206 49.97801,-10.53827 39.94872,-34.38994 -3.83818,16.99918 -35.22296,28.18515 -40.05407,15.98289 l 11.68658,-4.66333 -38.89736,-1.54064 -7.84908,20.19398 z m 47.93085,-50.95722 c 0,0 -18.25819,-0.10479 -31.2582,6.92149 -13,7.02627 -15.00749,25.75699 32.80448,30.17195 -26.78019,-7.95342 -25.23752,-25.81417 -0.97646,-23.42436 l 0.28488,6.83454 28.489,-16.45063 -29.62863,-10.88754 z m 63.51148,35.00669 c 0,0 8.92259,-8.84184 1.69178,-16.20691 -7.23082,-7.36507 -42.10315,-11.16034 -73.38916,11.36976 28.00787,-11.79391 61.43801,-8.35519 45.27663,3.05463 l -13.21039,-0.89124 17.86008,16.29884 34.98146,-12.73383 z"
           inkscape:connector-curvature="0" />
        <text
           xml:space="preserve"
           style="font-size:5.75695944px;font-style:normal;font-variant:normal;font-weight:500;font-stretch:normal;text-align:center;line-height:125%;letter-spacing:0px;word-spacing:0px;text-anchor:middle;fill:#000000;fill-opacity:1;stroke:none;font-family:Round Up;-inkscape-font-specification:Round Up Medium"
           x="802.6955"
           y="257.86023"
           id="text26976"
           sodipodi:linespacing="125%"><tspan
             sodipodi:role="line"
             id="tspan26978"
             x="802.6955"
             y="257.86023"
             style="font-size:41.12113953px;font-style:normal;font-variant:normal;font-weight:bold;font-stretch:normal;text-align:center;text-anchor:middle;font-family:FreeSans;-inkscape-font-specification:FreeSans Bold">R</tspan></text>
        <path
           sodipodi:nodetypes="ccssc"
           inkscape:connector-curvature="0"
           id="path26980"
           d="m 714.91122,266.18773 47.15583,0.14073 107.78789,0 c 19.51577,0 24.29471,-1.80962 37.22746,-14.72084 l 69.7698,-69.65373"
           style="fill:none;stroke:#000000;stroke-width:2.05605698;stroke-miterlimit:4;stroke-opacity:1;stroke-dasharray:8.22422762, 4.11211381;stroke-dashoffset:0" />
        <path
           style="fill:none;stroke:#000000;stroke-width:2.05605698;stroke-miterlimit:4;stroke-opacity:1;stroke-dasharray:8.22422762, 4.11211381;stroke-dashoffset:0"
           d="m 714.91122,220.95448 47.15583,0.14072 107.78789,0 c 19.51577,0 24.29471,-1.80961 37.22746,-14.72082 l 69.7698,-69.65375"
           id="path26982"
           inkscape:connector-curvature="0"
           sodipodi:nodetypes="ccssc" />
      </g>
    </g>
    <path
       style="fill:none;stroke:#000000;stroke-width:1px;stroke-linecap:butt;stroke-linejoin:miter;stroke-opacity:1;marker-end:url(#TriangleOutM)"
       d="m 230.91054,923.40082 211.74062,0"
       id="path27040"
       inkscape:connector-curvature="0" />
    <g
       id="g27042"
       transform="matrix(0.25918605,0,0,0.2664713,261.12357,465.6173)">
      <path
         transform="matrix(0.97749538,0,0,0.9690637,6.5508484,26.644603)"
         id="path27044"
         d="m 277.81554,738.40657 c -12.12981,0 -22.83238,6.14803 -29.22314,15.5598 -1.30983,-0.15649 -2.63382,-0.25838 -3.9836,-0.26623 l -0.21286,0 c -11.80258,0 -22.2629,5.83472 -28.70618,14.82026 -2.41506,0.44457 -4.80526,0.90153 -7.17655,1.39033 -5.47006,-3.56522 -11.99093,-5.6686 -18.97528,-5.70921 l -0.18245,0 c -7.05191,0 -13.63409,2.1142 -19.15773,5.70921 -3.49091,-1.18966 -7.24638,-1.84105 -11.12973,-1.86363 l -0.18245,0 c -15.82855,0 -29.2691,10.48844 -33.81491,24.99625 -15.32802,1.44864 -27.824681,12.79367 -31.199729,27.65858 -10.47924,6.18049 -17.532168,17.64505 -17.606866,30.7942 -0.04361,7.67823 2.291111,14.8179 6.325092,20.67737 -0.916249,3.15098 -1.409643,6.46229 -1.429227,9.90976 -0.101783,17.9171 12.8377,32.89039 29.80091,35.64555 -0.19361,1.48348 -0.29537,2.99081 -0.30409,4.52595 -0.11244,19.7933 15.67957,35.94593 35.24413,36.05968 9.33693,0.0543 17.83904,-3.5558 24.20564,-9.49562 2.53201,0.88014 5.1104,1.75053 7.72391,2.57358 6.35394,9.32815 16.97163,15.46022 29.01028,15.53022 6.43622,0.0374 12.47653,-1.66624 17.69809,-4.67386 0.68452,0.10833 1.38019,0.19104 2.06782,0.29581 6.33287,6.2122 14.93832,10.06153 24.44891,10.11683 7.32765,0.0426 14.15189,-2.17907 19.82673,-6.00502 1.91879,0.0694 3.84451,0.13506 5.77773,0.17749 6.45337,8.16062 16.36292,13.42441 27.48982,13.4891 12.51173,0.0727 23.52793,-6.45212 29.89214,-16.32891 4.57402,-0.56151 9.08419,-1.17896 13.53205,-1.89321 4.62149,3.36635 10.07726,5.62758 15.99518,6.41916 6.34774,9.37268 16.96791,15.54876 29.04069,15.61896 15.99248,0.093 29.5976,-10.55789 34.08859,-25.26248 1.70927,0.26689 3.44934,0.40378 5.23037,0.41413 0.61139,0.004 1.22054,-0.0317 1.82454,-0.0592 0.604,-0.0274 1.19829,-0.0606 1.79414,-0.11832 12.03166,-1.16676 22.34667,-8.44034 27.82432,-18.72501 2.22907,0.45893 4.54255,0.69623 6.90286,0.70996 19.56457,0.11375 35.52703,-15.85226 35.63946,-35.64555 0.0638,-11.23402 -4.99085,-21.30206 -12.95427,-27.92481 3.8052,-5.67692 6.03995,-12.50936 6.08182,-19.87868 0.0622,-10.9428 -4.73728,-20.76904 -12.3461,-27.39234 0.34537,-1.97452 0.53559,-3.99179 0.54737,-6.06418 0.11244,-19.7933 -15.67958,-35.97551 -35.24414,-36.08926 l -0.21287,0 c -7.07592,0 -13.65286,2.12121 -19.18813,5.73878 -0.84906,-0.4455 -1.68956,-0.8934 -2.55437,-1.33116 -4.94887,-13.64996 -17.87615,-23.42875 -33.08509,-23.51719 l -0.21287,0 c -6.32653,0 -12.25019,1.67365 -17.394,4.6147 -3.33734,-16.19285 -17.47843,-28.41757 -34.48391,-28.51644 l -0.21287,0 c -10.96498,0 -20.77349,5.03614 -27.27695,12.95664 -3.10124,-1.71297 -6.4893,-2.95443 -10.06541,-3.66809 -6.31726,-9.57568 -17.05611,-15.90284 -29.28396,-15.97394 l -0.21286,0 z"
         style="fill:url(#linearGradient27050);fill-opacity:1;stroke:none;filter:url(#filter26272)"
         inkscape:connector-curvature="0" />
      <path
         style="fill:#ffffff;fill-opacity:1;stroke:none"
         d="m 278.06723,742.36348 c -11.89981,0 -22.39945,5.95003 -28.66904,15.0587 -1.285,-0.15146 -2.58388,-0.25007 -3.90806,-0.25766 l -0.20883,0 c -11.57879,0 -21.84077,5.64681 -28.16187,14.34298 -2.36927,0.43026 -4.71415,0.87249 -7.04047,1.34554 -5.36634,-3.45039 -11.76357,-5.48603 -18.61549,-5.52533 l -0.17899,0 c -6.9182,0 -13.37557,2.0461 -18.79447,5.52533 -3.42472,-1.15134 -7.10898,-1.78175 -10.9187,-1.8036 l -0.17899,0 c -15.52842,0 -28.71412,10.15065 -33.17374,24.19124 -15.03738,1.40199 -27.29709,12.38166 -30.608144,26.76784 -10.28054,5.98145 -17.199736,17.0768 -17.273017,29.80248 -0.04279,7.43096 2.247668,14.34068 6.20516,20.01146 -0.898875,3.0495 -1.382914,6.25416 -1.402127,9.59062 -0.09985,17.34007 12.594281,31.83115 29.235848,34.49757 -0.18994,1.43571 -0.28977,2.89449 -0.29832,4.3802 -0.11031,19.15586 15.38227,34.78829 34.57586,34.89837 9.15989,0.0525 17.50078,-3.44128 23.74667,-9.18981 2.48399,0.85181 5.0135,1.69416 7.57746,2.4907 6.23344,9.02775 16.64981,14.96233 28.46019,15.03007 6.31419,0.0362 12.23997,-1.61258 17.36252,-4.52334 0.67155,0.10485 1.35401,0.18488 2.02862,0.2863 6.21278,6.01213 14.65507,9.73748 23.98533,9.79101 7.1887,0.0412 13.88355,-2.10889 19.45078,-5.81163 1.88241,0.0671 3.77162,0.13071 5.66818,0.17177 6.331,7.89781 16.05266,12.99209 26.96858,13.05469 12.27449,0.0704 23.08181,-6.24434 29.32534,-15.80304 4.48729,-0.54343 8.91195,-1.14099 13.27546,-1.83224 4.53387,3.25793 9.8862,5.44634 15.69191,6.21243 6.22736,9.07083 16.64616,15.04801 28.49004,15.11595 15.68923,0.09 29.03639,-10.21787 33.44222,-24.44891 1.67687,0.25831 3.38394,0.39078 5.13119,0.40081 0.59981,0.003 1.19741,-0.0306 1.78995,-0.0573 0.59255,-0.0266 1.17557,-0.0586 1.76012,-0.11452 11.80352,-1.12918 21.92295,-8.16851 27.29673,-18.12196 2.18681,0.44414 4.45643,0.6738 6.77198,0.68709 19.1936,0.11009 34.85339,-15.34173 34.96369,-34.49758 0.0626,-10.87224 -4.89622,-20.61604 -12.70864,-27.0255 3.73305,-5.4941 5.92543,-12.10649 5.9665,-19.23848 0.061,-10.5904 -4.64745,-20.10018 -12.112,-26.51018 0.33882,-1.91093 0.52544,-3.86323 0.53699,-5.86888 0.11031,-19.15586 -15.38228,-34.81692 -34.57587,-34.92701 l -0.20882,0 c -6.94177,0 -13.394,2.05289 -18.82432,5.55396 -0.83295,-0.43115 -1.65752,-0.86463 -2.50592,-1.28829 -4.85503,-13.21036 -17.5372,-22.67423 -32.45776,-22.75981 l -0.20883,0 c -6.20657,0 -12.01791,1.61974 -17.06419,4.46607 -3.27406,-15.67136 -17.14702,-27.50237 -33.83005,-27.59806 l -0.20883,0 c -10.75708,0 -20.37961,4.87395 -26.75975,12.53937 -3.04244,-1.6578 -6.36626,-2.85928 -9.87456,-3.54996 -6.19748,-9.2673 -16.73271,-15.39069 -28.7287,-15.4595 l -0.20882,0 z"
         id="path27046"
         inkscape:connector-curvature="0" />
      <path
         id="path27048"
         d="m 278.06723,742.36348 c -11.89981,0 -22.39945,5.95003 -28.66904,15.0587 -1.285,-0.15146 -2.58388,-0.25007 -3.90806,-0.25766 l -0.20883,0 c -11.57879,0 -21.84077,5.64681 -28.16187,14.34298 -2.36927,0.43026 -4.71415,0.87249 -7.04047,1.34554 -5.36634,-3.45039 -11.76357,-5.48603 -18.61549,-5.52533 l -0.17899,0 c -6.9182,0 -13.37557,2.0461 -18.79447,5.52533 -3.42472,-1.15134 -7.10898,-1.78175 -10.9187,-1.8036 l -0.17899,0 c -15.52842,0 -28.71412,10.15065 -33.17374,24.19124 -15.03738,1.40199 -27.29709,12.38166 -30.608144,26.76784 -10.28054,5.98145 -17.199736,17.0768 -17.273017,29.80248 -0.04279,7.43096 2.247668,14.34068 6.20516,20.01146 -0.898875,3.0495 -1.382914,6.25416 -1.402127,9.59062 -0.09985,17.34007 12.594281,31.83115 29.235848,34.49757 -0.18994,1.43571 -0.28977,2.89449 -0.29832,4.3802 -0.11031,19.15586 15.38227,34.78829 34.57586,34.89837 9.15989,0.0525 17.50078,-3.44128 23.74667,-9.18981 2.48399,0.85181 5.0135,1.69416 7.57746,2.4907 6.23344,9.02775 16.64981,14.96233 28.46019,15.03007 6.31419,0.0362 12.23997,-1.61258 17.36252,-4.52334 0.67155,0.10485 1.35401,0.18488 2.02862,0.2863 6.21278,6.01213 14.65507,9.73748 23.98533,9.79101 7.1887,0.0412 13.88355,-2.10889 19.45078,-5.81163 1.88241,0.0671 3.77162,0.13071 5.66818,0.17177 6.331,7.89781 16.05266,12.99209 26.96858,13.05469 12.27449,0.0704 23.08181,-6.24434 29.32534,-15.80304 4.48729,-0.54343 8.91195,-1.14099 13.27546,-1.83224 4.53387,3.25793 9.8862,5.44634 15.69191,6.21243 6.22736,9.07083 16.64616,15.04801 28.49004,15.11595 15.68923,0.09 29.03639,-10.21787 33.44222,-24.44891 1.67687,0.25831 3.38394,0.39078 5.13119,0.40081 0.59981,0.003 1.19741,-0.0306 1.78995,-0.0573 0.59255,-0.0266 1.17557,-0.0586 1.76012,-0.11452 11.80352,-1.12918 21.92295,-8.16851 27.29673,-18.12196 2.18681,0.44414 4.45643,0.6738 6.77198,0.68709 19.1936,0.11009 34.85339,-15.34173 34.96369,-34.49758 0.0626,-10.87224 -4.89622,-20.61604 -12.70864,-27.0255 3.73305,-5.4941 5.92543,-12.10649 5.9665,-19.23848 0.061,-10.5904 -4.64745,-20.10018 -12.112,-26.51018 0.33882,-1.91093 0.52544,-3.86323 0.53699,-5.86888 0.11031,-19.15586 -15.38228,-34.81692 -34.57587,-34.92701 l -0.20882,0 c -6.94177,0 -13.394,2.05289 -18.82432,5.55396 -0.83295,-0.43115 -1.65752,-0.86463 -2.50592,-1.28829 -4.85503,-13.21036 -17.5372,-22.67423 -32.45776,-22.75981 l -0.20883,0 c -6.20657,0 -12.01791,1.61974 -17.06419,4.46607 -3.27406,-15.67136 -17.14702,-27.50237 -33.83005,-27.59806 l -0.20883,0 c -10.75708,0 -20.37961,4.87395 -26.75975,12.53937 -3.04244,-1.6578 -6.36626,-2.85928 -9.87456,-3.54996 -6.19748,-9.2673 -16.73271,-15.39069 -28.7287,-15.4595 l -0.20882,0 z"
         style="fill:url(#linearGradient27052);fill-opacity:1;stroke:none"
         inkscape:connector-curvature="0" />
    </g>
    <text
       xml:space="preserve"
       style="font-size:14px;font-style:normal;font-variant:normal;font-weight:bold;font-stretch:normal;text-align:start;line-height:125%;letter-spacing:0px;word-spacing:0px;writing-mode:lr-tb;text-anchor:start;fill:#000000;fill-opacity:1;stroke:none;font-family:FreeSans;-inkscape-font-specification:FreeSans Bold"
       x="133.31818"
       y="742.15784"
       id="text27054"
       sodipodi:linespacing="125%"><tspan
         sodipodi:role="line"
         id="tspan27056"
         x="133.31818"
         y="742.15784">193.190.0.0/15</tspan></text>
    <path
       style="fill:none;stroke:#000000;stroke-width:1px;stroke-linecap:butt;stroke-linejoin:miter;stroke-opacity:1;marker-end:url(#TriangleOutM)"
       d="M 145.51721,146.43408 291.03442,56.683948"
       id="path27244"
       inkscape:connector-curvature="0"
       transform="translate(0,652.36218)" />
    <path
       style="fill:none;stroke:#000000;stroke-width:1px;stroke-linecap:butt;stroke-linejoin:miter;stroke-opacity:1;marker-end:url(#TriangleOutM)"
       d="M 428.96666,816.48075 352.28694,724.11654"
       id="path27246"
       inkscape:connector-curvature="0" />
    <text
       sodipodi:linespacing="125%"
       id="text27612"
       y="741.2865"
       x="373.81369"
       style="font-size:14px;font-style:normal;font-variant:normal;font-weight:bold;font-stretch:normal;text-align:start;line-height:125%;letter-spacing:0px;word-spacing:0px;writing-mode:lr-tb;text-anchor:start;fill:#000000;fill-opacity:1;stroke:none;font-family:FreeSans;-inkscape-font-specification:FreeSans Bold"
       xml:space="preserve"><tspan
         y="741.2865"
         x="373.81369"
         id="tspan27614"
         sodipodi:role="line">193.191.244.0/23</tspan></text>
    <text
       xml:space="preserve"
       style="font-size:14px;font-style:normal;font-variant:normal;font-weight:bold;font-stretch:normal;text-align:start;line-height:125%;letter-spacing:0px;word-spacing:0px;writing-mode:lr-tb;text-anchor:start;fill:#000000;fill-opacity:1;stroke:none;font-family:FreeSans;-inkscape-font-specification:FreeSans Bold"
       x="140.28905"
       y="852.82062"
       id="text27616"
       sodipodi:linespacing="125%"><tspan
         sodipodi:role="line"
         id="tspan27618"
         x="140.28905"
         y="852.82062">Belnet</tspan></text>
    <text
       xml:space="preserve"
       style="font-size:14px;font-style:normal;font-variant:normal;font-weight:bold;font-stretch:normal;text-align:start;line-height:125%;letter-spacing:0px;word-spacing:0px;writing-mode:lr-tb;text-anchor:start;fill:#000000;fill-opacity:1;stroke:none;font-family:FreeSans;-inkscape-font-specification:FreeSans Bold"
       x="311.07571"
       y="697.71844"
       id="text27620"
       sodipodi:linespacing="125%"><tspan
         sodipodi:role="line"
         id="tspan27622"
         x="311.07571"
         y="697.71844">Internet</tspan></text>
    <text
       xml:space="preserve"
       style="font-size:14px;font-style:normal;font-variant:normal;font-weight:bold;font-stretch:normal;text-align:start;line-height:125%;letter-spacing:0px;word-spacing:0px;writing-mode:lr-tb;text-anchor:start;fill:#000000;fill-opacity:1;stroke:none;font-family:FreeSans;-inkscape-font-specification:FreeSans Bold"
       x="440.03708"
       y="225.72789"
       id="text27624"
       sodipodi:linespacing="125%"
       transform="translate(0,652.36218)"><tspan
         sodipodi:role="line"
         id="tspan27626"
         x="440.03708"
         y="225.72789">ISP</tspan></text>
  </g>
</svg>
