<?xml version="1.0" encoding="UTF-8" standalone="no"?>
<!-- Created with Inkscape (http://www.inkscape.org/) -->
<svg id="svg2" xmlns:rdf="http://www.w3.org/1999/02/22-rdf-syntax-ns#" xmlns="http://www.w3.org/2000/svg" viewBox="0 0 744.09 1052.4" version="1.1" xmlns:cc="http://creativecommons.org/ns#" xmlns:xlink="http://www.w3.org/1999/xlink" xmlns:dc="http://purl.org/dc/elements/1.1/">
 <defs id="defs4">
  <linearGradient id="linearGradient3791-7">
   <stop id="stop3793-0" stop-color="#c6c6c6" offset="0"/>
   <stop id="stop3799-2" stop-color="#fff" offset=".60029"/>
   <stop id="stop3795-9" stop-color="#a4a4a4" offset="1"/>
  </linearGradient>
  <filter id="filter6096" color-interpolation-filters="sRGB">
   <feGaussianBlur id="feGaussianBlur6098" stdDeviation="2" result="result8"/>
   <feOffset id="feOffset6100" result="result11" dx="3" dy="3"/>
   <feComposite id="feComposite6102" operator="in" result="result6" in2="result11" in="SourceGraphic"/>
   <feFlood id="feFlood6104" result="result10" in="result6" flood-color="rgb(0,0,0)"/>
   <feBlend id="feBlend6106" mode="normal" result="result12" in2="result10" in="result6"/>
   <feComposite id="feComposite6108" operator="in" result="result2" in2="SourceGraphic"/>
  </filter>
  <filter id="filter5066" height="1.3542" width="1.1317" y="-.17710" x="-.065847">
   <feGaussianBlur id="feGaussianBlur5068" stdDeviation="6.0009211"/>
  </filter>
  <marker id="Arrow1Mstart-3" refY="0.0" refX="0.0" orient="auto" overflow="visible">
   <path id="path4218-6" d="m0 0l5-5-17.5 5 17.5 5-5-5z" fill-rule="evenodd" transform="scale(.4) translate(10)" stroke="#000" stroke-width="1pt"/>
  </marker>
  <linearGradient id="linearGradient8320" y2="237.12" xlink:href="#linearGradient3791-7" gradientUnits="userSpaceOnUse" x2="341.44" gradientTransform="translate(617.12 -.21672)" y1="66.831" x1="191.34"/>
 </defs>
 <metadata id="metadata7">
  <rdf:RDF>
   <cc:Work rdf:about="">
    <dc:format>image/svg+xml</dc:format>
    <dc:type rdf:resource="http://purl.org/dc/dcmitype/StillImage"/>
    <dc:title/>
   </cc:Work>
  </rdf:RDF>
 </metadata>
 <g id="layer1">
  <text id="text5136" style="word-spacing:0px;letter-spacing:0px" font-size="48px" line-height="125%" y="292.91492" x="610.57544" font-family="FreeSans" xml:space="preserve" fill="#000000"><tspan id="tspan5138" x="610.57544" y="292.91492"/></text>
  <text id="text5136-3" style="word-spacing:0px;letter-spacing:0px" xml:space="preserve" font-size="48px" line-height="125%" y="838.08514" x="613.39978" font-family="FreeSans" fill="#000000"><tspan id="tspan5138-2" y="838.08514" x="613.39978"/></text>
  <g id="g5888" transform="translate(180.96 -65.062)">
   <g id="g9004">
    <path id="path8958" d="m234.06 236.51 87.531 54.331" stroke="#000" stroke-width="1.0481px" fill="none"/>
    <path id="path8956" d="m188.32 178.86-76.703 52.662" transform="translate(-180.96 65.062)" stroke="#000" stroke-width="1px" fill="none"/>
    <path id="path8954" d="m12.318 338.8-89.456-45.18" stroke="#fc0000" stroke-width="1.6872" fill="#f00"/>
    <path id="path8950" d="m202.56 253.08v67.545" stroke-opacity=".99556" stroke="#fa0000" stroke-width="1.5" fill="#f00"/>
    <path id="path8948" d="m209.5 188.02v67.545" stroke-opacity=".99556" transform="translate(-180.96 65.062)" stroke="#fa0000" stroke-width="1.5" fill="#f00"/>
    <path id="path11093" d="m30.608 389.61v-41.183" marker-start="url(#Arrow1Mstart-3)" stroke="#000" stroke-width="1px" fill="none"/>
    <path id="path4147" d="m241.21 331.98 84.136-42.984" stroke="#fc0000" stroke-width="1.596" fill="#f00"/>
    <path id="path4143" d="m54.887 339.55h130.28" stroke="#fc0000" stroke-width="1.5" fill="#f00"/>
    <path id="path4135" d="m54.307 237.83h130.28" stroke="#000" fill="none"/>
    <g id="g5103" transform="matrix(.24825 0 0 .23575 -240.3 181.19)">
     <path id="path5070" d="m51.789 625.96 82.843-81.324h135.88l-83.198 81.324z" transform="matrix(1.3571 0 0 1.3571 895.91 -503.35)" filter="url(#filter5066)" stroke="#000" stroke-width="1px" fill="#4d4d4d"/>
     <g id="g4916" transform="translate(264.76 34.823)">
      <path id="path4918" d="m785.71 118.97-56.595 55.714c-13.78 13.566-14.306 19.132-14.306 37.313v32.272c-2.6592 52.948 4.6283 54.857 49.695 54.857h107.79c19.516 0 24.204-2.2219 37.227-15.041l48.47-47.709c17.801-17.521 18.863-31.451 18.863-52.778v-39.372c0-38.514-11.312-36.789-41.308-36.789h-118.11c-16.409 0-20.823 0.8042-31.72 11.532z" stroke="#000" stroke-width="2.0561" fill="url(#linearGradient8320)"/>
      <path id="path4920" d="m754.82 188.76h95.525c42.501 0 43.89 9.7125 43.89 43.244v29.69c0 42.939-17.176 37.435-49.699 37.435h-81.325c-44.393 0-48.408-5.681-48.408-41.308v-29.045c0-39.879 7.8844-40.017 40.017-40.017z" stroke="#000" stroke-width="2.0561" fill="#ececec"/>
      <path id="path4922" d="m777.99 170.16s6.558 8.0583 23.479 9.0804 49.978-10.538 39.949-34.39c-3.8382 16.999-35.223 28.185-40.054 15.983l11.687-4.6633-38.897-1.5406-7.8491 20.194zm47.931-50.957s-18.258-0.10479-31.258 6.9215-15.007 25.757 32.804 30.172c-26.78-7.9534-25.238-25.814-0.97646-23.424l0.28488 6.8345 28.489-16.451-29.629-10.888zm63.511 35.007s8.9226-8.8418 1.6918-16.207c-7.2308-7.3651-42.103-11.16-73.389 11.37 28.008-11.794 61.438-8.3552 45.277 3.0546l-13.21-0.89124 17.86 16.299 34.981-12.734z" filter="url(#filter6096)" fill="#0097e1"/>
      <text id="text4924" style="word-spacing:0px;letter-spacing:0px" font-weight="500" xml:space="preserve" font-size="5.757px" line-height="125%" y="256.41434" x="785.99768" font-family="Round Up" fill="#000000"><tspan id="tspan4926" font-weight="bold" font-size="41.121px" y="256.41434" x="785.99768" font-family="FreeSans" fill="#000000">R2</tspan></text>
      <path id="path4928" d="m714.91 266.19 47.156 0.14073h107.79c19.516 0 24.295-1.8096 37.227-14.721l69.77-69.654" stroke="#000" stroke-dasharray="8.22422762, 4.11211381" stroke-width="2.0561" fill="none"/>
      <path id="path4930" d="m714.91 220.95 47.156 0.14072h107.79c19.516 0 24.295-1.8096 37.227-14.721l69.77-69.654" stroke="#000" stroke-dasharray="8.22422762, 4.11211381" stroke-width="2.0561" fill="none"/>
     </g>
    </g>
    <g id="g4033" transform="matrix(.24825 0 0 .23575 -64.277 181.19)">
     <path id="path4035" d="m51.789 625.96 82.843-81.324h135.88l-83.198 81.324z" transform="matrix(1.3571 0 0 1.3571 895.91 -503.35)" filter="url(#filter5066)" stroke="#000" stroke-width="1px" fill="#4d4d4d"/>
     <g id="g4037" transform="translate(264.76 34.823)">
      <path id="path4039" d="m785.71 118.97-56.595 55.714c-13.78 13.566-14.306 19.132-14.306 37.313v32.272c-2.6592 52.948 4.6283 54.857 49.695 54.857h107.79c19.516 0 24.204-2.2219 37.227-15.041l48.47-47.709c17.801-17.521 18.863-31.451 18.863-52.778v-39.372c0-38.514-11.312-36.789-41.308-36.789h-118.11c-16.409 0-20.823 0.8042-31.72 11.532z" stroke="#000" stroke-width="2.0561" fill="url(#linearGradient8320)"/>
      <path id="path4041" d="m754.82 188.76h95.525c42.501 0 43.89 9.7125 43.89 43.244v29.69c0 42.939-17.176 37.435-49.699 37.435h-81.325c-44.393 0-48.408-5.681-48.408-41.308v-29.045c0-39.879 7.8844-40.017 40.017-40.017z" stroke="#000" stroke-width="2.0561" fill="#ececec"/>
      <path id="path4043" d="m777.99 170.16s6.558 8.0583 23.479 9.0804 49.978-10.538 39.949-34.39c-3.8382 16.999-35.223 28.185-40.054 15.983l11.687-4.6633-38.897-1.5406-7.8491 20.194zm47.931-50.957s-18.258-0.10479-31.258 6.9215-15.007 25.757 32.804 30.172c-26.78-7.9534-25.238-25.814-0.97646-23.424l0.28488 6.8345 28.489-16.451-29.629-10.888zm63.511 35.007s8.9226-8.8418 1.6918-16.207c-7.2308-7.3651-42.103-11.16-73.389 11.37 28.008-11.794 61.438-8.3552 45.277 3.0546l-13.21-0.89124 17.86 16.299 34.981-12.734z" filter="url(#filter6096)" fill="#0097e1"/>
      <text id="text4045" style="word-spacing:0px;letter-spacing:0px" font-weight="500" font-size="5.757px" line-height="125%" y="256.41434" x="785.99768" font-family="Round Up" xml:space="preserve" fill="#000000"><tspan id="tspan4047" font-weight="bold" font-size="41.121px" y="256.41434" x="785.99768" font-family="FreeSans" fill="#000000">R5</tspan></text>
      <path id="path4049" d="m714.91 266.19 47.156 0.14073h107.79c19.516 0 24.295-1.8096 37.227-14.721l69.77-69.654" stroke="#000" stroke-dasharray="8.22422762, 4.11211381" stroke-width="2.0561" fill="none"/>
      <path id="path4051" d="m714.91 220.95 47.156 0.14072h107.79c19.516 0 24.295-1.8096 37.227-14.721l69.77-69.654" stroke="#000" stroke-dasharray="8.22422762, 4.11211381" stroke-width="2.0561" fill="none"/>
     </g>
    </g>
    <g id="g4059" transform="matrix(.24825 0 0 .23575 75.112 226.41)">
     <path id="path4061" d="m51.789 625.96 82.843-81.324h135.88l-83.198 81.324z" transform="matrix(1.3571 0 0 1.3571 895.91 -503.35)" filter="url(#filter5066)" stroke="#000" stroke-width="1px" fill="#4d4d4d"/>
     <g id="g4063" transform="translate(264.76 34.823)">
      <path id="path4065" d="m785.71 118.97-56.595 55.714c-13.78 13.566-14.306 19.132-14.306 37.313v32.272c-2.6592 52.948 4.6283 54.857 49.695 54.857h107.79c19.516 0 24.204-2.2219 37.227-15.041l48.47-47.709c17.801-17.521 18.863-31.451 18.863-52.778v-39.372c0-38.514-11.312-36.789-41.308-36.789h-118.11c-16.409 0-20.823 0.8042-31.72 11.532z" stroke="#000" stroke-width="2.0561" fill="url(#linearGradient8320)"/>
      <path id="path4067" d="m754.82 188.76h95.525c42.501 0 43.89 9.7125 43.89 43.244v29.69c0 42.939-17.176 37.435-49.699 37.435h-81.325c-44.393 0-48.408-5.681-48.408-41.308v-29.045c0-39.879 7.8844-40.017 40.017-40.017z" stroke="#000" stroke-width="2.0561" fill="#ececec"/>
      <path id="path4069" d="m777.99 170.16s6.558 8.0583 23.479 9.0804 49.978-10.538 39.949-34.39c-3.8382 16.999-35.223 28.185-40.054 15.983l11.687-4.6633-38.897-1.5406-7.8491 20.194zm47.931-50.957s-18.258-0.10479-31.258 6.9215-15.007 25.757 32.804 30.172c-26.78-7.9534-25.238-25.814-0.97646-23.424l0.28488 6.8345 28.489-16.451-29.629-10.888zm63.511 35.007s8.9226-8.8418 1.6918-16.207c-7.2308-7.3651-42.103-11.16-73.389 11.37 28.008-11.794 61.438-8.3552 45.277 3.0546l-13.21-0.89124 17.86 16.299 34.981-12.734z" filter="url(#filter6096)" fill="#0097e1"/>
      <text id="text4071" style="word-spacing:0px;letter-spacing:0px" font-weight="500" xml:space="preserve" font-size="5.757px" line-height="125%" y="256.41434" x="785.99768" font-family="Round Up" fill="#000000"><tspan id="tspan4073" font-weight="bold" font-size="41.121px" y="256.41434" x="785.99768" font-family="FreeSans" fill="#000000">R6</tspan></text>
      <path id="path4075" d="m714.91 266.19 47.156 0.14073h107.79c19.516 0 24.295-1.8096 37.227-14.721l69.77-69.654" stroke="#000" stroke-dasharray="8.22422762, 4.11211381" stroke-width="2.0561" fill="none"/>
      <path id="path4077" d="m714.91 220.95 47.156 0.14072h107.79c19.516 0 24.295-1.8096 37.227-14.721l69.77-69.654" stroke="#000" stroke-dasharray="8.22422762, 4.11211381" stroke-width="2.0561" fill="none"/>
     </g>
    </g>
    <g id="g4085" transform="matrix(.24825 0 0 .23575 -240.3 282.36)">
     <path id="path4087" d="m51.789 625.96 82.843-81.324h135.88l-83.198 81.324z" transform="matrix(1.3571 0 0 1.3571 895.91 -503.35)" filter="url(#filter5066)" stroke="#000" stroke-width="1px" fill="#4d4d4d"/>
     <g id="g4089" transform="translate(264.76 34.823)">
      <path id="path4091" d="m785.71 118.97-56.595 55.714c-13.78 13.566-14.306 19.132-14.306 37.313v32.272c-2.6592 52.948 4.6283 54.857 49.695 54.857h107.79c19.516 0 24.204-2.2219 37.227-15.041l48.47-47.709c17.801-17.521 18.863-31.451 18.863-52.778v-39.372c0-38.514-11.312-36.789-41.308-36.789h-118.11c-16.409 0-20.823 0.8042-31.72 11.532z" stroke="#000" stroke-width="2.0561" fill="url(#linearGradient8320)"/>
      <path id="path4093" d="m754.82 188.76h95.525c42.501 0 43.89 9.7125 43.89 43.244v29.69c0 42.939-17.176 37.435-49.699 37.435h-81.325c-44.393 0-48.408-5.681-48.408-41.308v-29.045c0-39.879 7.8844-40.017 40.017-40.017z" stroke="#000" stroke-width="2.0561" fill="#ececec"/>
      <path id="path4095" d="m777.99 170.16s6.558 8.0583 23.479 9.0804 49.978-10.538 39.949-34.39c-3.8382 16.999-35.223 28.185-40.054 15.983l11.687-4.6633-38.897-1.5406-7.8491 20.194zm47.931-50.957s-18.258-0.10479-31.258 6.9215-15.007 25.757 32.804 30.172c-26.78-7.9534-25.238-25.814-0.97646-23.424l0.28488 6.8345 28.489-16.451-29.629-10.888zm63.511 35.007s8.9226-8.8418 1.6918-16.207c-7.2308-7.3651-42.103-11.16-73.389 11.37 28.008-11.794 61.438-8.3552 45.277 3.0546l-13.21-0.89124 17.86 16.299 34.981-12.734z" filter="url(#filter6096)" fill="#0097e1"/>
      <text id="text4097" style="word-spacing:0px;letter-spacing:0px" font-weight="500" font-size="5.757px" line-height="125%" y="256.41434" x="785.99768" font-family="Round Up" xml:space="preserve" fill="#000000"><tspan id="tspan4099" font-weight="bold" font-size="41.121px" y="256.41434" x="785.99768" font-family="FreeSans" fill="#000000">R3</tspan></text>
      <path id="path4101" d="m714.91 266.19 47.156 0.14073h107.79c19.516 0 24.295-1.8096 37.227-14.721l69.77-69.654" stroke="#000" stroke-dasharray="8.22422762, 4.11211381" stroke-width="2.0561" fill="none"/>
      <path id="path4103" d="m714.91 220.95 47.156 0.14072h107.79c19.516 0 24.295-1.8096 37.227-14.721l69.77-69.654" stroke="#000" stroke-dasharray="8.22422762, 4.11211381" stroke-width="2.0561" fill="none"/>
     </g>
    </g>
    <g id="g4109" transform="matrix(.24825 0 0 .23575 -64.277 282.36)">
     <path id="path4111" d="m51.789 625.96 82.843-81.324h135.88l-83.198 81.324z" transform="matrix(1.3571 0 0 1.3571 895.91 -503.35)" filter="url(#filter5066)" stroke="#000" stroke-width="1px" fill="#4d4d4d"/>
     <g id="g4113" transform="translate(264.76 34.823)">
      <path id="path4115" d="m785.71 118.97-56.595 55.714c-13.78 13.566-14.306 19.132-14.306 37.313v32.272c-2.6592 52.948 4.6283 54.857 49.695 54.857h107.79c19.516 0 24.204-2.2219 37.227-15.041l48.47-47.709c17.801-17.521 18.863-31.451 18.863-52.778v-39.372c0-38.514-11.312-36.789-41.308-36.789h-118.11c-16.409 0-20.823 0.8042-31.72 11.532z" stroke="#000" stroke-width="2.0561" fill="url(#linearGradient8320)"/>
      <path id="path4117" d="m754.82 188.76h95.525c42.501 0 43.89 9.7125 43.89 43.244v29.69c0 42.939-17.176 37.435-49.699 37.435h-81.325c-44.393 0-48.408-5.681-48.408-41.308v-29.045c0-39.879 7.8844-40.017 40.017-40.017z" stroke="#000" stroke-width="2.0561" fill="#ececec"/>
      <path id="path4119" d="m777.99 170.16s6.558 8.0583 23.479 9.0804 49.978-10.538 39.949-34.39c-3.8382 16.999-35.223 28.185-40.054 15.983l11.687-4.6633-38.897-1.5406-7.8491 20.194zm47.931-50.957s-18.258-0.10479-31.258 6.9215-15.007 25.757 32.804 30.172c-26.78-7.9534-25.238-25.814-0.97646-23.424l0.28488 6.8345 28.489-16.451-29.629-10.888zm63.511 35.007s8.9226-8.8418 1.6918-16.207c-7.2308-7.3651-42.103-11.16-73.389 11.37 28.008-11.794 61.438-8.3552 45.277 3.0546l-13.21-0.89124 17.86 16.299 34.981-12.734z" filter="url(#filter6096)" fill="#0097e1"/>
      <text id="text4121" style="word-spacing:0px;letter-spacing:0px" font-weight="500" xml:space="preserve" font-size="5.757px" line-height="125%" y="256.41434" x="785.99768" font-family="Round Up" fill="#ff0000"><tspan id="tspan4123" font-weight="bold" font-size="41.121px" y="256.41434" x="785.99768" font-family="FreeSans" fill="#000000">R4</tspan></text>
      <path id="path4125" d="m714.91 266.19 47.156 0.14073h107.79c19.516 0 24.295-1.8096 37.227-14.721l69.77-69.654" stroke="#000" stroke-dasharray="8.22422762, 4.11211381" stroke-width="2.0561" fill="none"/>
      <path id="path4127" d="m714.91 220.95 47.156 0.14072h107.79c19.516 0 24.295-1.8096 37.227-14.721l69.77-69.654" stroke="#000" stroke-dasharray="8.22422762, 4.11211381" stroke-width="2.0561" fill="none"/>
     </g>
    </g>
    <g id="g8348">
     <rect id="rect5413" height="86.063" width="76.853" stroke="#000" stroke-miterlimit="0" y="390.69" x="12.035" stroke-width=".45705" fill="none"/>
     <text id="text5415" style="word-spacing:0px;letter-spacing:0px" xml:space="preserve" font-size="9.9479px" line-height="125%" y="404.10574" x="16.013863" font-family="FreeSans" fill="#000000"><tspan id="tspan7350" y="404.10574" x="16.013863">Routing table</tspan><tspan id="tspan8310" y="416.54068" x="16.013863">R1 : West</tspan><tspan id="tspan8312" y="428.97559" x="16.013863">R2 : North</tspan><tspan id="tspan8314" y="441.41052" x="16.013863">R4 : East</tspan><tspan id="tspan8316" y="453.84543" x="16.013863">R5 : East</tspan><tspan id="tspan8318" y="466.28036" x="16.013863">R6 : East</tspan></text>
    </g>
    <rect id="rect7493" opacity=".62888" stroke-opacity=".98667" height="4.6098" width="2.3049" stroke="#0e0000" y="515.85" x="323.81" stroke-width="0.7" fill="none"/>
    <g id="g8922" transform="matrix(.24825 0 0 .23575 -375.96 235.56)">
     <path id="path8924" d="m51.789 625.96 82.843-81.324h135.88l-83.198 81.324z" transform="matrix(1.3571 0 0 1.3571 895.91 -503.35)" filter="url(#filter5066)" stroke="#000" stroke-width="1px" fill="#4d4d4d"/>
     <g id="g8926" transform="translate(264.76 34.823)">
      <path id="path8928" d="m785.71 118.97-56.595 55.714c-13.78 13.566-14.306 19.132-14.306 37.313v32.272c-2.6592 52.948 4.6283 54.857 49.695 54.857h107.79c19.516 0 24.204-2.2219 37.227-15.041l48.47-47.709c17.801-17.521 18.863-31.451 18.863-52.778v-39.372c0-38.514-11.312-36.789-41.308-36.789h-118.11c-16.409 0-20.823 0.8042-31.72 11.532z" stroke="#000" stroke-width="2.0561" fill="url(#linearGradient8320)"/>
      <path id="path8930" d="m754.82 188.76h95.525c42.501 0 43.89 9.7125 43.89 43.244v29.69c0 42.939-17.176 37.435-49.699 37.435h-81.325c-44.393 0-48.408-5.681-48.408-41.308v-29.045c0-39.879 7.8844-40.017 40.017-40.017z" stroke="#000" stroke-width="2.0561" fill="#ececec"/>
      <path id="path8932" d="m777.99 170.16s6.558 8.0583 23.479 9.0804 49.978-10.538 39.949-34.39c-3.8382 16.999-35.223 28.185-40.054 15.983l11.687-4.6633-38.897-1.5406-7.8491 20.194zm47.931-50.957s-18.258-0.10479-31.258 6.9215-15.007 25.757 32.804 30.172c-26.78-7.9534-25.238-25.814-0.97646-23.424l0.28488 6.8345 28.489-16.451-29.629-10.888zm63.511 35.007s8.9226-8.8418 1.6918-16.207c-7.2308-7.3651-42.103-11.16-73.389 11.37 28.008-11.794 61.438-8.3552 45.277 3.0546l-13.21-0.89124 17.86 16.299 34.981-12.734z" filter="url(#filter6096)" fill="#0097e1"/>
      <text id="text8934" style="word-spacing:0px;letter-spacing:0px" font-weight="500" font-size="5.757px" line-height="125%" y="256.41434" x="785.99768" font-family="Round Up" xml:space="preserve" fill="#000000"><tspan id="tspan8936" font-family="FreeSans" font-weight="bold" font-size="41.121px" y="256.41434" x="785.99768" stroke-width=".41336" fill="#000000">R1</tspan></text>
      <path id="path8938" d="m714.91 266.19 47.156 0.14073h107.79c19.516 0 24.295-1.8096 37.227-14.721l69.77-69.654" stroke="#000" stroke-dasharray="8.22422762, 4.11211381" stroke-width="2.0561" fill="none"/>
      <path id="path8940" d="m714.91 220.95 47.156 0.14072h107.79c19.516 0 24.295-1.8096 37.227-14.721l69.77-69.654" stroke="#000" stroke-dasharray="8.22422762, 4.11211381" stroke-width="2.0561" fill="none"/>
     </g>
    </g>
    <text id="text8972" style="word-spacing:0px;letter-spacing:0px" line-height="125%" font-weight="bold" font-size="9.9479px" y="290.42285" x="32.854725" font-family="FreeSans" xml:space="preserve" fill="#000000"><tspan id="tspan8974" y="290.42285" x="32.854725">D=3</tspan></text>
    <text id="text8976" style="word-spacing:0px;letter-spacing:0px" font-weight="bold" xml:space="preserve" font-size="9.9479px" y="263.51944" x="-42.131363" font-family="FreeSans" line-height="125%" fill="#000000"><tspan id="tspan8978" x="-42.131363" y="263.51944">D=3</tspan></text>
    <text id="text8980" style="word-spacing:0px;letter-spacing:0px" line-height="125%" font-weight="bold" font-size="9.9479px" y="290.42285" x="178.82001" font-family="FreeSans" xml:space="preserve" fill="#000000"><tspan id="tspan8982" y="290.42285" x="178.82001">D=3</tspan></text>
    <text id="text8984" style="word-spacing:0px;letter-spacing:0px" font-weight="bold" xml:space="preserve" font-size="9.9479px" y="230.89191" x="116.427" font-family="FreeSans" line-height="125%" fill="#000000"><tspan id="tspan8986" x="116.427" y="230.89191">D=2</tspan></text>
    <text id="text8988" style="word-spacing:0px;letter-spacing:0px" font-weight="bold" xml:space="preserve" font-size="9.9479px" y="334.49866" x="118.14424" font-family="FreeSans" line-height="125%" fill="#000000"><tspan id="tspan8990" x="118.14424" y="334.49866">D=1</tspan></text>
    <text id="text8992" style="word-spacing:0px;letter-spacing:0px" font-weight="bold" xml:space="preserve" font-size="9.9479px" y="259.51254" x="278.99225" font-family="FreeSans" line-height="125%" fill="#000000"><tspan id="tspan8994" x="278.99225" y="259.51254">D=10</tspan></text>
    <text id="text8996" style="word-spacing:0px;letter-spacing:0px" line-height="125%" font-weight="bold" font-size="9.9479px" y="327.05725" x="277.84741" font-family="FreeSans" xml:space="preserve" fill="#000000"><tspan id="tspan8998" y="327.05725" x="277.84741">D=6</tspan></text>
    <text id="text9000" style="word-spacing:0px;letter-spacing:0px" font-weight="bold" xml:space="preserve" font-size="9.9479px" y="331.63657" x="-40.986561" font-family="FreeSans" line-height="125%" fill="#000000"><tspan id="tspan9002" x="-40.986561" y="331.63657">D=5</tspan></text>
   </g>
  </g>
 </g>
</svg>
