<?xml version="1.0" encoding="UTF-8" standalone="no"?>
<!-- Created with Inkscape (http://www.inkscape.org/) -->
<svg id="svg2" xmlns:rdf="http://www.w3.org/1999/02/22-rdf-syntax-ns#" xmlns="http://www.w3.org/2000/svg" viewBox="0 0 744.09 1052.4" version="1.1" xmlns:cc="http://creativecommons.org/ns#" xmlns:xlink="http://www.w3.org/1999/xlink" xmlns:dc="http://purl.org/dc/elements/1.1/">
 <defs id="defs4">
  <marker id="Arrow1Mend" refY="0.0" refX="0.0" orient="auto" overflow="visible">
   <path id="path4221" d="m0 0l5-5-17.5 5 17.5 5-5-5z" fill-rule="evenodd" transform="scale(.4) rotate(180) translate(10)" stroke="#000" stroke-width="1pt"/>
  </marker>
  <linearGradient id="linearGradient3791-7">
   <stop id="stop3793-0" stop-color="#c6c6c6" offset="0"/>
   <stop id="stop3799-2" stop-color="#fff" offset=".60029"/>
   <stop id="stop3795-9" stop-color="#a4a4a4" offset="1"/>
  </linearGradient>
  <filter id="filter6096" color-interpolation-filters="sRGB">
   <feGaussianBlur id="feGaussianBlur6098" stdDeviation="2" result="result8"/>
   <feOffset id="feOffset6100" result="result11" dx="3" dy="3"/>
   <feComposite id="feComposite6102" operator="in" result="result6" in2="result11" in="SourceGraphic"/>
   <feFlood id="feFlood6104" result="result10" in="result6" flood-color="rgb(0,0,0)"/>
   <feBlend id="feBlend6106" mode="normal" result="result12" in2="result10" in="result6"/>
   <feComposite id="feComposite6108" operator="in" result="result2" in2="SourceGraphic"/>
  </filter>
  <filter id="filter5066" height="1.3542" width="1.1317" y="-.17710" x="-.065847">
   <feGaussianBlur id="feGaussianBlur5068" stdDeviation="6.0009211"/>
  </filter>
  <linearGradient id="linearGradient3188" y2="237.12" xlink:href="#linearGradient3791-7" gradientUnits="userSpaceOnUse" x2="341.44" gradientTransform="translate(617.12 -.21672)" y1="66.831" x1="191.34"/>
 </defs>
 <metadata id="metadata7">
  <rdf:RDF>
   <cc:Work rdf:about="">
    <dc:format>image/svg+xml</dc:format>
    <dc:type rdf:resource="http://purl.org/dc/dcmitype/StillImage"/>
    <dc:title/>
   </cc:Work>
  </rdf:RDF>
 </metadata>
 <g id="layer1">
  <g id="g5622">
   <path id="path4839" marker-end="url(#Arrow1Mend)" d="m365.21 149.89v-41.183" stroke="#000" stroke-width="1px" fill="none"/>
   <path id="path4843" marker-end="url(#Arrow1Mend)" d="m165.51 150.22-30.3-38.85" stroke="#000" stroke-width="1px" fill="none"/>
   <path id="path4841" marker-end="url(#Arrow1Mend)" d="m164.73 257.45-30.3-39.63" stroke="#000" stroke-width="1px" fill="none"/>
   <path id="path4655" marker-end="url(#Arrow1Mend)" d="m543.93 148.66 22.534-39.629" stroke="#000" stroke-width="1px" fill="none"/>
   <path id="path4207" marker-end="url(#Arrow1Mend)" d="m381.53 272.99h80.812" stroke="#000" stroke-miterlimit="3" fill="none"/>
   <g id="g3120" transform="matrix(.75273 0 0 .71483 118.4 56.111)">
    <path id="path4147" d="m359.23 284.67 170-123.85" stroke="#000" stroke-width="1px" fill="none"/>
    <path id="path4145" d="m313.08 176.21v91.538" stroke="#000" stroke-width="1px" fill="none"/>
    <path id="path4143" d="m111.54 295.44h173.08" stroke="#000" stroke-width="1px" fill="none"/>
    <path id="path4141" d="m351.54 151.59h173.08" stroke="#000" stroke-width="1px" fill="none"/>
    <path id="path4139" d="m76.154 176.98v91.538" stroke="#000" stroke-width="1px" fill="none"/>
    <path id="path4135" d="m110.77 153.13h173.08" stroke="#000" stroke-width="1px" fill="none"/>
    <g id="layer1-9" transform="matrix(.32980 0 0 .32980 -50.775 59.837)">
     <g id="g5084" transform="translate(-696.92 42.622)">
      <path id="path5070" d="m51.789 625.96 82.843-81.324h135.88l-83.198 81.324z" transform="matrix(1.3571 0 0 1.3571 895.91 -503.35)" filter="url(#filter5066)" stroke="#000" stroke-width="1px" fill="#4d4d4d"/>
      <g id="g4916" transform="translate(264.76 34.823)">
       <path id="path4918" d="m785.71 118.97-56.595 55.714c-13.78 13.566-14.306 19.132-14.306 37.313v32.272c-2.6592 52.948 4.6283 54.857 49.695 54.857h107.79c19.516 0 24.204-2.2219 37.227-15.041l48.47-47.709c17.801-17.521 18.863-31.451 18.863-52.778v-39.372c0-38.514-11.312-36.789-41.308-36.789h-118.11c-16.409 0-20.823 0.8042-31.72 11.532z" stroke="#000" stroke-width="2.0561" fill="url(#linearGradient3188)"/>
       <path id="path4920" d="m754.82 188.76h95.525c42.501 0 43.89 9.7125 43.89 43.244v29.69c0 42.939-17.176 37.435-49.699 37.435h-81.325c-44.393 0-48.408-5.681-48.408-41.308v-29.045c0-39.879 7.8844-40.017 40.017-40.017z" stroke="#000" stroke-width="2.0561" fill="#ececec"/>
       <path id="path4922" d="m777.99 170.16s6.558 8.0583 23.479 9.0804 49.978-10.538 39.949-34.39c-3.8382 16.999-35.223 28.185-40.054 15.983l11.687-4.6633-38.897-1.5406-7.8491 20.194zm47.931-50.957s-18.258-0.10479-31.258 6.9215-15.007 25.757 32.804 30.172c-26.78-7.9534-25.238-25.814-0.97646-23.424l0.28488 6.8345 28.489-16.451-29.629-10.888zm63.511 35.007s8.9226-8.8418 1.6918-16.207c-7.2308-7.3651-42.103-11.16-73.389 11.37 28.008-11.794 61.438-8.3552 45.277 3.0546l-13.21-0.89124 17.86 16.299 34.981-12.734z" filter="url(#filter6096)" fill="#0097e1"/>
       <text id="text4924" style="word-spacing:0px;letter-spacing:0px" font-weight="500" xml:space="preserve" font-size="5.757px" line-height="125%" y="256.41434" x="785.99768" font-family="Round Up" fill="#000000"><tspan id="tspan4926" font-weight="bold" font-size="41.121px" y="256.41434" x="785.99768" font-family="FreeSans">A</tspan></text>
       <path id="path4928" d="m714.91 266.19 47.156 0.14073h107.79c19.516 0 24.295-1.8096 37.227-14.721l69.77-69.654" stroke="#000" stroke-dasharray="8.22422762, 4.11211381" stroke-width="2.0561" fill="none"/>
       <path id="path4930" d="m714.91 220.95 47.156 0.14072h107.79c19.516 0 24.295-1.8096 37.227-14.721l69.77-69.654" stroke="#000" stroke-dasharray="8.22422762, 4.11211381" stroke-width="2.0561" fill="none"/>
      </g>
     </g>
    </g>
    <g id="g4031" transform="matrix(.32980 0 0 .32980 183.07 59.837)">
     <g id="g4033" transform="translate(-696.92 42.622)">
      <path id="path4035" d="m51.789 625.96 82.843-81.324h135.88l-83.198 81.324z" transform="matrix(1.3571 0 0 1.3571 895.91 -503.35)" filter="url(#filter5066)" stroke="#000" stroke-width="1px" fill="#4d4d4d"/>
      <g id="g4037" transform="translate(264.76 34.823)">
       <path id="path4039" d="m785.71 118.97-56.595 55.714c-13.78 13.566-14.306 19.132-14.306 37.313v32.272c-2.6592 52.948 4.6283 54.857 49.695 54.857h107.79c19.516 0 24.204-2.2219 37.227-15.041l48.47-47.709c17.801-17.521 18.863-31.451 18.863-52.778v-39.372c0-38.514-11.312-36.789-41.308-36.789h-118.11c-16.409 0-20.823 0.8042-31.72 11.532z" stroke="#000" stroke-width="2.0561" fill="url(#linearGradient3188)"/>
       <path id="path4041" d="m754.82 188.76h95.525c42.501 0 43.89 9.7125 43.89 43.244v29.69c0 42.939-17.176 37.435-49.699 37.435h-81.325c-44.393 0-48.408-5.681-48.408-41.308v-29.045c0-39.879 7.8844-40.017 40.017-40.017z" stroke="#000" stroke-width="2.0561" fill="#ececec"/>
       <path id="path4043" d="m777.99 170.16s6.558 8.0583 23.479 9.0804 49.978-10.538 39.949-34.39c-3.8382 16.999-35.223 28.185-40.054 15.983l11.687-4.6633-38.897-1.5406-7.8491 20.194zm47.931-50.957s-18.258-0.10479-31.258 6.9215-15.007 25.757 32.804 30.172c-26.78-7.9534-25.238-25.814-0.97646-23.424l0.28488 6.8345 28.489-16.451-29.629-10.888zm63.511 35.007s8.9226-8.8418 1.6918-16.207c-7.2308-7.3651-42.103-11.16-73.389 11.37 28.008-11.794 61.438-8.3552 45.277 3.0546l-13.21-0.89124 17.86 16.299 34.981-12.734z" filter="url(#filter6096)" fill="#0097e1"/>
       <text id="text4045" style="word-spacing:0px;letter-spacing:0px" font-weight="500" font-size="5.757px" line-height="125%" y="256.41434" x="785.99768" font-family="Round Up" xml:space="preserve" fill="#000000"><tspan id="tspan4047" font-weight="bold" font-size="41.121px" y="256.41434" x="785.99768" font-family="FreeSans">B</tspan></text>
       <path id="path4049" d="m714.91 266.19 47.156 0.14073h107.79c19.516 0 24.295-1.8096 37.227-14.721l69.77-69.654" stroke="#000" stroke-dasharray="8.22422762, 4.11211381" stroke-width="2.0561" fill="none"/>
       <path id="path4051" d="m714.91 220.95 47.156 0.14072h107.79c19.516 0 24.295-1.8096 37.227-14.721l69.77-69.654" stroke="#000" stroke-dasharray="8.22422762, 4.11211381" stroke-width="2.0561" fill="none"/>
      </g>
     </g>
    </g>
    <g id="g4057" transform="matrix(.32980 0 0 .32980 416.92 59.837)">
     <g id="g4059" transform="translate(-696.92 42.622)">
      <path id="path4061" d="m51.789 625.96 82.843-81.324h135.88l-83.198 81.324z" transform="matrix(1.3571 0 0 1.3571 895.91 -503.35)" filter="url(#filter5066)" stroke="#000" stroke-width="1px" fill="#4d4d4d"/>
      <g id="g4063" transform="translate(264.76 34.823)">
       <path id="path4065" d="m785.71 118.97-56.595 55.714c-13.78 13.566-14.306 19.132-14.306 37.313v32.272c-2.6592 52.948 4.6283 54.857 49.695 54.857h107.79c19.516 0 24.204-2.2219 37.227-15.041l48.47-47.709c17.801-17.521 18.863-31.451 18.863-52.778v-39.372c0-38.514-11.312-36.789-41.308-36.789h-118.11c-16.409 0-20.823 0.8042-31.72 11.532z" stroke="#000" stroke-width="2.0561" fill="url(#linearGradient3188)"/>
       <path id="path4067" d="m754.82 188.76h95.525c42.501 0 43.89 9.7125 43.89 43.244v29.69c0 42.939-17.176 37.435-49.699 37.435h-81.325c-44.393 0-48.408-5.681-48.408-41.308v-29.045c0-39.879 7.8844-40.017 40.017-40.017z" stroke="#000" stroke-width="2.0561" fill="#ececec"/>
       <path id="path4069" d="m777.99 170.16s6.558 8.0583 23.479 9.0804 49.978-10.538 39.949-34.39c-3.8382 16.999-35.223 28.185-40.054 15.983l11.687-4.6633-38.897-1.5406-7.8491 20.194zm47.931-50.957s-18.258-0.10479-31.258 6.9215-15.007 25.757 32.804 30.172c-26.78-7.9534-25.238-25.814-0.97646-23.424l0.28488 6.8345 28.489-16.451-29.629-10.888zm63.511 35.007s8.9226-8.8418 1.6918-16.207c-7.2308-7.3651-42.103-11.16-73.389 11.37 28.008-11.794 61.438-8.3552 45.277 3.0546l-13.21-0.89124 17.86 16.299 34.981-12.734z" filter="url(#filter6096)" fill="#0097e1"/>
       <text id="text4071" style="word-spacing:0px;letter-spacing:0px" font-weight="500" xml:space="preserve" font-size="5.757px" line-height="125%" y="256.41434" x="785.99768" font-family="Round Up" fill="#000000"><tspan id="tspan4073" font-weight="bold" font-size="41.121px" y="256.41434" x="785.99768" font-family="FreeSans">C</tspan></text>
       <path id="path4075" d="m714.91 266.19 47.156 0.14073h107.79c19.516 0 24.295-1.8096 37.227-14.721l69.77-69.654" stroke="#000" stroke-dasharray="8.22422762, 4.11211381" stroke-width="2.0561" fill="none"/>
       <path id="path4077" d="m714.91 220.95 47.156 0.14072h107.79c19.516 0 24.295-1.8096 37.227-14.721l69.77-69.654" stroke="#000" stroke-dasharray="8.22422762, 4.11211381" stroke-width="2.0561" fill="none"/>
      </g>
     </g>
    </g>
    <g id="g4083" transform="matrix(.32980 0 0 .32980 -50.775 201.38)">
     <g id="g4085" transform="translate(-696.92 42.622)">
      <path id="path4087" d="m51.789 625.96 82.843-81.324h135.88l-83.198 81.324z" transform="matrix(1.3571 0 0 1.3571 895.91 -503.35)" filter="url(#filter5066)" stroke="#000" stroke-width="1px" fill="#4d4d4d"/>
      <g id="g4089" transform="translate(264.76 34.823)">
       <path id="path4091" d="m785.71 118.97-56.595 55.714c-13.78 13.566-14.306 19.132-14.306 37.313v32.272c-2.6592 52.948 4.6283 54.857 49.695 54.857h107.79c19.516 0 24.204-2.2219 37.227-15.041l48.47-47.709c17.801-17.521 18.863-31.451 18.863-52.778v-39.372c0-38.514-11.312-36.789-41.308-36.789h-118.11c-16.409 0-20.823 0.8042-31.72 11.532z" stroke="#000" stroke-width="2.0561" fill="url(#linearGradient3188)"/>
       <path id="path4093" d="m754.82 188.76h95.525c42.501 0 43.89 9.7125 43.89 43.244v29.69c0 42.939-17.176 37.435-49.699 37.435h-81.325c-44.393 0-48.408-5.681-48.408-41.308v-29.045c0-39.879 7.8844-40.017 40.017-40.017z" stroke="#000" stroke-width="2.0561" fill="#ececec"/>
       <path id="path4095" d="m777.99 170.16s6.558 8.0583 23.479 9.0804 49.978-10.538 39.949-34.39c-3.8382 16.999-35.223 28.185-40.054 15.983l11.687-4.6633-38.897-1.5406-7.8491 20.194zm47.931-50.957s-18.258-0.10479-31.258 6.9215-15.007 25.757 32.804 30.172c-26.78-7.9534-25.238-25.814-0.97646-23.424l0.28488 6.8345 28.489-16.451-29.629-10.888zm63.511 35.007s8.9226-8.8418 1.6918-16.207c-7.2308-7.3651-42.103-11.16-73.389 11.37 28.008-11.794 61.438-8.3552 45.277 3.0546l-13.21-0.89124 17.86 16.299 34.981-12.734z" filter="url(#filter6096)" fill="#0097e1"/>
       <text id="text4097" style="word-spacing:0px;letter-spacing:0px" font-weight="500" font-size="5.757px" line-height="125%" y="256.41434" x="785.99768" font-family="Round Up" xml:space="preserve" fill="#000000"><tspan id="tspan4099" font-weight="bold" font-size="41.121px" y="256.41434" x="785.99768" font-family="FreeSans">D</tspan></text>
       <path id="path4101" d="m714.91 266.19 47.156 0.14073h107.79c19.516 0 24.295-1.8096 37.227-14.721l69.77-69.654" stroke="#000" stroke-dasharray="8.22422762, 4.11211381" stroke-width="2.0561" fill="none"/>
       <path id="path4103" d="m714.91 220.95 47.156 0.14072h107.79c19.516 0 24.295-1.8096 37.227-14.721l69.77-69.654" stroke="#000" stroke-dasharray="8.22422762, 4.11211381" stroke-width="2.0561" fill="none"/>
      </g>
     </g>
    </g>
    <g id="g4107" transform="matrix(.32980 0 0 .32980 183.07 201.38)">
     <g id="g4109" transform="translate(-696.92 42.622)">
      <path id="path4111" d="m51.789 625.96 82.843-81.324h135.88l-83.198 81.324z" transform="matrix(1.3571 0 0 1.3571 895.91 -503.35)" filter="url(#filter5066)" stroke="#000" stroke-width="1px" fill="#4d4d4d"/>
      <g id="g4113" transform="translate(264.76 34.823)">
       <path id="path4115" d="m785.71 118.97-56.595 55.714c-13.78 13.566-14.306 19.132-14.306 37.313v32.272c-2.6592 52.948 4.6283 54.857 49.695 54.857h107.79c19.516 0 24.204-2.2219 37.227-15.041l48.47-47.709c17.801-17.521 18.863-31.451 18.863-52.778v-39.372c0-38.514-11.312-36.789-41.308-36.789h-118.11c-16.409 0-20.823 0.8042-31.72 11.532z" stroke="#000" stroke-width="2.0561" fill="url(#linearGradient3188)"/>
       <path id="path4117" d="m754.82 188.76h95.525c42.501 0 43.89 9.7125 43.89 43.244v29.69c0 42.939-17.176 37.435-49.699 37.435h-81.325c-44.393 0-48.408-5.681-48.408-41.308v-29.045c0-39.879 7.8844-40.017 40.017-40.017z" stroke="#000" stroke-width="2.0561" fill="#ececec"/>
       <path id="path4119" d="m777.99 170.16s6.558 8.0583 23.479 9.0804 49.978-10.538 39.949-34.39c-3.8382 16.999-35.223 28.185-40.054 15.983l11.687-4.6633-38.897-1.5406-7.8491 20.194zm47.931-50.957s-18.258-0.10479-31.258 6.9215-15.007 25.757 32.804 30.172c-26.78-7.9534-25.238-25.814-0.97646-23.424l0.28488 6.8345 28.489-16.451-29.629-10.888zm63.511 35.007s8.9226-8.8418 1.6918-16.207c-7.2308-7.3651-42.103-11.16-73.389 11.37 28.008-11.794 61.438-8.3552 45.277 3.0546l-13.21-0.89124 17.86 16.299 34.981-12.734z" filter="url(#filter6096)" fill="#0097e1"/>
       <text id="text4121" style="word-spacing:0px;letter-spacing:0px" font-weight="500" xml:space="preserve" font-size="5.757px" line-height="125%" y="256.41434" x="785.99768" font-family="Round Up" fill="#000000"><tspan id="tspan4123" font-weight="bold" font-size="41.121px" y="256.41434" x="785.99768" font-family="FreeSans">E</tspan></text>
       <path id="path4125" d="m714.91 266.19 47.156 0.14073h107.79c19.516 0 24.295-1.8096 37.227-14.721l69.77-69.654" stroke="#000" stroke-dasharray="8.22422762, 4.11211381" stroke-width="2.0561" fill="none"/>
       <path id="path4127" d="m714.91 220.95 47.156 0.14072h107.79c19.516 0 24.295-1.8096 37.227-14.721l69.77-69.654" stroke="#000" stroke-dasharray="8.22422762, 4.11211381" stroke-width="2.0561" fill="none"/>
      </g>
     </g>
    </g>
   </g>
   <g id="g4001" transform="translate(-5.4393 -77.704)">
    <rect id="rect3985" height="83.516" width="94.78" stroke="#000" stroke-miterlimit="0" y="123.79" x="45.055" stroke-width=".5" fill="none"/>
    <text id="text3987" style="word-spacing:0px;letter-spacing:0px" xml:space="preserve" font-size="9.9479px" line-height="125%" y="137.00856" x="52.061707" font-family="FreeSans" fill="#000000"><tspan id="tspan3989" y="137.00856" x="52.061707" font-weight="bold">Routing table</tspan><tspan id="tspan3991" y="149.44348" x="52.061707">A : Local</tspan><tspan id="tspan3993" y="161.8784" x="52.061707">D : South</tspan><tspan id="tspan3995" y="174.31334" x="52.061707">B : East</tspan><tspan id="tspan3997" y="186.74826" x="52.061707">C : East [via B]</tspan><tspan id="tspan3999" y="199.18318" x="52.061707">E: East [via B]</tspan></text>
   </g>
   <g id="g4088" transform="translate(32.636 -57.501)">
    <g id="g4039" transform="translate(-38.075 117.33)">
     <rect id="rect4041" height="83.516" width="94.78" stroke="#000" stroke-miterlimit="0" y="123.79" x="45.055" stroke-width=".5" fill="none"/>
    </g>
    <text id="text4058" style="word-spacing:0px;letter-spacing:0px" font-weight="bold" xml:space="preserve" font-size="9.9479px" y="256.67279" x="12.432646" font-family="FreeSans" line-height="125%" fill="#000000"><tspan id="tspan4060" x="12.432646" y="256.67279">Routing table</tspan><tspan id="tspan4062" x="12.432646" y="269.10773">A : North</tspan><tspan id="tspan4064" x="12.432646" y="281.54263">B : North [via A]</tspan><tspan id="tspan4066" x="12.432646" y="293.97757">C : East [via E]</tspan><tspan id="tspan4068" x="12.432646" y="306.41248">D : Local</tspan><tspan id="tspan4070" x="12.432646" y="318.84741">E : East</tspan></text>
   </g>
   <g id="g4172">
    <g id="g4084" transform="translate(280.51 -99.461)">
     <rect id="rect4086" height="83.516" width="94.78" stroke="#000" stroke-miterlimit="0" y="123.79" x="45.055" stroke-width=".5" fill="none"/>
    </g>
    <text id="text4099" style="word-spacing:0px;letter-spacing:0px" font-weight="bold" xml:space="preserve" font-size="9.9479px" y="38.324436" x="332.5733" font-family="FreeSans" line-height="125%" fill="#000000"><tspan id="tspan4101" x="332.5733" y="38.324436">Routing table</tspan><tspan id="tspan4103" x="332.5733" y="50.759361">A : West</tspan><tspan id="tspan4105" x="332.5733" y="63.194286">B : Local</tspan><tspan id="tspan4107" x="332.5733" y="75.629204">C : East</tspan><tspan id="tspan4109" x="332.5733" y="88.064133">D : South [via E]</tspan><tspan id="tspan4111" x="332.5733" y="100.49905">E : South </tspan></text>
   </g>
   <g id="g4161">
    <g id="g4114" transform="translate(514.4 -99.461)">
     <rect id="rect4116" height="83.516" width="94.78" stroke="#000" stroke-miterlimit="0" y="123.79" x="45.055" stroke-width=".5" fill="none"/>
    </g>
    <text id="text4118" style="word-spacing:0px;letter-spacing:0px" font-weight="bold" xml:space="preserve" font-size="9.9479px" y="38.324436" x="566.46246" font-family="FreeSans" line-height="125%" fill="#000000"><tspan id="tspan4120" x="566.46246" y="38.324436">Routing table</tspan><tspan id="tspan4122" x="566.46246" y="50.759361">A : West [via B]</tspan><tspan id="tspan4124" x="566.46246" y="63.194286">B : West</tspan><tspan id="tspan4126" x="566.46246" y="75.629211">C : Local</tspan><tspan id="tspan4128" x="566.46246" y="88.064133">D : West [via B]</tspan><tspan id="tspan4130" x="566.46246" y="100.49905">E : South West</tspan></text>
   </g>
   <g id="g4150" transform="translate(2.777 -20.98)">
    <g id="g4132" transform="translate(417.27 123.55)">
     <rect id="rect4134" height="83.516" width="94.78" stroke="#000" stroke-miterlimit="0" y="123.79" x="45.055" stroke-width=".5" fill="none"/>
    </g>
    <text id="text4136" style="word-spacing:0px;letter-spacing:0px" font-weight="bold" xml:space="preserve" font-size="9.9479px" y="261.33505" x="470.10944" font-family="FreeSans" line-height="125%" fill="#000000"><tspan id="tspan4138" x="470.10944" y="261.33505">Routing table</tspan><tspan id="tspan4140" x="470.10944" y="273.76999">A : North [via B]</tspan><tspan id="tspan4142" x="470.10944" y="286.2049">B : North</tspan><tspan id="tspan4144" x="470.10944" y="298.63983">C : North-East</tspan><tspan id="tspan4146" x="470.10944" y="311.07474">D : West</tspan><tspan id="tspan4148" x="470.10944" y="323.50967">E : Local</tspan></text>
   </g>
   <text id="text4183" style="word-spacing:0px;letter-spacing:0px" line-height="125%" font-weight="bold" font-size="9.9479px" y="264.44321" x="251.76109" font-family="FreeSans" xml:space="preserve" fill="#000000"><tspan id="tspan4185" y="264.44321" x="251.76109">Cost = 1</tspan></text>
   <text id="text4187" style="word-spacing:0px;letter-spacing:0px" font-weight="bold" xml:space="preserve" font-size="9.9479px" y="157.98868" x="247.09885" font-family="FreeSans" line-height="125%" fill="#000000"><tspan id="tspan4189" x="247.09885" y="157.98868">Cost = 1</tspan></text>
   <text id="text4191" style="word-spacing:0px;letter-spacing:0px" font-weight="bold" xml:space="preserve" font-size="9.9479px" y="219.37486" x="178.7193" font-family="FreeSans" line-height="125%" fill="#000000"><tspan id="tspan4193" x="178.7193" y="219.37486">Cost = 1</tspan></text>
   <text id="text4195" style="word-spacing:0px;letter-spacing:0px" line-height="125%" font-weight="bold" font-size="9.9479px" y="157.98868" x="427.37222" font-family="FreeSans" xml:space="preserve" fill="#000000"><tspan id="tspan4197" y="157.98868" x="427.37222">Cost = 1</tspan></text>
   <text id="text4199" style="word-spacing:0px;letter-spacing:0px" font-weight="bold" xml:space="preserve" font-size="9.9479px" y="221.70599" x="331.79626" font-family="FreeSans" line-height="125%" fill="#000000"><tspan id="tspan4201" x="331.79626" y="221.70599">Cost = 1</tspan></text>
   <text id="text4203" style="word-spacing:0px;letter-spacing:0px" line-height="125%" font-weight="bold" font-size="9.9479px" y="220.15192" x="431.25745" font-family="FreeSans" xml:space="preserve" fill="#000000"><tspan id="tspan4205" y="220.15192" x="431.25745">Cost = 1</tspan></text>
  </g>
 </g>
</svg>
