<?xml version="1.0" encoding="UTF-8" standalone="no"?>
<!-- Created with Inkscape (http://www.inkscape.org/) -->
<svg id="svg21288" xmlns:rdf="http://www.w3.org/1999/02/22-rdf-syntax-ns#" xmlns="http://www.w3.org/2000/svg" height="300" width="600" version="1.1" xmlns:cc="http://creativecommons.org/ns#" xmlns:dc="http://purl.org/dc/elements/1.1/">
 <defs id="defs21290">
  <marker id="Arrow2Send" refY="0.0" refX="0.0" orient="auto" overflow="visible">
   <path id="path18838" stroke-linejoin="round" d="m8.7186 4.0337l-10.926-4.0177 10.926-4.0177c-1.7455 2.3721-1.7355 5.6174 0 8.0354z" fill-rule="evenodd" transform="scale(.3) rotate(180) translate(-2.3)" stroke-width=".625"/>
  </marker>
  <marker id="Arrow2Mstart" refY="0.0" refX="0.0" orient="auto" overflow="visible">
   <path id="path18829" stroke-linejoin="round" d="m8.7186 4.0337l-10.926-4.0177 10.926-4.0177c-1.7455 2.3721-1.7355 5.6174 0 8.0354z" fill-rule="evenodd" transform="scale(.6) translate(0)" stroke-width=".625"/>
  </marker>
  <marker id="Arrow2Mend" refY="0.0" refX="0.0" orient="auto" overflow="visible">
   <path id="path18832" stroke-linejoin="round" d="m8.7186 4.0337l-10.926-4.0177 10.926-4.0177c-1.7455 2.3721-1.7355 5.6174 0 8.0354z" fill-rule="evenodd" transform="scale(.6) rotate(180) translate(0)" stroke-width=".625"/>
  </marker>
 </defs>
 <metadata id="metadata21293">
  <rdf:RDF>
   <cc:Work rdf:about="">
    <dc:format>image/svg+xml</dc:format>
    <dc:type rdf:resource="http://purl.org/dc/dcmitype/StillImage"/>
    <dc:title/>
   </cc:Work>
  </rdf:RDF>
 </metadata>
 <g id="layer1" transform="translate(0 -752.36)">
  <g id="g22622">
   <rect id="rect19992" opacity=".87917" height="221.01" width="288.41" y="790.35" x="126.3" fill="#efecec"/>
   <path id="path18290" d="m125.03 781.66v258.7" marker-start="url(#Arrow2Mstart)" stroke="#000" stroke-width="1px" fill="none"/>
   <g id="g20192" fill="#fff" transform="matrix(1.4617 0 0 1.3069 55.843 -240.37)">
    <path id="path19994" d="m48.502 955.26 50.049-51.41-50.725-48.59z"/>
    <path id="path19996" d="m152.9 953.86-51.41-50.05-48.591 50.73z"/>
   </g>
   <path id="path19990" d="m352.73 791.64-226.42 220.66" stroke="#000" stroke-dasharray="4, 4" fill="none"/>
   <path id="path20002" marker-end="url(#Arrow2Mend)" d="m108.36 1011.6h311.41" stroke="#000" stroke-width=".97186px" fill="none"/>
   <path id="path20222" d="m72.464 214.86c0 3.802-3.2443 6.8841-7.2464 6.8841s-7.2464-3.0821-7.2464-6.8841 3.2443-6.8841 7.2464-6.8841 7.2464 3.0821 7.2464 6.8841z" transform="translate(146.06 737.1)" stroke="#ccc"/>
   <path id="path20224" d="m72.464 214.86c0 3.802-3.2443 6.8841-7.2464 6.8841s-7.2464-3.0821-7.2464-6.8841 3.2443-6.8841 7.2464-6.8841 7.2464 3.0821 7.2464 6.8841z" transform="translate(71.189 761.2)" stroke="#ccc"/>
   <path id="path20226" d="m120.45 873.36h10.145" stroke="#000" stroke-width="1px" fill="none"/>
   <text id="text20236" style="word-spacing:0px;letter-spacing:0px" line-height="125%" font-weight="bold" font-size="14px" y="866.83466" x="62.317253" font-family="FreeSans" xml:space="preserve" fill="#000000"><tspan id="tspan20240" y="866.83466" x="62.317253">2 Mbps</tspan></text>
   <text id="text20244" style="word-spacing:0px;letter-spacing:0px" line-height="125%" font-weight="bold" font-size="14px" y="772.96173" x="93.143486" font-family="FreeSans" xml:space="preserve" fill="#000000"><tspan id="tspan20246" y="772.96173" x="93.143486">Host A Rate</tspan></text>
   <text id="text20248" style="word-spacing:0px;letter-spacing:0px" line-height="125%" font-weight="bold" font-size="14px" y="1027.5961" x="391.5257" font-family="FreeSans" xml:space="preserve" fill="#000000"><tspan id="tspan20250" y="1027.5961" x="391.5257">Host B Rate</tspan></text>
   <text id="text20258" style="word-spacing:0px;letter-spacing:0px" font-weight="bold" xml:space="preserve" font-size="14px" y="1028.2639" x="256.90445" font-family="FreeSans" line-height="125%" fill="#000000"><tspan id="tspan20260" x="256.90445" y="1028.2639">2 Mbps</tspan></text>
   <path id="path21671" d="m72.464 214.86c0 3.802-3.2443 6.8841-7.2464 6.8841s-7.2464-3.0821-7.2464-6.8841 3.2443-6.8841 7.2464-6.8841 7.2464 3.0821 7.2464 6.8841z" transform="translate(106.83 783.97)" stroke="#ccc"/>
   <path id="path21673" d="m279.66 1010.3-153.46-136.63" stroke="#000" stroke-width="1px" fill="none"/>
   <path id="path21675" d="m279.7 262.38v-8.9109" transform="translate(0 752.36)" stroke="#000" stroke-width="1px" fill="none"/>
   <path id="path21677" d="m72.464 214.86c0 3.802-3.2443 6.8841-7.2464 6.8841s-7.2464-3.0821-7.2464-6.8841 3.2443-6.8841 7.2464-6.8841 7.2464 3.0821 7.2464 6.8841z" transform="translate(80.717 702.94)" stroke="#ccc"/>
   <path id="path21679" d="m72.464 214.86c0 3.802-3.2443 6.8841-7.2464 6.8841s-7.2464-3.0821-7.2464-6.8841 3.2443-6.8841 7.2464-6.8841 7.2464 3.0821 7.2464 6.8841z" transform="translate(109.43 724.22)" stroke="#ccc"/>
   <path id="path21681" d="m72.464 214.86c0 3.802-3.2443 6.8841-7.2464 6.8841s-7.2464-3.0821-7.2464-6.8841 3.2443-6.8841 7.2464-6.8841 7.2464 3.0821 7.2464 6.8841z" transform="translate(141.11 705.41)" stroke="#ccc"/>
   <path id="path21683" d="m72.464 214.86c0 3.802-3.2443 6.8841-7.2464 6.8841s-7.2464-3.0821-7.2464-6.8841 3.2443-6.8841 7.2464-6.8841 7.2464 3.0821 7.2464 6.8841z" transform="translate(122.3 672.24)" stroke="#ccc"/>
   <path id="path21685" marker-end="url(#Arrow2Send)" d="m125.74 258.42 39.61-8.42" transform="translate(0 752.36)" stroke="#000" stroke-width="1px" fill="none"/>
   <path id="path21687" marker-end="url(#Arrow2Send)" d="m169.8 245.05-27.23-17.33" transform="translate(0 752.36)" stroke="#000" stroke-width="1px" fill="none"/>
   <path id="path21689" marker-end="url(#Arrow2Send)" d="m136.63 217.82 7.4258-46.04" transform="translate(0 752.36)" stroke="#000" stroke-width="1px" fill="none"/>
   <path id="path21691" marker-end="url(#Arrow2Send)" d="m149.01 159.9 33.168-19.307" transform="translate(0 752.36)" stroke="#000" stroke-width="1px" fill="none"/>
   <path id="path21693" marker-end="url(#Arrow2Send)" d="m185.64 140.59-8.4158 39.604" transform="translate(0 752.36)" stroke="#000" stroke-width="1px" fill="none"/>
   <path id="path21695" marker-end="url(#Arrow2Send)" d="m179.7 183.17 20.3-11.39" transform="translate(0 752.36)" stroke="#000" stroke-width="1px" fill="none"/>
   <path id="path21697" marker-end="url(#Arrow2Send)" d="m207.43 173.27 1.9802 18.812" transform="translate(0 752.36)" stroke="#000" stroke-width="1px" fill="none"/>
  </g>
 </g>
</svg>
