<?xml version="1.0" encoding="UTF-8" standalone="no"?>
<!-- Created with Inkscape (http://www.inkscape.org/) -->
<svg id="svg18276" xmlns:rdf="http://www.w3.org/1999/02/22-rdf-syntax-ns#" xmlns="http://www.w3.org/2000/svg" height="400" width="600" version="1.1" xmlns:cc="http://creativecommons.org/ns#" xmlns:dc="http://purl.org/dc/elements/1.1/">
 <defs id="defs18278">
  <marker id="Arrow2Mend" refY="0.0" refX="0.0" orient="auto" overflow="visible">
   <path id="path18832" stroke-linejoin="round" d="m8.7186 4.0337l-10.926-4.0177 10.926-4.0177c-1.7455 2.3721-1.7355 5.6174 0 8.0354z" fill-rule="evenodd" transform="scale(.6) rotate(180) translate(0)" stroke-width=".625"/>
  </marker>
  <marker id="Arrow2Mstart" refY="0.0" refX="0.0" orient="auto" overflow="visible">
   <path id="path18829" stroke-linejoin="round" d="m8.7186 4.0337l-10.926-4.0177 10.926-4.0177c-1.7455 2.3721-1.7355 5.6174 0 8.0354z" fill-rule="evenodd" transform="scale(.6) translate(0)" stroke-width=".625"/>
  </marker>
 </defs>
 <metadata id="metadata18281">
  <rdf:RDF>
   <cc:Work rdf:about="">
    <dc:format>image/svg+xml</dc:format>
    <dc:type rdf:resource="http://purl.org/dc/dcmitype/StillImage"/>
    <dc:title/>
   </cc:Work>
  </rdf:RDF>
 </metadata>
 <g id="layer1" transform="translate(0 -652.36)">
  <g id="g21296">
   <rect id="rect19992" opacity=".87917" height="221.01" width="288.41" y="727.72" x="146.93" fill="#efecec"/>
   <path id="path18290" d="m145.65 719.03v258.7" marker-start="url(#Arrow2Mstart)" stroke="#000" stroke-width="1px" fill="none"/>
   <path id="path19988" d="m144.93 845.12 110.14 105.07" stroke="#000" stroke-width="1px" fill="none"/>
   <path id="path19990" d="m373.35 729.01-226.41 220.62" stroke="#000" stroke-dasharray="4, 4" fill="none"/>
   <g id="g20192" fill="#fff" transform="translate(98.551 -5.7971)">
    <path id="path19994" d="m48.502 955.26 50.049-51.41-50.725-48.59z"/>
    <path id="path19996" d="m152.9 953.86-51.41-50.05-48.591 50.73z"/>
   </g>
   <path id="path20002" marker-end="url(#Arrow2Mend)" d="m128.99 949.46h311.41" stroke="#000" stroke-width=".97186px" fill="none"/>
   <path id="path20196" d="m72.464 214.86c0 3.802-3.2443 6.8841-7.2464 6.8841s-7.2464-3.0821-7.2464-6.8841 3.2443-6.8841 7.2464-6.8841 7.2464 3.0821 7.2464 6.8841z" transform="translate(97.826 647.29)" stroke="#ccc" fill="#ccc"/>
   <path id="path20220" d="m72.464 214.86c0 3.802-3.2443 6.8841-7.2464 6.8841s-7.2464-3.0821-7.2464-6.8841 3.2443-6.8841 7.2464-6.8841 7.2464 3.0821 7.2464 6.8841z" transform="translate(134.06 682.07)" stroke="#ccc" fill="#ccc"/>
   <path id="path20222" d="m72.464 214.86c0 3.802-3.2443 6.8841-7.2464 6.8841s-7.2464-3.0821-7.2464-6.8841 3.2443-6.8841 7.2464-6.8841 7.2464 3.0821 7.2464 6.8841z" transform="translate(205.8 689.32)" stroke="#ccc"/>
   <path id="path20224" d="m72.464 214.86c0 3.802-3.2443 6.8841-7.2464 6.8841s-7.2464-3.0821-7.2464-6.8841 3.2443-6.8841 7.2464-6.8841 7.2464 3.0821 7.2464 6.8841z" transform="translate(100.72 715.41)" stroke="#ccc"/>
   <path id="path20226" d="m140.58 844.39h10.145" stroke="#000" stroke-width="1px" fill="none"/>
   <path id="path20228" d="m254.35 944.39 0.72464 7.971" stroke="#000" stroke-width="1px" fill="none"/>
   <text id="text20230" style="word-spacing:0px;letter-spacing:0px" line-height="125%" font-weight="bold" font-size="14px" y="894.72821" x="62.538544" font-family="FreeSans" xml:space="preserve" fill="#000000"><tspan id="tspan20232" y="894.72821" x="62.538544">Fairness </tspan><tspan id="tspan20234" y="912.22821" x="62.538544">line</tspan></text>
   <text id="text20236" style="word-spacing:0px;letter-spacing:0px" line-height="125%" font-weight="bold" font-size="14px" y="837.86945" x="82.347816" font-family="FreeSans" xml:space="preserve" fill="#000000"><tspan id="tspan20240" y="837.86945" x="82.347816">2 Mbps</tspan></text>
   <text id="text20244" style="word-spacing:0px;letter-spacing:0px" line-height="125%" font-weight="bold" font-size="14px" y="710.33319" x="113.76811" font-family="FreeSans" xml:space="preserve" fill="#000000"><tspan id="tspan20246" y="710.33319" x="113.76811">Host A Rate</tspan></text>
   <text id="text20248" style="word-spacing:0px;letter-spacing:0px" line-height="125%" font-weight="bold" font-size="14px" y="964.96747" x="412.1503" font-family="FreeSans" xml:space="preserve" fill="#000000"><tspan id="tspan20250" y="964.96747" x="412.1503">Host B Rate</tspan></text>
   <text id="text20252" style="word-spacing:0px;letter-spacing:0px" line-height="125%" font-weight="bold" font-size="14px" y="867.63019" x="290.46182" font-family="FreeSans" xml:space="preserve" fill="#000000"><tspan id="tspan20254" y="867.63019" x="290.46182">Congested</tspan><tspan id="tspan20256" y="885.13019" x="290.46182">region</tspan></text>
   <text id="text20258" style="word-spacing:0px;letter-spacing:0px" font-weight="bold" xml:space="preserve" font-size="14px" y="966.13031" x="247.82608" font-family="FreeSans" line-height="125%" fill="#000000"><tspan id="tspan20260" x="247.82608" y="966.13031">2 Mbps</tspan></text>
   <text id="text20262" style="word-spacing:0px;letter-spacing:0px" line-height="125%" font-weight="bold" font-size="14px" y="994.3078" x="159.87288" font-family="FreeSans" xml:space="preserve" fill="#000000"><tspan id="tspan20264" y="994.3078" x="159.87288">Efficiency line</tspan></text>
   <path id="path20266" marker-end="url(#Arrow2Mend)" d="m183.72 986.57 52.789-54.642" stroke="#000" stroke-width=".5" fill="none"/>
   <path id="path20268" marker-end="url(#Arrow2Mend)" d="m100.03 249.95 50.909 41.085" transform="translate(0 652.36)" stroke="#000" stroke-width=".5" fill="none"/>
  </g>
 </g>
</svg>
