<?xml version="1.0" encoding="UTF-8" standalone="no"?>
<!-- Created with Inkscape (http://www.inkscape.org/) -->

<svg
   xmlns:dc="http://purl.org/dc/elements/1.1/"
   xmlns:cc="http://creativecommons.org/ns#"
   xmlns:rdf="http://www.w3.org/1999/02/22-rdf-syntax-ns#"
   xmlns:svg="http://www.w3.org/2000/svg"
   xmlns="http://www.w3.org/2000/svg"
   xmlns:xlink="http://www.w3.org/1999/xlink"
   xmlns:sodipodi="http://sodipodi.sourceforge.net/DTD/sodipodi-0.dtd"
   xmlns:inkscape="http://www.inkscape.org/namespaces/inkscape"
   id="svg2"
   viewBox="0 0 619.52114 315.15626"
   version="1.1"
   inkscape:version="0.48.1 r9760"
   width="100%"
   height="100%"
   sodipodi:docname="dv-failure-1.svg">
  <sodipodi:namedview
     pagecolor="#ffffff"
     bordercolor="#666666"
     borderopacity="1"
     objecttolerance="10"
     gridtolerance="10"
     guidetolerance="10"
     inkscape:pageopacity="0"
     inkscape:pageshadow="2"
     inkscape:window-width="640"
     inkscape:window-height="480"
     id="namedview3378"
     showgrid="false"
     fit-margin-top="0"
     fit-margin-left="0"
     fit-margin-right="0"
     fit-margin-bottom="0"
     inkscape:zoom="0.24895477"
     inkscape:cx="314.95124"
     inkscape:cy="-113.88749"
     inkscape:window-x="0"
     inkscape:window-y="0"
     inkscape:window-maximized="0"
     inkscape:current-layer="svg2" />
  <defs
     id="defs4">
    <marker
       id="Arrow1Mend"
       refY="0"
       refX="0"
       orient="auto"
       overflow="visible"
       style="overflow:visible">
      <path
         id="path4221"
         d="M 0,0 5,-5 -12.5,0 5,5 0,0 z"
         transform="matrix(-0.4,0,0,-0.4,-4,0)"
         inkscape:connector-curvature="0"
         style="fill-rule:evenodd;stroke:#000000;stroke-width:1pt" />
    </marker>
    <linearGradient
       id="linearGradient3791-7">
      <stop
         id="stop3793-0"
         stop-color="#c6c6c6"
         offset="0" />
      <stop
         id="stop3799-2"
         stop-color="#fff"
         offset=".60029" />
      <stop
         id="stop3795-9"
         stop-color="#a4a4a4"
         offset="1" />
    </linearGradient>
    <filter
       id="filter6096"
       color-interpolation-filters="sRGB">
      <feGaussianBlur
         id="feGaussianBlur6098"
         stdDeviation="2"
         result="result8" />
      <feOffset
         id="feOffset6100"
         result="result11"
         dx="3"
         dy="3" />
      <feComposite
         id="feComposite6102"
         operator="in"
         result="result6"
         in2="result11"
         in="SourceGraphic" />
      <feFlood
         id="feFlood6104"
         result="result10"
         in="result6"
         flood-color="rgb(0,0,0)" />
      <feBlend
         id="feBlend6106"
         mode="normal"
         result="result12"
         in2="result10"
         in="result6" />
      <feComposite
         id="feComposite6108"
         operator="in"
         result="result2"
         in2="SourceGraphic" />
    </filter>
    <filter
       id="filter5066"
       height="1.3542"
       width="1.1317"
       y="-0.1771"
       x="-0.065847002"
       color-interpolation-filters="sRGB">
      <feGaussianBlur
         id="feGaussianBlur5068"
         stdDeviation="6.0009211" />
    </filter>
    <linearGradient
       id="linearGradient6520"
       y2="237.12"
       xlink:href="#linearGradient3791-7"
       gradientUnits="userSpaceOnUse"
       x2="341.44"
       gradientTransform="translate(617.12,-0.21672)"
       y1="66.831001"
       x1="191.34" />
    <linearGradient
       inkscape:collect="always"
       xlink:href="#linearGradient3791-7"
       id="linearGradient3801"
       gradientUnits="userSpaceOnUse"
       gradientTransform="translate(617.12,-0.21672)"
       x1="191.34"
       y1="66.831001"
       x2="341.44"
       y2="237.12" />
    <linearGradient
       inkscape:collect="always"
       xlink:href="#linearGradient3791-7"
       id="linearGradient3803"
       gradientUnits="userSpaceOnUse"
       gradientTransform="translate(617.12,-0.21672)"
       x1="191.34"
       y1="66.831001"
       x2="341.44"
       y2="237.12" />
    <linearGradient
       inkscape:collect="always"
       xlink:href="#linearGradient3791-7"
       id="linearGradient3805"
       gradientUnits="userSpaceOnUse"
       gradientTransform="translate(617.12,-0.21672)"
       x1="191.34"
       y1="66.831001"
       x2="341.44"
       y2="237.12" />
    <linearGradient
       inkscape:collect="always"
       xlink:href="#linearGradient3791-7"
       id="linearGradient3807"
       gradientUnits="userSpaceOnUse"
       gradientTransform="translate(617.12,-0.21672)"
       x1="191.34"
       y1="66.831001"
       x2="341.44"
       y2="237.12" />
  </defs>
  <metadata
     id="metadata7">
    <rdf:RDF>
      <cc:Work
         rdf:about="">
        <dc:format>image/svg+xml</dc:format>
        <dc:type
           rdf:resource="http://purl.org/dc/dcmitype/StillImage" />
        <dc:title />
      </cc:Work>
    </rdf:RDF>
  </metadata>
  <g
     id="layer1"
     transform="translate(-57.093755,-97.15625)">
    <g
       id="g8348">
      <g
         id="g10514">
        <text
           id="text5136"
           style="font-size:48px;line-height:125%;letter-spacing:0px;word-spacing:0px;fill:#000000;font-family:FreeSans"
           font-size="48px"
           line-height="125%"
           y="292.91492"
           x="610.57544"
           xml:space="preserve"
           sodipodi:linespacing="125%"><tspan
             id="tspan5138"
             x="610.57544"
             y="292.91492" /></text>
        <text
           id="text5136-3"
           style="font-size:48px;line-height:125%;letter-spacing:0px;word-spacing:0px;fill:#000000;font-family:FreeSans"
           xml:space="preserve"
           font-size="48px"
           line-height="125%"
           y="838.08514"
           x="613.39978"
           sodipodi:linespacing="125%"><tspan
             id="tspan5138-2"
             y="838.08514"
             x="613.39978" /></text>
        <path
           id="path4839"
           d="M 384.49,227.05 V 185.867"
           inkscape:connector-curvature="0"
           style="fill:none;stroke:#000000;stroke-width:1px;marker-end:url(#Arrow1Mend)" />
        <path
           id="path4843"
           d="m 184.79,227.39 -30.3,-38.86"
           inkscape:connector-curvature="0"
           style="fill:none;stroke:#000000;stroke-width:1px;marker-end:url(#Arrow1Mend)" />
        <path
           id="path4841"
           d="m 184.01,334.62 -30.3,-39.63"
           inkscape:connector-curvature="0"
           style="fill:none;stroke:#000000;stroke-width:1px;marker-end:url(#Arrow1Mend)" />
        <path
           id="path4655"
           d="M 563.21,225.83 585.74,186.2"
           inkscape:connector-curvature="0"
           style="fill:none;stroke:#000000;stroke-width:1px;marker-end:url(#Arrow1Mend)" />
        <path
           id="path4207"
           d="m 400.81,350.16 h 80.812"
           stroke-miterlimit="3"
           inkscape:connector-curvature="0"
           style="fill:none;stroke:#000000;stroke-miterlimit:3;marker-end:url(#Arrow1Mend)" />
        <path
           id="path4147"
           d="M 408.08,336.77 536.05,248.24"
           inkscape:connector-curvature="0"
           style="fill:none;stroke:#000000;stroke-width:0.73354px" />
        <path
           id="path4145"
           d="m 373.34,259.24 v 65.434"
           inkscape:connector-curvature="0"
           style="fill:none;stroke:#000000;stroke-width:0.73354px" />
        <path
           id="path4143"
           d="M 221.64,344.47 H 351.92"
           inkscape:connector-curvature="0"
           style="fill:none;stroke:#000000;stroke-width:0.73354px" />
        <path
           id="path4141"
           d="M 402.29,241.64 H 532.57"
           inkscape:connector-curvature="0"
           style="fill:none;stroke:#000000;stroke-width:0.73354px" />
        <path
           id="path4139"
           d="m 195,259.79 v 65.434"
           inkscape:connector-curvature="0"
           style="fill:none;stroke:#000000;stroke-width:0.73354px" />
        <path
           id="path4135"
           d="M 221.06,242.74 H 351.34"
           inkscape:connector-curvature="0"
           style="fill:none;stroke:#000000;stroke-width:0.73354px" />
        <g
           id="layer1-9"
           transform="matrix(0.24825,0,0,0.23575,99.459,176.05)">
          <g
             id="g5084"
             transform="translate(-696.92,42.622)">
            <path
               id="path5070"
               d="m 51.789,625.96 82.843,-81.324 h 135.88 l -83.198,81.324 z"
               transform="matrix(1.3571,0,0,1.3571,895.91,-503.35)"
               inkscape:connector-curvature="0"
               style="fill:#4d4d4d;stroke:#000000;stroke-width:1px;filter:url(#filter5066)" />
            <g
               id="g4916"
               transform="translate(264.76,34.823)">
              <path
                 id="path4918"
                 d="m 785.71,118.97 -56.595,55.714 c -13.78,13.566 -14.306,19.132 -14.306,37.313 v 32.272 c -2.6592,52.948 4.6283,54.857 49.695,54.857 h 107.79 c 19.516,0 24.204,-2.2219 37.227,-15.041 l 48.47,-47.709 c 17.801,-17.521 18.863,-31.451 18.863,-52.778 v -39.372 c 0,-38.514 -11.312,-36.789 -41.308,-36.789 h -118.11 c -16.409,0 -20.823,0.8042 -31.72,11.532 z"
                 inkscape:connector-curvature="0"
                 style="fill:url(#linearGradient3801);stroke:#000000;stroke-width:2.05609989" />
              <path
                 id="path4920"
                 d="m 754.82,188.76 h 95.525 c 42.501,0 43.89,9.7125 43.89,43.244 v 29.69 c 0,42.939 -17.176,37.435 -49.699,37.435 h -81.325 c -44.393,0 -48.408,-5.681 -48.408,-41.308 v -29.045 c 0,-39.879 7.8844,-40.017 40.017,-40.017 z"
                 inkscape:connector-curvature="0"
                 style="fill:#ececec;stroke:#000000;stroke-width:2.05609989" />
              <path
                 id="path4922"
                 d="m 777.99,170.16 c 0,0 6.558,8.0583 23.479,9.0804 16.921,1.0221 49.978,-10.538 39.949,-34.39 -3.8382,16.999 -35.223,28.185 -40.054,15.983 l 11.687,-4.6633 -38.897,-1.5406 -7.8491,20.194 z m 47.931,-50.957 c 0,0 -18.258,-0.10479 -31.258,6.9215 -13,7.02629 -15.007,25.757 32.804,30.172 -26.78,-7.9534 -25.238,-25.814 -0.97646,-23.424 l 0.28488,6.8345 28.489,-16.451 -29.629,-10.888 z m 63.511,35.007 c 0,0 8.9226,-8.8418 1.6918,-16.207 -7.2308,-7.3651 -42.103,-11.16 -73.389,11.37 28.008,-11.794 61.438,-8.3552 45.277,3.0546 l -13.21,-0.89124 17.86,16.299 34.981,-12.734 z"
                 inkscape:connector-curvature="0"
                 style="fill:#0097e1;filter:url(#filter6096)" />
              <text
                 id="text4924"
                 style="font-size:5.75699997px;font-weight:500;line-height:125%;letter-spacing:0px;word-spacing:0px;fill:#000000;font-family:Round Up"
                 font-weight="500"
                 xml:space="preserve"
                 font-size="5.757px"
                 line-height="125%"
                 y="256.41434"
                 x="785.99768"
                 sodipodi:linespacing="125%"><tspan
                   id="tspan4926"
                   font-weight="bold"
                   font-size="41.121px"
                   y="256.41434"
                   x="785.99768"
                   style="font-size:41.12099838px;font-weight:bold;fill:#000000;font-family:FreeSans">A</tspan></text>
              <path
                 id="path4928"
                 d="m 714.91,266.19 47.156,0.14073 h 107.79 c 19.516,0 24.295,-1.8096 37.227,-14.721 l 69.77,-69.654"
                 inkscape:connector-curvature="0"
                 style="fill:none;stroke:#000000;stroke-width:2.05609989;stroke-dasharray:8.22422762, 4.11211381" />
              <path
                 id="path4930"
                 d="m 714.91,220.95 47.156,0.14072 h 107.79 c 19.516,0 24.295,-1.8096 37.227,-14.721 l 69.77,-69.654"
                 inkscape:connector-curvature="0"
                 style="fill:none;stroke:#000000;stroke-width:2.05609989;stroke-dasharray:8.22422762, 4.11211381" />
            </g>
          </g>
        </g>
        <g
           id="g4031"
           transform="matrix(0.24825,0,0,0.23575,275.48,176.05)">
          <g
             id="g4033"
             transform="translate(-696.92,42.622)">
            <path
               id="path4035"
               d="m 51.789,625.96 82.843,-81.324 h 135.88 l -83.198,81.324 z"
               transform="matrix(1.3571,0,0,1.3571,895.91,-503.35)"
               inkscape:connector-curvature="0"
               style="fill:#4d4d4d;stroke:#000000;stroke-width:1px;filter:url(#filter5066)" />
            <g
               id="g4037"
               transform="translate(264.76,34.823)">
              <path
                 id="path4039"
                 d="m 785.71,118.97 -56.595,55.714 c -13.78,13.566 -14.306,19.132 -14.306,37.313 v 32.272 c -2.6592,52.948 4.6283,54.857 49.695,54.857 h 107.79 c 19.516,0 24.204,-2.2219 37.227,-15.041 l 48.47,-47.709 c 17.801,-17.521 18.863,-31.451 18.863,-52.778 v -39.372 c 0,-38.514 -11.312,-36.789 -41.308,-36.789 h -118.11 c -16.409,0 -20.823,0.8042 -31.72,11.532 z"
                 inkscape:connector-curvature="0"
                 style="fill:url(#linearGradient3803);stroke:#000000;stroke-width:2.05609989" />
              <path
                 id="path4041"
                 d="m 754.82,188.76 h 95.525 c 42.501,0 43.89,9.7125 43.89,43.244 v 29.69 c 0,42.939 -17.176,37.435 -49.699,37.435 h -81.325 c -44.393,0 -48.408,-5.681 -48.408,-41.308 v -29.045 c 0,-39.879 7.8844,-40.017 40.017,-40.017 z"
                 inkscape:connector-curvature="0"
                 style="fill:#ececec;stroke:#000000;stroke-width:2.05609989" />
              <path
                 id="path4043"
                 d="m 777.99,170.16 c 0,0 6.558,8.0583 23.479,9.0804 16.921,1.0221 49.978,-10.538 39.949,-34.39 -3.8382,16.999 -35.223,28.185 -40.054,15.983 l 11.687,-4.6633 -38.897,-1.5406 -7.8491,20.194 z m 47.931,-50.957 c 0,0 -18.258,-0.10479 -31.258,6.9215 -13,7.02629 -15.007,25.757 32.804,30.172 -26.78,-7.9534 -25.238,-25.814 -0.97646,-23.424 l 0.28488,6.8345 28.489,-16.451 -29.629,-10.888 z m 63.511,35.007 c 0,0 8.9226,-8.8418 1.6918,-16.207 -7.2308,-7.3651 -42.103,-11.16 -73.389,11.37 28.008,-11.794 61.438,-8.3552 45.277,3.0546 l -13.21,-0.89124 17.86,16.299 34.981,-12.734 z"
                 inkscape:connector-curvature="0"
                 style="fill:#0097e1;filter:url(#filter6096)" />
              <text
                 id="text4045"
                 style="font-size:5.75699997px;font-weight:500;line-height:125%;letter-spacing:0px;word-spacing:0px;fill:#000000;font-family:Round Up"
                 font-weight="500"
                 font-size="5.757px"
                 line-height="125%"
                 y="256.41434"
                 x="785.99768"
                 xml:space="preserve"
                 sodipodi:linespacing="125%"><tspan
                   id="tspan4047"
                   font-weight="bold"
                   font-size="41.121px"
                   y="256.41434"
                   x="785.99768"
                   style="font-size:41.12099838px;font-weight:bold;fill:#000000;font-family:FreeSans">B</tspan></text>
              <path
                 id="path4049"
                 d="m 714.91,266.19 47.156,0.14073 h 107.79 c 19.516,0 24.295,-1.8096 37.227,-14.721 l 69.77,-69.654"
                 inkscape:connector-curvature="0"
                 style="fill:none;stroke:#000000;stroke-width:2.05609989;stroke-dasharray:8.22422762, 4.11211381" />
              <path
                 id="path4051"
                 d="m 714.91,220.95 47.156,0.14072 h 107.79 c 19.516,0 24.295,-1.8096 37.227,-14.721 l 69.77,-69.654"
                 inkscape:connector-curvature="0"
                 style="fill:none;stroke:#000000;stroke-width:2.05609989;stroke-dasharray:8.22422762, 4.11211381" />
            </g>
          </g>
        </g>
        <g
           id="g4057"
           transform="matrix(0.24825,0,0,0.23575,451.5,176.05)">
          <g
             id="g4059"
             transform="translate(-696.92,42.622)">
            <path
               id="path4061"
               d="m 51.789,625.96 82.843,-81.324 h 135.88 l -83.198,81.324 z"
               transform="matrix(1.3571,0,0,1.3571,895.91,-503.35)"
               inkscape:connector-curvature="0"
               style="fill:#4d4d4d;stroke:#000000;stroke-width:1px;filter:url(#filter5066)" />
            <g
               id="g4063"
               transform="translate(264.76,34.823)">
              <path
                 id="path4065"
                 d="m 785.71,118.97 -56.595,55.714 c -13.78,13.566 -14.306,19.132 -14.306,37.313 v 32.272 c -2.6592,52.948 4.6283,54.857 49.695,54.857 h 107.79 c 19.516,0 24.204,-2.2219 37.227,-15.041 l 48.47,-47.709 c 17.801,-17.521 18.863,-31.451 18.863,-52.778 v -39.372 c 0,-38.514 -11.312,-36.789 -41.308,-36.789 h -118.11 c -16.409,0 -20.823,0.8042 -31.72,11.532 z"
                 inkscape:connector-curvature="0"
                 style="fill:url(#linearGradient3805);stroke:#000000;stroke-width:2.05609989" />
              <path
                 id="path4067"
                 d="m 754.82,188.76 h 95.525 c 42.501,0 43.89,9.7125 43.89,43.244 v 29.69 c 0,42.939 -17.176,37.435 -49.699,37.435 h -81.325 c -44.393,0 -48.408,-5.681 -48.408,-41.308 v -29.045 c 0,-39.879 7.8844,-40.017 40.017,-40.017 z"
                 inkscape:connector-curvature="0"
                 style="fill:#ececec;stroke:#000000;stroke-width:2.05609989" />
              <path
                 id="path4069"
                 d="m 777.99,170.16 c 0,0 6.558,8.0583 23.479,9.0804 16.921,1.0221 49.978,-10.538 39.949,-34.39 -3.8382,16.999 -35.223,28.185 -40.054,15.983 l 11.687,-4.6633 -38.897,-1.5406 -7.8491,20.194 z m 47.931,-50.957 c 0,0 -18.258,-0.10479 -31.258,6.9215 -13,7.02629 -15.007,25.757 32.804,30.172 -26.78,-7.9534 -25.238,-25.814 -0.97646,-23.424 l 0.28488,6.8345 28.489,-16.451 -29.629,-10.888 z m 63.511,35.007 c 0,0 8.9226,-8.8418 1.6918,-16.207 -7.2308,-7.3651 -42.103,-11.16 -73.389,11.37 28.008,-11.794 61.438,-8.3552 45.277,3.0546 l -13.21,-0.89124 17.86,16.299 34.981,-12.734 z"
                 inkscape:connector-curvature="0"
                 style="fill:#0097e1;filter:url(#filter6096)" />
              <text
                 id="text4071"
                 style="font-size:5.75699997px;font-weight:500;line-height:125%;letter-spacing:0px;word-spacing:0px;fill:#000000;font-family:Round Up"
                 font-weight="500"
                 xml:space="preserve"
                 font-size="5.757px"
                 line-height="125%"
                 y="256.41434"
                 x="785.99768"
                 sodipodi:linespacing="125%"><tspan
                   id="tspan4073"
                   font-weight="bold"
                   font-size="41.121px"
                   y="256.41434"
                   x="785.99768"
                   style="font-size:41.12099838px;font-weight:bold;fill:#000000;font-family:FreeSans">C</tspan></text>
              <path
                 id="path4075"
                 d="m 714.91,266.19 47.156,0.14073 h 107.79 c 19.516,0 24.295,-1.8096 37.227,-14.721 l 69.77,-69.654"
                 inkscape:connector-curvature="0"
                 style="fill:none;stroke:#000000;stroke-width:2.05609989;stroke-dasharray:8.22422762, 4.11211381" />
              <path
                 id="path4077"
                 d="m 714.91,220.95 47.156,0.14072 h 107.79 c 19.516,0 24.295,-1.8096 37.227,-14.721 l 69.77,-69.654"
                 inkscape:connector-curvature="0"
                 style="fill:none;stroke:#000000;stroke-width:2.05609989;stroke-dasharray:8.22422762, 4.11211381" />
            </g>
          </g>
        </g>
        <g
           id="g4083"
           transform="matrix(0.24825,0,0,0.23575,99.459,277.23)">
          <g
             id="g4085"
             transform="translate(-696.92,42.622)">
            <path
               id="path4087"
               d="m 51.789,625.96 82.843,-81.324 h 135.88 l -83.198,81.324 z"
               transform="matrix(1.3571,0,0,1.3571,895.91,-503.35)"
               inkscape:connector-curvature="0"
               style="fill:#4d4d4d;stroke:#000000;stroke-width:1px;filter:url(#filter5066)" />
            <g
               id="g4089"
               transform="translate(264.76,34.823)">
              <path
                 id="path4091"
                 d="m 785.71,118.97 -56.595,55.714 c -13.78,13.566 -14.306,19.132 -14.306,37.313 v 32.272 c -2.6592,52.948 4.6283,54.857 49.695,54.857 h 107.79 c 19.516,0 24.204,-2.2219 37.227,-15.041 l 48.47,-47.709 c 17.801,-17.521 18.863,-31.451 18.863,-52.778 v -39.372 c 0,-38.514 -11.312,-36.789 -41.308,-36.789 h -118.11 c -16.409,0 -20.823,0.8042 -31.72,11.532 z"
                 inkscape:connector-curvature="0"
                 style="fill:url(#linearGradient3807);stroke:#000000;stroke-width:2.05609989" />
              <path
                 id="path4093"
                 d="m 754.82,188.76 h 95.525 c 42.501,0 43.89,9.7125 43.89,43.244 v 29.69 c 0,42.939 -17.176,37.435 -49.699,37.435 h -81.325 c -44.393,0 -48.408,-5.681 -48.408,-41.308 v -29.045 c 0,-39.879 7.8844,-40.017 40.017,-40.017 z"
                 inkscape:connector-curvature="0"
                 style="fill:#ececec;stroke:#000000;stroke-width:2.05609989" />
              <path
                 id="path4095"
                 d="m 777.99,170.16 c 0,0 6.558,8.0583 23.479,9.0804 16.921,1.0221 49.978,-10.538 39.949,-34.39 -3.8382,16.999 -35.223,28.185 -40.054,15.983 l 11.687,-4.6633 -38.897,-1.5406 -7.8491,20.194 z m 47.931,-50.957 c 0,0 -18.258,-0.10479 -31.258,6.9215 -13,7.02629 -15.007,25.757 32.804,30.172 -26.78,-7.9534 -25.238,-25.814 -0.97646,-23.424 l 0.28488,6.8345 28.489,-16.451 -29.629,-10.888 z m 63.511,35.007 c 0,0 8.9226,-8.8418 1.6918,-16.207 -7.2308,-7.3651 -42.103,-11.16 -73.389,11.37 28.008,-11.794 61.438,-8.3552 45.277,3.0546 l -13.21,-0.89124 17.86,16.299 34.981,-12.734 z"
                 inkscape:connector-curvature="0"
                 style="fill:#0097e1;filter:url(#filter6096)" />
              <text
                 id="text4097"
                 style="font-size:5.75699997px;font-weight:500;line-height:125%;letter-spacing:0px;word-spacing:0px;fill:#000000;font-family:Round Up"
                 font-weight="500"
                 font-size="5.757px"
                 line-height="125%"
                 y="256.41434"
                 x="785.99768"
                 xml:space="preserve"
                 sodipodi:linespacing="125%"><tspan
                   id="tspan4099"
                   font-weight="bold"
                   font-size="41.121px"
                   y="256.41434"
                   x="785.99768"
                   style="font-size:41.12099838px;font-weight:bold;fill:#000000;font-family:FreeSans">D</tspan></text>
              <path
                 id="path4101"
                 d="m 714.91,266.19 47.156,0.14073 h 107.79 c 19.516,0 24.295,-1.8096 37.227,-14.721 l 69.77,-69.654"
                 inkscape:connector-curvature="0"
                 style="fill:none;stroke:#000000;stroke-width:2.05609989;stroke-dasharray:8.22422762, 4.11211381" />
              <path
                 id="path4103"
                 d="m 714.91,220.95 47.156,0.14072 h 107.79 c 19.516,0 24.295,-1.8096 37.227,-14.721 l 69.77,-69.654"
                 inkscape:connector-curvature="0"
                 style="fill:none;stroke:#000000;stroke-width:2.05609989;stroke-dasharray:8.22422762, 4.11211381" />
            </g>
          </g>
        </g>
        <g
           id="g4107"
           transform="matrix(0.24825,0,0,0.23575,275.48,277.23)">
          <g
             id="g4109"
             transform="translate(-696.92,42.622)">
            <path
               id="path4111"
               d="m 51.789,625.96 82.843,-81.324 h 135.88 l -83.198,81.324 z"
               transform="matrix(1.3571,0,0,1.3571,895.91,-503.35)"
               inkscape:connector-curvature="0"
               style="fill:#4d4d4d;stroke:#000000;stroke-width:1px;filter:url(#filter5066)" />
            <g
               id="g4113"
               transform="translate(264.76,34.823)">
              <path
                 id="path4115"
                 d="m 785.71,118.97 -56.595,55.714 c -13.78,13.566 -14.306,19.132 -14.306,37.313 v 32.272 c -2.6592,52.948 4.6283,54.857 49.695,54.857 h 107.79 c 19.516,0 24.204,-2.2219 37.227,-15.041 l 48.47,-47.709 c 17.801,-17.521 18.863,-31.451 18.863,-52.778 v -39.372 c 0,-38.514 -11.312,-36.789 -41.308,-36.789 h -118.11 c -16.409,0 -20.823,0.8042 -31.72,11.532 z"
                 inkscape:connector-curvature="0"
                 style="fill:url(#linearGradient6520);stroke:#000000;stroke-width:2.05609989" />
              <path
                 id="path4117"
                 d="m 754.82,188.76 h 95.525 c 42.501,0 43.89,9.7125 43.89,43.244 v 29.69 c 0,42.939 -17.176,37.435 -49.699,37.435 h -81.325 c -44.393,0 -48.408,-5.681 -48.408,-41.308 v -29.045 c 0,-39.879 7.8844,-40.017 40.017,-40.017 z"
                 inkscape:connector-curvature="0"
                 style="fill:#ececec;stroke:#000000;stroke-width:2.05609989" />
              <path
                 id="path4119"
                 d="m 777.99,170.16 c 0,0 6.558,8.0583 23.479,9.0804 16.921,1.0221 49.978,-10.538 39.949,-34.39 -3.8382,16.999 -35.223,28.185 -40.054,15.983 l 11.687,-4.6633 -38.897,-1.5406 -7.8491,20.194 z m 47.931,-50.957 c 0,0 -18.258,-0.10479 -31.258,6.9215 -13,7.02629 -15.007,25.757 32.804,30.172 -26.78,-7.9534 -25.238,-25.814 -0.97646,-23.424 l 0.28488,6.8345 28.489,-16.451 -29.629,-10.888 z m 63.511,35.007 c 0,0 8.9226,-8.8418 1.6918,-16.207 -7.2308,-7.3651 -42.103,-11.16 -73.389,11.37 28.008,-11.794 61.438,-8.3552 45.277,3.0546 l -13.21,-0.89124 17.86,16.299 34.981,-12.734 z"
                 inkscape:connector-curvature="0"
                 style="fill:#0097e1;filter:url(#filter6096)" />
              <text
                 id="text4121"
                 style="font-size:5.75699997px;font-weight:500;line-height:125%;letter-spacing:0px;word-spacing:0px;fill:#000000;font-family:Round Up"
                 font-weight="500"
                 xml:space="preserve"
                 font-size="5.757px"
                 line-height="125%"
                 y="256.41434"
                 x="785.99768"
                 sodipodi:linespacing="125%"><tspan
                   id="tspan4123"
                   font-weight="bold"
                   font-size="41.121px"
                   y="256.41434"
                   x="785.99768"
                   style="font-size:41.12099838px;font-weight:bold;font-family:FreeSans">E</tspan></text>
              <path
                 id="path4125"
                 d="m 714.91,266.19 47.156,0.14073 h 107.79 c 19.516,0 24.295,-1.8096 37.227,-14.721 l 69.77,-69.654"
                 inkscape:connector-curvature="0"
                 style="fill:none;stroke:#000000;stroke-width:2.05609989;stroke-dasharray:8.22422762, 4.11211381" />
              <path
                 id="path4127"
                 d="m 714.91,220.95 47.156,0.14072 h 107.79 c 19.516,0 24.295,-1.8096 37.227,-14.721 l 69.77,-69.654"
                 inkscape:connector-curvature="0"
                 style="fill:none;stroke:#000000;stroke-width:2.05609989;stroke-dasharray:8.22422762, 4.11211381" />
            </g>
          </g>
        </g>
        <rect
           id="rect3985"
           height="85.468002"
           width="94.779999"
           stroke-miterlimit="0"
           y="129.11"
           x="58.897999"
           style="fill:none;stroke:#000000;stroke-width:0.50581002;stroke-miterlimit:0" />
        <text
           id="text3987"
           style="font-size:9.94789982px;line-height:125%;letter-spacing:0px;word-spacing:0px;font-family:FreeSans"
           xml:space="preserve"
           font-size="9.9479px"
           line-height="125%"
           y="142.33087"
           x="65.904694"
           sodipodi:linespacing="125%"><tspan
             id="tspan5420"
             y="142.33087"
             x="65.904694"
             style="fill:#000000">Routing table</tspan><tspan
             id="tspan6116"
             y="154.76579"
             x="65.904694"
             style="fill:#000000">A : 0 [ Local ]</tspan><tspan
             id="tspan6118"
             y="167.20071"
             x="65.904694"
             style="fill:#000000">D : 1 [South]</tspan><tspan
             id="tspan6120"
             y="179.63565"
             x="65.904694"
             style="fill:#ff0000">B : ∞</tspan><tspan
             id="tspan6122"
             y="192.07057"
             x="65.904694"
             style="fill:#ff0000">C : ∞</tspan><tspan
             id="tspan6124"
             y="204.50549"
             x="65.904694"
             style="fill:#ff0000">E : ∞</tspan></text>
        <text
           id="text4058"
           style="font-size:9.94789982px;font-weight:bold;line-height:125%;letter-spacing:0px;word-spacing:0px;fill:#000000;font-family:FreeSans"
           font-weight="bold"
           xml:space="preserve"
           font-size="9.9479px"
           y="276.33948"
           x="64.350616"
           line-height="125%"
           sodipodi:linespacing="125%"><tspan
             id="tspan6695"
             y="276.33948"
             x="64.350616">Routing table</tspan><tspan
             id="tspan6176"
             y="288.77441"
             x="64.350616">D : 0 [Local]</tspan><tspan
             id="tspan6178"
             y="301.20932"
             x="64.350616">A : 1 [North]</tspan><tspan
             id="tspan6180"
             y="313.64426"
             x="64.350616">E : 1 [East]</tspan><tspan
             id="tspan6182"
             y="326.07916"
             x="64.350616">C : 2 [East]</tspan><tspan
             id="tspan6184"
             y="338.5141"
             x="64.350616">B : 2 [North]</tspan></text>
        <text
           id="text4099"
           style="font-size:9.94789982px;font-weight:bold;line-height:125%;letter-spacing:0px;word-spacing:0px;font-family:FreeSans"
           font-weight="bold"
           xml:space="preserve"
           font-size="9.9479px"
           y="111.4046"
           x="351.6857"
           line-height="125%"
           sodipodi:linespacing="125%"><tspan
             id="tspan4554"
             y="111.4046"
             x="351.6857"
             style="fill:#000000">Routing table</tspan><tspan
             id="tspan6146"
             y="123.83952"
             x="351.6857"
             style="fill:#000000">B : 0 [Local]</tspan><tspan
             id="tspan6148"
             y="136.27444"
             x="351.6857"
             style="fill:#ff0000">A : ∞</tspan><tspan
             id="tspan6150"
             y="148.70938"
             x="351.6857"
             style="fill:#000000">C : 1 [East]</tspan><tspan
             id="tspan6152"
             y="161.1443"
             x="351.6857"
             style="fill:#000000">E : 1 [South]</tspan><tspan
             id="tspan6154"
             y="173.57922"
             x="351.6857"
             style="fill:#000000">D : 2 [South]</tspan></text>
        <rect
           id="rect4116"
           height="81.216003"
           width="94.779999"
           stroke-miterlimit="0"
           y="101.17"
           x="567.14001"
           style="fill:none;stroke:#000000;stroke-width:0.49307001;stroke-miterlimit:0" />
        <text
           id="text4118"
           style="font-size:9.94789982px;font-weight:bold;line-height:125%;letter-spacing:0px;word-spacing:0px;fill:#000000;font-family:FreeSans"
           font-weight="bold"
           xml:space="preserve"
           font-size="9.9479px"
           y="113.16912"
           x="574.14374"
           line-height="125%"
           sodipodi:linespacing="125%"><tspan
             id="tspan6022"
             y="113.16912"
             x="574.14374">Routing table</tspan><tspan
             id="tspan6236"
             y="125.60404"
             x="574.14374">C : 0 [Local]</tspan><tspan
             id="tspan6238"
             y="138.03897"
             x="574.14374">E : 1 [South-West]</tspan><tspan
             id="tspan6240"
             y="150.47389"
             x="574.14374">D : 2 [South-West]</tspan><tspan
             id="tspan6242"
             y="162.90881"
             x="574.14374">A : 2 [West]</tspan><tspan
             id="tspan6244"
             y="175.34375"
             x="574.14374">B : 1 [West]</tspan></text>
        <rect
           id="rect4134"
           height="82.102997"
           width="94.779999"
           stroke-miterlimit="0"
           y="329.95001"
           x="483.60999"
           style="fill:none;stroke:#000000;stroke-width:0.49575001;stroke-miterlimit:0" />
        <text
           id="text4136"
           style="font-size:9.94789982px;font-weight:bold;line-height:125%;letter-spacing:0px;word-spacing:0px;fill:#000000;font-family:FreeSans"
           font-weight="bold"
           xml:space="preserve"
           font-size="9.9479px"
           y="343.94202"
           x="491.39169"
           line-height="125%"
           sodipodi:linespacing="125%"><tspan
             id="tspan5998"
             y="343.94202"
             x="491.39169">Routing table</tspan><tspan
             id="tspan6206"
             y="356.37695"
             x="491.39169">E : 0 [Local]</tspan><tspan
             id="tspan6208"
             y="368.81186"
             x="491.39169">D : 1 [West]</tspan><tspan
             id="tspan6210"
             y="381.2468"
             x="491.39169">A : 2 [West]</tspan><tspan
             id="tspan6212"
             y="393.6817"
             x="491.39169">C : 1 [North-East]</tspan><tspan
             id="tspan6214"
             y="406.11664"
             x="491.39169">B : 1 [North]</tspan></text>
        <rect
           id="rect6294"
           height="88.052002"
           width="94.779999"
           stroke-miterlimit="0"
           y="259.23999"
           x="57.344002"
           style="fill:none;stroke:#000000;stroke-width:0.51340002;stroke-miterlimit:0" />
        <rect
           id="rect6301"
           height="86.807999"
           width="94.779999"
           stroke-miterlimit="0"
           y="97.410004"
           x="344.67999"
           style="fill:none;stroke:#000000;stroke-width:0.50976002;stroke-miterlimit:0" />
        <path
           id="path2"
           d="m 286.9,229.43 0.36324,-0.21794 0.14529,0.14529 q 0.1453,0.1453 0.72647,2.3247 0.58117,2.1794 1.6709,4.1409 1.08973,1.9615 1.3803,1.9615 h 0.29059 l 0.58118,-0.72647 q 0.58117,-0.72646 1.0897,-1.3803 0.50853,-0.65382 0.94441,-1.235 0.43588,-0.58118 0.65382,-0.79912 l 0.21794,-0.21794 0.72647,-0.14529 q 0.72646,-0.14529 2.7606,0.21794 l 2.0341,0.36323 -0.21794,0.87177 q -0.21794,0.87176 -0.9444,1.7435 -0.72647,0.87176 -1.1624,1.4529 -0.43588,0.58118 -1.3076,1.5982 -0.87176,1.0171 -1.3076,1.5982 -0.43588,0.58118 -0.43588,1.0171 v 0.43588 l 0.94441,0.79911 q 0.94441,0.79912 2.8332,1.6709 1.8888,0.87176 5.3759,1.7435 l 3.487,0.87176 -1.5982,0.87177 q -1.5982,0.87176 -2.47,1.1623 -0.87176,0.29059 -2.47,0.1453 -1.5982,-0.1453 -3.7776,-0.72647 -2.1794,-0.58117 -3.0512,-1.0171 -0.87176,-0.43588 -1.7435,-1.017 -0.87176,-0.58117 -1.3076,-0.58117 h -0.43588 l -1.7435,1.5982 q -1.7435,1.5982 -2.6153,2.1794 -0.87176,0.58117 -1.5982,1.1624 -0.72647,0.58117 -2.0341,1.1624 -1.3076,0.58117 -1.7435,0.58117 h -0.43588 l 0.21794,-0.36323 q 0.21794,-0.36324 0.79911,-1.235 0.58118,-0.87176 1.1624,-1.5982 0.58118,-0.72647 1.3076,-1.8888 0.72647,-1.1623 1.4529,-2.0341 0.72647,-0.87176 1.3076,-1.7435 l 0.58118,-0.87176 -0.1453,-0.58117 q -0.14529,-0.58118 -0.58117,-1.1624 -0.43588,-0.58118 -1.5982,-2.7606 -1.1624,-2.1794 -1.7435,-3.6323 -0.58118,-1.4529 -0.58118,-1.8888 v -0.43588 l 1.8162,-1.6709 q 1.8162,-1.6709 2.1794,-1.8888 z"
           inkscape:connector-curvature="0"
           style="fill:#8f0000;fill-rule:evenodd;stroke-width:0px" />
        <g
           id="g4485"
           transform="translate(-18.652,7.4176)">
          <text
             id="text4487"
             style="font-size:9.94789982px;font-weight:bold;line-height:125%;letter-spacing:0px;word-spacing:0px;fill:#000000;font-family:FreeSans"
             font-weight="bold"
             xml:space="preserve"
             font-size="9.9479px"
             y="286.82327"
             x="236.55569"
             line-height="125%"
             sodipodi:linespacing="125%"><tspan
               id="tspan4489"
               x="236.55569"
               y="286.82327">A=0;B=<tspan
   id="tspan9460"
   style="fill:#ff0000">∞</tspan>;C=<tspan
   id="tspan9458"
   style="fill:#ff0000">∞</tspan>;D=1;E=<tspan
   id="tspan9456"
   style="fill:#ff0000">∞</tspan></tspan></text>
          <rect
             id="rect4491"
             height="15.939"
             width="119.91"
             stroke-miterlimit="0"
             y="275.64999"
             x="231.72"
             style="fill:none;stroke:#000000;stroke-width:0.24568;stroke-miterlimit:0" />
        </g>
        <path
           id="path6024"
           d="m 202.3,272.49 v 38.266"
           inkscape:connector-curvature="0"
           style="fill:none;stroke:#000000;stroke-width:1px;marker-end:url(#Arrow1Mend)" />
        <path
           id="path9588"
           d="M 66.754,182.29 H 87.235"
           inkscape:connector-curvature="0"
           style="fill:#ff0000;stroke:#fa0000;stroke-width:1px" />
        <path
           id="path9590"
           d="M 66.754,194.29 H 87.235"
           inkscape:connector-curvature="0"
           style="fill:#ff0000;stroke:#fa0000;stroke-width:1px" />
        <path
           id="path9592"
           d="M 66.754,206.29 H 87.235"
           inkscape:connector-curvature="0"
           style="fill:#ff0000;stroke:#fa0000;stroke-width:1px" />
        <path
           id="path10386"
           d="m 351.97,138.29 h 20.481"
           inkscape:connector-curvature="0"
           style="fill:#ff0000;stroke:#fa0000;stroke-width:1px" />
        <path
           id="path10388"
           d="m 250.33,294.75 h 7.8858"
           inkscape:connector-curvature="0"
           style="fill:#ff0000;stroke:#fa0000;stroke-width:0.62050003px" />
        <path
           id="path10390"
           d="m 273.08,294.75 h 7.8858"
           inkscape:connector-curvature="0"
           style="fill:#ff0000;stroke:#fa0000;stroke-width:0.62050003px" />
        <path
           id="path10392"
           d="m 316.88,294.75 h 7.8858"
           inkscape:connector-curvature="0"
           style="fill:#ff0000;stroke:#fa0000;stroke-width:0.62050003px" />
      </g>
    </g>
  </g>
</svg>
