<?xml version="1.0" encoding="UTF-8" standalone="no"?>
<!-- Created with Inkscape (http://www.inkscape.org/) -->

<svg
   xmlns:dc="http://purl.org/dc/elements/1.1/"
   xmlns:cc="http://creativecommons.org/ns#"
   xmlns:rdf="http://www.w3.org/1999/02/22-rdf-syntax-ns#"
   xmlns:svg="http://www.w3.org/2000/svg"
   xmlns="http://www.w3.org/2000/svg"
   xmlns:xlink="http://www.w3.org/1999/xlink"
   xmlns:sodipodi="http://sodipodi.sourceforge.net/DTD/sodipodi-0.dtd"
   xmlns:inkscape="http://www.inkscape.org/namespaces/inkscape"
   id="svg2"
   viewBox="0 0 619.5313 315.15626"
   version="1.1"
   inkscape:version="0.48.1 r9760"
   width="100%"
   height="100%"
   sodipodi:docname="dv-failure-2.svg">
  <sodipodi:namedview
     pagecolor="#ffffff"
     bordercolor="#666666"
     borderopacity="1"
     objecttolerance="10"
     gridtolerance="10"
     guidetolerance="10"
     inkscape:pageopacity="0"
     inkscape:pageshadow="2"
     inkscape:window-width="1269"
     inkscape:window-height="813"
     id="namedview3523"
     showgrid="false"
     fit-margin-top="0"
     fit-margin-left="0"
     fit-margin-right="0"
     fit-margin-bottom="0"
     inkscape:zoom="1.4083008"
     inkscape:cx="314.95999"
     inkscape:cy="162.96432"
     inkscape:window-x="0"
     inkscape:window-y="0"
     inkscape:window-maximized="0"
     inkscape:current-layer="g3788" />
  <defs
     id="defs4">
    <marker
       id="Arrow1Mend"
       refY="0"
       refX="0"
       orient="auto"
       overflow="visible"
       style="overflow:visible">
      <path
         id="path4221"
         d="M 0,0 5,-5 -12.5,0 5,5 0,0 z"
         transform="matrix(-0.4,0,0,-0.4,-4,0)"
         inkscape:connector-curvature="0"
         style="fill-rule:evenodd;stroke:#000000;stroke-width:1pt" />
    </marker>
    <linearGradient
       id="linearGradient3791-7">
      <stop
         id="stop3793-0"
         stop-color="#c6c6c6"
         offset="0" />
      <stop
         id="stop3799-2"
         stop-color="#fff"
         offset=".60029" />
      <stop
         id="stop3795-9"
         stop-color="#a4a4a4"
         offset="1" />
    </linearGradient>
    <filter
       id="filter6096"
       color-interpolation-filters="sRGB">
      <feGaussianBlur
         id="feGaussianBlur6098"
         stdDeviation="2"
         result="result8" />
      <feOffset
         id="feOffset6100"
         result="result11"
         dx="3"
         dy="3" />
      <feComposite
         id="feComposite6102"
         operator="in"
         result="result6"
         in2="result11"
         in="SourceGraphic" />
      <feFlood
         id="feFlood6104"
         result="result10"
         in="result6"
         flood-color="rgb(0,0,0)" />
      <feBlend
         id="feBlend6106"
         mode="normal"
         result="result12"
         in2="result10"
         in="result6" />
      <feComposite
         id="feComposite6108"
         operator="in"
         result="result2"
         in2="SourceGraphic" />
    </filter>
    <filter
       id="filter5066"
       height="1.3542"
       width="1.1317"
       y="-0.1771"
       x="-0.065847002"
       color-interpolation-filters="sRGB">
      <feGaussianBlur
         id="feGaussianBlur5068"
         stdDeviation="6.0009211" />
    </filter>
    <marker
       id="Arrow1Mstart-3"
       refY="0"
       refX="0"
       orient="auto"
       overflow="visible"
       style="overflow:visible">
      <path
         id="path4218-6"
         d="M 0,0 5,-5 -12.5,0 5,5 0,0 z"
         transform="matrix(0.4,0,0,0.4,4,0)"
         inkscape:connector-curvature="0"
         style="fill-rule:evenodd;stroke:#000000;stroke-width:1pt" />
    </marker>
    <linearGradient
       id="linearGradient5345"
       y2="237.12"
       xlink:href="#linearGradient3791-7"
       gradientUnits="userSpaceOnUse"
       x2="341.44"
       gradientTransform="translate(617.12,-0.21672)"
       y1="66.831001"
       x1="191.34" />
    <linearGradient
       inkscape:collect="always"
       xlink:href="#linearGradient3791-7"
       id="linearGradient3793"
       gradientUnits="userSpaceOnUse"
       gradientTransform="translate(617.12,-0.21672)"
       x1="191.34"
       y1="66.831001"
       x2="341.44"
       y2="237.12" />
    <linearGradient
       inkscape:collect="always"
       xlink:href="#linearGradient3791-7"
       id="linearGradient3795"
       gradientUnits="userSpaceOnUse"
       gradientTransform="translate(617.12,-0.21672)"
       x1="191.34"
       y1="66.831001"
       x2="341.44"
       y2="237.12" />
    <linearGradient
       inkscape:collect="always"
       xlink:href="#linearGradient3791-7"
       id="linearGradient3797"
       gradientUnits="userSpaceOnUse"
       gradientTransform="translate(617.12,-0.21672)"
       x1="191.34"
       y1="66.831001"
       x2="341.44"
       y2="237.12" />
    <linearGradient
       inkscape:collect="always"
       xlink:href="#linearGradient3791-7"
       id="linearGradient3799"
       gradientUnits="userSpaceOnUse"
       gradientTransform="translate(617.12,-0.21672)"
       x1="191.34"
       y1="66.831001"
       x2="341.44"
       y2="237.12" />
  </defs>
  <metadata
     id="metadata7">
    <rdf:RDF>
      <cc:Work
         rdf:about="">
        <dc:format>image/svg+xml</dc:format>
        <dc:type
           rdf:resource="http://purl.org/dc/dcmitype/StillImage" />
        <dc:title />
      </cc:Work>
    </rdf:RDF>
  </metadata>
  <g
     id="layer1"
     transform="translate(-57.085005,-97.15675)">
    <text
       id="text5136"
       style="font-size:48px;line-height:125%;letter-spacing:0px;word-spacing:0px;fill:#000000;font-family:FreeSans"
       font-size="48px"
       line-height="125%"
       y="292.91492"
       x="610.57544"
       xml:space="preserve"
       sodipodi:linespacing="125%"><tspan
         id="tspan5138"
         x="610.57544"
         y="292.91492" /></text>
    <text
       id="text5136-3"
       style="font-size:48px;line-height:125%;letter-spacing:0px;word-spacing:0px;fill:#000000;font-family:FreeSans"
       xml:space="preserve"
       font-size="48px"
       line-height="125%"
       y="838.08514"
       x="613.39978"
       sodipodi:linespacing="125%"><tspan
         id="tspan5138-2"
         y="838.08514"
         x="613.39978" /></text>
    <g
       id="g5888"
       transform="translate(180.96,-65.062)">
      <g
         id="g3788">
        <path
           id="path4839"
           d="M 203.53,292.12 V 250.937"
           inkscape:connector-curvature="0"
           style="fill:none;stroke:#000000;stroke-width:1px;marker-end:url(#Arrow1Mend)" />
        <path
           id="path4843"
           d="M 3.8333,292.45 -26.4707,253.6"
           inkscape:connector-curvature="0"
           style="fill:none;stroke:#000000;stroke-width:1px;marker-end:url(#Arrow1Mend)" />
        <path
           id="path4841"
           d="m 3.0562,399.68 -30.304,-39.63"
           inkscape:connector-curvature="0"
           style="fill:none;stroke:#000000;stroke-width:1px;marker-end:url(#Arrow1Mend)" />
        <path
           id="path4655"
           d="m 382.25,290.89 22.534,-39.629"
           inkscape:connector-curvature="0"
           style="fill:none;stroke:#000000;stroke-width:1px;marker-end:url(#Arrow1Mend)" />
        <path
           id="path4207"
           d="m 219.85,415.22 h 80.812"
           stroke-miterlimit="3"
           inkscape:connector-curvature="0"
           style="fill:none;stroke:#000000;stroke-miterlimit:3;marker-end:url(#Arrow1Mend)" />
        <path
           id="path4147"
           d="M 227.12,401.83 355.09,313.3"
           inkscape:connector-curvature="0"
           style="fill:none;stroke:#000000;stroke-width:0.73354px" />
        <path
           id="path4145"
           d="m 192.38,324.3 v 65.434"
           inkscape:connector-curvature="0"
           style="fill:none;stroke:#000000;stroke-width:0.73354px" />
        <path
           id="path4143"
           d="m 40.678,409.53 h 130.28"
           inkscape:connector-curvature="0"
           style="fill:none;stroke:#000000;stroke-width:0.73354px" />
        <path
           id="path4141"
           d="M 221.33,306.7 H 351.61"
           inkscape:connector-curvature="0"
           style="fill:none;stroke:#000000;stroke-width:0.73354px" />
        <path
           id="path4139"
           d="m 14.043,324.85 v 65.434"
           inkscape:connector-curvature="0"
           style="fill:none;stroke:#000000;stroke-width:0.73354px" />
        <path
           id="path4135"
           d="m 40.099,307.8 h 130.28"
           inkscape:connector-curvature="0"
           style="fill:none;stroke:#000000;stroke-width:0.73354px" />
        <g
           id="layer1-9"
           transform="matrix(0.24825,0,0,0.23575,-81.5,241.11)">
          <g
             id="g5103"
             transform="translate(-696.92,42.622)">
            <path
               id="path5070"
               d="m 51.789,625.96 82.843,-81.324 h 135.88 l -83.198,81.324 z"
               transform="matrix(1.3571,0,0,1.3571,895.91,-503.35)"
               inkscape:connector-curvature="0"
               style="fill:#4d4d4d;stroke:#000000;stroke-width:1px;filter:url(#filter5066)" />
            <g
               id="g4916"
               transform="translate(264.76,34.823)">
              <path
                 id="path4918"
                 d="m 785.71,118.97 -56.595,55.714 c -13.78,13.566 -14.306,19.132 -14.306,37.313 v 32.272 c -2.6592,52.948 4.6283,54.857 49.695,54.857 h 107.79 c 19.516,0 24.204,-2.2219 37.227,-15.041 l 48.47,-47.709 c 17.801,-17.521 18.863,-31.451 18.863,-52.778 v -39.372 c 0,-38.514 -11.312,-36.789 -41.308,-36.789 h -118.11 c -16.409,0 -20.823,0.8042 -31.72,11.532 z"
                 inkscape:connector-curvature="0"
                 style="fill:url(#linearGradient3793);stroke:#000000;stroke-width:2.05609989" />
              <path
                 id="path4920"
                 d="m 754.82,188.76 h 95.525 c 42.501,0 43.89,9.7125 43.89,43.244 v 29.69 c 0,42.939 -17.176,37.435 -49.699,37.435 h -81.325 c -44.393,0 -48.408,-5.681 -48.408,-41.308 v -29.045 c 0,-39.879 7.8844,-40.017 40.017,-40.017 z"
                 inkscape:connector-curvature="0"
                 style="fill:#ececec;stroke:#000000;stroke-width:2.05609989" />
              <path
                 id="path4922"
                 d="m 777.99,170.16 c 0,0 6.558,8.0583 23.479,9.0804 16.921,1.0221 49.978,-10.538 39.949,-34.39 -3.8382,16.999 -35.223,28.185 -40.054,15.983 l 11.687,-4.6633 -38.897,-1.5406 -7.8491,20.194 z m 47.931,-50.957 c 0,0 -18.258,-0.10479 -31.258,6.9215 -13,7.02629 -15.007,25.757 32.804,30.172 -26.78,-7.9534 -25.238,-25.814 -0.97646,-23.424 l 0.28488,6.8345 28.489,-16.451 -29.629,-10.888 z m 63.511,35.007 c 0,0 8.9226,-8.8418 1.6918,-16.207 -7.2308,-7.3651 -42.103,-11.16 -73.389,11.37 28.008,-11.794 61.438,-8.3552 45.277,3.0546 l -13.21,-0.89124 17.86,16.299 34.981,-12.734 z"
                 inkscape:connector-curvature="0"
                 style="fill:#0097e1;filter:url(#filter6096)" />
              <text
                 id="text4924"
                 style="font-size:5.75699997px;font-weight:500;line-height:125%;letter-spacing:0px;word-spacing:0px;fill:#000000;font-family:Round Up"
                 font-weight="500"
                 font-size="5.757px"
                 line-height="125%"
                 y="256.41434"
                 x="785.99768"
                 xml:space="preserve"
                 sodipodi:linespacing="125%"><tspan
                   id="tspan4926"
                   font-weight="bold"
                   font-size="41.121px"
                   y="256.41434"
                   x="785.99768"
                   style="font-size:41.12099838px;font-weight:bold;fill:#000000;font-family:FreeSans">A</tspan></text>
              <path
                 id="path4928"
                 d="m 714.91,266.19 47.156,0.14073 h 107.79 c 19.516,0 24.295,-1.8096 37.227,-14.721 l 69.77,-69.654"
                 inkscape:connector-curvature="0"
                 style="fill:none;stroke:#000000;stroke-width:2.05609989;stroke-dasharray:8.22422762, 4.11211381" />
              <path
                 id="path4930"
                 d="m 714.91,220.95 47.156,0.14072 h 107.79 c 19.516,0 24.295,-1.8096 37.227,-14.721 l 69.77,-69.654"
                 inkscape:connector-curvature="0"
                 style="fill:none;stroke:#000000;stroke-width:2.05609989;stroke-dasharray:8.22422762, 4.11211381" />
            </g>
          </g>
        </g>
        <g
           id="g4031"
           transform="matrix(0.24825,0,0,0.23575,94.523,241.11)">
          <g
             id="g4033"
             transform="translate(-696.92,42.622)">
            <path
               id="path4035"
               d="m 51.789,625.96 82.843,-81.324 h 135.88 l -83.198,81.324 z"
               transform="matrix(1.3571,0,0,1.3571,895.91,-503.35)"
               inkscape:connector-curvature="0"
               style="fill:#4d4d4d;stroke:#000000;stroke-width:1px;filter:url(#filter5066)" />
            <g
               id="g4037"
               transform="translate(264.76,34.823)">
              <path
                 id="path4039"
                 d="m 785.71,118.97 -56.595,55.714 c -13.78,13.566 -14.306,19.132 -14.306,37.313 v 32.272 c -2.6592,52.948 4.6283,54.857 49.695,54.857 h 107.79 c 19.516,0 24.204,-2.2219 37.227,-15.041 l 48.47,-47.709 c 17.801,-17.521 18.863,-31.451 18.863,-52.778 v -39.372 c 0,-38.514 -11.312,-36.789 -41.308,-36.789 h -118.11 c -16.409,0 -20.823,0.8042 -31.72,11.532 z"
                 inkscape:connector-curvature="0"
                 style="fill:url(#linearGradient3795);stroke:#000000;stroke-width:2.05609989" />
              <path
                 id="path4041"
                 d="m 754.82,188.76 h 95.525 c 42.501,0 43.89,9.7125 43.89,43.244 v 29.69 c 0,42.939 -17.176,37.435 -49.699,37.435 h -81.325 c -44.393,0 -48.408,-5.681 -48.408,-41.308 v -29.045 c 0,-39.879 7.8844,-40.017 40.017,-40.017 z"
                 inkscape:connector-curvature="0"
                 style="fill:#ececec;stroke:#000000;stroke-width:2.05609989" />
              <path
                 id="path4043"
                 d="m 777.99,170.16 c 0,0 6.558,8.0583 23.479,9.0804 16.921,1.0221 49.978,-10.538 39.949,-34.39 -3.8382,16.999 -35.223,28.185 -40.054,15.983 l 11.687,-4.6633 -38.897,-1.5406 -7.8491,20.194 z m 47.931,-50.957 c 0,0 -18.258,-0.10479 -31.258,6.9215 -13,7.02629 -15.007,25.757 32.804,30.172 -26.78,-7.9534 -25.238,-25.814 -0.97646,-23.424 l 0.28488,6.8345 28.489,-16.451 -29.629,-10.888 z m 63.511,35.007 c 0,0 8.9226,-8.8418 1.6918,-16.207 -7.2308,-7.3651 -42.103,-11.16 -73.389,11.37 28.008,-11.794 61.438,-8.3552 45.277,3.0546 l -13.21,-0.89124 17.86,16.299 34.981,-12.734 z"
                 inkscape:connector-curvature="0"
                 style="fill:#0097e1;filter:url(#filter6096)" />
              <text
                 id="text4045"
                 style="font-size:5.75699997px;font-weight:500;line-height:125%;letter-spacing:0px;word-spacing:0px;fill:#000000;font-family:Round Up"
                 font-weight="500"
                 xml:space="preserve"
                 font-size="5.757px"
                 line-height="125%"
                 y="256.41434"
                 x="785.99768"
                 sodipodi:linespacing="125%"><tspan
                   id="tspan4047"
                   font-weight="bold"
                   font-size="41.121px"
                   y="256.41434"
                   x="785.99768"
                   style="font-size:41.12099838px;font-weight:bold;fill:#000000;font-family:FreeSans">B</tspan></text>
              <path
                 id="path4049"
                 d="m 714.91,266.19 47.156,0.14073 h 107.79 c 19.516,0 24.295,-1.8096 37.227,-14.721 l 69.77,-69.654"
                 inkscape:connector-curvature="0"
                 style="fill:none;stroke:#000000;stroke-width:2.05609989;stroke-dasharray:8.22422762, 4.11211381" />
              <path
                 id="path4051"
                 d="m 714.91,220.95 47.156,0.14072 h 107.79 c 19.516,0 24.295,-1.8096 37.227,-14.721 l 69.77,-69.654"
                 inkscape:connector-curvature="0"
                 style="fill:none;stroke:#000000;stroke-width:2.05609989;stroke-dasharray:8.22422762, 4.11211381" />
            </g>
          </g>
        </g>
        <g
           id="g4057"
           transform="matrix(0.24825,0,0,0.23575,270.55,241.11)">
          <g
             id="g4059"
             transform="translate(-696.92,42.622)">
            <path
               id="path4061"
               d="m 51.789,625.96 82.843,-81.324 h 135.88 l -83.198,81.324 z"
               transform="matrix(1.3571,0,0,1.3571,895.91,-503.35)"
               inkscape:connector-curvature="0"
               style="fill:#4d4d4d;stroke:#000000;stroke-width:1px;filter:url(#filter5066)" />
            <g
               id="g4063"
               transform="translate(264.76,34.823)">
              <path
                 id="path4065"
                 d="m 785.71,118.97 -56.595,55.714 c -13.78,13.566 -14.306,19.132 -14.306,37.313 v 32.272 c -2.6592,52.948 4.6283,54.857 49.695,54.857 h 107.79 c 19.516,0 24.204,-2.2219 37.227,-15.041 l 48.47,-47.709 c 17.801,-17.521 18.863,-31.451 18.863,-52.778 v -39.372 c 0,-38.514 -11.312,-36.789 -41.308,-36.789 h -118.11 c -16.409,0 -20.823,0.8042 -31.72,11.532 z"
                 inkscape:connector-curvature="0"
                 style="fill:url(#linearGradient3797);stroke:#000000;stroke-width:2.05609989" />
              <path
                 id="path4067"
                 d="m 754.82,188.76 h 95.525 c 42.501,0 43.89,9.7125 43.89,43.244 v 29.69 c 0,42.939 -17.176,37.435 -49.699,37.435 h -81.325 c -44.393,0 -48.408,-5.681 -48.408,-41.308 v -29.045 c 0,-39.879 7.8844,-40.017 40.017,-40.017 z"
                 inkscape:connector-curvature="0"
                 style="fill:#ececec;stroke:#000000;stroke-width:2.05609989" />
              <path
                 id="path4069"
                 d="m 777.99,170.16 c 0,0 6.558,8.0583 23.479,9.0804 16.921,1.0221 49.978,-10.538 39.949,-34.39 -3.8382,16.999 -35.223,28.185 -40.054,15.983 l 11.687,-4.6633 -38.897,-1.5406 -7.8491,20.194 z m 47.931,-50.957 c 0,0 -18.258,-0.10479 -31.258,6.9215 -13,7.02629 -15.007,25.757 32.804,30.172 -26.78,-7.9534 -25.238,-25.814 -0.97646,-23.424 l 0.28488,6.8345 28.489,-16.451 -29.629,-10.888 z m 63.511,35.007 c 0,0 8.9226,-8.8418 1.6918,-16.207 -7.2308,-7.3651 -42.103,-11.16 -73.389,11.37 28.008,-11.794 61.438,-8.3552 45.277,3.0546 l -13.21,-0.89124 17.86,16.299 34.981,-12.734 z"
                 inkscape:connector-curvature="0"
                 style="fill:#0097e1;filter:url(#filter6096)" />
              <text
                 id="text4071"
                 style="font-size:5.75699997px;font-weight:500;line-height:125%;letter-spacing:0px;word-spacing:0px;fill:#000000;font-family:Round Up"
                 font-weight="500"
                 font-size="5.757px"
                 line-height="125%"
                 y="256.41434"
                 x="785.99768"
                 xml:space="preserve"
                 sodipodi:linespacing="125%"><tspan
                   id="tspan4073"
                   font-weight="bold"
                   font-size="41.121px"
                   y="256.41434"
                   x="785.99768"
                   style="font-size:41.12099838px;font-weight:bold;fill:#000000;font-family:FreeSans">C</tspan></text>
              <path
                 id="path4075"
                 d="m 714.91,266.19 47.156,0.14073 h 107.79 c 19.516,0 24.295,-1.8096 37.227,-14.721 l 69.77,-69.654"
                 inkscape:connector-curvature="0"
                 style="fill:none;stroke:#000000;stroke-width:2.05609989;stroke-dasharray:8.22422762, 4.11211381" />
              <path
                 id="path4077"
                 d="m 714.91,220.95 47.156,0.14072 h 107.79 c 19.516,0 24.295,-1.8096 37.227,-14.721 l 69.77,-69.654"
                 inkscape:connector-curvature="0"
                 style="fill:none;stroke:#000000;stroke-width:2.05609989;stroke-dasharray:8.22422762, 4.11211381" />
            </g>
          </g>
        </g>
        <g
           id="g4083"
           transform="matrix(0.24825,0,0,0.23575,-81.5,342.29)">
          <g
             id="g4085"
             transform="translate(-696.92,42.622)">
            <path
               id="path4087"
               d="m 51.789,625.96 82.843,-81.324 h 135.88 l -83.198,81.324 z"
               transform="matrix(1.3571,0,0,1.3571,895.91,-503.35)"
               inkscape:connector-curvature="0"
               style="fill:#4d4d4d;stroke:#000000;stroke-width:1px;filter:url(#filter5066)" />
            <g
               id="g4089"
               transform="translate(264.76,34.823)">
              <path
                 id="path4091"
                 d="m 785.71,118.97 -56.595,55.714 c -13.78,13.566 -14.306,19.132 -14.306,37.313 v 32.272 c -2.6592,52.948 4.6283,54.857 49.695,54.857 h 107.79 c 19.516,0 24.204,-2.2219 37.227,-15.041 l 48.47,-47.709 c 17.801,-17.521 18.863,-31.451 18.863,-52.778 v -39.372 c 0,-38.514 -11.312,-36.789 -41.308,-36.789 h -118.11 c -16.409,0 -20.823,0.8042 -31.72,11.532 z"
                 inkscape:connector-curvature="0"
                 style="fill:url(#linearGradient3799);stroke:#000000;stroke-width:2.05609989" />
              <path
                 id="path4093"
                 d="m 754.82,188.76 h 95.525 c 42.501,0 43.89,9.7125 43.89,43.244 v 29.69 c 0,42.939 -17.176,37.435 -49.699,37.435 h -81.325 c -44.393,0 -48.408,-5.681 -48.408,-41.308 v -29.045 c 0,-39.879 7.8844,-40.017 40.017,-40.017 z"
                 inkscape:connector-curvature="0"
                 style="fill:#ececec;stroke:#000000;stroke-width:2.05609989" />
              <path
                 id="path4095"
                 d="m 777.99,170.16 c 0,0 6.558,8.0583 23.479,9.0804 16.921,1.0221 49.978,-10.538 39.949,-34.39 -3.8382,16.999 -35.223,28.185 -40.054,15.983 l 11.687,-4.6633 -38.897,-1.5406 -7.8491,20.194 z m 47.931,-50.957 c 0,0 -18.258,-0.10479 -31.258,6.9215 -13,7.02629 -15.007,25.757 32.804,30.172 -26.78,-7.9534 -25.238,-25.814 -0.97646,-23.424 l 0.28488,6.8345 28.489,-16.451 -29.629,-10.888 z m 63.511,35.007 c 0,0 8.9226,-8.8418 1.6918,-16.207 -7.2308,-7.3651 -42.103,-11.16 -73.389,11.37 28.008,-11.794 61.438,-8.3552 45.277,3.0546 l -13.21,-0.89124 17.86,16.299 34.981,-12.734 z"
                 inkscape:connector-curvature="0"
                 style="fill:#0097e1;filter:url(#filter6096)" />
              <text
                 id="text4097"
                 style="font-size:5.75699997px;font-weight:500;line-height:125%;letter-spacing:0px;word-spacing:0px;fill:#ff0000;font-family:Round Up"
                 font-weight="500"
                 xml:space="preserve"
                 font-size="5.757px"
                 line-height="125%"
                 y="256.41434"
                 x="785.99768"
                 sodipodi:linespacing="125%"><tspan
                   id="tspan4099"
                   font-weight="bold"
                   font-size="41.121px"
                   y="256.41434"
                   x="785.99768"
                   style="font-size:41.12099838px;font-weight:bold;fill:#ff0000;font-family:FreeSans">D</tspan></text>
              <path
                 id="path4101"
                 d="m 714.91,266.19 47.156,0.14073 h 107.79 c 19.516,0 24.295,-1.8096 37.227,-14.721 l 69.77,-69.654"
                 inkscape:connector-curvature="0"
                 style="fill:none;stroke:#000000;stroke-width:2.05609989;stroke-dasharray:8.22422762, 4.11211381" />
              <path
                 id="path4103"
                 d="m 714.91,220.95 47.156,0.14072 h 107.79 c 19.516,0 24.295,-1.8096 37.227,-14.721 l 69.77,-69.654"
                 inkscape:connector-curvature="0"
                 style="fill:none;stroke:#000000;stroke-width:2.05609989;stroke-dasharray:8.22422762, 4.11211381" />
            </g>
          </g>
        </g>
        <g
           id="g4107"
           transform="matrix(0.24825,0,0,0.23575,94.523,342.29)">
          <g
             id="g4109"
             transform="translate(-696.92,42.622)">
            <path
               id="path4111"
               d="m 51.789,625.96 82.843,-81.324 h 135.88 l -83.198,81.324 z"
               transform="matrix(1.3571,0,0,1.3571,895.91,-503.35)"
               inkscape:connector-curvature="0"
               style="fill:#4d4d4d;stroke:#000000;stroke-width:1px;filter:url(#filter5066)" />
            <g
               id="g4113"
               transform="translate(264.76,34.823)">
              <path
                 id="path4115"
                 d="m 785.71,118.97 -56.595,55.714 c -13.78,13.566 -14.306,19.132 -14.306,37.313 v 32.272 c -2.6592,52.948 4.6283,54.857 49.695,54.857 h 107.79 c 19.516,0 24.204,-2.2219 37.227,-15.041 l 48.47,-47.709 c 17.801,-17.521 18.863,-31.451 18.863,-52.778 v -39.372 c 0,-38.514 -11.312,-36.789 -41.308,-36.789 h -118.11 c -16.409,0 -20.823,0.8042 -31.72,11.532 z"
                 inkscape:connector-curvature="0"
                 style="fill:url(#linearGradient5345);stroke:#000000;stroke-width:2.05609989" />
              <path
                 id="path4117"
                 d="m 754.82,188.76 h 95.525 c 42.501,0 43.89,9.7125 43.89,43.244 v 29.69 c 0,42.939 -17.176,37.435 -49.699,37.435 h -81.325 c -44.393,0 -48.408,-5.681 -48.408,-41.308 v -29.045 c 0,-39.879 7.8844,-40.017 40.017,-40.017 z"
                 inkscape:connector-curvature="0"
                 style="fill:#ececec;stroke:#000000;stroke-width:2.05609989" />
              <path
                 id="path4119"
                 d="m 777.99,170.16 c 0,0 6.558,8.0583 23.479,9.0804 16.921,1.0221 49.978,-10.538 39.949,-34.39 -3.8382,16.999 -35.223,28.185 -40.054,15.983 l 11.687,-4.6633 -38.897,-1.5406 -7.8491,20.194 z m 47.931,-50.957 c 0,0 -18.258,-0.10479 -31.258,6.9215 -13,7.02629 -15.007,25.757 32.804,30.172 -26.78,-7.9534 -25.238,-25.814 -0.97646,-23.424 l 0.28488,6.8345 28.489,-16.451 -29.629,-10.888 z m 63.511,35.007 c 0,0 8.9226,-8.8418 1.6918,-16.207 -7.2308,-7.3651 -42.103,-11.16 -73.389,11.37 28.008,-11.794 61.438,-8.3552 45.277,3.0546 l -13.21,-0.89124 17.86,16.299 34.981,-12.734 z"
                 inkscape:connector-curvature="0"
                 style="fill:#0097e1;filter:url(#filter6096)" />
              <text
                 id="text4121"
                 style="font-size:5.75699997px;font-weight:500;line-height:125%;letter-spacing:0px;word-spacing:0px;fill:#000000;font-family:Round Up"
                 font-weight="500"
                 font-size="5.757px"
                 line-height="125%"
                 y="256.41434"
                 x="785.99768"
                 xml:space="preserve"
                 sodipodi:linespacing="125%"><tspan
                   id="tspan4123"
                   font-weight="bold"
                   font-size="41.121px"
                   y="256.41434"
                   x="785.99768"
                   style="font-size:41.12099838px;font-weight:bold;fill:#000000;font-family:FreeSans">E</tspan></text>
              <path
                 id="path4125"
                 d="m 714.91,266.19 47.156,0.14073 h 107.79 c 19.516,0 24.295,-1.8096 37.227,-14.721 l 69.77,-69.654"
                 inkscape:connector-curvature="0"
                 style="fill:none;stroke:#000000;stroke-width:2.05609989;stroke-dasharray:8.22422762, 4.11211381" />
              <path
                 id="path4127"
                 d="m 714.91,220.95 47.156,0.14072 h 107.79 c 19.516,0 24.295,-1.8096 37.227,-14.721 l 69.77,-69.654"
                 inkscape:connector-curvature="0"
                 style="fill:none;stroke:#000000;stroke-width:2.05609989;stroke-dasharray:8.22422762, 4.11211381" />
            </g>
          </g>
        </g>
        <rect
           id="rect3985"
           height="85.468002"
           width="94.779999"
           stroke-miterlimit="0"
           y="194.17999"
           x="-122.06"
           style="fill:none;stroke:#000000;stroke-width:0.50581002;stroke-miterlimit:0" />
        <text
           id="text3987"
           style="font-size:9.94789982px;line-height:125%;letter-spacing:0px;word-spacing:0px;fill:#000000;font-family:FreeSans"
           font-size="9.9479px"
           line-height="125%"
           y="207.39314"
           x="-115.05391"
           xml:space="preserve"
           sodipodi:linespacing="125%"><tspan
             id="tspan6124"
             y="207.39314"
             x="-115.05391">Routing table</tspan><tspan
             id="tspan5498"
             y="219.82806"
             x="-115.05391">A : 0 [ Local ]</tspan><tspan
             id="tspan5500"
             y="232.26299"
             x="-115.05391">D : 1 [South]</tspan><tspan
             id="tspan5502"
             y="244.69792"
             x="-115.05391">B : ∞</tspan><tspan
             id="tspan5504"
             y="257.13284"
             x="-115.05391">C : 3 [South]</tspan><tspan
             id="tspan5506"
             y="269.56778"
             x="-115.05391">E : 2 [South]</tspan></text>
        <text
           id="text4058"
           style="font-size:9.94789982px;font-weight:bold;line-height:125%;letter-spacing:0px;word-spacing:0px;font-family:FreeSans"
           line-height="125%"
           font-weight="bold"
           font-size="9.9479px"
           y="341.40176"
           x="-116.60799"
           xml:space="preserve"
           sodipodi:linespacing="125%"><tspan
             id="tspan10825"
             y="341.40176"
             x="-116.60799"
             style="fill:#000000">Routing table</tspan><tspan
             id="tspan3716"
             y="353.8367"
             x="-116.60799"
             style="fill:#000000">D : 0 [Local]</tspan><tspan
             id="tspan3718"
             y="366.27161"
             x="-116.60799"
             style="fill:#000000">A : 1 [North]</tspan><tspan
             id="tspan3720"
             y="378.70654"
             x="-116.60799"
             style="fill:#000000">E : 1 [East]</tspan><tspan
             id="tspan3722"
             y="391.14145"
             x="-116.60799"
             style="fill:#000000">C : 2 [East]</tspan><tspan
             id="tspan3724"
             y="403.57639"
             x="-116.60799"
             style="fill:#0000ff">B : 2 [East]</tspan></text>
        <text
           id="text4099"
           style="font-size:9.94789982px;font-weight:bold;line-height:125%;letter-spacing:0px;word-spacing:0px;font-family:FreeSans"
           line-height="125%"
           font-weight="bold"
           font-size="9.9479px"
           y="176.46687"
           x="170.7271"
           xml:space="preserve"
           sodipodi:linespacing="125%"><tspan
             id="tspan6154"
             y="176.46687"
             x="170.7271"
             style="fill:#000000">Routing table</tspan><tspan
             id="tspan3746"
             y="188.90179"
             x="170.7271"
             style="fill:#000000">B : 0 [Local]</tspan><tspan
             id="tspan3748"
             y="201.33672"
             x="170.7271"
             style="fill:#0000ff">A : 3 [South]</tspan><tspan
             id="tspan3750"
             y="213.77165"
             x="170.7271"
             style="fill:#000000">C : 1 [East]</tspan><tspan
             id="tspan3752"
             y="226.20657"
             x="170.7271"
             style="fill:#000000">E : 1 [South]</tspan><tspan
             id="tspan3754"
             y="238.64149"
             x="170.7271"
             style="fill:#000000">D : 2 [South]</tspan></text>
        <rect
           id="rect4116"
           height="81.216003"
           width="113.4885"
           stroke-miterlimit="0"
           y="167.66016"
           x="378.36917"
           style="fill:none;stroke:#000000;stroke-width:0.53954315;stroke-miterlimit:0" />
        <text
           id="text4118"
           style="font-size:9.94789982px;font-weight:bold;line-height:125%;letter-spacing:0px;word-spacing:0px;font-family:FreeSans"
           line-height="125%"
           font-weight="bold"
           font-size="9.9479px"
           y="178.94148"
           x="383.95416"
           xml:space="preserve"
           sodipodi:linespacing="125%"><tspan
             id="tspan6311"
             y="178.94148"
             x="383.95416"
             style="fill:#000000">Routing table</tspan><tspan
             id="tspan3778"
             y="191.3764"
             x="383.95416"
             style="fill:#000000">C : 0 [Local]</tspan><tspan
             id="tspan3780"
             y="203.81133"
             x="383.95416"
             style="fill:#000000">E : 1 [South-West]</tspan><tspan
             id="tspan3782"
             y="216.24626"
             x="383.95416"
             style="fill:#000000">D : 2 [South-West]</tspan><tspan
             id="tspan3784"
             y="228.68118"
             x="383.95416"
             style="fill:#0000ff">A: 3 [South-West]</tspan><tspan
             id="tspan3786"
             y="241.1161"
             x="383.95416"
             style="fill:#000000">B : 1 [West]</tspan></text>
        <rect
           id="rect4134"
           height="82.102997"
           width="112.06969"
           stroke-miterlimit="0"
           y="395.01001"
           x="302.64999"
           style="fill:none;stroke:#000000;stroke-width:0.53907412;stroke-miterlimit:0" />
        <text
           id="text4136"
           style="font-size:9.94789982px;font-weight:bold;line-height:125%;letter-spacing:0px;word-spacing:0px;fill:#000000;font-family:FreeSans"
           line-height="125%"
           font-weight="bold"
           font-size="9.9479px"
           y="409.0043"
           x="310.43311"
           xml:space="preserve"
           sodipodi:linespacing="125%"><tspan
             id="tspan5998"
             y="409.0043"
             x="310.43311">Routing table</tspan><tspan
             id="tspan6206"
             y="421.43924"
             x="310.43311">E : 0 [Local]</tspan><tspan
             id="tspan6208"
             y="433.87415"
             x="310.43311">D : 1 [West]</tspan><tspan
             id="tspan6210"
             y="446.30908"
             x="310.43311">A : 2 [West]</tspan><tspan
             id="tspan6212"
             y="458.74399"
             x="310.43311">C : 1 [North-East]</tspan><tspan
             id="tspan6214"
             y="471.17892"
             x="310.43311">B : 1 [North]</tspan></text>
        <rect
           id="rect6294"
           height="88.052002"
           width="94.779999"
           stroke-miterlimit="0"
           y="324.29999"
           x="-123.61"
           style="fill:none;stroke:#000000;stroke-width:0.51340002;stroke-miterlimit:0" />
        <rect
           id="rect6301"
           height="86.807999"
           width="94.779999"
           stroke-miterlimit="0"
           y="162.47"
           x="163.72"
           style="fill:none;stroke:#000000;stroke-width:0.50976002;stroke-miterlimit:0" />
        <path
           id="path2"
           d="m 105.94,294.5 0.36324,-0.21794 0.14529,0.14529 q 0.1453,0.1453 0.72647,2.3247 0.58117,2.1794 1.6709,4.1409 1.08973,1.9615 1.3803,1.9615 h 0.29059 l 0.58118,-0.72647 q 0.58117,-0.72646 1.0897,-1.3803 0.50853,-0.65382 0.94441,-1.235 0.43588,-0.58118 0.65382,-0.79912 l 0.21794,-0.21794 0.72647,-0.14529 q 0.72646,-0.14529 2.7606,0.21794 l 2.0341,0.36323 -0.21794,0.87177 q -0.21794,0.87176 -0.9444,1.7435 -0.72647,0.87176 -1.1624,1.4529 -0.43588,0.58118 -1.3076,1.5982 -0.87176,1.0171 -1.3076,1.5982 -0.43588,0.58118 -0.43588,1.0171 v 0.43588 l 0.94441,0.79911 q 0.94441,0.79912 2.8332,1.6709 1.8888,0.87176 5.3759,1.7435 l 3.487,0.87176 -1.5982,0.87177 q -1.5982,0.87176 -2.47,1.1623 -0.87176,0.29059 -2.47,0.1453 -1.5982,-0.1453 -3.7776,-0.72647 -2.1794,-0.58117 -3.0512,-1.0171 -0.87176,-0.43588 -1.7435,-1.017 -0.87176,-0.58117 -1.3076,-0.58117 h -0.43588 l -1.7435,1.5982 q -1.7435,1.5982 -2.6153,2.1794 -0.87176,0.58117 -1.5982,1.1624 -0.72647,0.58117 -2.0341,1.1624 -1.3076,0.58117 -1.7435,0.58117 h -0.43588 l 0.21794,-0.36323 q 0.21794,-0.36324 0.79911,-1.235 0.58118,-0.87176 1.1624,-1.5982 0.58118,-0.72647 1.3076,-1.8888 0.72647,-1.1623 1.4529,-2.0341 0.72647,-0.87176 1.3076,-1.7435 l 0.58118,-0.87176 -0.1453,-0.58117 q -0.14529,-0.58118 -0.58117,-1.1624 -0.43588,-0.58118 -1.5982,-2.7606 -1.1624,-2.1794 -1.7435,-3.6323 -0.58118,-1.4529 -0.58118,-1.8888 v -0.43588 l 1.8162,-1.6709 q 1.8162,-1.6709 2.1794,-1.8888 z"
           inkscape:connector-curvature="0"
           style="fill:#8f0000;fill-rule:evenodd;stroke-width:0px" />
        <g
           id="g6316"
           transform="translate(-48.927,0.98887)">
          <text
             id="text4487"
             style="font-size:9.94789982px;font-weight:bold;line-height:125%;letter-spacing:0px;word-spacing:0px;fill:#000000;font-family:FreeSans"
             line-height="125%"
             font-weight="bold"
             font-size="9.9479px"
             y="362.96735"
             x="83.586418"
             xml:space="preserve"
             sodipodi:linespacing="125%"><tspan
               id="tspan4489"
               y="362.96735"
               x="83.586418">A=1;B=2;C=2;D=1;E=1</tspan></text>
          <rect
             id="rect4491"
             height="15.939"
             width="116.78"
             stroke-miterlimit="0"
             y="351.79999"
             x="76.748001"
             style="fill:none;stroke:#000000;stroke-width:0.24246;stroke-miterlimit:0" />
        </g>
        <path
           id="path6024"
           d="m 19.377,338.29 v 38.266"
           inkscape:connector-curvature="0"
           style="fill:none;stroke:#000000;stroke-width:1px;marker-start:url(#Arrow1Mstart-3)" />
        <path
           id="path5508"
           d="m 393.24,229.55 h 75.91"
           inkscape:connector-curvature="0"
           style="fill:#0000f6;stroke:#0622f5;stroke-width:1.92519999px" />
        <path
           id="path5510"
           d="m -116.27,406.79 h 52.367"
           inkscape:connector-curvature="0"
           style="fill:#0000f6;stroke:#0622f5;stroke-width:1.59899998px" />
        <path
           id="path3756"
           d="m 173.74,202.36 h 51.741"
           inkscape:connector-curvature="0"
           style="fill:#0000f6;stroke:#0622f5;stroke-width:1.58940005px" />
      </g>
    </g>
  </g>
</svg>
