<?xml version="1.0" encoding="UTF-8" standalone="no"?>
<!-- Created with Inkscape (http://www.inkscape.org/) -->
<svg id="svg2" xmlns:rdf="http://www.w3.org/1999/02/22-rdf-syntax-ns#" xmlns="http://www.w3.org/2000/svg" viewBox="0 0 744.09 1052.4" version="1.1" xmlns:cc="http://creativecommons.org/ns#" xmlns:xlink="http://www.w3.org/1999/xlink" xmlns:dc="http://purl.org/dc/elements/1.1/">
 <defs id="defs4">
  <marker id="Arrow1Mend" refY="0.0" refX="0.0" orient="auto" overflow="visible">
   <path id="path4221" d="m0 0l5-5-17.5 5 17.5 5-5-5z" fill-rule="evenodd" transform="scale(.4) rotate(180) translate(10)" stroke="#000" stroke-width="1pt"/>
  </marker>
  <linearGradient id="linearGradient3791-7">
   <stop id="stop3793-0" stop-color="#c6c6c6" offset="0"/>
   <stop id="stop3799-2" stop-color="#fff" offset=".60029"/>
   <stop id="stop3795-9" stop-color="#a4a4a4" offset="1"/>
  </linearGradient>
  <filter id="filter6096" color-interpolation-filters="sRGB">
   <feGaussianBlur id="feGaussianBlur6098" stdDeviation="2" result="result8"/>
   <feOffset id="feOffset6100" result="result11" dx="3" dy="3"/>
   <feComposite id="feComposite6102" operator="in" result="result6" in2="result11" in="SourceGraphic"/>
   <feFlood id="feFlood6104" result="result10" in="result6" flood-color="rgb(0,0,0)"/>
   <feBlend id="feBlend6106" mode="normal" result="result12" in2="result10" in="result6"/>
   <feComposite id="feComposite6108" operator="in" result="result2" in2="SourceGraphic"/>
  </filter>
  <filter id="filter5066" height="1.3542" width="1.1317" y="-.17710" x="-.065847">
   <feGaussianBlur id="feGaussianBlur5068" stdDeviation="6.0009211"/>
  </filter>
  <marker id="Arrow1Mstart-3" refY="0.0" refX="0.0" orient="auto" overflow="visible">
   <path id="path4218-6" d="m0 0l5-5-17.5 5 17.5 5-5-5z" fill-rule="evenodd" transform="scale(.4) translate(10)" stroke="#000" stroke-width="1pt"/>
  </marker>
  <linearGradient id="linearGradient5345" y2="237.12" xlink:href="#linearGradient3791-7" gradientUnits="userSpaceOnUse" x2="341.44" gradientTransform="translate(617.12 -.21672)" y1="66.831" x1="191.34"/>
 </defs>
 <metadata id="metadata7">
  <rdf:RDF>
   <cc:Work rdf:about="">
    <dc:format>image/svg+xml</dc:format>
    <dc:type rdf:resource="http://purl.org/dc/dcmitype/StillImage"/>
    <dc:title/>
   </cc:Work>
  </rdf:RDF>
 </metadata>
 <g id="layer1">
  <text id="text5136" style="word-spacing:0px;letter-spacing:0px" font-size="48px" line-height="125%" y="292.91492" x="610.57544" font-family="FreeSans" xml:space="preserve" fill="#000000"><tspan id="tspan5138" x="610.57544" y="292.91492"/></text>
  <text id="text5136-3" style="word-spacing:0px;letter-spacing:0px" xml:space="preserve" font-size="48px" line-height="125%" y="838.08514" x="613.39978" font-family="FreeSans" fill="#000000"><tspan id="tspan5138-2" y="838.08514" x="613.39978"/></text>
  <g id="g5888" transform="translate(180.96 -65.062)">
   <g id="g3788">
    <path id="path4839" marker-end="url(#Arrow1Mend)" d="m203.53 292.12v-41.183" stroke="#000" stroke-width="1px" fill="none"/>
    <path id="path4843" marker-end="url(#Arrow1Mend)" d="m3.8333 292.45-30.304-38.85" stroke="#000" stroke-width="1px" fill="none"/>
    <path id="path4841" marker-end="url(#Arrow1Mend)" d="m3.0562 399.68-30.304-39.63" stroke="#000" stroke-width="1px" fill="none"/>
    <path id="path4655" marker-end="url(#Arrow1Mend)" d="m382.25 290.89 22.534-39.629" stroke="#000" stroke-width="1px" fill="none"/>
    <path id="path4207" marker-end="url(#Arrow1Mend)" d="m219.85 415.22h80.812" stroke="#000" stroke-miterlimit="3" fill="none"/>
    <path id="path4147" d="m227.12 401.83 127.97-88.53" stroke="#000" stroke-width=".73354px" fill="none"/>
    <path id="path4145" d="m192.38 324.3v65.434" stroke="#000" stroke-width=".73354px" fill="none"/>
    <path id="path4143" d="m40.678 409.53h130.28" stroke="#000" stroke-width=".73354px" fill="none"/>
    <path id="path4141" d="m221.33 306.7h130.28" stroke="#000" stroke-width=".73354px" fill="none"/>
    <path id="path4139" d="m14.043 324.85v65.434" stroke="#000" stroke-width=".73354px" fill="none"/>
    <path id="path4135" d="m40.099 307.8h130.28" stroke="#000" stroke-width=".73354px" fill="none"/>
    <g id="layer1-9" transform="matrix(.24825 0 0 .23575 -81.5 241.11)">
     <g id="g5103" transform="translate(-696.92 42.622)">
      <path id="path5070" d="m51.789 625.96 82.843-81.324h135.88l-83.198 81.324z" transform="matrix(1.3571 0 0 1.3571 895.91 -503.35)" filter="url(#filter5066)" stroke="#000" stroke-width="1px" fill="#4d4d4d"/>
      <g id="g4916" transform="translate(264.76 34.823)">
       <path id="path4918" d="m785.71 118.97-56.595 55.714c-13.78 13.566-14.306 19.132-14.306 37.313v32.272c-2.6592 52.948 4.6283 54.857 49.695 54.857h107.79c19.516 0 24.204-2.2219 37.227-15.041l48.47-47.709c17.801-17.521 18.863-31.451 18.863-52.778v-39.372c0-38.514-11.312-36.789-41.308-36.789h-118.11c-16.409 0-20.823 0.8042-31.72 11.532z" stroke="#000" stroke-width="2.0561" fill="url(#linearGradient5345)"/>
       <path id="path4920" d="m754.82 188.76h95.525c42.501 0 43.89 9.7125 43.89 43.244v29.69c0 42.939-17.176 37.435-49.699 37.435h-81.325c-44.393 0-48.408-5.681-48.408-41.308v-29.045c0-39.879 7.8844-40.017 40.017-40.017z" stroke="#000" stroke-width="2.0561" fill="#ececec"/>
       <path id="path4922" d="m777.99 170.16s6.558 8.0583 23.479 9.0804 49.978-10.538 39.949-34.39c-3.8382 16.999-35.223 28.185-40.054 15.983l11.687-4.6633-38.897-1.5406-7.8491 20.194zm47.931-50.957s-18.258-0.10479-31.258 6.9215-15.007 25.757 32.804 30.172c-26.78-7.9534-25.238-25.814-0.97646-23.424l0.28488 6.8345 28.489-16.451-29.629-10.888zm63.511 35.007s8.9226-8.8418 1.6918-16.207c-7.2308-7.3651-42.103-11.16-73.389 11.37 28.008-11.794 61.438-8.3552 45.277 3.0546l-13.21-0.89124 17.86 16.299 34.981-12.734z" filter="url(#filter6096)" fill="#0097e1"/>
       <text id="text4924" style="word-spacing:0px;letter-spacing:0px" font-weight="500" font-size="5.757px" line-height="125%" y="256.41434" x="785.99768" font-family="Round Up" xml:space="preserve" fill="#000000"><tspan id="tspan4926" font-weight="bold" font-size="41.121px" y="256.41434" x="785.99768" font-family="FreeSans" fill="#000000">A</tspan></text>
       <path id="path4928" d="m714.91 266.19 47.156 0.14073h107.79c19.516 0 24.295-1.8096 37.227-14.721l69.77-69.654" stroke="#000" stroke-dasharray="8.22422762, 4.11211381" stroke-width="2.0561" fill="none"/>
       <path id="path4930" d="m714.91 220.95 47.156 0.14072h107.79c19.516 0 24.295-1.8096 37.227-14.721l69.77-69.654" stroke="#000" stroke-dasharray="8.22422762, 4.11211381" stroke-width="2.0561" fill="none"/>
      </g>
     </g>
    </g>
    <g id="g4031" transform="matrix(.24825 0 0 .23575 94.523 241.11)">
     <g id="g4033" transform="translate(-696.92 42.622)">
      <path id="path4035" d="m51.789 625.96 82.843-81.324h135.88l-83.198 81.324z" transform="matrix(1.3571 0 0 1.3571 895.91 -503.35)" filter="url(#filter5066)" stroke="#000" stroke-width="1px" fill="#4d4d4d"/>
      <g id="g4037" transform="translate(264.76 34.823)">
       <path id="path4039" d="m785.71 118.97-56.595 55.714c-13.78 13.566-14.306 19.132-14.306 37.313v32.272c-2.6592 52.948 4.6283 54.857 49.695 54.857h107.79c19.516 0 24.204-2.2219 37.227-15.041l48.47-47.709c17.801-17.521 18.863-31.451 18.863-52.778v-39.372c0-38.514-11.312-36.789-41.308-36.789h-118.11c-16.409 0-20.823 0.8042-31.72 11.532z" stroke="#000" stroke-width="2.0561" fill="url(#linearGradient5345)"/>
       <path id="path4041" d="m754.82 188.76h95.525c42.501 0 43.89 9.7125 43.89 43.244v29.69c0 42.939-17.176 37.435-49.699 37.435h-81.325c-44.393 0-48.408-5.681-48.408-41.308v-29.045c0-39.879 7.8844-40.017 40.017-40.017z" stroke="#000" stroke-width="2.0561" fill="#ececec"/>
       <path id="path4043" d="m777.99 170.16s6.558 8.0583 23.479 9.0804 49.978-10.538 39.949-34.39c-3.8382 16.999-35.223 28.185-40.054 15.983l11.687-4.6633-38.897-1.5406-7.8491 20.194zm47.931-50.957s-18.258-0.10479-31.258 6.9215-15.007 25.757 32.804 30.172c-26.78-7.9534-25.238-25.814-0.97646-23.424l0.28488 6.8345 28.489-16.451-29.629-10.888zm63.511 35.007s8.9226-8.8418 1.6918-16.207c-7.2308-7.3651-42.103-11.16-73.389 11.37 28.008-11.794 61.438-8.3552 45.277 3.0546l-13.21-0.89124 17.86 16.299 34.981-12.734z" filter="url(#filter6096)" fill="#0097e1"/>
       <text id="text4045" style="word-spacing:0px;letter-spacing:0px" font-weight="500" xml:space="preserve" font-size="5.757px" line-height="125%" y="256.41434" x="785.99768" font-family="Round Up" fill="#000000"><tspan id="tspan4047" font-weight="bold" font-size="41.121px" y="256.41434" x="785.99768" font-family="FreeSans" fill="#000000">B</tspan></text>
       <path id="path4049" d="m714.91 266.19 47.156 0.14073h107.79c19.516 0 24.295-1.8096 37.227-14.721l69.77-69.654" stroke="#000" stroke-dasharray="8.22422762, 4.11211381" stroke-width="2.0561" fill="none"/>
       <path id="path4051" d="m714.91 220.95 47.156 0.14072h107.79c19.516 0 24.295-1.8096 37.227-14.721l69.77-69.654" stroke="#000" stroke-dasharray="8.22422762, 4.11211381" stroke-width="2.0561" fill="none"/>
      </g>
     </g>
    </g>
    <g id="g4057" transform="matrix(.24825 0 0 .23575 270.55 241.11)">
     <g id="g4059" transform="translate(-696.92 42.622)">
      <path id="path4061" d="m51.789 625.96 82.843-81.324h135.88l-83.198 81.324z" transform="matrix(1.3571 0 0 1.3571 895.91 -503.35)" filter="url(#filter5066)" stroke="#000" stroke-width="1px" fill="#4d4d4d"/>
      <g id="g4063" transform="translate(264.76 34.823)">
       <path id="path4065" d="m785.71 118.97-56.595 55.714c-13.78 13.566-14.306 19.132-14.306 37.313v32.272c-2.6592 52.948 4.6283 54.857 49.695 54.857h107.79c19.516 0 24.204-2.2219 37.227-15.041l48.47-47.709c17.801-17.521 18.863-31.451 18.863-52.778v-39.372c0-38.514-11.312-36.789-41.308-36.789h-118.11c-16.409 0-20.823 0.8042-31.72 11.532z" stroke="#000" stroke-width="2.0561" fill="url(#linearGradient5345)"/>
       <path id="path4067" d="m754.82 188.76h95.525c42.501 0 43.89 9.7125 43.89 43.244v29.69c0 42.939-17.176 37.435-49.699 37.435h-81.325c-44.393 0-48.408-5.681-48.408-41.308v-29.045c0-39.879 7.8844-40.017 40.017-40.017z" stroke="#000" stroke-width="2.0561" fill="#ececec"/>
       <path id="path4069" d="m777.99 170.16s6.558 8.0583 23.479 9.0804 49.978-10.538 39.949-34.39c-3.8382 16.999-35.223 28.185-40.054 15.983l11.687-4.6633-38.897-1.5406-7.8491 20.194zm47.931-50.957s-18.258-0.10479-31.258 6.9215-15.007 25.757 32.804 30.172c-26.78-7.9534-25.238-25.814-0.97646-23.424l0.28488 6.8345 28.489-16.451-29.629-10.888zm63.511 35.007s8.9226-8.8418 1.6918-16.207c-7.2308-7.3651-42.103-11.16-73.389 11.37 28.008-11.794 61.438-8.3552 45.277 3.0546l-13.21-0.89124 17.86 16.299 34.981-12.734z" filter="url(#filter6096)" fill="#0097e1"/>
       <text id="text4071" style="word-spacing:0px;letter-spacing:0px" font-weight="500" font-size="5.757px" line-height="125%" y="256.41434" x="785.99768" font-family="Round Up" xml:space="preserve" fill="#000000"><tspan id="tspan4073" font-weight="bold" font-size="41.121px" y="256.41434" x="785.99768" font-family="FreeSans" fill="#000000">C</tspan></text>
       <path id="path4075" d="m714.91 266.19 47.156 0.14073h107.79c19.516 0 24.295-1.8096 37.227-14.721l69.77-69.654" stroke="#000" stroke-dasharray="8.22422762, 4.11211381" stroke-width="2.0561" fill="none"/>
       <path id="path4077" d="m714.91 220.95 47.156 0.14072h107.79c19.516 0 24.295-1.8096 37.227-14.721l69.77-69.654" stroke="#000" stroke-dasharray="8.22422762, 4.11211381" stroke-width="2.0561" fill="none"/>
      </g>
     </g>
    </g>
    <g id="g4083" transform="matrix(.24825 0 0 .23575 -81.5 342.29)">
     <g id="g4085" transform="translate(-696.92 42.622)">
      <path id="path4087" d="m51.789 625.96 82.843-81.324h135.88l-83.198 81.324z" transform="matrix(1.3571 0 0 1.3571 895.91 -503.35)" filter="url(#filter5066)" stroke="#000" stroke-width="1px" fill="#4d4d4d"/>
      <g id="g4089" transform="translate(264.76 34.823)">
       <path id="path4091" d="m785.71 118.97-56.595 55.714c-13.78 13.566-14.306 19.132-14.306 37.313v32.272c-2.6592 52.948 4.6283 54.857 49.695 54.857h107.79c19.516 0 24.204-2.2219 37.227-15.041l48.47-47.709c17.801-17.521 18.863-31.451 18.863-52.778v-39.372c0-38.514-11.312-36.789-41.308-36.789h-118.11c-16.409 0-20.823 0.8042-31.72 11.532z" stroke="#000" stroke-width="2.0561" fill="url(#linearGradient5345)"/>
       <path id="path4093" d="m754.82 188.76h95.525c42.501 0 43.89 9.7125 43.89 43.244v29.69c0 42.939-17.176 37.435-49.699 37.435h-81.325c-44.393 0-48.408-5.681-48.408-41.308v-29.045c0-39.879 7.8844-40.017 40.017-40.017z" stroke="#000" stroke-width="2.0561" fill="#ececec"/>
       <path id="path4095" d="m777.99 170.16s6.558 8.0583 23.479 9.0804 49.978-10.538 39.949-34.39c-3.8382 16.999-35.223 28.185-40.054 15.983l11.687-4.6633-38.897-1.5406-7.8491 20.194zm47.931-50.957s-18.258-0.10479-31.258 6.9215-15.007 25.757 32.804 30.172c-26.78-7.9534-25.238-25.814-0.97646-23.424l0.28488 6.8345 28.489-16.451-29.629-10.888zm63.511 35.007s8.9226-8.8418 1.6918-16.207c-7.2308-7.3651-42.103-11.16-73.389 11.37 28.008-11.794 61.438-8.3552 45.277 3.0546l-13.21-0.89124 17.86 16.299 34.981-12.734z" filter="url(#filter6096)" fill="#0097e1"/>
       <text id="text4097" style="word-spacing:0px;letter-spacing:0px" font-weight="500" xml:space="preserve" font-size="5.757px" line-height="125%" y="256.41434" x="785.99768" font-family="Round Up" fill="#ff0000"><tspan id="tspan4099" font-weight="bold" font-size="41.121px" y="256.41434" x="785.99768" font-family="FreeSans" fill="#ff0000">D</tspan></text>
       <path id="path4101" d="m714.91 266.19 47.156 0.14073h107.79c19.516 0 24.295-1.8096 37.227-14.721l69.77-69.654" stroke="#000" stroke-dasharray="8.22422762, 4.11211381" stroke-width="2.0561" fill="none"/>
       <path id="path4103" d="m714.91 220.95 47.156 0.14072h107.79c19.516 0 24.295-1.8096 37.227-14.721l69.77-69.654" stroke="#000" stroke-dasharray="8.22422762, 4.11211381" stroke-width="2.0561" fill="none"/>
      </g>
     </g>
    </g>
    <g id="g4107" transform="matrix(.24825 0 0 .23575 94.523 342.29)">
     <g id="g4109" transform="translate(-696.92 42.622)">
      <path id="path4111" d="m51.789 625.96 82.843-81.324h135.88l-83.198 81.324z" transform="matrix(1.3571 0 0 1.3571 895.91 -503.35)" filter="url(#filter5066)" stroke="#000" stroke-width="1px" fill="#4d4d4d"/>
      <g id="g4113" transform="translate(264.76 34.823)">
       <path id="path4115" d="m785.71 118.97-56.595 55.714c-13.78 13.566-14.306 19.132-14.306 37.313v32.272c-2.6592 52.948 4.6283 54.857 49.695 54.857h107.79c19.516 0 24.204-2.2219 37.227-15.041l48.47-47.709c17.801-17.521 18.863-31.451 18.863-52.778v-39.372c0-38.514-11.312-36.789-41.308-36.789h-118.11c-16.409 0-20.823 0.8042-31.72 11.532z" stroke="#000" stroke-width="2.0561" fill="url(#linearGradient5345)"/>
       <path id="path4117" d="m754.82 188.76h95.525c42.501 0 43.89 9.7125 43.89 43.244v29.69c0 42.939-17.176 37.435-49.699 37.435h-81.325c-44.393 0-48.408-5.681-48.408-41.308v-29.045c0-39.879 7.8844-40.017 40.017-40.017z" stroke="#000" stroke-width="2.0561" fill="#ececec"/>
       <path id="path4119" d="m777.99 170.16s6.558 8.0583 23.479 9.0804 49.978-10.538 39.949-34.39c-3.8382 16.999-35.223 28.185-40.054 15.983l11.687-4.6633-38.897-1.5406-7.8491 20.194zm47.931-50.957s-18.258-0.10479-31.258 6.9215-15.007 25.757 32.804 30.172c-26.78-7.9534-25.238-25.814-0.97646-23.424l0.28488 6.8345 28.489-16.451-29.629-10.888zm63.511 35.007s8.9226-8.8418 1.6918-16.207c-7.2308-7.3651-42.103-11.16-73.389 11.37 28.008-11.794 61.438-8.3552 45.277 3.0546l-13.21-0.89124 17.86 16.299 34.981-12.734z" filter="url(#filter6096)" fill="#0097e1"/>
       <text id="text4121" style="word-spacing:0px;letter-spacing:0px" font-weight="500" font-size="5.757px" line-height="125%" y="256.41434" x="785.99768" font-family="Round Up" xml:space="preserve" fill="#000000"><tspan id="tspan4123" font-weight="bold" font-size="41.121px" y="256.41434" x="785.99768" font-family="FreeSans" fill="#000000">E</tspan></text>
       <path id="path4125" d="m714.91 266.19 47.156 0.14073h107.79c19.516 0 24.295-1.8096 37.227-14.721l69.77-69.654" stroke="#000" stroke-dasharray="8.22422762, 4.11211381" stroke-width="2.0561" fill="none"/>
       <path id="path4127" d="m714.91 220.95 47.156 0.14072h107.79c19.516 0 24.295-1.8096 37.227-14.721l69.77-69.654" stroke="#000" stroke-dasharray="8.22422762, 4.11211381" stroke-width="2.0561" fill="none"/>
      </g>
     </g>
    </g>
    <rect id="rect3985" height="85.468" width="94.78" stroke="#000" stroke-miterlimit="0" y="194.18" x="-122.06" stroke-width=".50581" fill="none"/>
    <text id="text3987" style="word-spacing:0px;letter-spacing:0px" font-size="9.9479px" line-height="125%" y="207.39314" x="-115.05391" font-family="FreeSans" xml:space="preserve" fill="#000000"><tspan id="tspan6124" y="207.39314" x="-115.05391">Routing table</tspan><tspan id="tspan5498" y="219.82806" x="-115.05391">A : 0 [ Local ]</tspan><tspan id="tspan5500" y="232.26299" x="-115.05391">D : 1 [South]</tspan><tspan id="tspan5502" y="244.69792" x="-115.05391">B : ∞</tspan><tspan id="tspan5504" y="257.13284" x="-115.05391">C : 3 [South]</tspan><tspan id="tspan5506" y="269.56778" x="-115.05391">E : 2 [South]</tspan></text>
    <text id="text4058" style="word-spacing:0px;letter-spacing:0px" line-height="125%" font-weight="bold" font-size="9.9479px" y="341.40176" x="-116.60799" font-family="FreeSans" xml:space="preserve"><tspan id="tspan10825" y="341.40176" x="-116.60799" fill="#000000">Routing table</tspan><tspan id="tspan3716" y="353.8367" x="-116.60799" fill="#000000">D : 0 [Local]</tspan><tspan id="tspan3718" y="366.27161" x="-116.60799" fill="#000000">A : 1 [North]</tspan><tspan id="tspan3720" y="378.70654" x="-116.60799" fill="#000000">E : 1 [East]</tspan><tspan id="tspan3722" y="391.14145" x="-116.60799" fill="#000000">C : 2 [East]</tspan><tspan id="tspan3724" y="403.57639" x="-116.60799" fill="#0000ff">B : 2 [East]</tspan></text>
    <text id="text4099" style="word-spacing:0px;letter-spacing:0px" line-height="125%" font-weight="bold" font-size="9.9479px" y="176.46687" x="170.7271" font-family="FreeSans" xml:space="preserve"><tspan id="tspan6154" y="176.46687" x="170.7271" fill="#000000">Routing table</tspan><tspan id="tspan3746" y="188.90179" x="170.7271" fill="#000000">B : 0 [Local]</tspan><tspan id="tspan3748" y="201.33672" x="170.7271" fill="#0000ff">A : 3 [South]</tspan><tspan id="tspan3750" y="213.77165" x="170.7271" fill="#000000">C : 1 [East]</tspan><tspan id="tspan3752" y="226.20657" x="170.7271" fill="#000000">E : 1 [South]</tspan><tspan id="tspan3754" y="238.64149" x="170.7271" fill="#000000">D : 2 [South]</tspan></text>
    <rect id="rect4116" height="81.216" width="94.78" stroke="#000" stroke-miterlimit="0" y="166.24" x="386.18" stroke-width=".49307" fill="none"/>
    <text id="text4118" style="word-spacing:0px;letter-spacing:0px" line-height="125%" font-weight="bold" font-size="9.9479px" y="178.2314" x="393.18515" font-family="FreeSans" xml:space="preserve"><tspan id="tspan6311" y="178.2314" x="393.18515" fill="#000000">Routing table</tspan><tspan id="tspan3778" y="190.66632" x="393.18515" fill="#000000">C : 0 [Local]</tspan><tspan id="tspan3780" y="203.10124" x="393.18515" fill="#000000">E : 1 [South-West]</tspan><tspan id="tspan3782" y="215.53618" x="393.18515" fill="#000000">D : 2 [South-West]</tspan><tspan id="tspan3784" y="227.9711" x="393.18515" fill="#0000ff">A: 3 [South-West]</tspan><tspan id="tspan3786" y="240.40602" x="393.18515" fill="#000000">B : 1 [West]</tspan></text>
    <rect id="rect4134" height="82.103" width="94.78" stroke="#000" stroke-miterlimit="0" y="395.01" x="302.65" stroke-width=".49575" fill="none"/>
    <text id="text4136" style="word-spacing:0px;letter-spacing:0px" line-height="125%" font-weight="bold" font-size="9.9479px" y="409.0043" x="310.43311" font-family="FreeSans" xml:space="preserve" fill="#000000"><tspan id="tspan5998" y="409.0043" x="310.43311">Routing table</tspan><tspan id="tspan6206" y="421.43924" x="310.43311">E : 0 [Local]</tspan><tspan id="tspan6208" y="433.87415" x="310.43311">D : 1 [West]</tspan><tspan id="tspan6210" y="446.30908" x="310.43311">A : 2 [West]</tspan><tspan id="tspan6212" y="458.74399" x="310.43311">C : 1 [North-East]</tspan><tspan id="tspan6214" y="471.17892" x="310.43311">B : 1 [North]</tspan></text>
    <rect id="rect6294" height="88.052" width="94.78" stroke="#000" stroke-miterlimit="0" y="324.3" x="-123.61" stroke-width=".51340" fill="none"/>
    <rect id="rect6301" height="86.808" width="94.78" stroke="#000" stroke-miterlimit="0" y="162.47" x="163.72" stroke-width=".50976" fill="none"/>
    <path id="path2" d="m105.94 294.5 0.36324-0.21794 0.14529 0.14529q0.1453 0.1453 0.72647 2.3247t1.6709 4.1409 1.3803 1.9615h0.29059l0.58118-0.72647q0.58117-0.72646 1.0897-1.3803 0.50853-0.65382 0.94441-1.235t0.65382-0.79912l0.21794-0.21794 0.72647-0.14529q0.72646-0.14529 2.7606 0.21794l2.0341 0.36323-0.21794 0.87177q-0.21794 0.87176-0.9444 1.7435-0.72647 0.87176-1.1624 1.4529-0.43588 0.58118-1.3076 1.5982-0.87176 1.0171-1.3076 1.5982-0.43588 0.58118-0.43588 1.0171v0.43588l0.94441 0.79911q0.94441 0.79912 2.8332 1.6709 1.8888 0.87176 5.3759 1.7435l3.487 0.87176-1.5982 0.87177q-1.5982 0.87176-2.47 1.1623-0.87176 0.29059-2.47 0.1453-1.5982-0.1453-3.7776-0.72647t-3.0512-1.0171q-0.87176-0.43588-1.7435-1.017-0.87176-0.58117-1.3076-0.58117h-0.43588l-1.7435 1.5982q-1.7435 1.5982-2.6153 2.1794-0.87176 0.58117-1.5982 1.1624-0.72647 0.58117-2.0341 1.1624-1.3076 0.58117-1.7435 0.58117h-0.43588l0.21794-0.36323q0.21794-0.36324 0.79911-1.235 0.58118-0.87176 1.1624-1.5982 0.58118-0.72647 1.3076-1.8888 0.72647-1.1623 1.4529-2.0341 0.72647-0.87176 1.3076-1.7435l0.58118-0.87176-0.1453-0.58117q-0.14529-0.58118-0.58117-1.1624-0.43588-0.58118-1.5982-2.7606-1.1624-2.1794-1.7435-3.6323-0.58118-1.4529-0.58118-1.8888v-0.43588l1.8162-1.6709q1.8162-1.6709 2.1794-1.8888z" fill-rule="evenodd" stroke-width="0px" fill="#8f0000"/>
    <g id="g6316" transform="translate(-48.927 .98887)">
     <text id="text4487" style="word-spacing:0px;letter-spacing:0px" line-height="125%" font-weight="bold" font-size="9.9479px" y="362.96735" x="83.586418" font-family="FreeSans" xml:space="preserve" fill="#000000"><tspan id="tspan4489" y="362.96735" x="83.586418">A=1;B=2;C=2;D=1;E=1</tspan></text>
     <rect id="rect4491" height="15.939" width="116.78" stroke="#000" stroke-miterlimit="0" y="351.8" x="76.748" stroke-width=".24246" fill="none"/>
    </g>
    <path id="path6024" d="m19.377 338.29v38.266" marker-start="url(#Arrow1Mstart-3)" stroke="#000" stroke-width="1px" fill="none"/>
    <path id="path5508" d="m393.24 229.55h75.91" stroke="#0622f5" stroke-width="1.9252px" fill="#0000f6"/>
    <path id="path5510" d="m-116.27 406.79h52.367" stroke="#0622f5" stroke-width="1.599px" fill="#0000f6"/>
    <path id="path3756" d="m173.74 202.36h51.741" stroke="#0622f5" stroke-width="1.5894px" fill="#0000f6"/>
   </g>
  </g>
 </g>
</svg>
