<svg xmlns="http://www.w3.org/2000/svg">
<defs>
<font
       id="EmbeddedFont_1"
       horiz-origin-x="0"
       horiz-origin-y="0"
       horiz-adv-x="2048"
       vert-origin-x="45"
       vert-origin-y="90"
       vert-adv-y="90">
      <font-face
         id="font-face21327"
         font-family="Helvetica embedded"
         ascent="1588"
         units-per-em="2048"
         descent="476" />
      <missing-glyph
         id="missing-glyph21329"
         d="M 0,2048 L 2047,2048 2047,1 0,1 0,2048 Z"
         horiz-adv-x="2048"
         stroke="black"
         stroke-width="33"
         fill="none" />
      <glyph
         id="glyph21331"
         unicode=" "
         horiz-adv-x="1021" />
      <glyph
         id="glyph21333"
         unicode="C"
         horiz-adv-x="1294"
         d="M 759,1522 C 946,1522 1091,1473 1194,1374 1297,1275 1354,1164 1365,1038 L 1166,1038 C 1144,1134 1100,1211 1034,1267 968,1323 876,1351 756,1351 611,1351 494,1300 404,1197 315,1095 270,938 270,726 270,553 311,412 391,304 472,196 592,142 752,142 900,142 1012,200 1089,315 1130,376 1160,456 1180,555 L 1380,555 C 1362,399 1305,268 1207,162 1090,35 932,-28 733,-28 561,-28 418,23 301,127 148,264 71,475 71,761 71,978 129,1156 244,1295 368,1446 540,1522 759,1522 Z M 725,1479 L 725,1479 Z" />
      <glyph
         id="glyph21335"
         unicode="E"
         horiz-adv-x="1090"
         d="M 171,0 L 171,1479 1237,1479 1237,1308 370,1308 370,853 1166,853 1166,683 370,683 370,171 1252,171 1252,0 171,0 Z M 711,1479 L 711,1479 Z" />
      <glyph
         id="glyph21337"
         unicode="F"
         horiz-adv-x="1021"
         d="M 171,0 L 171,1479 1195,1479 1195,1308 370,1308 370,853 1109,853 1109,683 370,683 370,0 171,0 Z" />
      <glyph
         id="glyph21339"
         unicode="L"
         horiz-adv-x="953"
         d="M 156,0 L 156,1479 356,1479 356,171 1095,171 1095,0 156,0 Z" />
      <glyph
         id="glyph21341"
         unicode="N"
         horiz-adv-x="1157"
         d="M 156,0 L 156,1479 386,1479 1124,292 1124,1479 1308,1479 1308,0 1090,0 341,1205 341,0 156,0 Z M 725,1465 L 725,1465 Z" />
      <glyph
         id="glyph21343"
         unicode="O"
         horiz-adv-x="1430"
         d="M 783,1522 C 1043,1522 1236,1439 1361,1272 1459,1142 1508,976 1508,774 1508,555 1452,373 1340,227 1209,57 1022,-28 779,-28 553,-28 374,46 245,195 129,339 71,521 71,741 71,939 121,1109 220,1250 347,1431 535,1522 783,1522 Z M 802,142 C 981,142 1110,206 1189,333 1269,459 1308,605 1308,770 1308,945 1263,1085 1171,1192 1079,1298 954,1351 794,1351 640,1351 514,1298 417,1193 319,1088 270,932 270,727 270,563 312,424 396,311 479,199 615,142 802,142 Z M 796,1479 L 796,1479 Z" />
      <glyph
         id="glyph21345"
         unicode="S"
         horiz-adv-x="1180"
         d="M 85,484 L 284,484 C 289,402 308,336 341,285 404,190 515,142 674,142 745,142 810,153 868,176 982,219 1038,296 1038,407 1038,490 1014,549 965,585 915,615 837,641 731,664 L 536,705 C 409,731 318,762 265,798 174,859 128,950 128,1072 128,1203 173,1311 263,1395 354,1480 482,1522 647,1522 799,1522 929,1483 1035,1407 1141,1330 1195,1207 1195,1038 L 996,1038 C 986,1121 966,1185 935,1230 877,1311 779,1351 641,1351 529,1351 449,1326 400,1277 352,1228 327,1171 327,1105 327,1033 356,981 415,947 453,926 540,899 675,867 L 876,820 C 973,798 1048,766 1101,727 1192,658 1237,558 1237,427 1237,264 1179,147 1063,77 946,7 811,-28 657,-28 477,-28 337,18 235,110 133,202 83,326 85,484 Z M 668,1479 L 668,1479 Z" />
      <glyph
         id="glyph21347"
         unicode="T"
         horiz-adv-x="1203"
         d="M 28,1479 L 1223,1479 1223,1308 725,1308 725,0 526,0 526,1308 28,1308 28,1479 Z" />
      <glyph
         id="glyph21349"
         unicode="a"
         horiz-adv-x="999"
         d="M 270,292 C 270,241 289,201 327,172 365,143 410,128 462,128 526,128 587,142 646,170 746,217 796,296 796,408 L 796,554 C 775,539 748,526 715,516 682,507 649,499 618,495 L 513,480 C 451,470 401,456 364,438 302,407 270,359 270,292 Z M 421,622 L 707,658 C 748,663 776,681 790,710 794,726 796,749 796,779 796,840 776,884 734,912 693,939 634,953 557,953 468,953 405,928 368,878 347,850 333,809 327,754 L 142,754 C 146,887 188,979 271,1031 353,1083 449,1109 557,1109 683,1109 786,1085 864,1035 942,986 981,911 981,809 L 981,190 C 981,171 985,156 992,145 1000,134 1015,128 1039,128 1046,128 1055,129 1065,130 1074,131 1084,132 1095,134 L 1095,-8 C 1067,-17 1046,-23 1031,-25 1017,-27 997,-28 971,-28 910,-28 865,-5 837,42 822,67 812,102 806,148 769,100 717,59 648,24 580,-11 505,-28 422,-28 323,-28 242,2 179,62 117,123 85,198 85,289 85,389 116,466 178,521 240,575 321,609 421,622 Z M 555,1109 L 555,1109 Z" />
      <glyph
         id="glyph21351"
         unicode="c"
         horiz-adv-x="908"
         d="M 538,1109 C 658,1109 755,1079 830,1020 905,960 951,857 967,711 L 782,711 C 772,780 748,838 710,884 673,930 613,953 531,953 418,953 337,896 289,784 257,710 242,620 242,512 242,404 264,313 309,239 353,165 423,128 519,128 592,128 650,150 693,193 736,236 766,295 782,370 L 967,370 C 946,232 896,131 817,67 737,3 636,-28 513,-28 374,-28 263,23 181,126 98,228 57,357 57,511 57,700 102,847 193,952 283,1057 398,1109 538,1109 Z M 512,1109 L 512,1109 Z" />
      <glyph
         id="glyph21353"
         unicode="d"
         horiz-adv-x="954"
         d="M 242,537 C 242,421 265,324 312,246 358,167 433,128 536,128 616,128 682,164 733,237 785,309 811,414 811,550 811,687 784,788 731,854 678,920 612,953 534,953 447,953 377,918 323,847 269,777 242,674 242,537 Z M 505,1109 C 584,1109 651,1092 705,1058 736,1038 771,1003 811,953 L 811,1479 996,1479 996,0 811,0 811,158 C 770,92 723,45 668,15 613,-14 550,-28 479,-28 365,-28 266,22 182,123 99,225 57,359 57,527 57,685 96,821 173,936 250,1052 361,1109 505,1109 Z" />
      <glyph
         id="glyph21355"
         unicode="e"
         horiz-adv-x="976"
         d="M 579,1109 C 655,1109 729,1092 801,1056 872,1021 927,975 964,919 1000,866 1024,803 1036,732 1047,683 1052,600 1052,484 L 256,484 C 259,376 285,290 334,225 383,160 459,128 561,128 656,128 732,158 789,219 819,254 841,295 853,341 L 1038,341 C 1033,302 1017,259 990,211 962,163 932,124 900,94 845,41 778,6 698,-13 654,-23 605,-28 551,-28 417,-28 304,20 211,118 118,215 71,351 71,527 71,700 118,840 212,948 305,1055 428,1109 579,1109 Z M 256,640 L 868,640 C 860,717 843,779 815,825 764,910 680,953 561,953 476,953 405,923 347,865 290,806 259,731 256,640 Z M 569,1109 L 569,1109 Z" />
      <glyph
         id="glyph21357"
         unicode="f"
         horiz-adv-x="500"
         d="M 171,1244 C 173,1317 186,1370 209,1404 251,1463 332,1493 451,1493 462,1493 474,1493 485,1493 497,1493 511,1493 526,1493 L 526,1337 C 508,1337 495,1337 487,1337 479,1337 472,1337 465,1337 412,1337 381,1323 371,1295 361,1267 356,1196 356,1081 L 526,1081 526,924 356,924 356,0 171,0 171,924 14,924 14,1081 171,1081 171,1244 Z" />
      <glyph
         id="glyph21359"
         unicode="g"
         horiz-adv-x="954"
         d="M 495,1109 C 577,1109 648,1089 709,1048 742,1025 776,992 811,948 L 811,1081 996,1081 996,93 C 996,-45 975,-154 934,-234 858,-381 714,-455 503,-455 385,-455 286,-431 206,-383 125,-335 80,-259 71,-156 L 256,-156 C 265,-196 282,-227 308,-249 349,-282 414,-299 502,-299 641,-299 732,-248 775,-147 801,-88 813,18 811,171 775,114 733,71 683,42 633,14 567,0 485,0 371,0 271,41 185,124 100,207 57,344 57,535 57,715 100,856 185,957 271,1059 374,1109 495,1109 Z M 811,562 C 811,695 784,793 731,857 678,921 611,953 529,953 407,953 323,894 278,775 254,712 242,629 242,526 242,406 265,314 313,251 360,188 424,156 504,156 629,156 717,215 768,331 796,397 811,474 811,562 Z M 526,1109 L 526,1109 Z" />
      <glyph
         id="glyph21361"
         unicode="h"
         horiz-adv-x="886"
         d="M 128,0 L 128,1479 313,1479 313,943 C 355,995 393,1032 426,1054 483,1091 555,1109 640,1109 793,1109 897,1054 951,944 981,884 996,801 996,695 L 996,0 811,0 811,687 C 811,767 801,826 781,863 749,923 689,953 601,953 528,953 462,927 402,874 343,822 313,723 313,578 L 313,0 128,0 Z" />
      <glyph
         id="glyph21363"
         unicode="i"
         horiz-adv-x="183"
         d="M 128,0 L 128,1081 313,1081 313,0 128,0 Z M 128,1280 L 128,1479 313,1479 313,1280 128,1280 Z" />
      <glyph
         id="glyph21365"
         unicode="k"
         horiz-adv-x="863"
         d="M 128,0 L 128,1479 313,1479 313,621 769,1081 994,1081 581,671 1004,0 790,0 459,550 313,406 313,0 128,0 Z" />
      <glyph
         id="glyph21367"
         unicode="l"
         horiz-adv-x="183"
         d="M 128,0 L 128,1479 313,1479 313,0 128,0 Z" />
      <glyph
         id="glyph21369"
         unicode="m"
         horiz-adv-x="1453"
         d="M 128,0 L 128,1081 313,1081 313,940 C 355,991 393,1028 427,1051 486,1090 553,1109 627,1109 711,1109 779,1089 830,1049 859,1026 886,992 909,948 949,1002 996,1043 1049,1070 1103,1096 1163,1109 1230,1109 1374,1109 1471,1057 1523,951 1551,895 1564,818 1564,722 L 1564,0 1380,0 1380,762 C 1380,835 1362,885 1326,912 1291,939 1248,953 1196,953 1126,953 1066,929 1015,880 964,832 939,751 939,638 L 939,0 754,0 754,714 C 754,788 745,842 728,876 701,927 651,953 578,953 511,953 450,926 395,873 340,820 313,723 313,581 L 313,0 128,0 Z" />
      <glyph
         id="glyph21371"
         unicode="n"
         horiz-adv-x="886"
         d="M 128,0 L 128,1081 313,1081 313,938 C 362,999 414,1043 470,1070 525,1096 586,1109 653,1109 801,1109 901,1056 953,948 981,890 996,805 996,696 L 996,0 811,0 811,689 C 811,756 801,810 782,851 751,919 695,953 612,953 571,953 537,948 510,940 462,925 420,895 383,850 354,813 335,776 326,738 317,699 313,644 313,573 L 313,0 128,0 Z M 555,1109 L 555,1109 Z" />
      <glyph
         id="glyph21373"
         unicode="o"
         horiz-adv-x="999"
         d="M 555,128 C 675,128 757,173 801,263 845,353 868,453 868,563 868,662 852,743 820,806 769,904 681,953 557,953 447,953 367,911 317,828 267,744 242,643 242,525 242,412 267,317 317,241 367,166 446,128 555,128 Z M 561,1109 C 698,1109 815,1063 910,972 1005,880 1052,745 1052,567 1052,395 1011,252 927,140 843,28 713,-28 537,-28 390,-28 273,21 187,121 100,220 57,353 57,521 57,700 102,843 194,950 285,1056 407,1109 561,1109 Z M 555,1109 L 555,1109 Z" />
      <glyph
         id="glyph21375"
         unicode="r"
         horiz-adv-x="523"
         d="M 128,0 L 128,1081 313,1081 313,910 C 327,944 360,986 413,1035 467,1085 528,1109 598,1109 601,1109 606,1109 614,1109 622,1109 635,1109 654,1109 L 654,924 C 644,924 634,924 625,924 616,924 606,924 595,924 504,924 435,895 386,837 337,779 313,711 313,633 L 313,0 128,0 Z" />
      <glyph
         id="glyph21377"
         unicode="t"
         horiz-adv-x="500"
         d="M 156,1081 L 156,1365 341,1365 341,1081 526,1081 526,924 341,924 341,241 C 341,204 355,180 382,167 398,160 423,156 458,156 467,156 478,156 488,156 499,156 512,156 526,156 L 526,0 C 505,-5 482,-9 459,-11 435,-13 410,-14 383,-14 295,-14 235,7 204,50 172,93 156,149 156,217 L 156,924 14,924 14,1081 156,1081 Z" />
      <glyph
         id="glyph21379"
         unicode="u"
         horiz-adv-x="886"
         d="M 128,1081 L 313,1081 313,361 C 313,305 322,260 339,225 371,160 431,128 518,128 643,128 728,185 774,298 798,359 811,442 811,548 L 811,1081 996,1081 996,0 811,0 813,156 C 790,116 761,82 727,55 659,-1 577,-28 480,-28 330,-28 227,23 172,126 143,181 128,255 128,347 L 128,1081 Z M 569,1109 L 569,1109 Z" />
      <glyph
         id="glyph21381"
         unicode="v"
         horiz-adv-x="1021"
         d="M 21,1081 L 230,1081 519,201 820,1081 1017,1081 611,0 418,0 21,1081 Z" />
      <glyph
         id="glyph21383"
         unicode="x"
         horiz-adv-x="999"
         d="M 388,547 L 30,1067 263,1067 509,691 758,1067 977,1062 616,547 993,0 763,0 497,400 239,0 11,0 388,547 Z" />
    </font>
</defs>
</svg>
