<?xml version="1.0" encoding="UTF-8" standalone="no"?>
<!-- Created with Inkscape (http://www.inkscape.org/) -->

<svg
   xmlns:dc="http://purl.org/dc/elements/1.1/"
   xmlns:cc="http://creativecommons.org/ns#"
   xmlns:rdf="http://www.w3.org/1999/02/22-rdf-syntax-ns#"
   xmlns:svg="http://www.w3.org/2000/svg"
   xmlns="http://www.w3.org/2000/svg"
   xmlns:xlink="http://www.w3.org/1999/xlink"
   xmlns:sodipodi="http://sodipodi.sourceforge.net/DTD/sodipodi-0.dtd"
   xmlns:inkscape="http://www.inkscape.org/namespaces/inkscape"
   id="svg2"
   viewBox="0 0 619.51769 315.12499"
   version="1.1"
   inkscape:version="0.48.1 r9760"
   width="100%"
   height="100%"
   sodipodi:docname="dv-full.svg">
  <sodipodi:namedview
     pagecolor="#ffffff"
     bordercolor="#666666"
     borderopacity="1"
     objecttolerance="10"
     gridtolerance="10"
     guidetolerance="10"
     inkscape:pageopacity="0"
     inkscape:pageshadow="2"
     inkscape:window-width="1190"
     inkscape:window-height="804"
     id="namedview3655"
     showgrid="false"
     fit-margin-top="0"
     fit-margin-left="0"
     fit-margin-right="0"
     fit-margin-bottom="0"
     inkscape:zoom="1.4083008"
     inkscape:cx="311.7325"
     inkscape:cy="138.46552"
     inkscape:window-x="0"
     inkscape:window-y="0"
     inkscape:window-maximized="0"
     inkscape:current-layer="g8348" />
  <defs
     id="defs4">
    <marker
       id="Arrow1Mend"
       refY="0"
       refX="0"
       orient="auto"
       overflow="visible"
       style="overflow:visible">
      <path
         id="path4221"
         d="M 0,0 5,-5 -12.5,0 5,5 0,0 z"
         transform="matrix(-0.4,0,0,-0.4,-4,0)"
         inkscape:connector-curvature="0"
         style="fill-rule:evenodd;stroke:#000000;stroke-width:1pt" />
    </marker>
    <linearGradient
       id="linearGradient3791-7">
      <stop
         id="stop3793-0"
         stop-color="#c6c6c6"
         offset="0" />
      <stop
         id="stop3799-2"
         stop-color="#fff"
         offset=".60029" />
      <stop
         id="stop3795-9"
         stop-color="#a4a4a4"
         offset="1" />
    </linearGradient>
    <filter
       id="filter6096"
       color-interpolation-filters="sRGB">
      <feGaussianBlur
         id="feGaussianBlur6098"
         stdDeviation="2"
         result="result8" />
      <feOffset
         id="feOffset6100"
         result="result11"
         dx="3"
         dy="3" />
      <feComposite
         id="feComposite6102"
         operator="in"
         result="result6"
         in2="result11"
         in="SourceGraphic" />
      <feFlood
         id="feFlood6104"
         result="result10"
         in="result6"
         flood-color="rgb(0,0,0)" />
      <feBlend
         id="feBlend6106"
         mode="normal"
         result="result12"
         in2="result10"
         in="result6" />
      <feComposite
         id="feComposite6108"
         operator="in"
         result="result2"
         in2="SourceGraphic" />
    </filter>
    <filter
       id="filter5066"
       height="1.3542"
       width="1.1317"
       y="-0.1771"
       x="-0.065847002"
       color-interpolation-filters="sRGB">
      <feGaussianBlur
         id="feGaussianBlur5068"
         stdDeviation="6.0009211" />
    </filter>
    <linearGradient
       id="linearGradient6520"
       y2="237.12"
       xlink:href="#linearGradient3791-7"
       gradientUnits="userSpaceOnUse"
       x2="341.44"
       gradientTransform="translate(617.12,-0.21672)"
       y1="66.831001"
       x1="191.34" />
    <linearGradient
       inkscape:collect="always"
       xlink:href="#linearGradient3791-7"
       id="linearGradient3785"
       gradientUnits="userSpaceOnUse"
       gradientTransform="translate(617.12,-0.21672)"
       x1="191.34"
       y1="66.831001"
       x2="341.44"
       y2="237.12" />
    <linearGradient
       inkscape:collect="always"
       xlink:href="#linearGradient3791-7"
       id="linearGradient3787"
       gradientUnits="userSpaceOnUse"
       gradientTransform="translate(617.12,-0.21672)"
       x1="191.34"
       y1="66.831001"
       x2="341.44"
       y2="237.12" />
    <linearGradient
       inkscape:collect="always"
       xlink:href="#linearGradient3791-7"
       id="linearGradient3789"
       gradientUnits="userSpaceOnUse"
       gradientTransform="translate(617.12,-0.21672)"
       x1="191.34"
       y1="66.831001"
       x2="341.44"
       y2="237.12" />
    <linearGradient
       inkscape:collect="always"
       xlink:href="#linearGradient3791-7"
       id="linearGradient3791"
       gradientUnits="userSpaceOnUse"
       gradientTransform="translate(617.12,-0.21672)"
       x1="191.34"
       y1="66.831001"
       x2="341.44"
       y2="237.12" />
  </defs>
  <metadata
     id="metadata7">
    <rdf:RDF>
      <cc:Work
         rdf:about="">
        <dc:format>image/svg+xml</dc:format>
        <dc:type
           rdf:resource="http://purl.org/dc/dcmitype/StillImage" />
        <dc:title />
      </cc:Work>
    </rdf:RDF>
  </metadata>
  <g
     id="layer1"
     transform="translate(-58.182273,-100.375)">
    <g
       id="g8348">
      <path
         id="path4839"
         d="M 387.71,230.27 V 189.087"
         inkscape:connector-curvature="0"
         style="fill:none;stroke:#000000;stroke-width:1px;marker-end:url(#Arrow1Mend)" />
      <path
         id="path4843"
         d="M 188.01,230.6 157.7,191.75"
         inkscape:connector-curvature="0"
         style="fill:none;stroke:#000000;stroke-width:1px;marker-end:url(#Arrow1Mend)" />
      <path
         id="path4841"
         d="M 187.23,337.83 156.93,298.2"
         inkscape:connector-curvature="0"
         style="fill:none;stroke:#000000;stroke-width:1px;marker-end:url(#Arrow1Mend)" />
      <path
         id="path4655"
         d="m 566.43,229.05 22.534,-39.629"
         inkscape:connector-curvature="0"
         style="fill:none;stroke:#000000;stroke-width:1px;marker-end:url(#Arrow1Mend)" />
      <path
         id="path4207"
         d="m 404.02,353.37 h 80.812"
         stroke-miterlimit="3"
         inkscape:connector-curvature="0"
         style="fill:none;stroke:#000000;stroke-miterlimit:3;marker-end:url(#Arrow1Mend)" />
      <path
         id="path4147"
         d="M 411.3,339.99 539.26,251.46"
         inkscape:connector-curvature="0"
         style="fill:none;stroke:#000000;stroke-width:0.73354px" />
      <path
         id="path4145"
         d="m 376.56,262.45 v 65.434"
         inkscape:connector-curvature="0"
         style="fill:none;stroke:#000000;stroke-width:0.73354px" />
      <path
         id="path4143"
         d="M 224.85,347.68 H 355.13"
         inkscape:connector-curvature="0"
         style="fill:none;stroke:#000000;stroke-width:0.73354px" />
      <path
         id="path4141"
         d="M 405.51,244.86 H 535.79"
         inkscape:connector-curvature="0"
         style="fill:none;stroke:#000000;stroke-width:0.73354px" />
      <path
         id="path4139"
         d="m 198.22,263 v 65.434"
         inkscape:connector-curvature="0"
         style="fill:none;stroke:#000000;stroke-width:0.73354px" />
      <path
         id="path4135"
         d="M 224.27,245.96 H 354.55"
         inkscape:connector-curvature="0"
         style="fill:none;stroke:#000000;stroke-width:0.73354px" />
      <g
         id="layer1-9"
         transform="matrix(0.24825,0,0,0.23575,102.67,179.27)">
        <g
           id="g5084"
           transform="translate(-696.92,42.622)">
          <path
             id="path5070"
             d="m 51.789,625.96 82.843,-81.324 h 135.88 l -83.198,81.324 z"
             transform="matrix(1.3571,0,0,1.3571,895.91,-503.35)"
             inkscape:connector-curvature="0"
             style="fill:#4d4d4d;stroke:#000000;stroke-width:1px;filter:url(#filter5066)" />
          <g
             id="g4916"
             transform="translate(264.76,34.823)">
            <path
               id="path4918"
               d="m 785.71,118.97 -56.595,55.714 c -13.78,13.566 -14.306,19.132 -14.306,37.313 v 32.272 c -2.6592,52.948 4.6283,54.857 49.695,54.857 h 107.79 c 19.516,0 24.204,-2.2219 37.227,-15.041 l 48.47,-47.709 c 17.801,-17.521 18.863,-31.451 18.863,-52.778 v -39.372 c 0,-38.514 -11.312,-36.789 -41.308,-36.789 h -118.11 c -16.409,0 -20.823,0.8042 -31.72,11.532 z"
               inkscape:connector-curvature="0"
               style="fill:url(#linearGradient3785);stroke:#000000;stroke-width:2.05609989" />
            <path
               id="path4920"
               d="m 754.82,188.76 h 95.525 c 42.501,0 43.89,9.7125 43.89,43.244 v 29.69 c 0,42.939 -17.176,37.435 -49.699,37.435 h -81.325 c -44.393,0 -48.408,-5.681 -48.408,-41.308 v -29.045 c 0,-39.879 7.8844,-40.017 40.017,-40.017 z"
               inkscape:connector-curvature="0"
               style="fill:#ececec;stroke:#000000;stroke-width:2.05609989" />
            <path
               id="path4922"
               d="m 777.99,170.16 c 0,0 6.558,8.0583 23.479,9.0804 16.921,1.0221 49.978,-10.538 39.949,-34.39 -3.8382,16.999 -35.223,28.185 -40.054,15.983 l 11.687,-4.6633 -38.897,-1.5406 -7.8491,20.194 z m 47.931,-50.957 c 0,0 -18.258,-0.10479 -31.258,6.9215 -13,7.02629 -15.007,25.757 32.804,30.172 -26.78,-7.9534 -25.238,-25.814 -0.97646,-23.424 l 0.28488,6.8345 28.489,-16.451 -29.629,-10.888 z m 63.511,35.007 c 0,0 8.9226,-8.8418 1.6918,-16.207 -7.2308,-7.3651 -42.103,-11.16 -73.389,11.37 28.008,-11.794 61.438,-8.3552 45.277,3.0546 l -13.21,-0.89124 17.86,16.299 34.981,-12.734 z"
               inkscape:connector-curvature="0"
               style="fill:#0097e1;filter:url(#filter6096)" />
            <text
               id="text4924"
               style="font-size:5.75699997px;font-weight:500;line-height:125%;letter-spacing:0px;word-spacing:0px;fill:#000000;font-family:Round Up"
               font-weight="500"
               font-size="5.757px"
               line-height="125%"
               y="256.41434"
               x="785.99768"
               xml:space="preserve"
               sodipodi:linespacing="125%"><tspan
                 id="tspan4926"
                 font-weight="bold"
                 font-size="41.121px"
                 y="256.41434"
                 x="785.99768"
                 style="font-size:41.12099838px;font-weight:bold;fill:#000000;font-family:FreeSans">A</tspan></text>
            <path
               id="path4928"
               d="m 714.91,266.19 47.156,0.14073 h 107.79 c 19.516,0 24.295,-1.8096 37.227,-14.721 l 69.77,-69.654"
               inkscape:connector-curvature="0"
               style="fill:none;stroke:#000000;stroke-width:2.05609989;stroke-dasharray:8.22422762, 4.11211381" />
            <path
               id="path4930"
               d="m 714.91,220.95 47.156,0.14072 h 107.79 c 19.516,0 24.295,-1.8096 37.227,-14.721 l 69.77,-69.654"
               inkscape:connector-curvature="0"
               style="fill:none;stroke:#000000;stroke-width:2.05609989;stroke-dasharray:8.22422762, 4.11211381" />
          </g>
        </g>
      </g>
      <g
         id="g4031"
         transform="matrix(0.24825,0,0,0.23575,278.7,179.27)">
        <g
           id="g4033"
           transform="translate(-696.92,42.622)">
          <path
             id="path4035"
             d="m 51.789,625.96 82.843,-81.324 h 135.88 l -83.198,81.324 z"
             transform="matrix(1.3571,0,0,1.3571,895.91,-503.35)"
             inkscape:connector-curvature="0"
             style="fill:#4d4d4d;stroke:#000000;stroke-width:1px;filter:url(#filter5066)" />
          <g
             id="g4037"
             transform="translate(264.76,34.823)">
            <path
               id="path4039"
               d="m 785.71,118.97 -56.595,55.714 c -13.78,13.566 -14.306,19.132 -14.306,37.313 v 32.272 c -2.6592,52.948 4.6283,54.857 49.695,54.857 h 107.79 c 19.516,0 24.204,-2.2219 37.227,-15.041 l 48.47,-47.709 c 17.801,-17.521 18.863,-31.451 18.863,-52.778 v -39.372 c 0,-38.514 -11.312,-36.789 -41.308,-36.789 h -118.11 c -16.409,0 -20.823,0.8042 -31.72,11.532 z"
               inkscape:connector-curvature="0"
               style="fill:url(#linearGradient3787);stroke:#000000;stroke-width:2.05609989" />
            <path
               id="path4041"
               d="m 754.82,188.76 h 95.525 c 42.501,0 43.89,9.7125 43.89,43.244 v 29.69 c 0,42.939 -17.176,37.435 -49.699,37.435 h -81.325 c -44.393,0 -48.408,-5.681 -48.408,-41.308 v -29.045 c 0,-39.879 7.8844,-40.017 40.017,-40.017 z"
               inkscape:connector-curvature="0"
               style="fill:#ececec;stroke:#000000;stroke-width:2.05609989" />
            <path
               id="path4043"
               d="m 777.99,170.16 c 0,0 6.558,8.0583 23.479,9.0804 16.921,1.0221 49.978,-10.538 39.949,-34.39 -3.8382,16.999 -35.223,28.185 -40.054,15.983 l 11.687,-4.6633 -38.897,-1.5406 -7.8491,20.194 z m 47.931,-50.957 c 0,0 -18.258,-0.10479 -31.258,6.9215 -13,7.02629 -15.007,25.757 32.804,30.172 -26.78,-7.9534 -25.238,-25.814 -0.97646,-23.424 l 0.28488,6.8345 28.489,-16.451 -29.629,-10.888 z m 63.511,35.007 c 0,0 8.9226,-8.8418 1.6918,-16.207 -7.2308,-7.3651 -42.103,-11.16 -73.389,11.37 28.008,-11.794 61.438,-8.3552 45.277,3.0546 l -13.21,-0.89124 17.86,16.299 34.981,-12.734 z"
               inkscape:connector-curvature="0"
               style="fill:#0097e1;filter:url(#filter6096)" />
            <text
               id="text4045"
               style="font-size:5.75699997px;font-weight:500;line-height:125%;letter-spacing:0px;word-spacing:0px;fill:#000000;font-family:Round Up"
               font-weight="500"
               xml:space="preserve"
               font-size="5.757px"
               line-height="125%"
               y="256.41434"
               x="785.99768"
               sodipodi:linespacing="125%"><tspan
                 id="tspan4047"
                 font-weight="bold"
                 font-size="41.121px"
                 y="256.41434"
                 x="785.99768"
                 style="font-size:41.12099838px;font-weight:bold;fill:#000000;font-family:FreeSans">B</tspan></text>
            <path
               id="path4049"
               d="m 714.91,266.19 47.156,0.14073 h 107.79 c 19.516,0 24.295,-1.8096 37.227,-14.721 l 69.77,-69.654"
               inkscape:connector-curvature="0"
               style="fill:none;stroke:#000000;stroke-width:2.05609989;stroke-dasharray:8.22422762, 4.11211381" />
            <path
               id="path4051"
               d="m 714.91,220.95 47.156,0.14072 h 107.79 c 19.516,0 24.295,-1.8096 37.227,-14.721 l 69.77,-69.654"
               inkscape:connector-curvature="0"
               style="fill:none;stroke:#000000;stroke-width:2.05609989;stroke-dasharray:8.22422762, 4.11211381" />
          </g>
        </g>
      </g>
      <g
         id="g4057"
         transform="matrix(0.24825,0,0,0.23575,454.72,179.27)">
        <g
           id="g4059"
           transform="translate(-696.92,42.622)">
          <path
             id="path4061"
             d="m 51.789,625.96 82.843,-81.324 h 135.88 l -83.198,81.324 z"
             transform="matrix(1.3571,0,0,1.3571,895.91,-503.35)"
             inkscape:connector-curvature="0"
             style="fill:#4d4d4d;stroke:#000000;stroke-width:1px;filter:url(#filter5066)" />
          <g
             id="g4063"
             transform="translate(264.76,34.823)">
            <path
               id="path4065"
               d="m 785.71,118.97 -56.595,55.714 c -13.78,13.566 -14.306,19.132 -14.306,37.313 v 32.272 c -2.6592,52.948 4.6283,54.857 49.695,54.857 h 107.79 c 19.516,0 24.204,-2.2219 37.227,-15.041 l 48.47,-47.709 c 17.801,-17.521 18.863,-31.451 18.863,-52.778 v -39.372 c 0,-38.514 -11.312,-36.789 -41.308,-36.789 h -118.11 c -16.409,0 -20.823,0.8042 -31.72,11.532 z"
               inkscape:connector-curvature="0"
               style="fill:url(#linearGradient3789);stroke:#000000;stroke-width:2.05609989" />
            <path
               id="path4067"
               d="m 754.82,188.76 h 95.525 c 42.501,0 43.89,9.7125 43.89,43.244 v 29.69 c 0,42.939 -17.176,37.435 -49.699,37.435 h -81.325 c -44.393,0 -48.408,-5.681 -48.408,-41.308 v -29.045 c 0,-39.879 7.8844,-40.017 40.017,-40.017 z"
               inkscape:connector-curvature="0"
               style="fill:#ececec;stroke:#000000;stroke-width:2.05609989" />
            <path
               id="path4069"
               d="m 777.99,170.16 c 0,0 6.558,8.0583 23.479,9.0804 16.921,1.0221 49.978,-10.538 39.949,-34.39 -3.8382,16.999 -35.223,28.185 -40.054,15.983 l 11.687,-4.6633 -38.897,-1.5406 -7.8491,20.194 z m 47.931,-50.957 c 0,0 -18.258,-0.10479 -31.258,6.9215 -13,7.02629 -15.007,25.757 32.804,30.172 -26.78,-7.9534 -25.238,-25.814 -0.97646,-23.424 l 0.28488,6.8345 28.489,-16.451 -29.629,-10.888 z m 63.511,35.007 c 0,0 8.9226,-8.8418 1.6918,-16.207 -7.2308,-7.3651 -42.103,-11.16 -73.389,11.37 28.008,-11.794 61.438,-8.3552 45.277,3.0546 l -13.21,-0.89124 17.86,16.299 34.981,-12.734 z"
               inkscape:connector-curvature="0"
               style="fill:#0097e1;filter:url(#filter6096)" />
            <text
               id="text4071"
               style="font-size:5.75699997px;font-weight:500;line-height:125%;letter-spacing:0px;word-spacing:0px;fill:#000000;font-family:Round Up"
               font-weight="500"
               font-size="5.757px"
               line-height="125%"
               y="256.41434"
               x="785.99768"
               xml:space="preserve"
               sodipodi:linespacing="125%"><tspan
                 id="tspan4073"
                 font-weight="bold"
                 font-size="41.121px"
                 y="256.41434"
                 x="785.99768"
                 style="font-size:41.12099838px;font-weight:bold;fill:#000000;font-family:FreeSans">C</tspan></text>
            <path
               id="path4075"
               d="m 714.91,266.19 47.156,0.14073 h 107.79 c 19.516,0 24.295,-1.8096 37.227,-14.721 l 69.77,-69.654"
               inkscape:connector-curvature="0"
               style="fill:none;stroke:#000000;stroke-width:2.05609989;stroke-dasharray:8.22422762, 4.11211381" />
            <path
               id="path4077"
               d="m 714.91,220.95 47.156,0.14072 h 107.79 c 19.516,0 24.295,-1.8096 37.227,-14.721 l 69.77,-69.654"
               inkscape:connector-curvature="0"
               style="fill:none;stroke:#000000;stroke-width:2.05609989;stroke-dasharray:8.22422762, 4.11211381" />
          </g>
        </g>
      </g>
      <g
         id="g4083"
         transform="matrix(0.24825,0,0,0.23575,102.67,280.44)">
        <g
           id="g4085"
           transform="translate(-696.92,42.622)">
          <path
             id="path4087"
             d="m 51.789,625.96 82.843,-81.324 h 135.88 l -83.198,81.324 z"
             transform="matrix(1.3571,0,0,1.3571,895.91,-503.35)"
             inkscape:connector-curvature="0"
             style="fill:#4d4d4d;stroke:#000000;stroke-width:1px;filter:url(#filter5066)" />
          <g
             id="g4089"
             transform="translate(264.76,34.823)">
            <path
               id="path4091"
               d="m 785.71,118.97 -56.595,55.714 c -13.78,13.566 -14.306,19.132 -14.306,37.313 v 32.272 c -2.6592,52.948 4.6283,54.857 49.695,54.857 h 107.79 c 19.516,0 24.204,-2.2219 37.227,-15.041 l 48.47,-47.709 c 17.801,-17.521 18.863,-31.451 18.863,-52.778 v -39.372 c 0,-38.514 -11.312,-36.789 -41.308,-36.789 h -118.11 c -16.409,0 -20.823,0.8042 -31.72,11.532 z"
               inkscape:connector-curvature="0"
               style="fill:url(#linearGradient3791);stroke:#000000;stroke-width:2.05609989" />
            <path
               id="path4093"
               d="m 754.82,188.76 h 95.525 c 42.501,0 43.89,9.7125 43.89,43.244 v 29.69 c 0,42.939 -17.176,37.435 -49.699,37.435 h -81.325 c -44.393,0 -48.408,-5.681 -48.408,-41.308 v -29.045 c 0,-39.879 7.8844,-40.017 40.017,-40.017 z"
               inkscape:connector-curvature="0"
               style="fill:#ececec;stroke:#000000;stroke-width:2.05609989" />
            <path
               id="path4095"
               d="m 777.99,170.16 c 0,0 6.558,8.0583 23.479,9.0804 16.921,1.0221 49.978,-10.538 39.949,-34.39 -3.8382,16.999 -35.223,28.185 -40.054,15.983 l 11.687,-4.6633 -38.897,-1.5406 -7.8491,20.194 z m 47.931,-50.957 c 0,0 -18.258,-0.10479 -31.258,6.9215 -13,7.02629 -15.007,25.757 32.804,30.172 -26.78,-7.9534 -25.238,-25.814 -0.97646,-23.424 l 0.28488,6.8345 28.489,-16.451 -29.629,-10.888 z m 63.511,35.007 c 0,0 8.9226,-8.8418 1.6918,-16.207 -7.2308,-7.3651 -42.103,-11.16 -73.389,11.37 28.008,-11.794 61.438,-8.3552 45.277,3.0546 l -13.21,-0.89124 17.86,16.299 34.981,-12.734 z"
               inkscape:connector-curvature="0"
               style="fill:#0097e1;filter:url(#filter6096)" />
            <text
               id="text4097"
               style="font-size:5.75699997px;font-weight:500;line-height:125%;letter-spacing:0px;word-spacing:0px;fill:#000000;font-family:Round Up"
               font-weight="500"
               xml:space="preserve"
               font-size="5.757px"
               line-height="125%"
               y="256.41434"
               x="785.99768"
               sodipodi:linespacing="125%"><tspan
                 id="tspan4099"
                 font-weight="bold"
                 font-size="41.121px"
                 y="256.41434"
                 x="785.99768"
                 style="font-size:41.12099838px;font-weight:bold;fill:#000000;font-family:FreeSans">D</tspan></text>
            <path
               id="path4101"
               d="m 714.91,266.19 47.156,0.14073 h 107.79 c 19.516,0 24.295,-1.8096 37.227,-14.721 l 69.77,-69.654"
               inkscape:connector-curvature="0"
               style="fill:none;stroke:#000000;stroke-width:2.05609989;stroke-dasharray:8.22422762, 4.11211381" />
            <path
               id="path4103"
               d="m 714.91,220.95 47.156,0.14072 h 107.79 c 19.516,0 24.295,-1.8096 37.227,-14.721 l 69.77,-69.654"
               inkscape:connector-curvature="0"
               style="fill:none;stroke:#000000;stroke-width:2.05609989;stroke-dasharray:8.22422762, 4.11211381" />
          </g>
        </g>
      </g>
      <g
         id="g4107"
         transform="matrix(0.24825,0,0,0.23575,278.7,280.44)">
        <g
           id="g4109"
           transform="translate(-696.92,42.622)">
          <path
             id="path4111"
             d="m 51.789,625.96 82.843,-81.324 h 135.88 l -83.198,81.324 z"
             transform="matrix(1.3571,0,0,1.3571,895.91,-503.35)"
             inkscape:connector-curvature="0"
             style="fill:#4d4d4d;stroke:#000000;stroke-width:1px;filter:url(#filter5066)" />
          <g
             id="g4113"
             transform="translate(264.76,34.823)">
            <path
               id="path4115"
               d="m 785.71,118.97 -56.595,55.714 c -13.78,13.566 -14.306,19.132 -14.306,37.313 v 32.272 c -2.6592,52.948 4.6283,54.857 49.695,54.857 h 107.79 c 19.516,0 24.204,-2.2219 37.227,-15.041 l 48.47,-47.709 c 17.801,-17.521 18.863,-31.451 18.863,-52.778 v -39.372 c 0,-38.514 -11.312,-36.789 -41.308,-36.789 h -118.11 c -16.409,0 -20.823,0.8042 -31.72,11.532 z"
               inkscape:connector-curvature="0"
               style="fill:url(#linearGradient6520);stroke:#000000;stroke-width:2.05609989" />
            <path
               id="path4117"
               d="m 754.82,188.76 h 95.525 c 42.501,0 43.89,9.7125 43.89,43.244 v 29.69 c 0,42.939 -17.176,37.435 -49.699,37.435 h -81.325 c -44.393,0 -48.408,-5.681 -48.408,-41.308 v -29.045 c 0,-39.879 7.8844,-40.017 40.017,-40.017 z"
               inkscape:connector-curvature="0"
               style="fill:#ececec;stroke:#000000;stroke-width:2.05609989" />
            <path
               id="path4119"
               d="m 777.99,170.16 c 0,0 6.558,8.0583 23.479,9.0804 16.921,1.0221 49.978,-10.538 39.949,-34.39 -3.8382,16.999 -35.223,28.185 -40.054,15.983 l 11.687,-4.6633 -38.897,-1.5406 -7.8491,20.194 z m 47.931,-50.957 c 0,0 -18.258,-0.10479 -31.258,6.9215 -13,7.02629 -15.007,25.757 32.804,30.172 -26.78,-7.9534 -25.238,-25.814 -0.97646,-23.424 l 0.28488,6.8345 28.489,-16.451 -29.629,-10.888 z m 63.511,35.007 c 0,0 8.9226,-8.8418 1.6918,-16.207 -7.2308,-7.3651 -42.103,-11.16 -73.389,11.37 28.008,-11.794 61.438,-8.3552 45.277,3.0546 l -13.21,-0.89124 17.86,16.299 34.981,-12.734 z"
               inkscape:connector-curvature="0"
               style="fill:#0097e1;filter:url(#filter6096)" />
            <text
               id="text4121"
               style="font-size:5.75699997px;font-weight:500;line-height:125%;letter-spacing:0px;word-spacing:0px;fill:#000000;font-family:Round Up"
               font-weight="500"
               font-size="5.757px"
               line-height="125%"
               y="256.41434"
               x="785.99768"
               xml:space="preserve"
               sodipodi:linespacing="125%"><tspan
                 id="tspan4123"
                 font-weight="bold"
                 font-size="41.121px"
                 y="256.41434"
                 x="785.99768"
                 style="font-size:41.12099838px;font-weight:bold;font-family:FreeSans">E</tspan></text>
            <path
               id="path4125"
               d="m 714.91,266.19 47.156,0.14073 h 107.79 c 19.516,0 24.295,-1.8096 37.227,-14.721 l 69.77,-69.654"
               inkscape:connector-curvature="0"
               style="fill:none;stroke:#000000;stroke-width:2.05609989;stroke-dasharray:8.22422762, 4.11211381" />
            <path
               id="path4127"
               d="m 714.91,220.95 47.156,0.14072 h 107.79 c 19.516,0 24.295,-1.8096 37.227,-14.721 l 69.77,-69.654"
               inkscape:connector-curvature="0"
               style="fill:none;stroke:#000000;stroke-width:2.05609989;stroke-dasharray:8.22422762, 4.11211381" />
          </g>
        </g>
      </g>
      <rect
         id="rect3985"
         height="85.468002"
         width="94.779999"
         stroke-miterlimit="0"
         y="132.33"
         x="62.112999"
         style="fill:none;stroke:#000000;stroke-width:0.50581002;stroke-miterlimit:0" />
      <text
         id="text3987"
         style="font-size:9.94789982px;line-height:125%;letter-spacing:0px;word-spacing:0px;fill:#000000;font-family:FreeSans"
         font-size="9.9479px"
         line-height="125%"
         y="145.54619"
         x="69.12001"
         xml:space="preserve"
         sodipodi:linespacing="125%"><tspan
           id="tspan7761"
           y="145.54619"
           x="69.12001">Routing table</tspan><tspan
           id="tspan5412"
           y="157.98111"
           x="69.12001">A : 0 [ Local ]</tspan><tspan
           id="tspan5414"
           y="170.41603"
           x="69.12001">D : 1 [South]</tspan><tspan
           id="tspan5416"
           y="182.85097"
           x="69.12001">B : 1 [East]</tspan><tspan
           id="tspan5418"
           y="195.28589"
           x="69.12001">C : 2 [East]</tspan><tspan
           id="tspan5420"
           y="207.72081"
           x="69.12001">E : 2 [East]</tspan></text>
      <text
         id="text4058"
         style="font-size:9.94789982px;font-weight:bold;line-height:125%;letter-spacing:0px;word-spacing:0px;font-family:FreeSans"
         line-height="125%"
         font-weight="bold"
         font-size="9.9479px"
         y="279.55481"
         x="67.565933"
         xml:space="preserve"
         sodipodi:linespacing="125%"><tspan
           id="tspan4533"
           y="279.55481"
           x="67.565933"
           style="fill:#000000">Routing table</tspan><tspan
           id="tspan6687"
           y="291.98975"
           x="67.565933"
           style="fill:#000000">D : 0 [Local]</tspan><tspan
           id="tspan6689"
           y="304.42465"
           x="67.565933"
           style="fill:#000000">A : 1 [North]</tspan><tspan
           id="tspan6691"
           y="316.85959"
           x="67.565933"
           style="fill:#000000">E : 1 [East]</tspan><tspan
           id="tspan6693"
           y="329.29449"
           x="67.565933"
           style="fill:#000000">C : 2 [East]</tspan><tspan
           id="tspan6695"
           y="341.72943"
           x="67.565933"
           style="fill:#0000ff">B : 2 [North]</tspan></text>
      <text
         id="text4099"
         style="font-size:9.94789982px;font-weight:bold;line-height:125%;letter-spacing:0px;word-spacing:0px;fill:#000000;font-family:FreeSans"
         line-height="125%"
         font-weight="bold"
         font-size="9.9479px"
         y="114.61992"
         x="354.90103"
         xml:space="preserve"
         sodipodi:linespacing="125%"><tspan
           id="tspan3199"
           y="114.61992"
           x="354.90103">Routing table</tspan><tspan
           id="tspan4546"
           y="127.05484"
           x="354.90103">B : 0 [Local]</tspan><tspan
           id="tspan4548"
           y="139.48976"
           x="354.90103">A : 1 [West]</tspan><tspan
           id="tspan4550"
           y="151.9247"
           x="354.90103">C : 1 [East]</tspan><tspan
           id="tspan4552"
           y="164.35962"
           x="354.90103">E : 1 [South]</tspan><tspan
           id="tspan4554"
           y="176.79454"
           x="354.90103">D : 2 [South]</tspan></text>
      <rect
         id="rect4116"
         height="81.216003"
         width="110.64819"
         stroke-miterlimit="0"
         y="105.81015"
         x="563.95929"
         style="fill:none;stroke:#000000;stroke-width:0.5327487;stroke-miterlimit:0" />
      <text
         id="text4118"
         style="font-size:9.94789982px;font-weight:bold;line-height:125%;letter-spacing:0px;word-spacing:0px;fill:#000000;font-family:FreeSans"
         line-height="125%"
         font-weight="bold"
         font-size="9.9479px"
         y="116.38444"
         x="566.70795"
         xml:space="preserve"
         sodipodi:linespacing="125%"><tspan
           id="tspan4564"
           y="116.38444"
           x="566.70795">Routing table</tspan><tspan
           id="tspan6014"
           y="128.81935"
           x="566.70795">C : 0 [Local]</tspan><tspan
           id="tspan6016"
           y="141.25429"
           x="566.70795">E : 1 [South-West]</tspan><tspan
           id="tspan6018"
           y="153.68921"
           x="566.70795">D : 2 [South-West]</tspan><tspan
           id="tspan6020"
           y="166.12413"
           x="566.70795">A : 2 [West]</tspan><tspan
           id="tspan6022"
           y="178.55907"
           x="566.70795">B : 1 [West]</tspan></text>
      <rect
         id="rect4134"
         height="82.102997"
         width="112.77976"
         stroke-miterlimit="0"
         y="333.16"
         x="486.82001"
         style="fill:none;stroke:#000000;stroke-width:0.54077917;stroke-miterlimit:0" />
      <text
         id="text4136"
         style="font-size:9.94789982px;font-weight:bold;line-height:125%;letter-spacing:0px;word-spacing:0px;fill:#000000;font-family:FreeSans"
         line-height="125%"
         font-weight="bold"
         font-size="9.9479px"
         y="347.15735"
         x="494.60703"
         xml:space="preserve"
         sodipodi:linespacing="125%"><tspan
           id="tspan3506"
           y="347.15735"
           x="494.60703">Routing table</tspan><tspan
           id="tspan5990"
           y="359.59229"
           x="494.60703">E : 0 [Local]</tspan><tspan
           id="tspan5992"
           y="372.02719"
           x="494.60703">D : 1 [West]</tspan><tspan
           id="tspan5994"
           y="384.46213"
           x="494.60703">A : 2 [West]</tspan><tspan
           id="tspan5996"
           y="396.89703"
           x="494.60703">C : 1 [North-East]</tspan><tspan
           id="tspan5998"
           y="409.33197"
           x="494.60703">B : 1 [North]</tspan></text>
      <rect
         id="rect6294"
         height="88.052002"
         width="94.779999"
         stroke-miterlimit="0"
         y="262.45001"
         x="60.558998"
         style="fill:none;stroke:#000000;stroke-width:0.51340002;stroke-miterlimit:0" />
      <rect
         id="rect6301"
         height="86.807999"
         width="94.779999"
         stroke-miterlimit="0"
         y="100.63"
         x="347.89001"
         style="fill:none;stroke:#000000;stroke-width:0.50976002;stroke-miterlimit:0" />
      <text
         id="text5136"
         style="font-size:48px;line-height:125%;letter-spacing:0px;word-spacing:0px;fill:#000000;font-family:FreeSans"
         xml:space="preserve"
         font-size="48px"
         line-height="125%"
         y="292.91492"
         x="610.57544"
         sodipodi:linespacing="125%"><tspan
           id="tspan5138"
           y="292.91492"
           x="610.57544" /></text>
      <path
         id="path6697"
         d="m 67.857,345.05 h 54.074"
         inkscape:connector-curvature="0"
         style="fill:#0000ff;stroke:#0000f1;stroke-width:1px" />
    </g>
  </g>
</svg>
