<?xml version="1.0" encoding="UTF-8" standalone="no"?>
<!-- Created with Inkscape (http://www.inkscape.org/) -->

<svg
   xmlns:dc="http://purl.org/dc/elements/1.1/"
   xmlns:cc="http://creativecommons.org/ns#"
   xmlns:rdf="http://www.w3.org/1999/02/22-rdf-syntax-ns#"
   xmlns:svg="http://www.w3.org/2000/svg"
   xmlns="http://www.w3.org/2000/svg"
   xmlns:xlink="http://www.w3.org/1999/xlink"
   xmlns:sodipodi="http://sodipodi.sourceforge.net/DTD/sodipodi-0.dtd"
   xmlns:inkscape="http://www.inkscape.org/namespaces/inkscape"
   id="svg2"
   viewBox="0 0 677.6612 313.83397"
   version="1.1"
   inkscape:version="0.48.1 r9760"
   width="100%"
   height="100%"
   sodipodi:docname="ls-lsdb.svg">
  <sodipodi:namedview
     pagecolor="#ffffff"
     bordercolor="#666666"
     borderopacity="1"
     objecttolerance="10"
     gridtolerance="10"
     guidetolerance="10"
     inkscape:pageopacity="0"
     inkscape:pageshadow="2"
     inkscape:window-width="1255"
     inkscape:window-height="687"
     id="namedview5099"
     showgrid="false"
     fit-margin-top="0"
     fit-margin-left="0"
     fit-margin-right="0"
     fit-margin-bottom="0"
     inkscape:zoom="1.4083008"
     inkscape:cx="356.46743"
     inkscape:cy="184.06955"
     inkscape:window-x="0"
     inkscape:window-y="0"
     inkscape:window-maximized="0"
     inkscape:current-layer="g5935" />
  <defs
     id="defs4">
    <marker
       id="Arrow1Mend"
       refY="0"
       refX="0"
       orient="auto"
       overflow="visible"
       style="overflow:visible">
      <path
         id="path4221"
         d="M 0,0 5,-5 -12.5,0 5,5 0,0 z"
         transform="matrix(-0.4,0,0,-0.4,-4,0)"
         inkscape:connector-curvature="0"
         style="fill-rule:evenodd;stroke:#000000;stroke-width:1pt" />
    </marker>
    <linearGradient
       id="linearGradient3791-7">
      <stop
         id="stop3793-0"
         stop-color="#c6c6c6"
         offset="0" />
      <stop
         id="stop3799-2"
         stop-color="#fff"
         offset=".60029" />
      <stop
         id="stop3795-9"
         stop-color="#a4a4a4"
         offset="1" />
    </linearGradient>
    <filter
       id="filter6096"
       color-interpolation-filters="sRGB">
      <feGaussianBlur
         id="feGaussianBlur6098"
         stdDeviation="2"
         result="result8" />
      <feOffset
         id="feOffset6100"
         result="result11"
         dx="3"
         dy="3" />
      <feComposite
         id="feComposite6102"
         operator="in"
         result="result6"
         in2="result11"
         in="SourceGraphic" />
      <feFlood
         id="feFlood6104"
         result="result10"
         in="result6"
         flood-color="rgb(0,0,0)" />
      <feBlend
         id="feBlend6106"
         mode="normal"
         result="result12"
         in2="result10"
         in="result6" />
      <feComposite
         id="feComposite6108"
         operator="in"
         result="result2"
         in2="SourceGraphic" />
    </filter>
    <filter
       id="filter5066"
       height="1.3542"
       width="1.1317"
       y="-0.1771"
       x="-0.065847002"
       color-interpolation-filters="sRGB">
      <feGaussianBlur
         id="feGaussianBlur5068"
         stdDeviation="6.0009211" />
    </filter>
    <marker
       id="Arrow1Mend-5"
       refY="0"
       refX="0"
       orient="auto"
       overflow="visible"
       style="overflow:visible">
      <path
         id="path4221-9"
         d="M 0,0 5,-5 -12.5,0 5,5 0,0 z"
         transform="matrix(-0.4,0,0,-0.4,-4,0)"
         inkscape:connector-curvature="0"
         style="fill-rule:evenodd;stroke:#000000;stroke-width:1pt" />
    </marker>
    <linearGradient
       id="linearGradient5345"
       y2="237.12"
       xlink:href="#linearGradient3791-7"
       gradientUnits="userSpaceOnUse"
       x2="341.44"
       gradientTransform="translate(617.12,-0.21672)"
       y1="66.831001"
       x1="191.34" />
    <linearGradient
       inkscape:collect="always"
       xlink:href="#linearGradient3791-7"
       id="linearGradient5307"
       gradientUnits="userSpaceOnUse"
       gradientTransform="translate(617.12,-0.21672)"
       x1="191.34"
       y1="66.831001"
       x2="341.44"
       y2="237.12" />
    <linearGradient
       inkscape:collect="always"
       xlink:href="#linearGradient3791-7"
       id="linearGradient5309"
       gradientUnits="userSpaceOnUse"
       gradientTransform="translate(617.12,-0.21672)"
       x1="191.34"
       y1="66.831001"
       x2="341.44"
       y2="237.12" />
    <linearGradient
       inkscape:collect="always"
       xlink:href="#linearGradient3791-7"
       id="linearGradient5311"
       gradientUnits="userSpaceOnUse"
       gradientTransform="translate(617.12,-0.21672)"
       x1="191.34"
       y1="66.831001"
       x2="341.44"
       y2="237.12" />
    <linearGradient
       inkscape:collect="always"
       xlink:href="#linearGradient3791-7"
       id="linearGradient5313"
       gradientUnits="userSpaceOnUse"
       gradientTransform="translate(617.12,-0.21672)"
       x1="191.34"
       y1="66.831001"
       x2="341.44"
       y2="237.12" />
  </defs>
  <metadata
     id="metadata7">
    <rdf:RDF>
      <cc:Work
         rdf:about="">
        <dc:format>image/svg+xml</dc:format>
        <dc:type
           rdf:resource="http://purl.org/dc/dcmitype/StillImage" />
        <dc:title />
      </cc:Work>
    </rdf:RDF>
  </metadata>
  <g
     id="layer1"
     transform="translate(-15.577542,-96.15675)">
    <text
       id="text5136"
       style="font-size:48px;line-height:125%;letter-spacing:0px;word-spacing:0px;fill:#000000;font-family:FreeSans"
       font-size="48px"
       line-height="125%"
       y="292.91492"
       x="610.57544"
       xml:space="preserve"
       sodipodi:linespacing="125%"><tspan
         id="tspan5138"
         x="610.57544"
         y="292.91492" /></text>
    <text
       id="text5136-3"
       style="font-size:48px;line-height:125%;letter-spacing:0px;word-spacing:0px;fill:#000000;font-family:FreeSans"
       xml:space="preserve"
       font-size="48px"
       line-height="125%"
       y="838.08514"
       x="613.39978"
       sodipodi:linespacing="125%"><tspan
         id="tspan5138-2"
         y="838.08514"
         x="613.39978" /></text>
    <g
       id="g5888"
       transform="translate(180.96,-65.062)">
      <g
         id="g5935">
        <path
           id="path5745"
           d="M 216.36,340.18 195.32,281.09"
           transform="translate(-180.96,65.062)"
           inkscape:connector-curvature="0"
           style="fill:none;stroke:#000000;stroke-width:1px;marker-end:url(#Arrow1Mend-5)" />
        <path
           id="path11133"
           d="M 409.15,298.5 V 257.317"
           inkscape:connector-curvature="0"
           style="fill:none;stroke:#000000;stroke-width:1px;marker-end:url(#Arrow1Mend)" />
        <path
           id="path11113"
           d="M 238.19,299.16 V 257.977"
           inkscape:connector-curvature="0"
           style="fill:none;stroke:#000000;stroke-width:1px;marker-end:url(#Arrow1Mend)" />
        <path
           id="path11093"
           d="M 56.054,299.84 V 258.657"
           inkscape:connector-curvature="0"
           style="fill:none;stroke:#000000;stroke-width:1px;marker-end:url(#Arrow1Mend)" />
        <path
           id="path4207"
           d="m 253.85,415.22 h 56.104"
           stroke-miterlimit="3"
           inkscape:connector-curvature="0"
           style="fill:none;stroke:#000000;stroke-width:0.83322001;stroke-miterlimit:3;marker-end:url(#Arrow1Mend)" />
        <path
           id="path4147"
           d="M 261.12,401.83 389.09,313.3"
           inkscape:connector-curvature="0"
           style="fill:none;stroke:#000000;stroke-width:0.73354px" />
        <path
           id="path4145"
           d="m 226.38,324.3 v 65.434"
           inkscape:connector-curvature="0"
           style="fill:none;stroke:#000000;stroke-width:0.73354px" />
        <path
           id="path4143"
           d="m 74.678,409.53 h 130.28"
           inkscape:connector-curvature="0"
           style="fill:none;stroke:#000000;stroke-width:0.73354px" />
        <path
           id="path4141"
           d="M 255.33,306.7 H 385.61"
           inkscape:connector-curvature="0"
           style="fill:none;stroke:#000000;stroke-width:0.73354px" />
        <path
           id="path4139"
           d="m 48.043,324.85 v 65.434"
           inkscape:connector-curvature="0"
           style="fill:none;stroke:#000000;stroke-width:0.73354px" />
        <path
           id="path4135"
           d="m 74.099,307.8 h 130.28"
           inkscape:connector-curvature="0"
           style="fill:none;stroke:#000000;stroke-width:0.73354px" />
        <g
           id="g5103"
           transform="matrix(0.24825,0,0,0.23575,-220.51,251.16)">
          <path
             id="path5070"
             d="m 51.789,625.96 82.843,-81.324 h 135.88 l -83.198,81.324 z"
             transform="matrix(1.3571,0,0,1.3571,895.91,-503.35)"
             inkscape:connector-curvature="0"
             style="fill:#4d4d4d;stroke:#000000;stroke-width:1px;filter:url(#filter5066)" />
          <g
             id="g4916"
             transform="translate(264.76,34.823)">
            <path
               id="path4918"
               d="m 785.71,118.97 -56.595,55.714 c -13.78,13.566 -14.306,19.132 -14.306,37.313 v 32.272 c -2.6592,52.948 4.6283,54.857 49.695,54.857 h 107.79 c 19.516,0 24.204,-2.2219 37.227,-15.041 l 48.47,-47.709 c 17.801,-17.521 18.863,-31.451 18.863,-52.778 v -39.372 c 0,-38.514 -11.312,-36.789 -41.308,-36.789 h -118.11 c -16.409,0 -20.823,0.8042 -31.72,11.532 z"
               inkscape:connector-curvature="0"
               style="fill:url(#linearGradient5307);stroke:#000000;stroke-width:2.05609989" />
            <path
               id="path4920"
               d="m 754.82,188.76 h 95.525 c 42.501,0 43.89,9.7125 43.89,43.244 v 29.69 c 0,42.939 -17.176,37.435 -49.699,37.435 h -81.325 c -44.393,0 -48.408,-5.681 -48.408,-41.308 v -29.045 c 0,-39.879 7.8844,-40.017 40.017,-40.017 z"
               inkscape:connector-curvature="0"
               style="fill:#ececec;stroke:#000000;stroke-width:2.05609989" />
            <path
               id="path4922"
               d="m 777.99,170.16 c 0,0 6.558,8.0583 23.479,9.0804 16.921,1.0221 49.978,-10.538 39.949,-34.39 -3.8382,16.999 -35.223,28.185 -40.054,15.983 l 11.687,-4.6633 -38.897,-1.5406 -7.8491,20.194 z m 47.931,-50.957 c 0,0 -18.258,-0.10479 -31.258,6.9215 -13,7.02629 -15.007,25.757 32.804,30.172 -26.78,-7.9534 -25.238,-25.814 -0.97646,-23.424 l 0.28488,6.8345 28.489,-16.451 -29.629,-10.888 z m 63.511,35.007 c 0,0 8.9226,-8.8418 1.6918,-16.207 -7.2308,-7.3651 -42.103,-11.16 -73.389,11.37 28.008,-11.794 61.438,-8.3552 45.277,3.0546 l -13.21,-0.89124 17.86,16.299 34.981,-12.734 z"
               inkscape:connector-curvature="0"
               style="fill:#0097e1;filter:url(#filter6096)" />
            <text
               id="text4924"
               style="font-size:5.75699997px;font-weight:500;line-height:125%;letter-spacing:0px;word-spacing:0px;fill:#000000;font-family:Round Up"
               font-weight="500"
               xml:space="preserve"
               font-size="5.757px"
               line-height="125%"
               y="256.41434"
               x="785.99768"
               sodipodi:linespacing="125%"><tspan
                 id="tspan4926"
                 font-weight="bold"
                 font-size="41.121px"
                 y="256.41434"
                 x="785.99768"
                 style="font-size:41.12099838px;font-weight:bold;fill:#000000;font-family:FreeSans">A</tspan></text>
            <path
               id="path4928"
               d="m 714.91,266.19 47.156,0.14073 h 107.79 c 19.516,0 24.295,-1.8096 37.227,-14.721 l 69.77,-69.654"
               inkscape:connector-curvature="0"
               style="fill:none;stroke:#000000;stroke-width:2.05609989;stroke-dasharray:8.22422762, 4.11211381" />
            <path
               id="path4930"
               d="m 714.91,220.95 47.156,0.14072 h 107.79 c 19.516,0 24.295,-1.8096 37.227,-14.721 l 69.77,-69.654"
               inkscape:connector-curvature="0"
               style="fill:none;stroke:#000000;stroke-width:2.05609989;stroke-dasharray:8.22422762, 4.11211381" />
          </g>
        </g>
        <g
           id="g4033"
           transform="matrix(0.24825,0,0,0.23575,-44.485,251.16)">
          <path
             id="path4035"
             d="m 51.789,625.96 82.843,-81.324 h 135.88 l -83.198,81.324 z"
             transform="matrix(1.3571,0,0,1.3571,895.91,-503.35)"
             inkscape:connector-curvature="0"
             style="fill:#4d4d4d;stroke:#000000;stroke-width:1px;filter:url(#filter5066)" />
          <g
             id="g4037"
             transform="translate(264.76,34.823)">
            <path
               id="path4039"
               d="m 785.71,118.97 -56.595,55.714 c -13.78,13.566 -14.306,19.132 -14.306,37.313 v 32.272 c -2.6592,52.948 4.6283,54.857 49.695,54.857 h 107.79 c 19.516,0 24.204,-2.2219 37.227,-15.041 l 48.47,-47.709 c 17.801,-17.521 18.863,-31.451 18.863,-52.778 v -39.372 c 0,-38.514 -11.312,-36.789 -41.308,-36.789 h -118.11 c -16.409,0 -20.823,0.8042 -31.72,11.532 z"
               inkscape:connector-curvature="0"
               style="fill:url(#linearGradient5309);stroke:#000000;stroke-width:2.05609989" />
            <path
               id="path4041"
               d="m 754.82,188.76 h 95.525 c 42.501,0 43.89,9.7125 43.89,43.244 v 29.69 c 0,42.939 -17.176,37.435 -49.699,37.435 h -81.325 c -44.393,0 -48.408,-5.681 -48.408,-41.308 v -29.045 c 0,-39.879 7.8844,-40.017 40.017,-40.017 z"
               inkscape:connector-curvature="0"
               style="fill:#ececec;stroke:#000000;stroke-width:2.05609989" />
            <path
               id="path4043"
               d="m 777.99,170.16 c 0,0 6.558,8.0583 23.479,9.0804 16.921,1.0221 49.978,-10.538 39.949,-34.39 -3.8382,16.999 -35.223,28.185 -40.054,15.983 l 11.687,-4.6633 -38.897,-1.5406 -7.8491,20.194 z m 47.931,-50.957 c 0,0 -18.258,-0.10479 -31.258,6.9215 -13,7.02629 -15.007,25.757 32.804,30.172 -26.78,-7.9534 -25.238,-25.814 -0.97646,-23.424 l 0.28488,6.8345 28.489,-16.451 -29.629,-10.888 z m 63.511,35.007 c 0,0 8.9226,-8.8418 1.6918,-16.207 -7.2308,-7.3651 -42.103,-11.16 -73.389,11.37 28.008,-11.794 61.438,-8.3552 45.277,3.0546 l -13.21,-0.89124 17.86,16.299 34.981,-12.734 z"
               inkscape:connector-curvature="0"
               style="fill:#0097e1;filter:url(#filter6096)" />
            <text
               id="text4045"
               style="font-size:5.75699997px;font-weight:500;line-height:125%;letter-spacing:0px;word-spacing:0px;fill:#000000;font-family:Round Up"
               font-weight="500"
               font-size="5.757px"
               line-height="125%"
               y="256.41434"
               x="785.99768"
               xml:space="preserve"
               sodipodi:linespacing="125%"><tspan
                 id="tspan4047"
                 font-weight="bold"
                 font-size="41.121px"
                 y="256.41434"
                 x="785.99768"
                 style="font-size:41.12099838px;font-weight:bold;fill:#000000;font-family:FreeSans">B</tspan></text>
            <path
               id="path4049"
               d="m 714.91,266.19 47.156,0.14073 h 107.79 c 19.516,0 24.295,-1.8096 37.227,-14.721 l 69.77,-69.654"
               inkscape:connector-curvature="0"
               style="fill:none;stroke:#000000;stroke-width:2.05609989;stroke-dasharray:8.22422762, 4.11211381" />
            <path
               id="path4051"
               d="m 714.91,220.95 47.156,0.14072 h 107.79 c 19.516,0 24.295,-1.8096 37.227,-14.721 l 69.77,-69.654"
               inkscape:connector-curvature="0"
               style="fill:none;stroke:#000000;stroke-width:2.05609989;stroke-dasharray:8.22422762, 4.11211381" />
          </g>
        </g>
        <g
           id="g4059"
           transform="matrix(0.24825,0,0,0.23575,131.54,251.16)">
          <path
             id="path4061"
             d="m 51.789,625.96 82.843,-81.324 h 135.88 l -83.198,81.324 z"
             transform="matrix(1.3571,0,0,1.3571,895.91,-503.35)"
             inkscape:connector-curvature="0"
             style="fill:#4d4d4d;stroke:#000000;stroke-width:1px;filter:url(#filter5066)" />
          <g
             id="g4063"
             transform="translate(264.76,34.823)">
            <path
               id="path4065"
               d="m 785.71,118.97 -56.595,55.714 c -13.78,13.566 -14.306,19.132 -14.306,37.313 v 32.272 c -2.6592,52.948 4.6283,54.857 49.695,54.857 h 107.79 c 19.516,0 24.204,-2.2219 37.227,-15.041 l 48.47,-47.709 c 17.801,-17.521 18.863,-31.451 18.863,-52.778 v -39.372 c 0,-38.514 -11.312,-36.789 -41.308,-36.789 h -118.11 c -16.409,0 -20.823,0.8042 -31.72,11.532 z"
               inkscape:connector-curvature="0"
               style="fill:url(#linearGradient5311);stroke:#000000;stroke-width:2.05609989" />
            <path
               id="path4067"
               d="m 754.82,188.76 h 95.525 c 42.501,0 43.89,9.7125 43.89,43.244 v 29.69 c 0,42.939 -17.176,37.435 -49.699,37.435 h -81.325 c -44.393,0 -48.408,-5.681 -48.408,-41.308 v -29.045 c 0,-39.879 7.8844,-40.017 40.017,-40.017 z"
               inkscape:connector-curvature="0"
               style="fill:#ececec;stroke:#000000;stroke-width:2.05609989" />
            <path
               id="path4069"
               d="m 777.99,170.16 c 0,0 6.558,8.0583 23.479,9.0804 16.921,1.0221 49.978,-10.538 39.949,-34.39 -3.8382,16.999 -35.223,28.185 -40.054,15.983 l 11.687,-4.6633 -38.897,-1.5406 -7.8491,20.194 z m 47.931,-50.957 c 0,0 -18.258,-0.10479 -31.258,6.9215 -13,7.02629 -15.007,25.757 32.804,30.172 -26.78,-7.9534 -25.238,-25.814 -0.97646,-23.424 l 0.28488,6.8345 28.489,-16.451 -29.629,-10.888 z m 63.511,35.007 c 0,0 8.9226,-8.8418 1.6918,-16.207 -7.2308,-7.3651 -42.103,-11.16 -73.389,11.37 28.008,-11.794 61.438,-8.3552 45.277,3.0546 l -13.21,-0.89124 17.86,16.299 34.981,-12.734 z"
               inkscape:connector-curvature="0"
               style="fill:#0097e1;filter:url(#filter6096)" />
            <text
               id="text4071"
               style="font-size:5.75699997px;font-weight:500;line-height:125%;letter-spacing:0px;word-spacing:0px;fill:#000000;font-family:Round Up"
               font-weight="500"
               xml:space="preserve"
               font-size="5.757px"
               line-height="125%"
               y="256.41434"
               x="785.99768"
               sodipodi:linespacing="125%"><tspan
                 id="tspan4073"
                 font-weight="bold"
                 font-size="41.121px"
                 y="256.41434"
                 x="785.99768"
                 style="font-size:41.12099838px;font-weight:bold;fill:#000000;font-family:FreeSans">C</tspan></text>
            <path
               id="path4075"
               d="m 714.91,266.19 47.156,0.14073 h 107.79 c 19.516,0 24.295,-1.8096 37.227,-14.721 l 69.77,-69.654"
               inkscape:connector-curvature="0"
               style="fill:none;stroke:#000000;stroke-width:2.05609989;stroke-dasharray:8.22422762, 4.11211381" />
            <path
               id="path4077"
               d="m 714.91,220.95 47.156,0.14072 h 107.79 c 19.516,0 24.295,-1.8096 37.227,-14.721 l 69.77,-69.654"
               inkscape:connector-curvature="0"
               style="fill:none;stroke:#000000;stroke-width:2.05609989;stroke-dasharray:8.22422762, 4.11211381" />
          </g>
        </g>
        <g
           id="g4085"
           transform="matrix(0.24825,0,0,0.23575,-220.51,352.34)">
          <path
             id="path4087"
             d="m 51.789,625.96 82.843,-81.324 h 135.88 l -83.198,81.324 z"
             transform="matrix(1.3571,0,0,1.3571,895.91,-503.35)"
             inkscape:connector-curvature="0"
             style="fill:#4d4d4d;stroke:#000000;stroke-width:1px;filter:url(#filter5066)" />
          <g
             id="g4089"
             transform="translate(264.76,34.823)">
            <path
               id="path4091"
               d="m 785.71,118.97 -56.595,55.714 c -13.78,13.566 -14.306,19.132 -14.306,37.313 v 32.272 c -2.6592,52.948 4.6283,54.857 49.695,54.857 h 107.79 c 19.516,0 24.204,-2.2219 37.227,-15.041 l 48.47,-47.709 c 17.801,-17.521 18.863,-31.451 18.863,-52.778 v -39.372 c 0,-38.514 -11.312,-36.789 -41.308,-36.789 h -118.11 c -16.409,0 -20.823,0.8042 -31.72,11.532 z"
               inkscape:connector-curvature="0"
               style="fill:url(#linearGradient5313);stroke:#000000;stroke-width:2.05609989" />
            <path
               id="path4093"
               d="m 754.82,188.76 h 95.525 c 42.501,0 43.89,9.7125 43.89,43.244 v 29.69 c 0,42.939 -17.176,37.435 -49.699,37.435 h -81.325 c -44.393,0 -48.408,-5.681 -48.408,-41.308 v -29.045 c 0,-39.879 7.8844,-40.017 40.017,-40.017 z"
               inkscape:connector-curvature="0"
               style="fill:#ececec;stroke:#000000;stroke-width:2.05609989" />
            <path
               id="path4095"
               d="m 777.99,170.16 c 0,0 6.558,8.0583 23.479,9.0804 16.921,1.0221 49.978,-10.538 39.949,-34.39 -3.8382,16.999 -35.223,28.185 -40.054,15.983 l 11.687,-4.6633 -38.897,-1.5406 -7.8491,20.194 z m 47.931,-50.957 c 0,0 -18.258,-0.10479 -31.258,6.9215 -13,7.02629 -15.007,25.757 32.804,30.172 -26.78,-7.9534 -25.238,-25.814 -0.97646,-23.424 l 0.28488,6.8345 28.489,-16.451 -29.629,-10.888 z m 63.511,35.007 c 0,0 8.9226,-8.8418 1.6918,-16.207 -7.2308,-7.3651 -42.103,-11.16 -73.389,11.37 28.008,-11.794 61.438,-8.3552 45.277,3.0546 l -13.21,-0.89124 17.86,16.299 34.981,-12.734 z"
               inkscape:connector-curvature="0"
               style="fill:#0097e1;filter:url(#filter6096)" />
            <text
               id="text4097"
               style="font-size:5.75699997px;font-weight:500;line-height:125%;letter-spacing:0px;word-spacing:0px;fill:#000000;font-family:Round Up"
               font-weight="500"
               font-size="5.757px"
               line-height="125%"
               y="256.41434"
               x="785.99768"
               xml:space="preserve"
               sodipodi:linespacing="125%"><tspan
                 id="tspan4099"
                 font-weight="bold"
                 font-size="41.121px"
                 y="256.41434"
                 x="785.99768"
                 style="font-size:41.12099838px;font-weight:bold;fill:#000000;font-family:FreeSans">D</tspan></text>
            <path
               id="path4101"
               d="m 714.91,266.19 47.156,0.14073 h 107.79 c 19.516,0 24.295,-1.8096 37.227,-14.721 l 69.77,-69.654"
               inkscape:connector-curvature="0"
               style="fill:none;stroke:#000000;stroke-width:2.05609989;stroke-dasharray:8.22422762, 4.11211381" />
            <path
               id="path4103"
               d="m 714.91,220.95 47.156,0.14072 h 107.79 c 19.516,0 24.295,-1.8096 37.227,-14.721 l 69.77,-69.654"
               inkscape:connector-curvature="0"
               style="fill:none;stroke:#000000;stroke-width:2.05609989;stroke-dasharray:8.22422762, 4.11211381" />
          </g>
        </g>
        <g
           id="g4109"
           transform="matrix(0.24825,0,0,0.23575,-44.485,352.34)">
          <path
             id="path4111"
             d="m 51.789,625.96 82.843,-81.324 h 135.88 l -83.198,81.324 z"
             transform="matrix(1.3571,0,0,1.3571,895.91,-503.35)"
             inkscape:connector-curvature="0"
             style="fill:#4d4d4d;stroke:#000000;stroke-width:1px;filter:url(#filter5066)" />
          <g
             id="g4113"
             transform="translate(264.76,34.823)">
            <path
               id="path4115"
               d="m 785.71,118.97 -56.595,55.714 c -13.78,13.566 -14.306,19.132 -14.306,37.313 v 32.272 c -2.6592,52.948 4.6283,54.857 49.695,54.857 h 107.79 c 19.516,0 24.204,-2.2219 37.227,-15.041 l 48.47,-47.709 c 17.801,-17.521 18.863,-31.451 18.863,-52.778 v -39.372 c 0,-38.514 -11.312,-36.789 -41.308,-36.789 h -118.11 c -16.409,0 -20.823,0.8042 -31.72,11.532 z"
               inkscape:connector-curvature="0"
               style="fill:url(#linearGradient5345);stroke:#000000;stroke-width:2.05609989" />
            <path
               id="path4117"
               d="m 754.82,188.76 h 95.525 c 42.501,0 43.89,9.7125 43.89,43.244 v 29.69 c 0,42.939 -17.176,37.435 -49.699,37.435 h -81.325 c -44.393,0 -48.408,-5.681 -48.408,-41.308 v -29.045 c 0,-39.879 7.8844,-40.017 40.017,-40.017 z"
               inkscape:connector-curvature="0"
               style="fill:#ececec;stroke:#000000;stroke-width:2.05609989" />
            <path
               id="path4119"
               d="m 777.99,170.16 c 0,0 6.558,8.0583 23.479,9.0804 16.921,1.0221 49.978,-10.538 39.949,-34.39 -3.8382,16.999 -35.223,28.185 -40.054,15.983 l 11.687,-4.6633 -38.897,-1.5406 -7.8491,20.194 z m 47.931,-50.957 c 0,0 -18.258,-0.10479 -31.258,6.9215 -13,7.02629 -15.007,25.757 32.804,30.172 -26.78,-7.9534 -25.238,-25.814 -0.97646,-23.424 l 0.28488,6.8345 28.489,-16.451 -29.629,-10.888 z m 63.511,35.007 c 0,0 8.9226,-8.8418 1.6918,-16.207 -7.2308,-7.3651 -42.103,-11.16 -73.389,11.37 28.008,-11.794 61.438,-8.3552 45.277,3.0546 l -13.21,-0.89124 17.86,16.299 34.981,-12.734 z"
               inkscape:connector-curvature="0"
               style="fill:#0097e1;filter:url(#filter6096)" />
            <text
               id="text4121"
               style="font-size:5.75699997px;font-weight:500;line-height:125%;letter-spacing:0px;word-spacing:0px;fill:#ff0000;font-family:Round Up"
               font-weight="500"
               xml:space="preserve"
               font-size="5.757px"
               line-height="125%"
               y="256.41434"
               x="785.99768"
               sodipodi:linespacing="125%"><tspan
                 id="tspan4123"
                 font-weight="bold"
                 font-size="41.121px"
                 y="256.41434"
                 x="785.99768"
                 style="font-size:41.12099838px;font-weight:bold;fill:#000000;font-family:FreeSans">E</tspan></text>
            <path
               id="path4125"
               d="m 714.91,266.19 47.156,0.14073 h 107.79 c 19.516,0 24.295,-1.8096 37.227,-14.721 l 69.77,-69.654"
               inkscape:connector-curvature="0"
               style="fill:none;stroke:#000000;stroke-width:2.05609989;stroke-dasharray:8.22422762, 4.11211381" />
            <path
               id="path4127"
               d="m 714.91,220.95 47.156,0.14072 h 107.79 c 19.516,0 24.295,-1.8096 37.227,-14.721 l 69.77,-69.654"
               inkscape:connector-curvature="0"
               style="fill:none;stroke:#000000;stroke-width:2.05609989;stroke-dasharray:8.22422762, 4.11211381" />
          </g>
        </g>
        <g
           id="g5259"
           transform="translate(18,16)">
          <rect
             id="rect11117"
             height="94.753998"
             width="70.027"
             stroke-miterlimit="0"
             y="145.57001"
             x="126.69"
             style="fill:none;stroke:#000000;stroke-width:0.45778;stroke-miterlimit:0" />
          <text
             id="text11119"
             style="font-size:9.94789982px;line-height:125%;letter-spacing:0px;word-spacing:0px;fill:#000000;font-family:FreeSans"
             font-size="9.9479px"
             line-height="125%"
             y="158.8093"
             x="133.67477"
             xml:space="preserve"
             sodipodi:linespacing="125%"><tspan
               id="tspan4232"
               y="158.8093"
               x="133.67477">Links</tspan><tspan
               id="tspan5073"
               y="171.24422"
               x="133.67477">A-B, B-A : 1</tspan><tspan
               id="tspan5075"
               y="183.67914"
               x="133.67477">B-E, E-B : 1</tspan><tspan
               id="tspan5077"
               y="196.11407"
               x="133.67477">B-C, C-B : 1</tspan><tspan
               id="tspan5079"
               y="208.549"
               x="133.67477">E-D, D-E : 1</tspan><tspan
               id="tspan5081"
               y="220.98392"
               x="133.67477">E-C, C-E : 1</tspan><tspan
               id="tspan5083"
               y="233.41884"
               x="133.67477">A-D, D-A : 1</tspan></text>
          <rect
             id="rect11127"
             height="94.336998"
             width="106.60191"
             stroke-miterlimit="0"
             y="145.52"
             x="197.81"
             style="fill:none;stroke:#000000;stroke-width:0.56356722;stroke-miterlimit:0" />
          <text
             id="text11129"
             style="font-size:9.94789982px;line-height:125%;letter-spacing:0px;word-spacing:0px;fill:#000000;font-family:FreeSans"
             xml:space="preserve"
             font-size="9.9479px"
             line-height="125%"
             y="158.92867"
             x="201.7908"
             sodipodi:linespacing="125%"><tspan
               id="tspan4234"
               y="158.92867"
               x="201.7908">LSPs</tspan><tspan
               id="tspan5087"
               y="171.36359"
               x="201.7908">E-0 [D:1];[B:1];[C:1]</tspan><tspan
               id="tspan5089"
               y="183.79851"
               x="201.7908">A-0 [D:1];[B:1]</tspan><tspan
               id="tspan5091"
               y="196.23344"
               x="201.7908">B-0 [A:1] [C:1] [E:1]</tspan><tspan
               id="tspan5093"
               y="208.66837"
               x="201.7908">C-0 [B:1] [E:1]</tspan><tspan
               id="tspan5095"
               y="221.10329"
               x="201.7908">D-0 [A:1] [E:1]</tspan><tspan
               id="tspan5097"
               y="233.53821"
               x="201.7908" /></text>
        </g>
        <g
           id="g5279"
           transform="translate(-162.3,16)">
          <rect
             id="rect5281"
             height="94.753998"
             width="70.027"
             stroke-miterlimit="0"
             y="145.57001"
             x="126.69"
             style="fill:none;stroke:#000000;stroke-width:0.45778;stroke-miterlimit:0" />
          <text
             id="text5283"
             style="font-size:9.94789982px;line-height:125%;letter-spacing:0px;word-spacing:0px;fill:#000000;font-family:FreeSans"
             xml:space="preserve"
             font-size="9.9479px"
             line-height="125%"
             y="158.8093"
             x="133.67477"
             sodipodi:linespacing="125%"><tspan
               id="tspan5297"
               y="158.8093"
               x="133.67477">Links</tspan><tspan
               id="tspan5458"
               y="171.24422"
               x="133.67477">A-B, B-A : 1</tspan><tspan
               id="tspan5460"
               y="183.67914"
               x="133.67477">B-E, E-B : 1</tspan><tspan
               id="tspan5462"
               y="196.11407"
               x="133.67477">B-C, C-B : 1</tspan><tspan
               id="tspan5464"
               y="208.549"
               x="133.67477">E-D, D-E : 1</tspan><tspan
               id="tspan5466"
               y="220.98392"
               x="133.67477">E-C, C-E : 1</tspan><tspan
               id="tspan5468"
               y="233.41884"
               x="133.67477">A-D, D-A : 1</tspan></text>
          <rect
             id="rect5299"
             height="94.336998"
             width="106.60191"
             stroke-miterlimit="0"
             y="145.52"
             x="197.81"
             style="fill:none;stroke:#000000;stroke-width:0.56356722;stroke-miterlimit:0" />
          <text
             id="text5301"
             style="font-size:9.94789982px;line-height:125%;letter-spacing:0px;word-spacing:0px;fill:#000000;font-family:FreeSans"
             font-size="9.9479px"
             line-height="125%"
             y="158.92867"
             x="201.7908"
             xml:space="preserve"
             sodipodi:linespacing="125%"><tspan
               id="tspan5315"
               y="158.92867"
               x="201.7908">LSPs</tspan><tspan
               id="tspan5497"
               y="171.36359"
               x="201.7908">E-0 [D:1];[B:1];[C:1]</tspan><tspan
               id="tspan5499"
               y="183.79851"
               x="201.7908">A-0 [D:1];[B:1]</tspan><tspan
               id="tspan5501"
               y="196.23344"
               x="201.7908">B-0 [A:1] [C:1] [E:1]</tspan><tspan
               id="tspan5503"
               y="208.66837"
               x="201.7908">C-0 [B:1] [E:1]</tspan><tspan
               id="tspan5505"
               y="221.10329"
               x="201.7908">D-0 [A:1] [E:1]</tspan><tspan
               id="tspan5507"
               y="233.53821"
               x="201.7908" /></text>
        </g>
        <g
           id="g5317"
           transform="translate(203.31,16)">
          <rect
             id="rect5319"
             height="94.753998"
             width="70.027"
             stroke-miterlimit="0"
             y="145.57001"
             x="126.69"
             style="fill:none;stroke:#000000;stroke-width:0.45778;stroke-miterlimit:0" />
          <text
             id="text5321"
             style="font-size:9.94789982px;line-height:125%;letter-spacing:0px;word-spacing:0px;fill:#000000;font-family:FreeSans"
             xml:space="preserve"
             font-size="9.9479px"
             line-height="125%"
             y="158.8093"
             x="133.67477"
             sodipodi:linespacing="125%"><tspan
               id="tspan5335"
               y="158.8093"
               x="133.67477">Links</tspan><tspan
               id="tspan5536"
               y="171.24422"
               x="133.67477">A-B, B-A : 1</tspan><tspan
               id="tspan5538"
               y="183.67914"
               x="133.67477">B-E, E-B : 1</tspan><tspan
               id="tspan5540"
               y="196.11407"
               x="133.67477">B-C, C-B : 1</tspan><tspan
               id="tspan5542"
               y="208.549"
               x="133.67477">E-D, D-E : 1</tspan><tspan
               id="tspan5544"
               y="220.98392"
               x="133.67477">E-C, C-E : 1</tspan><tspan
               id="tspan5546"
               y="233.41884"
               x="133.67477">A-D, D-A : 1</tspan></text>
          <rect
             id="rect5337"
             height="94.336998"
             width="110.86237"
             stroke-miterlimit="0"
             y="145.52"
             x="197.81"
             style="fill:none;stroke:#000000;stroke-width:0.57471865;stroke-miterlimit:0" />
          <text
             id="text5339"
             style="font-size:9.94789982px;line-height:125%;letter-spacing:0px;word-spacing:0px;fill:#000000;font-family:FreeSans"
             font-size="9.9479px"
             line-height="125%"
             y="158.92867"
             x="201.7908"
             xml:space="preserve"
             sodipodi:linespacing="125%"><tspan
               id="tspan5353"
               y="158.92867"
               x="201.7908">LSPs</tspan><tspan
               id="tspan5575"
               y="171.36359"
               x="201.7908">E-0 [D:1];[B:1];[C:1]</tspan><tspan
               id="tspan5577"
               y="183.79851"
               x="201.7908">A-0 [D:1];[B:1]</tspan><tspan
               id="tspan5579"
               y="196.23344"
               x="201.7908">B-0 [A:1] [C:1] [E:1]</tspan><tspan
               id="tspan5581"
               y="208.66837"
               x="201.7908">C-0 [B:1] [E:1]</tspan><tspan
               id="tspan5583"
               y="221.10329"
               x="201.7908">D-0 [A:1] [E:1]</tspan><tspan
               id="tspan5585"
               y="233.53821"
               x="201.7908" /></text>
        </g>
        <g
           id="g5355"
           transform="matrix(0.99592347,0,0,1,186.79646,234.49023)">
          <rect
             id="rect5357"
             height="94.753998"
             width="70.027"
             stroke-miterlimit="0"
             y="145.57001"
             x="126.69"
             style="fill:none;stroke:#000000;stroke-width:0.45778;stroke-miterlimit:0" />
          <text
             id="text5359"
             style="font-size:9.94789982px;line-height:125%;letter-spacing:0px;word-spacing:0px;fill:#000000;font-family:FreeSans"
             xml:space="preserve"
             font-size="9.9479px"
             line-height="125%"
             y="158.8093"
             x="133.67477"
             sodipodi:linespacing="125%"><tspan
               id="tspan5373"
               y="158.8093"
               x="133.67477">Links</tspan><tspan
               id="tspan5692"
               y="171.24422"
               x="133.67477">A-B, B-A : 1</tspan><tspan
               id="tspan5694"
               y="183.67914"
               x="133.67477">B-E, E-B : 1</tspan><tspan
               id="tspan5696"
               y="196.11407"
               x="133.67477">B-C, C-B : 1</tspan><tspan
               id="tspan5698"
               y="208.549"
               x="133.67477">E-D, D-E : 1</tspan><tspan
               id="tspan5700"
               y="220.98392"
               x="133.67477">E-C, C-E : 1</tspan><tspan
               id="tspan5702"
               y="233.41884"
               x="133.67477">A-D, D-A : 1</tspan></text>
          <rect
             id="rect5375"
             height="94.336998"
             width="108.0243"
             stroke-miterlimit="0"
             y="145.52"
             x="197.81"
             style="fill:none;stroke:#000000;stroke-width:0.56731462;stroke-miterlimit:0" />
          <text
             id="text5377"
             style="font-size:9.94789982px;line-height:125%;letter-spacing:0px;word-spacing:0px;fill:#000000;font-family:FreeSans"
             font-size="9.9479px"
             line-height="125%"
             y="158.92867"
             x="201.7908"
             xml:space="preserve"
             sodipodi:linespacing="125%"><tspan
               id="tspan5391"
               y="158.92867"
               x="201.7908">LSPs</tspan><tspan
               id="tspan5731"
               y="171.36359"
               x="201.7908">E-0 [D:1];[B:1];[C:1]</tspan><tspan
               id="tspan5733"
               y="183.79851"
               x="201.7908">A-0 [D:1];[B:1]</tspan><tspan
               id="tspan5735"
               y="196.23344"
               x="201.7908">B-0 [A:1] [C:1] [E:1]</tspan><tspan
               id="tspan5737"
               y="208.66837"
               x="201.7908">C-0 [B:1] [E:1]</tspan><tspan
               id="tspan5739"
               y="221.10329"
               x="201.7908">D-0 [A:1] [E:1]</tspan><tspan
               id="tspan5741"
               y="233.53821"
               x="201.7908" /></text>
        </g>
        <g
           id="g5393"
           transform="translate(-291.85121,151.84932)">
          <rect
             id="rect5395"
             height="94.753998"
             width="70.027"
             stroke-miterlimit="0"
             y="145.57001"
             x="126.69"
             style="fill:none;stroke:#000000;stroke-width:0.45778;stroke-miterlimit:0" />
          <text
             id="text5397"
             style="font-size:9.94789982px;line-height:125%;letter-spacing:0px;word-spacing:0px;fill:#000000;font-family:FreeSans"
             font-size="9.9479px"
             line-height="125%"
             y="158.8093"
             x="133.67477"
             xml:space="preserve"
             sodipodi:linespacing="125%"><tspan
               id="tspan5411"
               y="158.8093"
               x="133.67477">Links</tspan><tspan
               id="tspan5614"
               y="171.24422"
               x="133.67477">A-B, B-A : 1</tspan><tspan
               id="tspan5616"
               y="183.67914"
               x="133.67477">B-E, E-B : 1</tspan><tspan
               id="tspan5618"
               y="196.11407"
               x="133.67477">B-C, C-B : 1</tspan><tspan
               id="tspan5620"
               y="208.549"
               x="133.67477">E-D, D-E : 1</tspan><tspan
               id="tspan5622"
               y="220.98392"
               x="133.67477">E-C, C-E : 1</tspan><tspan
               id="tspan5624"
               y="233.41884"
               x="133.67477">A-D, D-A : 1</tspan></text>
          <rect
             id="rect5413"
             height="94.336998"
             width="105.18176"
             stroke-miterlimit="0"
             y="145.52"
             x="197.81"
             style="fill:none;stroke:#000000;stroke-width:0.55980074;stroke-miterlimit:0" />
          <text
             id="text5415"
             style="font-size:9.94789982px;line-height:125%;letter-spacing:0px;word-spacing:0px;fill:#000000;font-family:FreeSans"
             xml:space="preserve"
             font-size="9.9479px"
             line-height="125%"
             y="158.92867"
             x="201.7908"
             sodipodi:linespacing="125%"><tspan
               id="tspan5429"
               y="158.92867"
               x="201.7908">LSPs</tspan><tspan
               id="tspan5653"
               y="171.36359"
               x="201.7908">E-0 [D:1];[B:1];[C:1]</tspan><tspan
               id="tspan5655"
               y="183.79851"
               x="201.7908">A-0 [D:1];[B:1]</tspan><tspan
               id="tspan5657"
               y="196.23344"
               x="201.7908">B-0 [A:1] [C:1] [E:1]</tspan><tspan
               id="tspan5659"
               y="208.66837"
               x="201.7908">C-0 [B:1] [E:1]</tspan><tspan
               id="tspan5661"
               y="221.10329"
               x="201.7908">D-0 [A:1] [E:1]</tspan><tspan
               id="tspan5663"
               y="233.53821"
               x="201.7908" /></text>
        </g>
      </g>
    </g>
  </g>
</svg>
