<?xml version="1.0" encoding="UTF-8" standalone="no"?>
<!-- Created with Inkscape (http://www.inkscape.org/) -->
<svg id="svg2" xmlns:rdf="http://www.w3.org/1999/02/22-rdf-syntax-ns#" xmlns="http://www.w3.org/2000/svg" viewBox="0 0 744.09 1052.4" version="1.1" xmlns:cc="http://creativecommons.org/ns#" xmlns:xlink="http://www.w3.org/1999/xlink" xmlns:dc="http://purl.org/dc/elements/1.1/">
 <defs id="defs4">
  <marker id="Arrow1Mend" refY="0.0" refX="0.0" orient="auto" overflow="visible">
   <path id="path4221" d="m0 0l5-5-17.5 5 17.5 5-5-5z" fill-rule="evenodd" transform="scale(.4) rotate(180) translate(10)" stroke="#000" stroke-width="1pt"/>
  </marker>
  <linearGradient id="linearGradient3791-7">
   <stop id="stop3793-0" stop-color="#c6c6c6" offset="0"/>
   <stop id="stop3799-2" stop-color="#fff" offset=".60029"/>
   <stop id="stop3795-9" stop-color="#a4a4a4" offset="1"/>
  </linearGradient>
  <filter id="filter6096" color-interpolation-filters="sRGB">
   <feGaussianBlur id="feGaussianBlur6098" stdDeviation="2" result="result8"/>
   <feOffset id="feOffset6100" result="result11" dx="3" dy="3"/>
   <feComposite id="feComposite6102" operator="in" result="result6" in2="result11" in="SourceGraphic"/>
   <feFlood id="feFlood6104" result="result10" in="result6" flood-color="rgb(0,0,0)"/>
   <feBlend id="feBlend6106" mode="normal" result="result12" in2="result10" in="result6"/>
   <feComposite id="feComposite6108" operator="in" result="result2" in2="SourceGraphic"/>
  </filter>
  <filter id="filter5066" height="1.3542" width="1.1317" y="-.17710" x="-.065847">
   <feGaussianBlur id="feGaussianBlur5068" stdDeviation="6.0009211"/>
  </filter>
  <marker id="Arrow1Mend-5" refY="0.0" refX="0.0" orient="auto" overflow="visible">
   <path id="path4221-9" d="m0 0l5-5-17.5 5 17.5 5-5-5z" fill-rule="evenodd" transform="scale(.4) rotate(180) translate(10)" stroke="#000" stroke-width="1pt"/>
  </marker>
  <linearGradient id="linearGradient5345" y2="237.12" xlink:href="#linearGradient3791-7" gradientUnits="userSpaceOnUse" x2="341.44" gradientTransform="translate(617.12 -.21672)" y1="66.831" x1="191.34"/>
 </defs>
 <metadata id="metadata7">
  <rdf:RDF>
   <cc:Work rdf:about="">
    <dc:format>image/svg+xml</dc:format>
    <dc:type rdf:resource="http://purl.org/dc/dcmitype/StillImage"/>
    <dc:title/>
   </cc:Work>
  </rdf:RDF>
 </metadata>
 <g id="layer1">
  <text id="text5136" style="word-spacing:0px;letter-spacing:0px" font-size="48px" line-height="125%" y="292.91492" x="610.57544" font-family="FreeSans" xml:space="preserve" fill="#000000"><tspan id="tspan5138" x="610.57544" y="292.91492"/></text>
  <text id="text5136-3" style="word-spacing:0px;letter-spacing:0px" xml:space="preserve" font-size="48px" line-height="125%" y="838.08514" x="613.39978" font-family="FreeSans" fill="#000000"><tspan id="tspan5138-2" y="838.08514" x="613.39978"/></text>
  <g id="g5888" transform="translate(180.96 -65.062)">
   <g id="g7898">
    <path id="path7708" marker-end="url(#Arrow1Mend-5)" d="m450.09 316.45 94.617-64.392" transform="translate(-180.96 65.062)" stroke="#000" stroke-width="1px" fill="none"/>
    <path id="path5745" marker-end="url(#Arrow1Mend-5)" d="m35.399 405.25-21.034-59.1" stroke="#000" stroke-width="1px" fill="none"/>
    <path id="path11133" marker-end="url(#Arrow1Mend)" d="m409.15 298.5v-41.183" stroke="#000" stroke-width="1px" fill="none"/>
    <path id="path11113" marker-end="url(#Arrow1Mend)" d="m238.19 299.16v-41.183" stroke="#000" stroke-width="1px" fill="none"/>
    <path id="path11093" marker-end="url(#Arrow1Mend)" d="m56.054 299.84v-41.183" stroke="#000" stroke-width="1px" fill="none"/>
    <path id="path4207" marker-end="url(#Arrow1Mend)" d="m253.85 415.22h56.104" stroke="#000" stroke-miterlimit="3" stroke-width=".83322" fill="none"/>
    <path id="path4147" d="m261.12 401.83 127.97-88.53" stroke="#000" stroke-width=".73354px" fill="none"/>
    <path id="path4145" d="m226.38 324.3v65.434" stroke="#000" stroke-width=".73354px" fill="none"/>
    <path id="path4143" d="m74.678 409.53h130.28" stroke="#000" stroke-width=".73354px" fill="none"/>
    <path id="path4141" d="m255.33 306.7h130.28" stroke="#000" stroke-width=".73354px" fill="none"/>
    <path id="path4139" d="m48.043 324.85v65.434" stroke="#000" stroke-width=".73354px" fill="none"/>
    <path id="path4135" d="m74.099 307.8h130.28" stroke="#000" stroke-width=".73354px" fill="none"/>
    <g id="g5103" transform="matrix(.24825 0 0 .23575 -220.51 251.16)">
     <path id="path5070" d="m51.789 625.96 82.843-81.324h135.88l-83.198 81.324z" transform="matrix(1.3571 0 0 1.3571 895.91 -503.35)" filter="url(#filter5066)" stroke="#000" stroke-width="1px" fill="#4d4d4d"/>
     <g id="g4916" transform="translate(264.76 34.823)">
      <path id="path4918" d="m785.71 118.97-56.595 55.714c-13.78 13.566-14.306 19.132-14.306 37.313v32.272c-2.6592 52.948 4.6283 54.857 49.695 54.857h107.79c19.516 0 24.204-2.2219 37.227-15.041l48.47-47.709c17.801-17.521 18.863-31.451 18.863-52.778v-39.372c0-38.514-11.312-36.789-41.308-36.789h-118.11c-16.409 0-20.823 0.8042-31.72 11.532z" stroke="#000" stroke-width="2.0561" fill="url(#linearGradient5345)"/>
      <path id="path4920" d="m754.82 188.76h95.525c42.501 0 43.89 9.7125 43.89 43.244v29.69c0 42.939-17.176 37.435-49.699 37.435h-81.325c-44.393 0-48.408-5.681-48.408-41.308v-29.045c0-39.879 7.8844-40.017 40.017-40.017z" stroke="#000" stroke-width="2.0561" fill="#ececec"/>
      <path id="path4922" d="m777.99 170.16s6.558 8.0583 23.479 9.0804 49.978-10.538 39.949-34.39c-3.8382 16.999-35.223 28.185-40.054 15.983l11.687-4.6633-38.897-1.5406-7.8491 20.194zm47.931-50.957s-18.258-0.10479-31.258 6.9215-15.007 25.757 32.804 30.172c-26.78-7.9534-25.238-25.814-0.97646-23.424l0.28488 6.8345 28.489-16.451-29.629-10.888zm63.511 35.007s8.9226-8.8418 1.6918-16.207c-7.2308-7.3651-42.103-11.16-73.389 11.37 28.008-11.794 61.438-8.3552 45.277 3.0546l-13.21-0.89124 17.86 16.299 34.981-12.734z" filter="url(#filter6096)" fill="#0097e1"/>
      <text id="text4924" style="word-spacing:0px;letter-spacing:0px" font-weight="500" xml:space="preserve" font-size="5.757px" line-height="125%" y="256.41434" x="785.99768" font-family="Round Up" fill="#000000"><tspan id="tspan4926" font-weight="bold" font-size="41.121px" y="256.41434" x="785.99768" font-family="FreeSans" fill="#000000">A</tspan></text>
      <path id="path4928" d="m714.91 266.19 47.156 0.14073h107.79c19.516 0 24.295-1.8096 37.227-14.721l69.77-69.654" stroke="#000" stroke-dasharray="8.22422762, 4.11211381" stroke-width="2.0561" fill="none"/>
      <path id="path4930" d="m714.91 220.95 47.156 0.14072h107.79c19.516 0 24.295-1.8096 37.227-14.721l69.77-69.654" stroke="#000" stroke-dasharray="8.22422762, 4.11211381" stroke-width="2.0561" fill="none"/>
     </g>
    </g>
    <g id="g4033" transform="matrix(.24825 0 0 .23575 -44.485 251.16)">
     <path id="path4035" d="m51.789 625.96 82.843-81.324h135.88l-83.198 81.324z" transform="matrix(1.3571 0 0 1.3571 895.91 -503.35)" filter="url(#filter5066)" stroke="#000" stroke-width="1px" fill="#4d4d4d"/>
     <g id="g4037" transform="translate(264.76 34.823)">
      <path id="path4039" d="m785.71 118.97-56.595 55.714c-13.78 13.566-14.306 19.132-14.306 37.313v32.272c-2.6592 52.948 4.6283 54.857 49.695 54.857h107.79c19.516 0 24.204-2.2219 37.227-15.041l48.47-47.709c17.801-17.521 18.863-31.451 18.863-52.778v-39.372c0-38.514-11.312-36.789-41.308-36.789h-118.11c-16.409 0-20.823 0.8042-31.72 11.532z" stroke="#000" stroke-width="2.0561" fill="url(#linearGradient5345)"/>
      <path id="path4041" d="m754.82 188.76h95.525c42.501 0 43.89 9.7125 43.89 43.244v29.69c0 42.939-17.176 37.435-49.699 37.435h-81.325c-44.393 0-48.408-5.681-48.408-41.308v-29.045c0-39.879 7.8844-40.017 40.017-40.017z" stroke="#000" stroke-width="2.0561" fill="#ececec"/>
      <path id="path4043" d="m777.99 170.16s6.558 8.0583 23.479 9.0804 49.978-10.538 39.949-34.39c-3.8382 16.999-35.223 28.185-40.054 15.983l11.687-4.6633-38.897-1.5406-7.8491 20.194zm47.931-50.957s-18.258-0.10479-31.258 6.9215-15.007 25.757 32.804 30.172c-26.78-7.9534-25.238-25.814-0.97646-23.424l0.28488 6.8345 28.489-16.451-29.629-10.888zm63.511 35.007s8.9226-8.8418 1.6918-16.207c-7.2308-7.3651-42.103-11.16-73.389 11.37 28.008-11.794 61.438-8.3552 45.277 3.0546l-13.21-0.89124 17.86 16.299 34.981-12.734z" filter="url(#filter6096)" fill="#0097e1"/>
      <text id="text4045" style="word-spacing:0px;letter-spacing:0px" font-weight="500" font-size="5.757px" line-height="125%" y="256.41434" x="785.99768" font-family="Round Up" xml:space="preserve" fill="#000000"><tspan id="tspan4047" font-weight="bold" font-size="41.121px" y="256.41434" x="785.99768" font-family="FreeSans" fill="#000000">B</tspan></text>
      <path id="path4049" d="m714.91 266.19 47.156 0.14073h107.79c19.516 0 24.295-1.8096 37.227-14.721l69.77-69.654" stroke="#000" stroke-dasharray="8.22422762, 4.11211381" stroke-width="2.0561" fill="none"/>
      <path id="path4051" d="m714.91 220.95 47.156 0.14072h107.79c19.516 0 24.295-1.8096 37.227-14.721l69.77-69.654" stroke="#000" stroke-dasharray="8.22422762, 4.11211381" stroke-width="2.0561" fill="none"/>
     </g>
    </g>
    <g id="g4059" transform="matrix(.24825 0 0 .23575 131.54 251.16)">
     <path id="path4061" d="m51.789 625.96 82.843-81.324h135.88l-83.198 81.324z" transform="matrix(1.3571 0 0 1.3571 895.91 -503.35)" filter="url(#filter5066)" stroke="#000" stroke-width="1px" fill="#4d4d4d"/>
     <g id="g4063" transform="translate(264.76 34.823)">
      <path id="path4065" d="m785.71 118.97-56.595 55.714c-13.78 13.566-14.306 19.132-14.306 37.313v32.272c-2.6592 52.948 4.6283 54.857 49.695 54.857h107.79c19.516 0 24.204-2.2219 37.227-15.041l48.47-47.709c17.801-17.521 18.863-31.451 18.863-52.778v-39.372c0-38.514-11.312-36.789-41.308-36.789h-118.11c-16.409 0-20.823 0.8042-31.72 11.532z" stroke="#000" stroke-width="2.0561" fill="url(#linearGradient5345)"/>
      <path id="path4067" d="m754.82 188.76h95.525c42.501 0 43.89 9.7125 43.89 43.244v29.69c0 42.939-17.176 37.435-49.699 37.435h-81.325c-44.393 0-48.408-5.681-48.408-41.308v-29.045c0-39.879 7.8844-40.017 40.017-40.017z" stroke="#000" stroke-width="2.0561" fill="#ececec"/>
      <path id="path4069" d="m777.99 170.16s6.558 8.0583 23.479 9.0804 49.978-10.538 39.949-34.39c-3.8382 16.999-35.223 28.185-40.054 15.983l11.687-4.6633-38.897-1.5406-7.8491 20.194zm47.931-50.957s-18.258-0.10479-31.258 6.9215-15.007 25.757 32.804 30.172c-26.78-7.9534-25.238-25.814-0.97646-23.424l0.28488 6.8345 28.489-16.451-29.629-10.888zm63.511 35.007s8.9226-8.8418 1.6918-16.207c-7.2308-7.3651-42.103-11.16-73.389 11.37 28.008-11.794 61.438-8.3552 45.277 3.0546l-13.21-0.89124 17.86 16.299 34.981-12.734z" filter="url(#filter6096)" fill="#0097e1"/>
      <text id="text4071" style="word-spacing:0px;letter-spacing:0px" font-weight="500" xml:space="preserve" font-size="5.757px" line-height="125%" y="256.41434" x="785.99768" font-family="Round Up" fill="#000000"><tspan id="tspan4073" font-weight="bold" font-size="41.121px" y="256.41434" x="785.99768" font-family="FreeSans" fill="#000000">C</tspan></text>
      <path id="path4075" d="m714.91 266.19 47.156 0.14073h107.79c19.516 0 24.295-1.8096 37.227-14.721l69.77-69.654" stroke="#000" stroke-dasharray="8.22422762, 4.11211381" stroke-width="2.0561" fill="none"/>
      <path id="path4077" d="m714.91 220.95 47.156 0.14072h107.79c19.516 0 24.295-1.8096 37.227-14.721l69.77-69.654" stroke="#000" stroke-dasharray="8.22422762, 4.11211381" stroke-width="2.0561" fill="none"/>
     </g>
    </g>
    <g id="g4085" transform="matrix(.24825 0 0 .23575 -220.51 352.34)">
     <path id="path4087" d="m51.789 625.96 82.843-81.324h135.88l-83.198 81.324z" transform="matrix(1.3571 0 0 1.3571 895.91 -503.35)" filter="url(#filter5066)" stroke="#000" stroke-width="1px" fill="#4d4d4d"/>
     <g id="g4089" transform="translate(264.76 34.823)">
      <path id="path4091" d="m785.71 118.97-56.595 55.714c-13.78 13.566-14.306 19.132-14.306 37.313v32.272c-2.6592 52.948 4.6283 54.857 49.695 54.857h107.79c19.516 0 24.204-2.2219 37.227-15.041l48.47-47.709c17.801-17.521 18.863-31.451 18.863-52.778v-39.372c0-38.514-11.312-36.789-41.308-36.789h-118.11c-16.409 0-20.823 0.8042-31.72 11.532z" stroke="#000" stroke-width="2.0561" fill="url(#linearGradient5345)"/>
      <path id="path4093" d="m754.82 188.76h95.525c42.501 0 43.89 9.7125 43.89 43.244v29.69c0 42.939-17.176 37.435-49.699 37.435h-81.325c-44.393 0-48.408-5.681-48.408-41.308v-29.045c0-39.879 7.8844-40.017 40.017-40.017z" stroke="#000" stroke-width="2.0561" fill="#ececec"/>
      <path id="path4095" d="m777.99 170.16s6.558 8.0583 23.479 9.0804 49.978-10.538 39.949-34.39c-3.8382 16.999-35.223 28.185-40.054 15.983l11.687-4.6633-38.897-1.5406-7.8491 20.194zm47.931-50.957s-18.258-0.10479-31.258 6.9215-15.007 25.757 32.804 30.172c-26.78-7.9534-25.238-25.814-0.97646-23.424l0.28488 6.8345 28.489-16.451-29.629-10.888zm63.511 35.007s8.9226-8.8418 1.6918-16.207c-7.2308-7.3651-42.103-11.16-73.389 11.37 28.008-11.794 61.438-8.3552 45.277 3.0546l-13.21-0.89124 17.86 16.299 34.981-12.734z" filter="url(#filter6096)" fill="#0097e1"/>
      <text id="text4097" style="word-spacing:0px;letter-spacing:0px" font-weight="500" font-size="5.757px" line-height="125%" y="256.41434" x="785.99768" font-family="Round Up" xml:space="preserve" fill="#000000"><tspan id="tspan4099" font-weight="bold" font-size="41.121px" y="256.41434" x="785.99768" font-family="FreeSans" fill="#000000">D</tspan></text>
      <path id="path4101" d="m714.91 266.19 47.156 0.14073h107.79c19.516 0 24.295-1.8096 37.227-14.721l69.77-69.654" stroke="#000" stroke-dasharray="8.22422762, 4.11211381" stroke-width="2.0561" fill="none"/>
      <path id="path4103" d="m714.91 220.95 47.156 0.14072h107.79c19.516 0 24.295-1.8096 37.227-14.721l69.77-69.654" stroke="#000" stroke-dasharray="8.22422762, 4.11211381" stroke-width="2.0561" fill="none"/>
     </g>
    </g>
    <g id="g4109" transform="matrix(.24825 0 0 .23575 -44.485 352.34)">
     <path id="path4111" d="m51.789 625.96 82.843-81.324h135.88l-83.198 81.324z" transform="matrix(1.3571 0 0 1.3571 895.91 -503.35)" filter="url(#filter5066)" stroke="#000" stroke-width="1px" fill="#4d4d4d"/>
     <g id="g4113" transform="translate(264.76 34.823)">
      <path id="path4115" d="m785.71 118.97-56.595 55.714c-13.78 13.566-14.306 19.132-14.306 37.313v32.272c-2.6592 52.948 4.6283 54.857 49.695 54.857h107.79c19.516 0 24.204-2.2219 37.227-15.041l48.47-47.709c17.801-17.521 18.863-31.451 18.863-52.778v-39.372c0-38.514-11.312-36.789-41.308-36.789h-118.11c-16.409 0-20.823 0.8042-31.72 11.532z" stroke="#000" stroke-width="2.0561" fill="url(#linearGradient5345)"/>
      <path id="path4117" d="m754.82 188.76h95.525c42.501 0 43.89 9.7125 43.89 43.244v29.69c0 42.939-17.176 37.435-49.699 37.435h-81.325c-44.393 0-48.408-5.681-48.408-41.308v-29.045c0-39.879 7.8844-40.017 40.017-40.017z" stroke="#000" stroke-width="2.0561" fill="#ececec"/>
      <path id="path4119" d="m777.99 170.16s6.558 8.0583 23.479 9.0804 49.978-10.538 39.949-34.39c-3.8382 16.999-35.223 28.185-40.054 15.983l11.687-4.6633-38.897-1.5406-7.8491 20.194zm47.931-50.957s-18.258-0.10479-31.258 6.9215-15.007 25.757 32.804 30.172c-26.78-7.9534-25.238-25.814-0.97646-23.424l0.28488 6.8345 28.489-16.451-29.629-10.888zm63.511 35.007s8.9226-8.8418 1.6918-16.207c-7.2308-7.3651-42.103-11.16-73.389 11.37 28.008-11.794 61.438-8.3552 45.277 3.0546l-13.21-0.89124 17.86 16.299 34.981-12.734z" filter="url(#filter6096)" fill="#0097e1"/>
      <text id="text4121" style="word-spacing:0px;letter-spacing:0px" font-weight="500" xml:space="preserve" font-size="5.757px" line-height="125%" y="256.41434" x="785.99768" font-family="Round Up" fill="#ff0000"><tspan id="tspan4123" font-weight="bold" font-size="41.121px" y="256.41434" x="785.99768" font-family="FreeSans" fill="#000000">E</tspan></text>
      <path id="path4125" d="m714.91 266.19 47.156 0.14073h107.79c19.516 0 24.295-1.8096 37.227-14.721l69.77-69.654" stroke="#000" stroke-dasharray="8.22422762, 4.11211381" stroke-width="2.0561" fill="none"/>
      <path id="path4127" d="m714.91 220.95 47.156 0.14072h107.79c19.516 0 24.295-1.8096 37.227-14.721l69.77-69.654" stroke="#000" stroke-dasharray="8.22422762, 4.11211381" stroke-width="2.0561" fill="none"/>
     </g>
    </g>
    <g id="g5259" transform="translate(18,16)">
     <rect id="rect11117" height="94.754" width="70.027" stroke="#000" stroke-miterlimit="0" y="145.57" x="126.69" stroke-width=".45778" fill="none"/>
     <text id="text11119" style="word-spacing:0px;letter-spacing:0px" font-size="9.9479px" line-height="125%" y="158.8093" x="133.67477" font-family="FreeSans" xml:space="preserve" fill="#000000"><tspan id="tspan5083" y="158.8093" x="133.67477">Links</tspan><tspan id="tspan7184" y="171.24422" x="133.67477">A-B, B-A : 1</tspan><tspan id="tspan7186" y="183.67914" x="133.67477">B-E, E-B : 1</tspan><tspan id="tspan7188" y="196.11407" x="133.67477">B-C, C-B : 1</tspan><tspan id="tspan7190" y="208.549" x="133.67477">E-D, D-E : 1</tspan><tspan id="tspan7192" y="220.98392" x="133.67477">E-C, C-E : 1</tspan><tspan id="tspan7194" y="233.41884" x="133.67477">A-D, D-A : 1</tspan></text>
     <rect id="rect11127" height="94.337" width="97.102" stroke="#000" stroke-miterlimit="0" y="145.52" x="197.81" stroke-width=".53787" fill="none"/>
     <text id="text11129" style="word-spacing:0px;letter-spacing:0px" xml:space="preserve" font-size="9.9479px" line-height="125%" y="158.92867" x="201.7908" font-family="FreeSans" fill="#000000"><tspan id="tspan5097" y="158.92867" x="201.7908">LSPs</tspan><tspan id="tspan7223" y="171.36359" x="201.7908">E-0 [D:1];[B:1];[C:1]</tspan><tspan id="tspan7225" y="183.79851" x="201.7908">A-0 [D:1];[B:1]</tspan><tspan id="tspan7227" y="196.23344" x="201.7908">B-0 [A:1] [C:1] [E:1]</tspan><tspan id="tspan7229" y="208.66837" x="201.7908">C-0 [B:1] [E:1]</tspan><tspan id="tspan7231" y="221.10329" x="201.7908">D-0 [A:1] [E:1]</tspan><tspan id="tspan7233" y="233.53821" x="201.7908"/></text>
    </g>
    <g id="g5279" transform="translate(-162.3 16)">
     <rect id="rect5281" height="94.754" width="70.027" stroke="#000" stroke-miterlimit="0" y="145.57" x="126.69" stroke-width=".45778" fill="none"/>
     <text id="text5283" style="word-spacing:0px;letter-spacing:0px" xml:space="preserve" font-size="9.9479px" line-height="125%" y="158.8093" x="133.67477" font-family="FreeSans" fill="#000000"><tspan id="tspan5468" y="158.8093" x="133.67477">Links</tspan><tspan id="tspan7106" y="171.24422" x="133.67477">A-B, B-A : 1</tspan><tspan id="tspan7108" y="183.67914" x="133.67477">B-E, E-B : 1</tspan><tspan id="tspan7110" y="196.11407" x="133.67477">B-C, C-B : 1</tspan><tspan id="tspan7112" y="208.549" x="133.67477">E-D, D-E : 1</tspan><tspan id="tspan7114" y="220.98392" x="133.67477">E-C, C-E : 1</tspan><tspan id="tspan7116" y="233.41884" x="133.67477">A-D, D-A : 1</tspan></text>
     <rect id="rect5299" height="94.337" width="97.102" stroke="#000" stroke-miterlimit="0" y="145.52" x="197.81" stroke-width=".53787" fill="none"/>
     <text id="text5301" style="word-spacing:0px;letter-spacing:0px" font-size="9.9479px" line-height="125%" y="158.92867" x="201.7908" font-family="FreeSans" xml:space="preserve" fill="#000000"><tspan id="tspan5507" y="158.92867" x="201.7908">LSPs</tspan><tspan id="tspan7145" y="171.36359" x="201.7908">E-0 [D:1];[B:1];[C:1]</tspan><tspan id="tspan7147" y="183.79851" x="201.7908">A-0 [D:1];[B:1]</tspan><tspan id="tspan7149" y="196.23344" x="201.7908">B-0 [A:1] [C:1] [E:1]</tspan><tspan id="tspan7151" y="208.66837" x="201.7908">C-0 [B:1] [E:1]</tspan><tspan id="tspan7153" y="221.10329" x="201.7908">D-0 [A:1] [E:1]</tspan><tspan id="tspan7155" y="233.53821" x="201.7908"/></text>
    </g>
    <g id="g5317" transform="translate(203.31 16)">
     <rect id="rect5319" height="94.754" width="70.027" stroke="#000" stroke-miterlimit="0" y="145.57" x="126.69" stroke-width=".45778" fill="none"/>
     <text id="text5321" style="word-spacing:0px;letter-spacing:0px" xml:space="preserve" font-size="9.9479px" line-height="125%" y="158.8093" x="133.67477" font-family="FreeSans" fill="#000000"><tspan id="tspan5546" y="158.8093" x="133.67477">Links</tspan><tspan id="tspan7262" y="171.24422" x="133.67477">A-B, B-A : 1</tspan><tspan id="tspan7264" y="183.67914" x="133.67477">B-E, E-B : 1</tspan><tspan id="tspan7266" y="196.11407" x="133.67477">B-C, C-B : 1</tspan><tspan id="tspan7268" y="208.549" x="133.67477">E-D, D-E : 1</tspan><tspan id="tspan7270" y="220.98392" x="133.67477">E-C, C-E : 1</tspan><tspan id="tspan7272" y="233.41884" x="133.67477">A-D, D-A : 1</tspan></text>
     <rect id="rect5337" height="94.337" width="97.102" stroke="#000" stroke-miterlimit="0" y="145.52" x="197.81" stroke-width=".53787" fill="none"/>
     <text id="text5339" style="word-spacing:0px;letter-spacing:0px" font-size="9.9479px" line-height="125%" y="158.92867" x="201.7908" font-family="FreeSans" xml:space="preserve" fill="#000000"><tspan id="tspan5585" y="158.92867" x="201.7908">LSPs</tspan><tspan id="tspan7301" y="171.36359" x="201.7908">E-0 [D:1];[B:1];[C:1]</tspan><tspan id="tspan7303" y="183.79851" x="201.7908">A-0 [D:1];[B:1]</tspan><tspan id="tspan7305" y="196.23344" x="201.7908">B-0 [A:1] [C:1] [E:1]</tspan><tspan id="tspan7307" y="208.66837" x="201.7908">C-0 [B:1] [E:1]</tspan><tspan id="tspan7309" y="221.10329" x="201.7908">D-0 [A:1] [E:1]</tspan><tspan id="tspan7311" y="233.53821" x="201.7908"/></text>
    </g>
    <g id="g5355" transform="translate(186.28 232.36)">
     <rect id="rect5357" height="94.754" width="70.027" stroke="#000" stroke-miterlimit="0" y="145.57" x="126.69" stroke-width=".45778" fill="none"/>
     <text id="text5359" style="word-spacing:0px;letter-spacing:0px" xml:space="preserve" font-size="9.9479px" line-height="125%" y="158.8093" x="133.67477" font-family="FreeSans" fill="#000000"><tspan id="tspan5702" y="158.8093" x="133.67477">Links</tspan><tspan id="tspan7457" y="171.24422" x="133.67477">A-B, B-A : 1</tspan><tspan id="tspan7459" y="183.67914" x="133.67477">B-E, E-B : 1</tspan><tspan id="tspan7461" y="196.11407" x="133.67477">B-C, C-B : 1</tspan><tspan id="tspan7463" y="208.549" x="133.67477">E-D, D-E : 1</tspan><tspan id="tspan7465" y="220.98392" x="133.67477">E-C, C-E : 1</tspan><tspan id="tspan7467" y="233.41884" x="133.67477">A-D, D-A : 1</tspan></text>
     <rect id="rect5375" height="94.337" width="97.102" stroke="#000" stroke-miterlimit="0" y="145.52" x="197.81" stroke-width=".53787" fill="none"/>
     <text id="text5377" style="word-spacing:0px;letter-spacing:0px" line-height="125%" y="158.92867" x="201.7908" font-family="FreeSans" xml:space="preserve"><tspan id="tspan5741" font-size="9.9479px" y="158.92867" x="201.7908" fill="#000000">LSPs</tspan><tspan id="tspan7418" font-size="9.9479px" y="171.36359" x="201.7908" fill="#ff0000">E-1 [D:1];[C:1]</tspan><tspan id="tspan7420" font-size="9.9479px" y="183.79851" x="201.7908" fill="#000000">A-0 [D:1];[B:1]</tspan><tspan id="tspan7422" font-size="9.9479px" y="196.23344" x="201.7908" fill="#000000">B-0 [A:1] [C:1] [E:1]</tspan><tspan id="tspan7424" font-size="9.9479px" y="208.66837" x="201.7908" fill="#000000">C-0 [B:1] [E:1]</tspan><tspan id="tspan7426" font-size="9.9479px" y="221.10329" x="201.7908" fill="#000000">D-0 [A:1] [E:1]</tspan><tspan id="tspan7428" font-size="9.9479px" y="233.53821" x="201.7908" fill="#000000"/></text>
    </g>
    <g id="g5393" transform="translate(-280.49 158.24)">
     <rect id="rect5395" height="94.754" width="70.027" stroke="#000" stroke-miterlimit="0" y="145.57" x="126.69" stroke-width=".45778" fill="none"/>
     <text id="text5397" style="word-spacing:0px;letter-spacing:0px" font-size="9.9479px" line-height="125%" y="158.8093" x="133.67477" font-family="FreeSans" xml:space="preserve" fill="#000000"><tspan id="tspan5624" y="158.8093" x="133.67477">Links</tspan><tspan id="tspan7379" y="171.24422" x="133.67477">A-B, B-A : 1</tspan><tspan id="tspan7381" y="183.67914" x="133.67477">B-E, E-B : 1</tspan><tspan id="tspan7383" y="196.11407" x="133.67477">B-C, C-B : 1</tspan><tspan id="tspan7385" y="208.549" x="133.67477">E-D, D-E : 1</tspan><tspan id="tspan7387" y="220.98392" x="133.67477">E-C, C-E : 1</tspan><tspan id="tspan7389" y="233.41884" x="133.67477">A-D, D-A : 1</tspan></text>
     <rect id="rect5413" height="94.337" width="97.102" stroke="#000" stroke-miterlimit="0" y="145.52" x="197.81" stroke-width=".53787" fill="none"/>
     <text id="text5415" style="word-spacing:0px;letter-spacing:0px" xml:space="preserve" font-size="9.9479px" line-height="125%" y="158.92867" x="201.7908" font-family="FreeSans" fill="#000000"><tspan id="tspan5663" y="158.92867" x="201.7908">LSPs</tspan><tspan id="tspan7340" y="171.36359" x="201.7908">E-0 [D:1];[B:1];[C:1]</tspan><tspan id="tspan7342" y="183.79851" x="201.7908">A-0 [D:1];[B:1]</tspan><tspan id="tspan7344" y="196.23344" x="201.7908">B-0 [A:1] [C:1] [E:1]</tspan><tspan id="tspan7346" y="208.66837" x="201.7908">C-0 [B:1] [E:1]</tspan><tspan id="tspan7348" y="221.10329" x="201.7908">D-0 [A:1] [E:1]</tspan><tspan id="tspan7350" y="233.53821" x="201.7908"/></text>
    </g>
    <path id="path2" d="m220.21 339.44 0.46914-0.28149 0.18766 0.18766q0.18765 0.18765 0.93827 3.0025t2.158 5.3482 1.7827 2.5334h0.37531l0.75062-0.93828q0.75062-0.93827 1.4074-1.7827 0.65679-0.84445 1.2198-1.5951 0.56297-0.75062 0.84445-1.0321l0.28149-0.28149 0.93827-0.18765q0.93828-0.18766 3.5654 0.28148l2.6272 0.46914-0.28148 1.1259q-0.28148 1.1259-1.2198 2.2519-0.93827 1.1259-1.5012 1.8766-0.56297 0.75062-1.6889 2.0642t-1.6889 2.0642q-0.56297 0.75062-0.56297 1.3136v0.56297l1.2198 1.0321q1.2198 1.0321 3.6593 2.158t6.9432 2.2519l4.5037 1.1259-2.0642 1.1259q-2.0642 1.1259-3.1901 1.5012-1.1259 0.37531-3.1901 0.18766-2.0642-0.18766-4.879-0.93828t-3.9408-1.3136q-1.1259-0.56297-2.2519-1.3136-1.1259-0.75062-1.6889-0.75062h-0.56297l-2.2519 2.0642q-2.2519 2.0642-3.3778 2.8148-1.1259 0.75062-2.0642 1.5012-0.93828 0.75062-2.6272 1.5012-1.6889 0.75062-2.2519 0.75062h-0.56296l0.28148-0.46914q0.28148-0.46914 1.0321-1.5951 0.75062-1.1259 1.5012-2.0642 0.75062-0.93827 1.6889-2.4395t1.8766-2.6272q0.93828-1.1259 1.6889-2.2519l0.75062-1.1259-0.18765-0.75062q-0.18766-0.75062-0.75063-1.5012-0.56296-0.75062-2.0642-3.5654t-2.2519-4.6914q-0.75062-1.8766-0.75062-2.4395v-0.56296l2.3457-2.158q2.3457-2.158 2.8148-2.4395z" fill-rule="evenodd" stroke-width="0px" fill="#8f0000"/>
    <path id="path7473" opacity=".62888" d="m341.91 412.67h32.053" stroke="#fd0000" stroke-width="4.1527px" fill="none"/>
    <rect id="rect7493" opacity=".62888" stroke-opacity=".98667" transform="translate(-180.96 65.062)" height="4.6098" width="2.3049" stroke="#0e0000" y="450.79" x="504.77" stroke-width="0.7" fill="none"/>
    <g id="g7499">
     <rect id="rect7491" stroke-opacity=".98667" height="16.598" width="97.958" stroke="#0e0000" stroke-miterlimit="3.3" y="420.2" x="88.713" stroke-width=".40455" fill="none"/>
     <text id="text7495" style="word-spacing:0px;letter-spacing:0px" font-weight="bold" xml:space="preserve" font-size="9.9479px" y="431.44809" x="93.037689" font-family="FreeSans" line-height="125%" fill="#000000"><tspan id="tspan7497" x="93.037689" y="431.44809">LSP : E-1 [D:1];[C:1]</tspan></text>
    </g>
    <rect id="rect7506" stroke-opacity=".98667" height="16.598" width="97.958" stroke="#0e0000" stroke-miterlimit="3.3" y="348.58" x="295.03" stroke-width=".40455" fill="#fff"/>
    <text id="text7508" style="word-spacing:0px;letter-spacing:0px" font-weight="bold" xml:space="preserve" font-size="9.9479px" y="359.82794" x="299.35626" font-family="FreeSans" line-height="125%" fill="#000000"><tspan id="tspan7510" x="299.35626" y="359.82794">LSP : E-1 [D:1];[C:1]</tspan></text>
    <path id="path7518" marker-end="url(#Arrow1Mend-5)" d="m376.5 335.5h-104.47" transform="translate(-180.96 65.062)" stroke="#000" stroke-width="1px" fill="none"/>
   </g>
  </g>
 </g>
</svg>
