<?xml version="1.0" encoding="UTF-8" standalone="no"?>
<!-- Created with Inkscape (http://www.inkscape.org/) -->
<svg id="svg2" xmlns:rdf="http://www.w3.org/1999/02/22-rdf-syntax-ns#" xmlns="http://www.w3.org/2000/svg" viewBox="0 0 744.09 1052.4" version="1.1" xmlns:cc="http://creativecommons.org/ns#" xmlns:xlink="http://www.w3.org/1999/xlink" xmlns:dc="http://purl.org/dc/elements/1.1/">
 <defs id="defs4">
  <marker id="Arrow1Mend" refY="0.0" refX="0.0" orient="auto" overflow="visible">
   <path id="path4221" d="m0 0l5-5-17.5 5 17.5 5-5-5z" fill-rule="evenodd" transform="scale(.4) rotate(180) translate(10)" stroke="#000" stroke-width="1pt"/>
  </marker>
  <linearGradient id="linearGradient3791-7">
   <stop id="stop3793-0" stop-color="#c6c6c6" offset="0"/>
   <stop id="stop3799-2" stop-color="#fff" offset=".60029"/>
   <stop id="stop3795-9" stop-color="#a4a4a4" offset="1"/>
  </linearGradient>
  <filter id="filter6096" color-interpolation-filters="sRGB">
   <feGaussianBlur id="feGaussianBlur6098" stdDeviation="2" result="result8"/>
   <feOffset id="feOffset6100" result="result11" dx="3" dy="3"/>
   <feComposite id="feComposite6102" operator="in" result="result6" in2="result11" in="SourceGraphic"/>
   <feFlood id="feFlood6104" result="result10" in="result6" flood-color="rgb(0,0,0)"/>
   <feBlend id="feBlend6106" mode="normal" result="result12" in2="result10" in="result6"/>
   <feComposite id="feComposite6108" operator="in" result="result2" in2="SourceGraphic"/>
  </filter>
  <filter id="filter5066" height="1.3542" width="1.1317" y="-.17710" x="-.065847">
   <feGaussianBlur id="feGaussianBlur5068" stdDeviation="6.0009211"/>
  </filter>
  <marker id="Arrow1Mend-5" refY="0.0" refX="0.0" orient="auto" overflow="visible">
   <path id="path4221-9" d="m0 0l5-5-17.5 5 17.5 5-5-5z" fill-rule="evenodd" transform="scale(.4) rotate(180) translate(10)" stroke="#000" stroke-width="1pt"/>
  </marker>
  <marker id="Arrow1Mstart-3" refY="0.0" refX="0.0" orient="auto" overflow="visible">
   <path id="path4218-6" d="m0 0l5-5-17.5 5 17.5 5-5-5z" fill-rule="evenodd" transform="scale(.4) translate(10)" stroke="#000" stroke-width="1pt"/>
  </marker>
  <linearGradient id="linearGradient5345" y2="237.12" xlink:href="#linearGradient3791-7" gradientUnits="userSpaceOnUse" x2="341.44" gradientTransform="translate(617.12 -.21672)" y1="66.831" x1="191.34"/>
 </defs>
 <metadata id="metadata7">
  <rdf:RDF>
   <cc:Work rdf:about="">
    <dc:format>image/svg+xml</dc:format>
    <dc:type rdf:resource="http://purl.org/dc/dcmitype/StillImage"/>
    <dc:title/>
   </cc:Work>
  </rdf:RDF>
 </metadata>
 <g id="layer1">
  <text id="text5136" style="word-spacing:0px;letter-spacing:0px" font-size="48px" line-height="125%" y="292.91492" x="610.57544" font-family="FreeSans" xml:space="preserve" fill="#000000"><tspan id="tspan5138" x="610.57544" y="292.91492"/></text>
  <text id="text5136-3" style="word-spacing:0px;letter-spacing:0px" xml:space="preserve" font-size="48px" line-height="125%" y="838.08514" x="613.39978" font-family="FreeSans" fill="#000000"><tspan id="tspan5138-2" y="838.08514" x="613.39978"/></text>
  <g id="g5888" transform="translate(180.96 -65.062)">
   <g id="g10754">
    <path id="path8834" marker-end="url(#Arrow1Mend)" d="m378.32 291.25v-41.183" stroke="#000" stroke-width="1px" fill="none"/>
    <g id="g10533" transform="translate(0,10)">
     <rect id="rect8838" height="72.438" width="49.686" stroke="#000" stroke-miterlimit="0" y="165.39" x="355.36" stroke-width=".33715" fill="none"/>
     <text id="text8840" style="word-spacing:0px;letter-spacing:0px" xml:space="preserve" font-size="9.9479px" line-height="125%" y="178.71188" x="362.47577" font-family="FreeSans"><tspan id="tspan8846" y="178.71188" x="362.47577" fill="#000000">Links</tspan><tspan id="tspan10497" y="191.1468" x="362.47577" fill="#000000">B-C : 1</tspan><tspan id="tspan10499" y="203.58173" x="362.47577" fill="#000000">C-E : 1</tspan><tspan id="tspan10501" y="216.01666" x="362.47577" fill="#0000ff">B-E : 1</tspan><tspan id="tspan10503" y="228.45158" x="362.47577" fill="#0000ff">D-E : 1</tspan></text>
    </g>
    <path id="path4839" marker-end="url(#Arrow1Mend)" d="m207.53 292.12v-41.183" stroke="#000" stroke-width="1px" fill="none"/>
    <path id="path4843" marker-end="url(#Arrow1Mend)" d="m7.8333 292.45-30.304-38.85" stroke="#000" stroke-width="1px" fill="none"/>
    <path id="path4841" marker-end="url(#Arrow1Mend)" d="m7.0562 399.68-30.304-39.63" stroke="#000" stroke-width="1px" fill="none"/>
    <path id="path4207" marker-end="url(#Arrow1Mend)" d="m223.85 415.22h56.104" stroke="#000" stroke-miterlimit="3" stroke-width=".83322" fill="none"/>
    <path id="path4147" d="m231.12 401.83 127.97-88.53" stroke="#000" stroke-width=".73354px" fill="none"/>
    <path id="path4145" d="m196.38 324.3v65.434" stroke="#000" stroke-width=".73354px" fill="none"/>
    <path id="path4143" d="m44.678 409.53h130.28" stroke="#000" stroke-width=".73354px" fill="none"/>
    <path id="path4141" d="m225.33 306.7h130.28" stroke="#000" stroke-width=".73354px" fill="none"/>
    <path id="path4139" d="m18.043 324.85v65.434" stroke="#000" stroke-width=".73354px" fill="none"/>
    <path id="path4135" d="m44.099 307.8h130.28" stroke="#000" stroke-width=".73354px" fill="none"/>
    <g id="g5103" transform="matrix(.24825 0 0 .23575 -250.51 251.16)">
     <path id="path5070" d="m51.789 625.96 82.843-81.324h135.88l-83.198 81.324z" transform="matrix(1.3571 0 0 1.3571 895.91 -503.35)" filter="url(#filter5066)" stroke="#000" stroke-width="1px" fill="#4d4d4d"/>
     <g id="g4916" transform="translate(264.76 34.823)">
      <path id="path4918" d="m785.71 118.97-56.595 55.714c-13.78 13.566-14.306 19.132-14.306 37.313v32.272c-2.6592 52.948 4.6283 54.857 49.695 54.857h107.79c19.516 0 24.204-2.2219 37.227-15.041l48.47-47.709c17.801-17.521 18.863-31.451 18.863-52.778v-39.372c0-38.514-11.312-36.789-41.308-36.789h-118.11c-16.409 0-20.823 0.8042-31.72 11.532z" stroke="#000" stroke-width="2.0561" fill="url(#linearGradient5345)"/>
      <path id="path4920" d="m754.82 188.76h95.525c42.501 0 43.89 9.7125 43.89 43.244v29.69c0 42.939-17.176 37.435-49.699 37.435h-81.325c-44.393 0-48.408-5.681-48.408-41.308v-29.045c0-39.879 7.8844-40.017 40.017-40.017z" stroke="#000" stroke-width="2.0561" fill="#ececec"/>
      <path id="path4922" d="m777.99 170.16s6.558 8.0583 23.479 9.0804 49.978-10.538 39.949-34.39c-3.8382 16.999-35.223 28.185-40.054 15.983l11.687-4.6633-38.897-1.5406-7.8491 20.194zm47.931-50.957s-18.258-0.10479-31.258 6.9215-15.007 25.757 32.804 30.172c-26.78-7.9534-25.238-25.814-0.97646-23.424l0.28488 6.8345 28.489-16.451-29.629-10.888zm63.511 35.007s8.9226-8.8418 1.6918-16.207c-7.2308-7.3651-42.103-11.16-73.389 11.37 28.008-11.794 61.438-8.3552 45.277 3.0546l-13.21-0.89124 17.86 16.299 34.981-12.734z" filter="url(#filter6096)" fill="#0097e1"/>
      <text id="text4924" style="word-spacing:0px;letter-spacing:0px" font-weight="500" xml:space="preserve" font-size="5.757px" line-height="125%" y="256.41434" x="785.99768" font-family="Round Up" fill="#000000"><tspan id="tspan4926" font-weight="bold" font-size="41.121px" y="256.41434" x="785.99768" font-family="FreeSans" fill="#000000">A</tspan></text>
      <path id="path4928" d="m714.91 266.19 47.156 0.14073h107.79c19.516 0 24.295-1.8096 37.227-14.721l69.77-69.654" stroke="#000" stroke-dasharray="8.22422762, 4.11211381" stroke-width="2.0561" fill="none"/>
      <path id="path4930" d="m714.91 220.95 47.156 0.14072h107.79c19.516 0 24.295-1.8096 37.227-14.721l69.77-69.654" stroke="#000" stroke-dasharray="8.22422762, 4.11211381" stroke-width="2.0561" fill="none"/>
     </g>
    </g>
    <g id="g4033" transform="matrix(.24825 0 0 .23575 -74.485 251.16)">
     <path id="path4035" d="m51.789 625.96 82.843-81.324h135.88l-83.198 81.324z" transform="matrix(1.3571 0 0 1.3571 895.91 -503.35)" filter="url(#filter5066)" stroke="#000" stroke-width="1px" fill="#4d4d4d"/>
     <g id="g4037" transform="translate(264.76 34.823)">
      <path id="path4039" d="m785.71 118.97-56.595 55.714c-13.78 13.566-14.306 19.132-14.306 37.313v32.272c-2.6592 52.948 4.6283 54.857 49.695 54.857h107.79c19.516 0 24.204-2.2219 37.227-15.041l48.47-47.709c17.801-17.521 18.863-31.451 18.863-52.778v-39.372c0-38.514-11.312-36.789-41.308-36.789h-118.11c-16.409 0-20.823 0.8042-31.72 11.532z" stroke="#000" stroke-width="2.0561" fill="url(#linearGradient5345)"/>
      <path id="path4041" d="m754.82 188.76h95.525c42.501 0 43.89 9.7125 43.89 43.244v29.69c0 42.939-17.176 37.435-49.699 37.435h-81.325c-44.393 0-48.408-5.681-48.408-41.308v-29.045c0-39.879 7.8844-40.017 40.017-40.017z" stroke="#000" stroke-width="2.0561" fill="#ececec"/>
      <path id="path4043" d="m777.99 170.16s6.558 8.0583 23.479 9.0804 49.978-10.538 39.949-34.39c-3.8382 16.999-35.223 28.185-40.054 15.983l11.687-4.6633-38.897-1.5406-7.8491 20.194zm47.931-50.957s-18.258-0.10479-31.258 6.9215-15.007 25.757 32.804 30.172c-26.78-7.9534-25.238-25.814-0.97646-23.424l0.28488 6.8345 28.489-16.451-29.629-10.888zm63.511 35.007s8.9226-8.8418 1.6918-16.207c-7.2308-7.3651-42.103-11.16-73.389 11.37 28.008-11.794 61.438-8.3552 45.277 3.0546l-13.21-0.89124 17.86 16.299 34.981-12.734z" filter="url(#filter6096)" fill="#0097e1"/>
      <text id="text4045" style="word-spacing:0px;letter-spacing:0px" font-weight="500" font-size="5.757px" line-height="125%" y="256.41434" x="785.99768" font-family="Round Up" xml:space="preserve" fill="#000000"><tspan id="tspan4047" font-weight="bold" font-size="41.121px" y="256.41434" x="785.99768" font-family="FreeSans" fill="#ff0000">B</tspan></text>
      <path id="path4049" d="m714.91 266.19 47.156 0.14073h107.79c19.516 0 24.295-1.8096 37.227-14.721l69.77-69.654" stroke="#000" stroke-dasharray="8.22422762, 4.11211381" stroke-width="2.0561" fill="none"/>
      <path id="path4051" d="m714.91 220.95 47.156 0.14072h107.79c19.516 0 24.295-1.8096 37.227-14.721l69.77-69.654" stroke="#000" stroke-dasharray="8.22422762, 4.11211381" stroke-width="2.0561" fill="none"/>
     </g>
    </g>
    <g id="g4059" transform="matrix(.24825 0 0 .23575 101.54 251.16)">
     <path id="path4061" d="m51.789 625.96 82.843-81.324h135.88l-83.198 81.324z" transform="matrix(1.3571 0 0 1.3571 895.91 -503.35)" filter="url(#filter5066)" stroke="#000" stroke-width="1px" fill="#4d4d4d"/>
     <g id="g4063" transform="translate(264.76 34.823)">
      <path id="path4065" d="m785.71 118.97-56.595 55.714c-13.78 13.566-14.306 19.132-14.306 37.313v32.272c-2.6592 52.948 4.6283 54.857 49.695 54.857h107.79c19.516 0 24.204-2.2219 37.227-15.041l48.47-47.709c17.801-17.521 18.863-31.451 18.863-52.778v-39.372c0-38.514-11.312-36.789-41.308-36.789h-118.11c-16.409 0-20.823 0.8042-31.72 11.532z" stroke="#000" stroke-width="2.0561" fill="url(#linearGradient5345)"/>
      <path id="path4067" d="m754.82 188.76h95.525c42.501 0 43.89 9.7125 43.89 43.244v29.69c0 42.939-17.176 37.435-49.699 37.435h-81.325c-44.393 0-48.408-5.681-48.408-41.308v-29.045c0-39.879 7.8844-40.017 40.017-40.017z" stroke="#000" stroke-width="2.0561" fill="#ececec"/>
      <path id="path4069" d="m777.99 170.16s6.558 8.0583 23.479 9.0804 49.978-10.538 39.949-34.39c-3.8382 16.999-35.223 28.185-40.054 15.983l11.687-4.6633-38.897-1.5406-7.8491 20.194zm47.931-50.957s-18.258-0.10479-31.258 6.9215-15.007 25.757 32.804 30.172c-26.78-7.9534-25.238-25.814-0.97646-23.424l0.28488 6.8345 28.489-16.451-29.629-10.888zm63.511 35.007s8.9226-8.8418 1.6918-16.207c-7.2308-7.3651-42.103-11.16-73.389 11.37 28.008-11.794 61.438-8.3552 45.277 3.0546l-13.21-0.89124 17.86 16.299 34.981-12.734z" filter="url(#filter6096)" fill="#0097e1"/>
      <text id="text4071" style="word-spacing:0px;letter-spacing:0px" font-weight="500" xml:space="preserve" font-size="5.757px" line-height="125%" y="256.41434" x="785.99768" font-family="Round Up" fill="#000000"><tspan id="tspan4073" font-weight="bold" font-size="41.121px" y="256.41434" x="785.99768" font-family="FreeSans" fill="#000000">C</tspan></text>
      <path id="path4075" d="m714.91 266.19 47.156 0.14073h107.79c19.516 0 24.295-1.8096 37.227-14.721l69.77-69.654" stroke="#000" stroke-dasharray="8.22422762, 4.11211381" stroke-width="2.0561" fill="none"/>
      <path id="path4077" d="m714.91 220.95 47.156 0.14072h107.79c19.516 0 24.295-1.8096 37.227-14.721l69.77-69.654" stroke="#000" stroke-dasharray="8.22422762, 4.11211381" stroke-width="2.0561" fill="none"/>
     </g>
    </g>
    <g id="g4085" transform="matrix(.24825 0 0 .23575 -250.51 352.34)">
     <path id="path4087" d="m51.789 625.96 82.843-81.324h135.88l-83.198 81.324z" transform="matrix(1.3571 0 0 1.3571 895.91 -503.35)" filter="url(#filter5066)" stroke="#000" stroke-width="1px" fill="#4d4d4d"/>
     <g id="g4089" transform="translate(264.76 34.823)">
      <path id="path4091" d="m785.71 118.97-56.595 55.714c-13.78 13.566-14.306 19.132-14.306 37.313v32.272c-2.6592 52.948 4.6283 54.857 49.695 54.857h107.79c19.516 0 24.204-2.2219 37.227-15.041l48.47-47.709c17.801-17.521 18.863-31.451 18.863-52.778v-39.372c0-38.514-11.312-36.789-41.308-36.789h-118.11c-16.409 0-20.823 0.8042-31.72 11.532z" stroke="#000" stroke-width="2.0561" fill="url(#linearGradient5345)"/>
      <path id="path4093" d="m754.82 188.76h95.525c42.501 0 43.89 9.7125 43.89 43.244v29.69c0 42.939-17.176 37.435-49.699 37.435h-81.325c-44.393 0-48.408-5.681-48.408-41.308v-29.045c0-39.879 7.8844-40.017 40.017-40.017z" stroke="#000" stroke-width="2.0561" fill="#ececec"/>
      <path id="path4095" d="m777.99 170.16s6.558 8.0583 23.479 9.0804 49.978-10.538 39.949-34.39c-3.8382 16.999-35.223 28.185-40.054 15.983l11.687-4.6633-38.897-1.5406-7.8491 20.194zm47.931-50.957s-18.258-0.10479-31.258 6.9215-15.007 25.757 32.804 30.172c-26.78-7.9534-25.238-25.814-0.97646-23.424l0.28488 6.8345 28.489-16.451-29.629-10.888zm63.511 35.007s8.9226-8.8418 1.6918-16.207c-7.2308-7.3651-42.103-11.16-73.389 11.37 28.008-11.794 61.438-8.3552 45.277 3.0546l-13.21-0.89124 17.86 16.299 34.981-12.734z" filter="url(#filter6096)" fill="#0097e1"/>
      <text id="text4097" style="word-spacing:0px;letter-spacing:0px" font-weight="500" font-size="5.757px" line-height="125%" y="256.41434" x="785.99768" font-family="Round Up" xml:space="preserve" fill="#000000"><tspan id="tspan4099" font-weight="bold" font-size="41.121px" y="256.41434" x="785.99768" font-family="FreeSans" fill="#000000">D</tspan></text>
      <path id="path4101" d="m714.91 266.19 47.156 0.14073h107.79c19.516 0 24.295-1.8096 37.227-14.721l69.77-69.654" stroke="#000" stroke-dasharray="8.22422762, 4.11211381" stroke-width="2.0561" fill="none"/>
      <path id="path4103" d="m714.91 220.95 47.156 0.14072h107.79c19.516 0 24.295-1.8096 37.227-14.721l69.77-69.654" stroke="#000" stroke-dasharray="8.22422762, 4.11211381" stroke-width="2.0561" fill="none"/>
     </g>
    </g>
    <g id="g4109" transform="matrix(.24825 0 0 .23575 -74.485 352.34)">
     <path id="path4111" d="m51.789 625.96 82.843-81.324h135.88l-83.198 81.324z" transform="matrix(1.3571 0 0 1.3571 895.91 -503.35)" filter="url(#filter5066)" stroke="#000" stroke-width="1px" fill="#4d4d4d"/>
     <g id="g4113" transform="translate(264.76 34.823)">
      <path id="path4115" d="m785.71 118.97-56.595 55.714c-13.78 13.566-14.306 19.132-14.306 37.313v32.272c-2.6592 52.948 4.6283 54.857 49.695 54.857h107.79c19.516 0 24.204-2.2219 37.227-15.041l48.47-47.709c17.801-17.521 18.863-31.451 18.863-52.778v-39.372c0-38.514-11.312-36.789-41.308-36.789h-118.11c-16.409 0-20.823 0.8042-31.72 11.532z" stroke="#000" stroke-width="2.0561" fill="url(#linearGradient5345)"/>
      <path id="path4117" d="m754.82 188.76h95.525c42.501 0 43.89 9.7125 43.89 43.244v29.69c0 42.939-17.176 37.435-49.699 37.435h-81.325c-44.393 0-48.408-5.681-48.408-41.308v-29.045c0-39.879 7.8844-40.017 40.017-40.017z" stroke="#000" stroke-width="2.0561" fill="#ececec"/>
      <path id="path4119" d="m777.99 170.16s6.558 8.0583 23.479 9.0804 49.978-10.538 39.949-34.39c-3.8382 16.999-35.223 28.185-40.054 15.983l11.687-4.6633-38.897-1.5406-7.8491 20.194zm47.931-50.957s-18.258-0.10479-31.258 6.9215-15.007 25.757 32.804 30.172c-26.78-7.9534-25.238-25.814-0.97646-23.424l0.28488 6.8345 28.489-16.451-29.629-10.888zm63.511 35.007s8.9226-8.8418 1.6918-16.207c-7.2308-7.3651-42.103-11.16-73.389 11.37 28.008-11.794 61.438-8.3552 45.277 3.0546l-13.21-0.89124 17.86 16.299 34.981-12.734z" filter="url(#filter6096)" fill="#0097e1"/>
      <text id="text4121" style="word-spacing:0px;letter-spacing:0px" font-weight="500" xml:space="preserve" font-size="5.757px" line-height="125%" y="256.41434" x="785.99768" font-family="Round Up" fill="#000000"><tspan id="tspan4123" font-weight="bold" font-size="41.121px" y="256.41434" x="785.99768" font-family="FreeSans" fill="#000000">E</tspan></text>
      <path id="path4125" d="m714.91 266.19 47.156 0.14073h107.79c19.516 0 24.295-1.8096 37.227-14.721l69.77-69.654" stroke="#000" stroke-dasharray="8.22422762, 4.11211381" stroke-width="2.0561" fill="none"/>
      <path id="path4127" d="m714.91 220.95 47.156 0.14072h107.79c19.516 0 24.295-1.8096 37.227-14.721l69.77-69.654" stroke="#000" stroke-dasharray="8.22422762, 4.11211381" stroke-width="2.0561" fill="none"/>
     </g>
    </g>
    <g id="g8815">
     <rect id="rect3985" height="53.444" width="49.686" stroke="#000" stroke-miterlimit="0" y="208.88" x="-73.987" stroke-width=".28959" fill="none"/>
     <text id="text3987" style="word-spacing:0px;letter-spacing:0px" xml:space="preserve" font-size="9.9479px" line-height="125%" y="222.20627" x="-66.871803" font-family="FreeSans" fill="#000000"><tspan id="tspan11448" y="222.20627" x="-66.871803">Links</tspan><tspan id="tspan8778" y="234.64119" x="-66.871803">A-B : 1</tspan><tspan id="tspan8780" y="247.07611" x="-66.871803">A-D : 1</tspan></text>
    </g>
    <rect id="rect4491" height="15.939" width="120.65" stroke="#000" stroke-miterlimit="0" y="324.06" x="136.65" stroke-width=".24644" fill="#fff"/>
    <text id="text4487" style="word-spacing:0px;letter-spacing:0px" font-weight="bold" xml:space="preserve" font-size="9.9479px" y="335.22482" x="143.49239" font-family="FreeSans" line-height="125%" fill="#000000"><tspan id="tspan4489" x="143.49239" y="335.22482">LSP : E [D:1];[B:1];[C:1]</tspan></text>
    <text id="text4058" style="word-spacing:0px;letter-spacing:0px" line-height="125%" font-weight="bold" font-size="9.9479px" y="340.5304" x="-68.168602" font-family="FreeSans" xml:space="preserve"><tspan id="tspan8804" y="340.5304" x="-68.168602" fill="#000000">Links</tspan><tspan id="tspan10465" y="352.96533" x="-68.168602" fill="#000000">A-D : 1</tspan><tspan id="tspan10467" y="365.40024" x="-68.168602" fill="#000000">D-E : 1</tspan><tspan id="tspan10469" y="377.83517" x="-68.168602" fill="#0000ff">B-E : 1</tspan><tspan id="tspan10471" y="390.27008" x="-68.168602" fill="#0000ff">E-C : 1</tspan></text>
    <rect id="rect8806" height="67.929" width="49.686" stroke="#000" stroke-miterlimit="0" y="327.39" x="-75.729" stroke-width=".32649" fill="none"/>
    <g id="g10550">
     <rect id="rect8824" height="79.969" width="49.686" stroke="#000" stroke-miterlimit="0" y="168.94" x="183.06" stroke-width=".35424" fill="none"/>
     <text id="text8826" style="word-spacing:0px;letter-spacing:0px" font-size="9.9479px" line-height="125%" y="180.2645" x="190.17955" font-family="FreeSans" xml:space="preserve"><tspan id="tspan8857" y="180.2645" x="190.17955" fill="#000000">Links</tspan><tspan id="tspan10482" y="192.69942" x="190.17955" fill="#000000">A-B : 1</tspan><tspan id="tspan10484" y="205.13434" x="190.17955" fill="#000000">B-E : 1</tspan><tspan id="tspan10486" y="217.56927" x="190.17955" fill="#000000">B-C : 1</tspan><tspan id="tspan10488" y="230.00418" x="190.17955" fill="#0000ff">E-D : 1</tspan><tspan id="tspan10490" y="242.43912" x="190.17955" fill="#0000ff">E-C : 1</tspan></text>
    </g>
    <g id="g8873" transform="translate(99.335 206.51)">
     <rect id="rect8875" height="53.444" width="49.686" stroke="#000" stroke-miterlimit="0" y="194.94" x="183.06" stroke-width=".28959" fill="none"/>
     <text id="text8877" style="word-spacing:0px;letter-spacing:0px" xml:space="preserve" font-size="9.9479px" line-height="125%" y="206.2645" x="190.17955" font-family="FreeSans" fill="#000000"><tspan id="tspan8900" y="206.2645" x="190.17955">Links</tspan><tspan id="tspan10514" y="218.69942" x="190.17955">E-D : 1</tspan><tspan id="tspan10516" y="231.13434" x="190.17955">E-B : 1</tspan><tspan id="tspan10518" y="243.56927" x="190.17955">E-C : 1</tspan></text>
    </g>
    <path id="path9816" marker-end="url(#Arrow1Mend-5)" d="m165.39 314.86h-109.26" stroke="#000" stroke-width="1px" fill="none"/>
    <text id="text10202" style="word-spacing:0px;letter-spacing:0px" font-weight="bold" xml:space="preserve" font-size="9.9479px" y="369.6373" x="38.137772" font-family="FreeSans" line-height="125%" fill="#000000"><tspan id="tspan10204" x="38.137772" y="369.6373">LSP : E [D:1];[B:1];[C:1]</tspan></text>
    <rect id="rect10206" height="15.939" width="120.65" stroke="#000" stroke-miterlimit="0" y="358.47" x="31.299" stroke-width=".24644" fill="none"/>
    <text id="text10520" style="word-spacing:0px;letter-spacing:0px" line-height="125%" font-weight="bold" font-size="9.9479px" y="284.6171" x="243.12202" font-family="FreeSans" xml:space="preserve" fill="#000000"><tspan id="tspan10522" y="284.6171" x="243.12202">LSP : E [D:1];[B:1];[C:1]</tspan></text>
    <rect id="rect10524" height="15.939" width="120.65" stroke="#000" stroke-miterlimit="0" y="273.45" x="236.28" stroke-width=".24644" fill="none"/>
    <path id="path10560" marker-end="url(#Arrow1Mend-5)" d="m230.82 317.37h108.73" stroke="#000" stroke-width="1.0609px" fill="none"/>
    <path id="path10750" d="m24.855 340.13v38.266" marker-start="url(#Arrow1Mstart-3)" stroke="#000" stroke-width="1px" fill="none"/>
    <path id="path10752" marker-end="url(#Arrow1Mend-5)" d="m346.53 295.24h-109.26" stroke="#000" stroke-width="1px" fill="none"/>
   </g>
  </g>
 </g>
</svg>
